<svg xmlns="http://www.w3.org/2000/svg" xmlns:xlink="http://www.w3.org/1999/xlink" width="600" height="400" viewBox="0 0 2400 1600">
<defs>
  <clipPath id="clip260">
    <rect x="0" y="0" width="2400" height="1600"></rect>
  </clipPath>
</defs>
<path clip-path="url(#clip260)" d="M0 1600 L2400 1600 L2400 0 L0 0  Z" fill="#ffffff" fill-rule="evenodd" fill-opacity="1"></path>
<defs>
  <clipPath id="clip261">
    <rect x="480" y="0" width="1681" height="1600"></rect>
  </clipPath>
</defs>
<path clip-path="url(#clip260)" d="M203.964 1423.18 L2352.76 1423.18 L2352.76 123.472 L203.964 123.472  Z" fill="#ffffff" fill-rule="evenodd" fill-opacity="1"></path>
<defs>
  <clipPath id="clip262">
    <rect x="203" y="123" width="2150" height="1301"></rect>
  </clipPath>
</defs>
<polyline clip-path="url(#clip262)" style="stroke:#000000; stroke-linecap:round; stroke-linejoin:round; stroke-width:2; stroke-opacity:0.1; fill:none" points="264.778,1423.18 264.778,123.472 "></polyline>
<polyline clip-path="url(#clip262)" style="stroke:#000000; stroke-linecap:round; stroke-linejoin:round; stroke-width:2; stroke-opacity:0.1; fill:none" points="614.289,1423.18 614.289,123.472 "></polyline>
<polyline clip-path="url(#clip262)" style="stroke:#000000; stroke-linecap:round; stroke-linejoin:round; stroke-width:2; stroke-opacity:0.1; fill:none" points="963.8,1423.18 963.8,123.472 "></polyline>
<polyline clip-path="url(#clip262)" style="stroke:#000000; stroke-linecap:round; stroke-linejoin:round; stroke-width:2; stroke-opacity:0.1; fill:none" points="1313.31,1423.18 1313.31,123.472 "></polyline>
<polyline clip-path="url(#clip262)" style="stroke:#000000; stroke-linecap:round; stroke-linejoin:round; stroke-width:2; stroke-opacity:0.1; fill:none" points="1662.82,1423.18 1662.82,123.472 "></polyline>
<polyline clip-path="url(#clip262)" style="stroke:#000000; stroke-linecap:round; stroke-linejoin:round; stroke-width:2; stroke-opacity:0.1; fill:none" points="2012.33,1423.18 2012.33,123.472 "></polyline>
<polyline clip-path="url(#clip262)" style="stroke:#000000; stroke-linecap:round; stroke-linejoin:round; stroke-width:2; stroke-opacity:0.1; fill:none" points="203.964,1386.4 2352.76,1386.4 "></polyline>
<polyline clip-path="url(#clip262)" style="stroke:#000000; stroke-linecap:round; stroke-linejoin:round; stroke-width:2; stroke-opacity:0.1; fill:none" points="203.964,1079.86 2352.76,1079.86 "></polyline>
<polyline clip-path="url(#clip262)" style="stroke:#000000; stroke-linecap:round; stroke-linejoin:round; stroke-width:2; stroke-opacity:0.1; fill:none" points="203.964,773.326 2352.76,773.326 "></polyline>
<polyline clip-path="url(#clip262)" style="stroke:#000000; stroke-linecap:round; stroke-linejoin:round; stroke-width:2; stroke-opacity:0.1; fill:none" points="203.964,466.791 2352.76,466.791 "></polyline>
<polyline clip-path="url(#clip262)" style="stroke:#000000; stroke-linecap:round; stroke-linejoin:round; stroke-width:2; stroke-opacity:0.1; fill:none" points="203.964,160.256 2352.76,160.256 "></polyline>
<polyline clip-path="url(#clip260)" style="stroke:#000000; stroke-linecap:round; stroke-linejoin:round; stroke-width:4; stroke-opacity:1; fill:none" points="203.964,1423.18 2352.76,1423.18 "></polyline>
<polyline clip-path="url(#clip260)" style="stroke:#000000; stroke-linecap:round; stroke-linejoin:round; stroke-width:4; stroke-opacity:1; fill:none" points="264.778,1423.18 264.778,1404.28 "></polyline>
<polyline clip-path="url(#clip260)" style="stroke:#000000; stroke-linecap:round; stroke-linejoin:round; stroke-width:4; stroke-opacity:1; fill:none" points="614.289,1423.18 614.289,1404.28 "></polyline>
<polyline clip-path="url(#clip260)" style="stroke:#000000; stroke-linecap:round; stroke-linejoin:round; stroke-width:4; stroke-opacity:1; fill:none" points="963.8,1423.18 963.8,1404.28 "></polyline>
<polyline clip-path="url(#clip260)" style="stroke:#000000; stroke-linecap:round; stroke-linejoin:round; stroke-width:4; stroke-opacity:1; fill:none" points="1313.31,1423.18 1313.31,1404.28 "></polyline>
<polyline clip-path="url(#clip260)" style="stroke:#000000; stroke-linecap:round; stroke-linejoin:round; stroke-width:4; stroke-opacity:1; fill:none" points="1662.82,1423.18 1662.82,1404.28 "></polyline>
<polyline clip-path="url(#clip260)" style="stroke:#000000; stroke-linecap:round; stroke-linejoin:round; stroke-width:4; stroke-opacity:1; fill:none" points="2012.33,1423.18 2012.33,1404.28 "></polyline>
<path clip-path="url(#clip260)" d="M264.778 1454.1 Q261.167 1454.1 259.339 1457.66 Q257.533 1461.2 257.533 1468.33 Q257.533 1475.44 259.339 1479.01 Q261.167 1482.55 264.778 1482.55 Q268.413 1482.55 270.218 1479.01 Q272.047 1475.44 272.047 1468.33 Q272.047 1461.2 270.218 1457.66 Q268.413 1454.1 264.778 1454.1 M264.778 1450.39 Q270.589 1450.39 273.644 1455 Q276.723 1459.58 276.723 1468.33 Q276.723 1477.06 273.644 1481.67 Q270.589 1486.25 264.778 1486.25 Q258.968 1486.25 255.89 1481.67 Q252.834 1477.06 252.834 1468.33 Q252.834 1459.58 255.89 1455 Q258.968 1450.39 264.778 1450.39 Z" fill="#000000" fill-rule="nonzero" fill-opacity="1"></path><path clip-path="url(#clip260)" d="M604.567 1451.02 L622.923 1451.02 L622.923 1454.96 L608.849 1454.96 L608.849 1463.43 Q609.868 1463.08 610.886 1462.92 Q611.905 1462.73 612.924 1462.73 Q618.711 1462.73 622.09 1465.9 Q625.47 1469.08 625.47 1474.49 Q625.47 1480.07 621.998 1483.17 Q618.525 1486.25 612.206 1486.25 Q610.03 1486.25 607.761 1485.88 Q605.516 1485.51 603.109 1484.77 L603.109 1480.07 Q605.192 1481.2 607.414 1481.76 Q609.636 1482.32 612.113 1482.32 Q616.118 1482.32 618.456 1480.21 Q620.794 1478.1 620.794 1474.49 Q620.794 1470.88 618.456 1468.77 Q616.118 1466.67 612.113 1466.67 Q610.238 1466.67 608.363 1467.08 Q606.512 1467.5 604.567 1468.38 L604.567 1451.02 Z" fill="#000000" fill-rule="nonzero" fill-opacity="1"></path><path clip-path="url(#clip260)" d="M938.488 1481.64 L946.127 1481.64 L946.127 1455.28 L937.816 1456.95 L937.816 1452.69 L946.08 1451.02 L950.756 1451.02 L950.756 1481.64 L958.395 1481.64 L958.395 1485.58 L938.488 1485.58 L938.488 1481.64 Z" fill="#000000" fill-rule="nonzero" fill-opacity="1"></path><path clip-path="url(#clip260)" d="M977.839 1454.1 Q974.228 1454.1 972.4 1457.66 Q970.594 1461.2 970.594 1468.33 Q970.594 1475.44 972.4 1479.01 Q974.228 1482.55 977.839 1482.55 Q981.474 1482.55 983.279 1479.01 Q985.108 1475.44 985.108 1468.33 Q985.108 1461.2 983.279 1457.66 Q981.474 1454.1 977.839 1454.1 M977.839 1450.39 Q983.649 1450.39 986.705 1455 Q989.784 1459.58 989.784 1468.33 Q989.784 1477.06 986.705 1481.67 Q983.649 1486.25 977.839 1486.25 Q972.029 1486.25 968.95 1481.67 Q965.895 1477.06 965.895 1468.33 Q965.895 1459.58 968.95 1455 Q972.029 1450.39 977.839 1450.39 Z" fill="#000000" fill-rule="nonzero" fill-opacity="1"></path><path clip-path="url(#clip260)" d="M1288.5 1481.64 L1296.13 1481.64 L1296.13 1455.28 L1287.82 1456.95 L1287.82 1452.69 L1296.09 1451.02 L1300.76 1451.02 L1300.76 1481.64 L1308.4 1481.64 L1308.4 1485.58 L1288.5 1485.58 L1288.5 1481.64 Z" fill="#000000" fill-rule="nonzero" fill-opacity="1"></path><path clip-path="url(#clip260)" d="M1317.89 1451.02 L1336.25 1451.02 L1336.25 1454.96 L1322.18 1454.96 L1322.18 1463.43 Q1323.2 1463.08 1324.21 1462.92 Q1325.23 1462.73 1326.25 1462.73 Q1332.04 1462.73 1335.42 1465.9 Q1338.8 1469.08 1338.8 1474.49 Q1338.8 1480.07 1335.32 1483.17 Q1331.85 1486.25 1325.53 1486.25 Q1323.36 1486.25 1321.09 1485.88 Q1318.84 1485.51 1316.44 1484.77 L1316.44 1480.07 Q1318.52 1481.2 1320.74 1481.76 Q1322.96 1482.32 1325.44 1482.32 Q1329.44 1482.32 1331.78 1480.21 Q1334.12 1478.1 1334.12 1474.49 Q1334.12 1470.88 1331.78 1468.77 Q1329.44 1466.67 1325.44 1466.67 Q1323.57 1466.67 1321.69 1467.08 Q1319.84 1467.5 1317.89 1468.38 L1317.89 1451.02 Z" fill="#000000" fill-rule="nonzero" fill-opacity="1"></path><path clip-path="url(#clip260)" d="M1641.59 1481.64 L1657.91 1481.64 L1657.91 1485.58 L1635.97 1485.58 L1635.97 1481.64 Q1638.63 1478.89 1643.22 1474.26 Q1647.82 1469.61 1649 1468.27 Q1651.25 1465.74 1652.13 1464.01 Q1653.03 1462.25 1653.03 1460.56 Q1653.03 1457.8 1651.09 1456.07 Q1649.16 1454.33 1646.06 1454.33 Q1643.86 1454.33 1641.41 1455.09 Q1638.98 1455.86 1636.2 1457.41 L1636.2 1452.69 Q1639.03 1451.55 1641.48 1450.97 Q1643.93 1450.39 1645.97 1450.39 Q1651.34 1450.39 1654.53 1453.08 Q1657.73 1455.77 1657.73 1460.26 Q1657.73 1462.39 1656.92 1464.31 Q1656.13 1466.2 1654.03 1468.8 Q1653.45 1469.47 1650.34 1472.69 Q1647.24 1475.88 1641.59 1481.64 Z" fill="#000000" fill-rule="nonzero" fill-opacity="1"></path><path clip-path="url(#clip260)" d="M1677.73 1454.1 Q1674.12 1454.1 1672.29 1457.66 Q1670.48 1461.2 1670.48 1468.33 Q1670.48 1475.44 1672.29 1479.01 Q1674.12 1482.55 1677.73 1482.55 Q1681.36 1482.55 1683.17 1479.01 Q1685 1475.44 1685 1468.33 Q1685 1461.2 1683.17 1457.66 Q1681.36 1454.1 1677.73 1454.1 M1677.73 1450.39 Q1683.54 1450.39 1686.59 1455 Q1689.67 1459.58 1689.67 1468.33 Q1689.67 1477.06 1686.59 1481.67 Q1683.54 1486.25 1677.73 1486.25 Q1671.92 1486.25 1668.84 1481.67 Q1665.78 1477.06 1665.78 1468.33 Q1665.78 1459.58 1668.84 1455 Q1671.92 1450.39 1677.73 1450.39 Z" fill="#000000" fill-rule="nonzero" fill-opacity="1"></path><path clip-path="url(#clip260)" d="M1991.6 1481.64 L2007.92 1481.64 L2007.92 1485.58 L1985.98 1485.58 L1985.98 1481.64 Q1988.64 1478.89 1993.22 1474.26 Q1997.83 1469.61 1999.01 1468.27 Q2001.26 1465.74 2002.14 1464.01 Q2003.04 1462.25 2003.04 1460.56 Q2003.04 1457.8 2001.09 1456.07 Q1999.17 1454.33 1996.07 1454.33 Q1993.87 1454.33 1991.42 1455.09 Q1988.99 1455.86 1986.21 1457.41 L1986.21 1452.69 Q1989.03 1451.55 1991.49 1450.97 Q1993.94 1450.39 1995.98 1450.39 Q2001.35 1450.39 2004.54 1453.08 Q2007.74 1455.77 2007.74 1460.26 Q2007.74 1462.39 2006.93 1464.31 Q2006.14 1466.2 2004.03 1468.8 Q2003.46 1469.47 2000.35 1472.69 Q1997.25 1475.88 1991.6 1481.64 Z" fill="#000000" fill-rule="nonzero" fill-opacity="1"></path><path clip-path="url(#clip260)" d="M2017.78 1451.02 L2036.14 1451.02 L2036.14 1454.96 L2022.07 1454.96 L2022.07 1463.43 Q2023.08 1463.08 2024.1 1462.92 Q2025.12 1462.73 2026.14 1462.73 Q2031.93 1462.73 2035.31 1465.9 Q2038.69 1469.08 2038.69 1474.49 Q2038.69 1480.07 2035.21 1483.17 Q2031.74 1486.25 2025.42 1486.25 Q2023.25 1486.25 2020.98 1485.88 Q2018.73 1485.51 2016.33 1484.77 L2016.33 1480.07 Q2018.41 1481.2 2020.63 1481.76 Q2022.85 1482.32 2025.33 1482.32 Q2029.33 1482.32 2031.67 1480.21 Q2034.01 1478.1 2034.01 1474.49 Q2034.01 1470.88 2031.67 1468.77 Q2029.33 1466.67 2025.33 1466.67 Q2023.46 1466.67 2021.58 1467.08 Q2019.73 1467.5 2017.78 1468.38 L2017.78 1451.02 Z" fill="#000000" fill-rule="nonzero" fill-opacity="1"></path><path clip-path="url(#clip260)" d="M1115.72 1520.52 L1155.92 1520.52 L1155.92 1525.93 L1139.05 1525.93 L1139.05 1568.04 L1132.59 1568.04 L1132.59 1525.93 L1115.72 1525.93 L1115.72 1520.52 Z" fill="#000000" fill-rule="nonzero" fill-opacity="1"></path><path clip-path="url(#clip260)" d="M1159.86 1532.4 L1165.72 1532.4 L1165.72 1568.04 L1159.86 1568.04 L1159.86 1532.4 M1159.86 1518.52 L1165.72 1518.52 L1165.72 1525.93 L1159.86 1525.93 L1159.86 1518.52 Z" fill="#000000" fill-rule="nonzero" fill-opacity="1"></path><path clip-path="url(#clip260)" d="M1205.73 1539.24 Q1207.92 1535.29 1210.98 1533.41 Q1214.03 1531.54 1218.17 1531.54 Q1223.74 1531.54 1226.77 1535.45 Q1229.79 1539.33 1229.79 1546.53 L1229.79 1568.04 L1223.9 1568.04 L1223.9 1546.72 Q1223.9 1541.59 1222.09 1539.11 Q1220.27 1536.63 1216.55 1536.63 Q1212 1536.63 1209.36 1539.65 Q1206.71 1542.68 1206.71 1547.9 L1206.71 1568.04 L1200.83 1568.04 L1200.83 1546.72 Q1200.83 1541.56 1199.01 1539.11 Q1197.2 1536.63 1193.41 1536.63 Q1188.92 1536.63 1186.28 1539.68 Q1183.64 1542.71 1183.64 1547.9 L1183.64 1568.04 L1177.75 1568.04 L1177.75 1532.4 L1183.64 1532.4 L1183.64 1537.93 Q1185.64 1534.66 1188.44 1533.1 Q1191.25 1531.54 1195.1 1531.54 Q1198.98 1531.54 1201.68 1533.51 Q1204.42 1535.48 1205.73 1539.24 Z" fill="#000000" fill-rule="nonzero" fill-opacity="1"></path><path clip-path="url(#clip260)" d="M1271.96 1548.76 L1271.96 1551.62 L1245.04 1551.62 Q1245.42 1557.67 1248.66 1560.85 Q1251.94 1564 1257.77 1564 Q1261.14 1564 1264.29 1563.17 Q1267.47 1562.35 1270.59 1560.69 L1270.59 1566.23 Q1267.44 1567.57 1264.13 1568.27 Q1260.82 1568.97 1257.42 1568.97 Q1248.89 1568.97 1243.89 1564 Q1238.92 1559.04 1238.92 1550.57 Q1238.92 1541.82 1243.63 1536.69 Q1248.38 1531.54 1256.4 1531.54 Q1263.59 1531.54 1267.76 1536.18 Q1271.96 1540.8 1271.96 1548.76 M1266.11 1547.04 Q1266.04 1542.23 1263.4 1539.37 Q1260.79 1536.5 1256.46 1536.5 Q1251.56 1536.5 1248.6 1539.27 Q1245.67 1542.04 1245.23 1547.07 L1266.11 1547.04 Z" fill="#000000" fill-rule="nonzero" fill-opacity="1"></path><path clip-path="url(#clip260)" d="M1331.04 1522.08 L1331.04 1528.35 Q1327.38 1526.6 1324.13 1525.74 Q1320.88 1524.88 1317.86 1524.88 Q1312.61 1524.88 1309.74 1526.92 Q1306.91 1528.96 1306.91 1532.71 Q1306.91 1535.87 1308.79 1537.49 Q1310.7 1539.08 1315.98 1540.07 L1319.86 1540.86 Q1327.06 1542.23 1330.46 1545.7 Q1333.9 1549.14 1333.9 1554.93 Q1333.9 1561.84 1329.25 1565.4 Q1324.64 1568.97 1315.69 1568.97 Q1312.32 1568.97 1308.5 1568.2 Q1304.71 1567.44 1300.64 1565.94 L1300.64 1559.32 Q1304.55 1561.52 1308.31 1562.63 Q1312.07 1563.75 1315.69 1563.75 Q1321.2 1563.75 1324.19 1561.58 Q1327.18 1559.42 1327.18 1555.41 Q1327.18 1551.91 1325.02 1549.93 Q1322.89 1547.96 1317.99 1546.97 L1314.07 1546.21 Q1306.88 1544.78 1303.66 1541.72 Q1300.45 1538.67 1300.45 1533.22 Q1300.45 1526.92 1304.87 1523.29 Q1309.33 1519.66 1317.13 1519.66 Q1320.47 1519.66 1323.94 1520.27 Q1327.41 1520.87 1331.04 1522.08 Z" fill="#000000" fill-rule="nonzero" fill-opacity="1"></path><path clip-path="url(#clip260)" d="M1349.46 1522.27 L1349.46 1532.4 L1361.53 1532.4 L1361.53 1536.95 L1349.46 1536.95 L1349.46 1556.3 Q1349.46 1560.66 1350.64 1561.9 Q1351.85 1563.14 1355.51 1563.14 L1361.53 1563.14 L1361.53 1568.04 L1355.51 1568.04 Q1348.73 1568.04 1346.15 1565.53 Q1343.58 1562.98 1343.58 1556.3 L1343.58 1536.95 L1339.28 1536.95 L1339.28 1532.4 L1343.58 1532.4 L1343.58 1522.27 L1349.46 1522.27 Z" fill="#000000" fill-rule="nonzero" fill-opacity="1"></path><path clip-path="url(#clip260)" d="M1399.72 1548.76 L1399.72 1551.62 L1372.79 1551.62 Q1373.18 1557.67 1376.42 1560.85 Q1379.7 1564 1385.53 1564 Q1388.9 1564 1392.05 1563.17 Q1395.23 1562.35 1398.35 1560.69 L1398.35 1566.23 Q1395.2 1567.57 1391.89 1568.27 Q1388.58 1568.97 1385.18 1568.97 Q1376.65 1568.97 1371.65 1564 Q1366.68 1559.04 1366.68 1550.57 Q1366.68 1541.82 1371.39 1536.69 Q1376.14 1531.54 1384.16 1531.54 Q1391.35 1531.54 1395.52 1536.18 Q1399.72 1540.8 1399.72 1548.76 M1393.87 1547.04 Q1393.8 1542.23 1391.16 1539.37 Q1388.55 1536.5 1384.22 1536.5 Q1379.32 1536.5 1376.36 1539.27 Q1373.43 1542.04 1372.99 1547.07 L1393.87 1547.04 Z" fill="#000000" fill-rule="nonzero" fill-opacity="1"></path><path clip-path="url(#clip260)" d="M1415 1562.7 L1415 1581.6 L1409.11 1581.6 L1409.11 1532.4 L1415 1532.4 L1415 1537.81 Q1416.85 1534.62 1419.65 1533.1 Q1422.48 1531.54 1426.39 1531.54 Q1432.89 1531.54 1436.93 1536.69 Q1441 1541.85 1441 1550.25 Q1441 1558.65 1436.93 1563.81 Q1432.89 1568.97 1426.39 1568.97 Q1422.48 1568.97 1419.65 1567.44 Q1416.85 1565.88 1415 1562.7 M1434.92 1550.25 Q1434.92 1543.79 1432.25 1540.13 Q1429.61 1536.44 1424.96 1536.44 Q1420.31 1536.44 1417.64 1540.13 Q1415 1543.79 1415 1550.25 Q1415 1556.71 1417.64 1560.4 Q1420.31 1564.07 1424.96 1564.07 Q1429.61 1564.07 1432.25 1560.4 Q1434.92 1556.71 1434.92 1550.25 Z" fill="#000000" fill-rule="nonzero" fill-opacity="1"></path><polyline clip-path="url(#clip260)" style="stroke:#000000; stroke-linecap:round; stroke-linejoin:round; stroke-width:4; stroke-opacity:1; fill:none" points="203.964,1423.18 203.964,123.472 "></polyline>
<polyline clip-path="url(#clip260)" style="stroke:#000000; stroke-linecap:round; stroke-linejoin:round; stroke-width:4; stroke-opacity:1; fill:none" points="203.964,1386.4 222.861,1386.4 "></polyline>
<polyline clip-path="url(#clip260)" style="stroke:#000000; stroke-linecap:round; stroke-linejoin:round; stroke-width:4; stroke-opacity:1; fill:none" points="203.964,1079.86 222.861,1079.86 "></polyline>
<polyline clip-path="url(#clip260)" style="stroke:#000000; stroke-linecap:round; stroke-linejoin:round; stroke-width:4; stroke-opacity:1; fill:none" points="203.964,773.326 222.861,773.326 "></polyline>
<polyline clip-path="url(#clip260)" style="stroke:#000000; stroke-linecap:round; stroke-linejoin:round; stroke-width:4; stroke-opacity:1; fill:none" points="203.964,466.791 222.861,466.791 "></polyline>
<polyline clip-path="url(#clip260)" style="stroke:#000000; stroke-linecap:round; stroke-linejoin:round; stroke-width:4; stroke-opacity:1; fill:none" points="203.964,160.256 222.861,160.256 "></polyline>
<path clip-path="url(#clip260)" d="M156.019 1372.19 Q152.408 1372.19 150.579 1375.76 Q148.774 1379.3 148.774 1386.43 Q148.774 1393.54 150.579 1397.1 Q152.408 1400.64 156.019 1400.64 Q159.653 1400.64 161.459 1397.1 Q163.288 1393.54 163.288 1386.43 Q163.288 1379.3 161.459 1375.76 Q159.653 1372.19 156.019 1372.19 M156.019 1368.49 Q161.829 1368.49 164.885 1373.1 Q167.964 1377.68 167.964 1386.43 Q167.964 1395.16 164.885 1399.76 Q161.829 1404.35 156.019 1404.35 Q150.209 1404.35 147.13 1399.76 Q144.075 1395.16 144.075 1386.43 Q144.075 1377.68 147.13 1373.1 Q150.209 1368.49 156.019 1368.49 Z" fill="#000000" fill-rule="nonzero" fill-opacity="1"></path><path clip-path="url(#clip260)" d="M147.061 1062.58 L165.417 1062.58 L165.417 1066.52 L151.343 1066.52 L151.343 1074.99 Q152.362 1074.64 153.38 1074.48 Q154.399 1074.29 155.417 1074.29 Q161.204 1074.29 164.584 1077.47 Q167.964 1080.64 167.964 1086.05 Q167.964 1091.63 164.491 1094.73 Q161.019 1097.81 154.7 1097.81 Q152.524 1097.81 150.255 1097.44 Q148.01 1097.07 145.603 1096.33 L145.603 1091.63 Q147.686 1092.77 149.908 1093.32 Q152.13 1093.88 154.607 1093.88 Q158.612 1093.88 160.95 1091.77 Q163.288 1089.66 163.288 1086.05 Q163.288 1082.44 160.95 1080.34 Q158.612 1078.23 154.607 1078.23 Q152.732 1078.23 150.857 1078.65 Q149.005 1079.06 147.061 1079.94 L147.061 1062.58 Z" fill="#000000" fill-rule="nonzero" fill-opacity="1"></path><path clip-path="url(#clip260)" d="M116.668 786.671 L124.306 786.671 L124.306 760.305 L115.996 761.972 L115.996 757.713 L124.26 756.046 L128.936 756.046 L128.936 786.671 L136.575 786.671 L136.575 790.606 L116.668 790.606 L116.668 786.671 Z" fill="#000000" fill-rule="nonzero" fill-opacity="1"></path><path clip-path="url(#clip260)" d="M156.019 759.125 Q152.408 759.125 150.579 762.689 Q148.774 766.231 148.774 773.361 Q148.774 780.467 150.579 784.032 Q152.408 787.574 156.019 787.574 Q159.653 787.574 161.459 784.032 Q163.288 780.467 163.288 773.361 Q163.288 766.231 161.459 762.689 Q159.653 759.125 156.019 759.125 M156.019 755.421 Q161.829 755.421 164.885 760.027 Q167.964 764.611 167.964 773.361 Q167.964 782.088 164.885 786.694 Q161.829 791.277 156.019 791.277 Q150.209 791.277 147.13 786.694 Q144.075 782.088 144.075 773.361 Q144.075 764.611 147.13 760.027 Q150.209 755.421 156.019 755.421 Z" fill="#000000" fill-rule="nonzero" fill-opacity="1"></path><path clip-path="url(#clip260)" d="M117.663 480.136 L125.302 480.136 L125.302 453.77 L116.992 455.437 L116.992 451.178 L125.255 449.511 L129.931 449.511 L129.931 480.136 L137.57 480.136 L137.57 484.071 L117.663 484.071 L117.663 480.136 Z" fill="#000000" fill-rule="nonzero" fill-opacity="1"></path><path clip-path="url(#clip260)" d="M147.061 449.511 L165.417 449.511 L165.417 453.446 L151.343 453.446 L151.343 461.918 Q152.362 461.571 153.38 461.409 Q154.399 461.224 155.417 461.224 Q161.204 461.224 164.584 464.395 Q167.964 467.567 167.964 472.983 Q167.964 478.562 164.491 481.664 Q161.019 484.742 154.7 484.742 Q152.524 484.742 150.255 484.372 Q148.01 484.002 145.603 483.261 L145.603 478.562 Q147.686 479.696 149.908 480.252 Q152.13 480.807 154.607 480.807 Q158.612 480.807 160.95 478.701 Q163.288 476.594 163.288 472.983 Q163.288 469.372 160.95 467.266 Q158.612 465.159 154.607 465.159 Q152.732 465.159 150.857 465.576 Q149.005 465.993 147.061 466.872 L147.061 449.511 Z" fill="#000000" fill-rule="nonzero" fill-opacity="1"></path><path clip-path="url(#clip260)" d="M119.885 173.601 L136.204 173.601 L136.204 177.536 L114.26 177.536 L114.26 173.601 Q116.922 170.847 121.505 166.217 Q126.112 161.564 127.292 160.222 Q129.538 157.698 130.417 155.962 Q131.32 154.203 131.32 152.513 Q131.32 149.759 129.376 148.023 Q127.455 146.286 124.353 146.286 Q122.154 146.286 119.7 147.05 Q117.269 147.814 114.492 149.365 L114.492 144.643 Q117.316 143.509 119.769 142.93 Q122.223 142.351 124.26 142.351 Q129.63 142.351 132.825 145.036 Q136.019 147.722 136.019 152.212 Q136.019 154.342 135.209 156.263 Q134.422 158.161 132.316 160.754 Q131.737 161.425 128.635 164.643 Q125.533 167.837 119.885 173.601 Z" fill="#000000" fill-rule="nonzero" fill-opacity="1"></path><path clip-path="url(#clip260)" d="M156.019 146.055 Q152.408 146.055 150.579 149.62 Q148.774 153.161 148.774 160.291 Q148.774 167.397 150.579 170.962 Q152.408 174.504 156.019 174.504 Q159.653 174.504 161.459 170.962 Q163.288 167.397 163.288 160.291 Q163.288 153.161 161.459 149.62 Q159.653 146.055 156.019 146.055 M156.019 142.351 Q161.829 142.351 164.885 146.958 Q167.964 151.541 167.964 160.291 Q167.964 169.018 164.885 173.624 Q161.829 178.208 156.019 178.208 Q150.209 178.208 147.13 173.624 Q144.075 169.018 144.075 160.291 Q144.075 151.541 147.13 146.958 Q150.209 142.351 156.019 142.351 Z" fill="#000000" fill-rule="nonzero" fill-opacity="1"></path><path clip-path="url(#clip260)" d="M16.4842 840.023 L16.4842 833.593 L58.5933 833.593 L58.5933 810.454 L64.0042 810.454 L64.0042 840.023 L16.4842 840.023 Z" fill="#000000" fill-rule="nonzero" fill-opacity="1"></path><path clip-path="url(#clip260)" d="M32.4621 791.293 Q32.4621 796.004 36.1542 798.741 Q39.8145 801.478 46.212 801.478 Q52.6095 801.478 56.3017 798.773 Q59.9619 796.036 59.9619 791.293 Q59.9619 786.614 56.2698 783.877 Q52.5777 781.14 46.212 781.14 Q39.8781 781.14 36.186 783.877 Q32.4621 786.614 32.4621 791.293 M27.4968 791.293 Q27.4968 783.654 32.4621 779.294 Q37.4273 774.933 46.212 774.933 Q54.9649 774.933 59.9619 779.294 Q64.9272 783.654 64.9272 791.293 Q64.9272 798.964 59.9619 803.324 Q54.9649 807.653 46.212 807.653 Q37.4273 807.653 32.4621 803.324 Q27.4968 798.964 27.4968 791.293 Z" fill="#000000" fill-rule="nonzero" fill-opacity="1"></path><path clip-path="url(#clip260)" d="M29.4065 742.5 L34.9447 742.5 Q33.6716 744.983 33.035 747.656 Q32.3984 750.33 32.3984 753.194 Q32.3984 757.555 33.7352 759.751 Q35.072 761.915 37.7456 761.915 Q39.7826 761.915 40.9603 760.356 Q42.1061 758.796 43.1565 754.086 L43.6021 752.08 Q44.9389 745.842 47.3897 743.232 Q49.8086 740.59 54.1691 740.59 Q59.1344 740.59 62.0308 744.537 Q64.9272 748.452 64.9272 755.327 Q64.9272 758.192 64.3543 761.311 Q63.8132 764.398 62.6992 767.836 L56.6518 767.836 Q58.3387 764.589 59.198 761.438 Q60.0256 758.287 60.0256 755.2 Q60.0256 751.062 58.6251 748.834 Q57.1929 746.606 54.6147 746.606 Q52.2276 746.606 50.9545 748.229 Q49.6813 749.821 48.5037 755.263 L48.0262 757.3 Q46.8804 762.743 44.5251 765.162 Q42.138 767.581 38.0002 767.581 Q32.9713 767.581 30.2341 764.016 Q27.4968 760.451 27.4968 753.895 Q27.4968 750.648 27.9743 747.784 Q28.4517 744.919 29.4065 742.5 Z" fill="#000000" fill-rule="nonzero" fill-opacity="1"></path><path clip-path="url(#clip260)" d="M29.4065 708.539 L34.9447 708.539 Q33.6716 711.022 33.035 713.695 Q32.3984 716.369 32.3984 719.233 Q32.3984 723.594 33.7352 725.79 Q35.072 727.954 37.7456 727.954 Q39.7826 727.954 40.9603 726.395 Q42.1061 724.835 43.1565 720.125 L43.6021 718.119 Q44.9389 711.881 47.3897 709.271 Q49.8086 706.629 54.1691 706.629 Q59.1344 706.629 62.0308 710.576 Q64.9272 714.491 64.9272 721.366 Q64.9272 724.23 64.3543 727.35 Q63.8132 730.437 62.6992 733.875 L56.6518 733.875 Q58.3387 730.628 59.198 727.477 Q60.0256 724.326 60.0256 721.239 Q60.0256 717.101 58.6251 714.873 Q57.1929 712.645 54.6147 712.645 Q52.2276 712.645 50.9545 714.268 Q49.6813 715.86 48.5037 721.302 L48.0262 723.339 Q46.8804 728.782 44.5251 731.201 Q42.138 733.62 38.0002 733.62 Q32.9713 733.62 30.2341 730.055 Q27.4968 726.49 27.4968 719.934 Q27.4968 716.687 27.9743 713.823 Q28.4517 710.958 29.4065 708.539 Z" fill="#000000" fill-rule="nonzero" fill-opacity="1"></path><path clip-path="url(#clip260)" d="M444.299 65.6895 L457.667 65.6895 L457.667 19.5497 L443.124 22.4663 L443.124 15.0127 L457.586 12.096 L465.769 12.096 L465.769 65.6895 L479.137 65.6895 L479.137 72.576 L444.299 72.576 L444.299 65.6895 Z" fill="#000000" fill-rule="nonzero" fill-opacity="1"></path><path clip-path="url(#clip260)" d="M566.596 16.7545 L566.596 25.383 Q562.464 21.5346 557.765 19.6307 Q553.106 17.7268 547.84 17.7268 Q537.47 17.7268 531.96 24.0867 Q526.451 30.4061 526.451 42.3968 Q526.451 54.3469 531.96 60.7069 Q537.47 67.0263 547.84 67.0263 Q553.106 67.0263 557.765 65.1223 Q562.464 63.2184 566.596 59.3701 L566.596 67.9175 Q562.302 70.8341 557.481 72.2924 Q552.701 73.7508 547.354 73.7508 Q533.621 73.7508 525.722 65.3654 Q517.823 56.9395 517.823 42.3968 Q517.823 27.8135 525.722 19.4281 Q533.621 11.0023 547.354 11.0023 Q552.782 11.0023 557.562 12.4606 Q562.383 13.8784 566.596 16.7545 Z" fill="#000000" fill-rule="nonzero" fill-opacity="1"></path><path clip-path="url(#clip260)" d="M596.491 32.4315 Q590.496 32.4315 587.012 37.1306 Q583.528 41.7891 583.528 49.9314 Q583.528 58.0738 586.972 62.7728 Q590.455 67.4314 596.491 67.4314 Q602.446 67.4314 605.93 62.7323 Q609.414 58.0333 609.414 49.9314 Q609.414 41.8701 605.93 37.1711 Q602.446 32.4315 596.491 32.4315 M596.491 26.1121 Q606.213 26.1121 611.763 32.4315 Q617.313 38.7509 617.313 49.9314 Q617.313 61.0714 611.763 67.4314 Q606.213 73.7508 596.491 73.7508 Q586.729 73.7508 581.179 67.4314 Q575.67 61.0714 575.67 49.9314 Q575.67 38.7509 581.179 32.4315 Q586.729 26.1121 596.491 26.1121 Z" fill="#000000" fill-rule="nonzero" fill-opacity="1"></path><path clip-path="url(#clip260)" d="M664.992 35.9153 Q667.787 30.8922 671.676 28.5022 Q675.565 26.1121 680.831 26.1121 Q687.92 26.1121 691.769 31.0947 Q695.617 36.0368 695.617 45.1919 L695.617 72.576 L688.123 72.576 L688.123 45.4349 Q688.123 38.913 685.814 35.7533 Q683.505 32.5936 678.765 32.5936 Q672.972 32.5936 669.61 36.4419 Q666.248 40.2903 666.248 46.9338 L666.248 72.576 L658.754 72.576 L658.754 45.4349 Q658.754 38.8725 656.445 35.7533 Q654.136 32.5936 649.315 32.5936 Q643.603 32.5936 640.241 36.4824 Q636.879 40.3308 636.879 46.9338 L636.879 72.576 L629.385 72.576 L629.385 27.2059 L636.879 27.2059 L636.879 34.2544 Q639.431 30.082 642.996 28.0971 Q646.56 26.1121 651.462 26.1121 Q656.404 26.1121 659.847 28.6237 Q663.331 31.1352 664.992 35.9153 Z" fill="#000000" fill-rule="nonzero" fill-opacity="1"></path><path clip-path="url(#clip260)" d="M745.808 35.9153 Q748.603 30.8922 752.492 28.5022 Q756.38 26.1121 761.647 26.1121 Q768.736 26.1121 772.584 31.0947 Q776.432 36.0368 776.432 45.1919 L776.432 72.576 L768.938 72.576 L768.938 45.4349 Q768.938 38.913 766.629 35.7533 Q764.32 32.5936 759.581 32.5936 Q753.788 32.5936 750.426 36.4419 Q747.063 40.2903 747.063 46.9338 L747.063 72.576 L739.569 72.576 L739.569 45.4349 Q739.569 38.8725 737.26 35.7533 Q734.951 32.5936 730.131 32.5936 Q724.419 32.5936 721.057 36.4824 Q717.694 40.3308 717.694 46.9338 L717.694 72.576 L710.2 72.576 L710.2 27.2059 L717.694 27.2059 L717.694 34.2544 Q720.246 30.082 723.811 28.0971 Q727.376 26.1121 732.278 26.1121 Q737.22 26.1121 740.663 28.6237 Q744.147 31.1352 745.808 35.9153 Z" fill="#000000" fill-rule="nonzero" fill-opacity="1"></path><path clip-path="url(#clip260)" d="M790.53 54.671 L790.53 27.2059 L797.983 27.2059 L797.983 54.3874 Q797.983 60.8284 800.495 64.0691 Q803.006 67.2693 808.03 67.2693 Q814.065 67.2693 817.549 63.421 Q821.073 59.5726 821.073 52.9291 L821.073 27.2059 L828.527 27.2059 L828.527 72.576 L821.073 72.576 L821.073 65.6084 Q818.359 69.7404 814.754 71.7658 Q811.189 73.7508 806.45 73.7508 Q798.631 73.7508 794.581 68.8897 Q790.53 64.0286 790.53 54.671 M809.285 26.1121 L809.285 26.1121 Z" fill="#000000" fill-rule="nonzero" fill-opacity="1"></path><path clip-path="url(#clip260)" d="M881.594 45.1919 L881.594 72.576 L874.14 72.576 L874.14 45.4349 Q874.14 38.994 871.629 35.7938 Q869.117 32.5936 864.094 32.5936 Q858.058 32.5936 854.574 36.4419 Q851.091 40.2903 851.091 46.9338 L851.091 72.576 L843.596 72.576 L843.596 27.2059 L851.091 27.2059 L851.091 34.2544 Q853.764 30.163 857.37 28.1376 Q861.015 26.1121 865.755 26.1121 Q873.573 26.1121 877.584 30.9732 Q881.594 35.7938 881.594 45.1919 Z" fill="#000000" fill-rule="nonzero" fill-opacity="1"></path><path clip-path="url(#clip260)" d="M896.461 27.2059 L903.914 27.2059 L903.914 72.576 L896.461 72.576 L896.461 27.2059 M896.461 9.54393 L903.914 9.54393 L903.914 18.9825 L896.461 18.9825 L896.461 9.54393 Z" fill="#000000" fill-rule="nonzero" fill-opacity="1"></path><path clip-path="url(#clip260)" d="M926.883 14.324 L926.883 27.2059 L942.236 27.2059 L942.236 32.9987 L926.883 32.9987 L926.883 57.6282 Q926.883 63.1779 928.382 64.7578 Q929.921 66.3376 934.58 66.3376 L942.236 66.3376 L942.236 72.576 L934.58 72.576 Q925.951 72.576 922.67 69.3758 Q919.389 66.1351 919.389 57.6282 L919.389 32.9987 L913.92 32.9987 L913.92 27.2059 L919.389 27.2059 L919.389 14.324 L926.883 14.324 Z" fill="#000000" fill-rule="nonzero" fill-opacity="1"></path><path clip-path="url(#clip260)" d="M970.916 76.7889 Q967.757 84.8907 964.759 87.3618 Q961.761 89.8329 956.738 89.8329 L950.783 89.8329 L950.783 83.5945 L955.158 83.5945 Q958.237 83.5945 959.938 82.1361 Q961.64 80.6778 963.706 75.2496 L965.043 71.8468 L946.692 27.2059 L954.591 27.2059 L968.769 62.6918 L982.948 27.2059 L990.847 27.2059 L970.916 76.7889 Z" fill="#000000" fill-rule="nonzero" fill-opacity="1"></path><path clip-path="url(#clip260)" d="M1052.38 17.6457 Q1043.47 17.6457 1038.2 24.2892 Q1032.98 30.9327 1032.98 42.3968 Q1032.98 53.8203 1038.2 60.4638 Q1043.47 67.1073 1052.38 67.1073 Q1061.29 67.1073 1066.48 60.4638 Q1071.7 53.8203 1071.7 42.3968 Q1071.7 30.9327 1066.48 24.2892 Q1061.29 17.6457 1052.38 17.6457 M1052.38 11.0023 Q1065.1 11.0023 1072.72 19.5497 Q1080.33 28.0566 1080.33 42.3968 Q1080.33 56.6965 1072.72 65.2439 Q1065.1 73.7508 1052.38 73.7508 Q1039.62 73.7508 1031.96 65.2439 Q1024.35 56.737 1024.35 42.3968 Q1024.35 28.0566 1031.96 19.5497 Q1039.62 11.0023 1052.38 11.0023 Z" fill="#000000" fill-rule="nonzero" fill-opacity="1"></path><path clip-path="url(#clip260)" d="M1121.73 28.5427 L1121.73 35.5912 Q1118.57 33.9709 1115.17 33.1607 Q1111.77 32.3505 1108.12 32.3505 Q1102.57 32.3505 1099.78 34.0519 Q1097.02 35.7533 1097.02 39.156 Q1097.02 41.7486 1099.01 43.2475 Q1100.99 44.7058 1106.99 46.0426 L1109.54 46.6097 Q1117.48 48.3111 1120.8 51.4303 Q1124.16 54.509 1124.16 60.0587 Q1124.16 66.3781 1119.14 70.0644 Q1114.16 73.7508 1105.41 73.7508 Q1101.76 73.7508 1097.79 73.0216 Q1093.86 72.3329 1089.49 70.9151 L1089.49 63.2184 Q1093.62 65.3654 1097.63 66.4591 Q1101.64 67.5124 1105.57 67.5124 Q1110.83 67.5124 1113.67 65.73 Q1116.51 63.9071 1116.51 60.6258 Q1116.51 57.5877 1114.44 55.9673 Q1112.41 54.3469 1105.49 52.8481 L1102.89 52.2405 Q1095.97 50.7821 1092.89 47.7845 Q1089.81 44.7463 1089.81 39.4801 Q1089.81 33.0797 1094.35 29.5959 Q1098.88 26.1121 1107.23 26.1121 Q1111.36 26.1121 1115.01 26.7198 Q1118.65 27.3274 1121.73 28.5427 Z" fill="#000000" fill-rule="nonzero" fill-opacity="1"></path><path clip-path="url(#clip260)" d="M1168.68 28.9478 L1168.68 35.9153 Q1165.52 34.1734 1162.32 33.3227 Q1159.16 32.4315 1155.92 32.4315 Q1148.67 32.4315 1144.66 37.0496 Q1140.65 41.6271 1140.65 49.9314 Q1140.65 58.2358 1144.66 62.8538 Q1148.67 67.4314 1155.92 67.4314 Q1159.16 67.4314 1162.32 66.5807 Q1165.52 65.6895 1168.68 63.9476 L1168.68 70.8341 Q1165.56 72.2924 1162.2 73.0216 Q1158.88 73.7508 1155.11 73.7508 Q1144.86 73.7508 1138.83 67.3098 Q1132.79 60.8689 1132.79 49.9314 Q1132.79 38.832 1138.87 32.472 Q1144.98 26.1121 1155.6 26.1121 Q1159.04 26.1121 1162.32 26.8413 Q1165.6 27.5299 1168.68 28.9478 Z" fill="#000000" fill-rule="nonzero" fill-opacity="1"></path><path clip-path="url(#clip260)" d="M1181.64 27.2059 L1189.1 27.2059 L1189.1 72.576 L1181.64 72.576 L1181.64 27.2059 M1181.64 9.54393 L1189.1 9.54393 L1189.1 18.9825 L1181.64 18.9825 L1181.64 9.54393 Z" fill="#000000" fill-rule="nonzero" fill-opacity="1"></path><path clip-path="url(#clip260)" d="M1204.69 9.54393 L1212.15 9.54393 L1212.15 72.576 L1204.69 72.576 L1204.69 9.54393 Z" fill="#000000" fill-rule="nonzero" fill-opacity="1"></path><path clip-path="url(#clip260)" d="M1227.74 9.54393 L1235.2 9.54393 L1235.2 72.576 L1227.74 72.576 L1227.74 9.54393 Z" fill="#000000" fill-rule="nonzero" fill-opacity="1"></path><path clip-path="url(#clip260)" d="M1271.41 49.7694 Q1262.38 49.7694 1258.9 51.8354 Q1255.41 53.9013 1255.41 58.8839 Q1255.41 62.8538 1258 65.2034 Q1260.64 67.5124 1265.13 67.5124 Q1271.33 67.5124 1275.06 63.1374 Q1278.83 58.7219 1278.83 51.4303 L1278.83 49.7694 L1271.41 49.7694 M1286.28 46.6907 L1286.28 72.576 L1278.83 72.576 L1278.83 65.6895 Q1276.27 69.8214 1272.47 71.8063 Q1268.66 73.7508 1263.15 73.7508 Q1256.18 73.7508 1252.05 69.8619 Q1247.96 65.9325 1247.96 59.3701 Q1247.96 51.7138 1253.06 47.825 Q1258.21 43.9361 1268.37 43.9361 L1278.83 43.9361 L1278.83 43.2069 Q1278.83 38.0623 1275.42 35.2672 Q1272.06 32.4315 1265.94 32.4315 Q1262.05 32.4315 1258.37 33.3632 Q1254.68 34.295 1251.28 36.1584 L1251.28 29.2718 Q1255.37 27.692 1259.22 26.9223 Q1263.07 26.1121 1266.71 26.1121 Q1276.56 26.1121 1281.42 31.2163 Q1286.28 36.3204 1286.28 46.6907 Z" fill="#000000" fill-rule="nonzero" fill-opacity="1"></path><path clip-path="url(#clip260)" d="M1309 14.324 L1309 27.2059 L1324.36 27.2059 L1324.36 32.9987 L1309 32.9987 L1309 57.6282 Q1309 63.1779 1310.5 64.7578 Q1312.04 66.3376 1316.7 66.3376 L1324.36 66.3376 L1324.36 72.576 L1316.7 72.576 Q1308.07 72.576 1304.79 69.3758 Q1301.51 66.1351 1301.51 57.6282 L1301.51 32.9987 L1296.04 32.9987 L1296.04 27.2059 L1301.51 27.2059 L1301.51 14.324 L1309 14.324 Z" fill="#000000" fill-rule="nonzero" fill-opacity="1"></path><path clip-path="url(#clip260)" d="M1334.16 27.2059 L1341.61 27.2059 L1341.61 72.576 L1334.16 72.576 L1334.16 27.2059 M1334.16 9.54393 L1341.61 9.54393 L1341.61 18.9825 L1334.16 18.9825 L1334.16 9.54393 Z" fill="#000000" fill-rule="nonzero" fill-opacity="1"></path><path clip-path="url(#clip260)" d="M1374.79 32.4315 Q1368.8 32.4315 1365.31 37.1306 Q1361.83 41.7891 1361.83 49.9314 Q1361.83 58.0738 1365.27 62.7728 Q1368.76 67.4314 1374.79 67.4314 Q1380.75 67.4314 1384.23 62.7323 Q1387.71 58.0333 1387.71 49.9314 Q1387.71 41.8701 1384.23 37.1711 Q1380.75 32.4315 1374.79 32.4315 M1374.79 26.1121 Q1384.51 26.1121 1390.06 32.4315 Q1395.61 38.7509 1395.61 49.9314 Q1395.61 61.0714 1390.06 67.4314 Q1384.51 73.7508 1374.79 73.7508 Q1365.03 73.7508 1359.48 67.4314 Q1353.97 61.0714 1353.97 49.9314 Q1353.97 38.7509 1359.48 32.4315 Q1365.03 26.1121 1374.79 26.1121 Z" fill="#000000" fill-rule="nonzero" fill-opacity="1"></path><path clip-path="url(#clip260)" d="M1445.68 45.1919 L1445.68 72.576 L1438.23 72.576 L1438.23 45.4349 Q1438.23 38.994 1435.72 35.7938 Q1433.21 32.5936 1428.18 32.5936 Q1422.15 32.5936 1418.66 36.4419 Q1415.18 40.2903 1415.18 46.9338 L1415.18 72.576 L1407.68 72.576 L1407.68 27.2059 L1415.18 27.2059 L1415.18 34.2544 Q1417.85 30.163 1421.46 28.1376 Q1425.1 26.1121 1429.84 26.1121 Q1437.66 26.1121 1441.67 30.9732 Q1445.68 35.7938 1445.68 45.1919 Z" fill="#000000" fill-rule="nonzero" fill-opacity="1"></path><path clip-path="url(#clip260)" d="M1494.29 14.324 L1494.29 27.2059 L1509.65 27.2059 L1509.65 32.9987 L1494.29 32.9987 L1494.29 57.6282 Q1494.29 63.1779 1495.79 64.7578 Q1497.33 66.3376 1501.99 66.3376 L1509.65 66.3376 L1509.65 72.576 L1501.99 72.576 Q1493.36 72.576 1490.08 69.3758 Q1486.8 66.1351 1486.8 57.6282 L1486.8 32.9987 L1481.33 32.9987 L1481.33 27.2059 L1486.8 27.2059 L1486.8 14.324 L1494.29 14.324 Z" fill="#000000" fill-rule="nonzero" fill-opacity="1"></path><path clip-path="url(#clip260)" d="M1537.03 32.4315 Q1531.03 32.4315 1527.55 37.1306 Q1524.07 41.7891 1524.07 49.9314 Q1524.07 58.0738 1527.51 62.7728 Q1530.99 67.4314 1537.03 67.4314 Q1542.99 67.4314 1546.47 62.7323 Q1549.95 58.0333 1549.95 49.9314 Q1549.95 41.8701 1546.47 37.1711 Q1542.99 32.4315 1537.03 32.4315 M1537.03 26.1121 Q1546.75 26.1121 1552.3 32.4315 Q1557.85 38.7509 1557.85 49.9314 Q1557.85 61.0714 1552.3 67.4314 Q1546.75 73.7508 1537.03 73.7508 Q1527.27 73.7508 1521.72 67.4314 Q1516.21 61.0714 1516.21 49.9314 Q1516.21 38.7509 1521.72 32.4315 Q1527.27 26.1121 1537.03 26.1121 Z" fill="#000000" fill-rule="nonzero" fill-opacity="1"></path><path clip-path="url(#clip260)" d="M1577.58 14.324 L1577.58 27.2059 L1592.93 27.2059 L1592.93 32.9987 L1577.58 32.9987 L1577.58 57.6282 Q1577.58 63.1779 1579.08 64.7578 Q1580.62 66.3376 1585.28 66.3376 L1592.93 66.3376 L1592.93 72.576 L1585.28 72.576 Q1576.65 72.576 1573.37 69.3758 Q1570.09 66.1351 1570.09 57.6282 L1570.09 32.9987 L1564.62 32.9987 L1564.62 27.2059 L1570.09 27.2059 L1570.09 14.324 L1577.58 14.324 Z" fill="#000000" fill-rule="nonzero" fill-opacity="1"></path><path clip-path="url(#clip260)" d="M1623.35 49.7694 Q1614.32 49.7694 1610.84 51.8354 Q1607.35 53.9013 1607.35 58.8839 Q1607.35 62.8538 1609.95 65.2034 Q1612.58 67.5124 1617.08 67.5124 Q1623.27 67.5124 1627 63.1374 Q1630.77 58.7219 1630.77 51.4303 L1630.77 49.7694 L1623.35 49.7694 M1638.22 46.6907 L1638.22 72.576 L1630.77 72.576 L1630.77 65.6895 Q1628.22 69.8214 1624.41 71.8063 Q1620.6 73.7508 1615.09 73.7508 Q1608.12 73.7508 1603.99 69.8619 Q1599.9 65.9325 1599.9 59.3701 Q1599.9 51.7138 1605 47.825 Q1610.15 43.9361 1620.32 43.9361 L1630.77 43.9361 L1630.77 43.2069 Q1630.77 38.0623 1627.37 35.2672 Q1624 32.4315 1617.89 32.4315 Q1614 32.4315 1610.31 33.3632 Q1606.62 34.295 1603.22 36.1584 L1603.22 29.2718 Q1607.31 27.692 1611.16 26.9223 Q1615.01 26.1121 1618.66 26.1121 Q1628.5 26.1121 1633.36 31.2163 Q1638.22 36.3204 1638.22 46.6907 Z" fill="#000000" fill-rule="nonzero" fill-opacity="1"></path><path clip-path="url(#clip260)" d="M1653.57 9.54393 L1661.03 9.54393 L1661.03 72.576 L1653.57 72.576 L1653.57 9.54393 Z" fill="#000000" fill-rule="nonzero" fill-opacity="1"></path><path clip-path="url(#clip260)" d="M1732 44.2197 Q1734.63 45.1109 1737.1 48.0275 Q1739.62 50.9442 1742.13 56.0483 L1750.43 72.576 L1741.64 72.576 L1733.9 57.061 Q1730.91 50.9847 1728.07 48.9997 Q1725.28 47.0148 1720.41 47.0148 L1711.5 47.0148 L1711.5 72.576 L1703.32 72.576 L1703.32 12.096 L1721.79 12.096 Q1732.16 12.096 1737.27 16.4305 Q1742.37 20.7649 1742.37 29.5149 Q1742.37 35.2267 1739.7 38.994 Q1737.06 42.7613 1732 44.2197 M1711.5 18.8205 L1711.5 40.2903 L1721.79 40.2903 Q1727.71 40.2903 1730.7 37.5762 Q1733.74 34.8216 1733.74 29.5149 Q1733.74 24.2082 1730.7 21.5346 Q1727.71 18.8205 1721.79 18.8205 L1711.5 18.8205 Z" fill="#000000" fill-rule="nonzero" fill-opacity="1"></path><path clip-path="url(#clip260)" d="M1769.15 18.8205 L1769.15 65.8515 L1779.03 65.8515 Q1791.55 65.8515 1797.34 60.1802 Q1803.17 54.509 1803.17 42.2752 Q1803.17 30.1225 1797.34 24.4918 Q1791.55 18.8205 1779.03 18.8205 L1769.15 18.8205 M1760.96 12.096 L1777.78 12.096 Q1795.36 12.096 1803.58 19.4281 Q1811.8 26.7198 1811.8 42.2752 Q1811.8 57.9117 1803.54 65.2439 Q1795.28 72.576 1777.78 72.576 L1760.96 72.576 L1760.96 12.096 Z" fill="#000000" fill-rule="nonzero" fill-opacity="1"></path><path clip-path="url(#clip260)" d="M1833.03 18.8205 L1833.03 41.5461 L1843.32 41.5461 Q1849.03 41.5461 1852.15 38.5889 Q1855.27 35.6318 1855.27 30.163 Q1855.27 24.7348 1852.15 21.7777 Q1849.03 18.8205 1843.32 18.8205 L1833.03 18.8205 M1824.85 12.096 L1843.32 12.096 Q1853.49 12.096 1858.67 16.714 Q1863.9 21.2916 1863.9 30.163 Q1863.9 39.1155 1858.67 43.6931 Q1853.49 48.2706 1843.32 48.2706 L1833.03 48.2706 L1833.03 72.576 L1824.85 72.576 L1824.85 12.096 Z" fill="#000000" fill-rule="nonzero" fill-opacity="1"></path><path clip-path="url(#clip260)" d="M1916.11 63.9476 L1916.11 47.7034 L1902.75 47.7034 L1902.75 40.9789 L1924.22 40.9789 L1924.22 66.9452 Q1919.48 70.3075 1913.76 72.0494 Q1908.05 73.7508 1901.57 73.7508 Q1887.39 73.7508 1879.37 65.4869 Q1871.39 57.1826 1871.39 42.3968 Q1871.39 27.5705 1879.37 19.3066 Q1887.39 11.0023 1901.57 11.0023 Q1907.49 11.0023 1912.79 12.4606 Q1918.14 13.9189 1922.64 16.7545 L1922.64 25.464 Q1918.1 21.6156 1912.99 19.6712 Q1907.89 17.7268 1902.26 17.7268 Q1891.16 17.7268 1885.57 23.9246 Q1880.02 30.1225 1880.02 42.3968 Q1880.02 54.6305 1885.57 60.8284 Q1891.16 67.0263 1902.26 67.0263 Q1906.59 67.0263 1910 66.2971 Q1913.4 65.5274 1916.11 63.9476 Z" fill="#000000" fill-rule="nonzero" fill-opacity="1"></path><path clip-path="url(#clip260)" d="M1965.21 9.54393 L1972.66 9.54393 L1972.66 72.576 L1965.21 72.576 L1965.21 9.54393 Z" fill="#000000" fill-rule="nonzero" fill-opacity="1"></path><path clip-path="url(#clip260)" d="M2005.84 32.4315 Q1999.85 32.4315 1996.36 37.1306 Q1992.88 41.7891 1992.88 49.9314 Q1992.88 58.0738 1996.32 62.7728 Q1999.81 67.4314 2005.84 67.4314 Q2011.8 67.4314 2015.28 62.7323 Q2018.76 58.0333 2018.76 49.9314 Q2018.76 41.8701 2015.28 37.1711 Q2011.8 32.4315 2005.84 32.4315 M2005.84 26.1121 Q2015.56 26.1121 2021.11 32.4315 Q2026.66 38.7509 2026.66 49.9314 Q2026.66 61.0714 2021.11 67.4314 Q2015.56 73.7508 2005.84 73.7508 Q1996.08 73.7508 1990.53 67.4314 Q1985.02 61.0714 1985.02 49.9314 Q1985.02 38.7509 1990.53 32.4315 Q1996.08 26.1121 2005.84 26.1121 Z" fill="#000000" fill-rule="nonzero" fill-opacity="1"></path><path clip-path="url(#clip260)" d="M2067.94 28.5427 L2067.94 35.5912 Q2064.78 33.9709 2061.38 33.1607 Q2057.98 32.3505 2054.33 32.3505 Q2048.78 32.3505 2045.99 34.0519 Q2043.23 35.7533 2043.23 39.156 Q2043.23 41.7486 2045.22 43.2475 Q2047.2 44.7058 2053.2 46.0426 L2055.75 46.6097 Q2063.69 48.3111 2067.01 51.4303 Q2070.37 54.509 2070.37 60.0587 Q2070.37 66.3781 2065.35 70.0644 Q2060.37 73.7508 2051.62 73.7508 Q2047.97 73.7508 2044 73.0216 Q2040.07 72.3329 2035.7 70.9151 L2035.7 63.2184 Q2039.83 65.3654 2043.84 66.4591 Q2047.85 67.5124 2051.78 67.5124 Q2057.04 67.5124 2059.88 65.73 Q2062.72 63.9071 2062.72 60.6258 Q2062.72 57.5877 2060.65 55.9673 Q2058.62 54.3469 2051.7 52.8481 L2049.11 52.2405 Q2042.18 50.7821 2039.1 47.7845 Q2036.02 44.7463 2036.02 39.4801 Q2036.02 33.0797 2040.56 29.5959 Q2045.09 26.1121 2053.44 26.1121 Q2057.57 26.1121 2061.22 26.7198 Q2064.86 27.3274 2067.94 28.5427 Z" fill="#000000" fill-rule="nonzero" fill-opacity="1"></path><path clip-path="url(#clip260)" d="M2111.16 28.5427 L2111.16 35.5912 Q2108.01 33.9709 2104.6 33.1607 Q2101.2 32.3505 2097.55 32.3505 Q2092 32.3505 2089.21 34.0519 Q2086.45 35.7533 2086.45 39.156 Q2086.45 41.7486 2088.44 43.2475 Q2090.42 44.7058 2096.42 46.0426 L2098.97 46.6097 Q2106.91 48.3111 2110.23 51.4303 Q2113.6 54.509 2113.6 60.0587 Q2113.6 66.3781 2108.57 70.0644 Q2103.59 73.7508 2094.84 73.7508 Q2091.19 73.7508 2087.22 73.0216 Q2083.29 72.3329 2078.92 70.9151 L2078.92 63.2184 Q2083.05 65.3654 2087.06 66.4591 Q2091.07 67.5124 2095 67.5124 Q2100.27 67.5124 2103.1 65.73 Q2105.94 63.9071 2105.94 60.6258 Q2105.94 57.5877 2103.87 55.9673 Q2101.85 54.3469 2094.92 52.8481 L2092.33 52.2405 Q2085.4 50.7821 2082.32 47.7845 Q2079.24 44.7463 2079.24 39.4801 Q2079.24 33.0797 2083.78 29.5959 Q2088.32 26.1121 2096.66 26.1121 Q2100.79 26.1121 2104.44 26.7198 Q2108.09 27.3274 2111.16 28.5427 Z" fill="#000000" fill-rule="nonzero" fill-opacity="1"></path><polyline clip-path="url(#clip262)" style="stroke:#009af9; stroke-linecap:round; stroke-linejoin:round; stroke-width:4; stroke-opacity:1; fill:none" points="264.778,1386.4 334.681,659.415 404.583,768.251 474.485,932.062 544.387,900.865 614.289,897.484 684.191,682.553 754.094,755.59 823.996,784.258 893.898,822.998 963.8,727.861 1033.7,535.226 1103.6,266.315 1173.51,543.745 1243.41,685.432 1313.31,710.781 1383.21,820.386 1453.12,578.004 1523.02,474.109 1592.92,862.455 1662.82,823.796 1732.72,798.437 1802.63,744.942 1872.53,645.081 1942.43,710.734 2012.33,883.877 2082.23,870.349 2152.14,734.379 2222.04,436.668 2291.94,410.597 "></polyline>
<polyline clip-path="url(#clip262)" style="stroke:#ff0000; stroke-linecap:round; stroke-linejoin:round; stroke-width:2; stroke-opacity:1; fill:none" points="1313.31,1386.4 1313.31,160.256 "></polyline>
<path clip-path="url(#clip260)" d="M275.59 322.316 L954.194 322.316 L954.194 166.796 L275.59 166.796  Z" fill="#ffffff" fill-rule="evenodd" fill-opacity="1"></path>
<polyline clip-path="url(#clip260)" style="stroke:#000000; stroke-linecap:round; stroke-linejoin:round; stroke-width:4; stroke-opacity:1; fill:none" points="275.59,322.316 954.194,322.316 954.194,166.796 275.59,166.796 275.59,322.316 "></polyline>
<polyline clip-path="url(#clip260)" style="stroke:#009af9; stroke-linecap:round; stroke-linejoin:round; stroke-width:4; stroke-opacity:1; fill:none" points="299.465,218.636 442.718,218.636 "></polyline>
<path clip-path="url(#clip260)" d="M466.594 199.897 L470.853 199.897 L470.853 235.916 L466.594 235.916 L466.594 199.897 Z" fill="#000000" fill-rule="nonzero" fill-opacity="1"></path><path clip-path="url(#clip260)" d="M489.811 212.976 Q486.385 212.976 484.395 215.661 Q482.404 218.323 482.404 222.976 Q482.404 227.629 484.371 230.314 Q486.362 232.976 489.811 232.976 Q493.214 232.976 495.205 230.291 Q497.195 227.606 497.195 222.976 Q497.195 218.37 495.205 215.684 Q493.214 212.976 489.811 212.976 M489.811 209.365 Q495.367 209.365 498.538 212.976 Q501.709 216.587 501.709 222.976 Q501.709 229.342 498.538 232.976 Q495.367 236.587 489.811 236.587 Q484.233 236.587 481.061 232.976 Q477.913 229.342 477.913 222.976 Q477.913 216.587 481.061 212.976 Q484.233 209.365 489.811 209.365 Z" fill="#000000" fill-rule="nonzero" fill-opacity="1"></path><path clip-path="url(#clip260)" d="M525.297 210.754 L525.297 214.782 Q523.492 213.856 521.547 213.393 Q519.603 212.93 517.519 212.93 Q514.348 212.93 512.751 213.902 Q511.177 214.874 511.177 216.819 Q511.177 218.3 512.311 219.157 Q513.445 219.99 516.871 220.754 L518.33 221.078 Q522.867 222.05 524.765 223.832 Q526.686 225.592 526.686 228.763 Q526.686 232.374 523.816 234.481 Q520.968 236.587 515.968 236.587 Q513.885 236.587 511.617 236.17 Q509.371 235.777 506.871 234.967 L506.871 230.569 Q509.232 231.795 511.524 232.42 Q513.816 233.022 516.061 233.022 Q519.07 233.022 520.691 232.004 Q522.311 230.962 522.311 229.087 Q522.311 227.351 521.13 226.425 Q519.973 225.499 516.015 224.643 L514.533 224.295 Q510.575 223.462 508.816 221.749 Q507.056 220.013 507.056 217.004 Q507.056 213.346 509.649 211.356 Q512.242 209.365 517.01 209.365 Q519.371 209.365 521.455 209.712 Q523.538 210.059 525.297 210.754 Z" fill="#000000" fill-rule="nonzero" fill-opacity="1"></path><path clip-path="url(#clip260)" d="M549.996 210.754 L549.996 214.782 Q548.191 213.856 546.246 213.393 Q544.302 212.93 542.218 212.93 Q539.047 212.93 537.45 213.902 Q535.876 214.874 535.876 216.819 Q535.876 218.3 537.01 219.157 Q538.144 219.99 541.57 220.754 L543.029 221.078 Q547.566 222.05 549.464 223.832 Q551.385 225.592 551.385 228.763 Q551.385 232.374 548.515 234.481 Q545.667 236.587 540.667 236.587 Q538.584 236.587 536.316 236.17 Q534.07 235.777 531.57 234.967 L531.57 230.569 Q533.931 231.795 536.223 232.42 Q538.515 233.022 540.76 233.022 Q543.769 233.022 545.39 232.004 Q547.01 230.962 547.01 229.087 Q547.01 227.351 545.829 226.425 Q544.672 225.499 540.714 224.643 L539.232 224.295 Q535.274 223.462 533.515 221.749 Q531.755 220.013 531.755 217.004 Q531.755 213.346 534.348 211.356 Q536.941 209.365 541.709 209.365 Q544.07 209.365 546.154 209.712 Q548.237 210.059 549.996 210.754 Z" fill="#000000" fill-rule="nonzero" fill-opacity="1"></path><polyline clip-path="url(#clip260)" style="stroke:#ff0000; stroke-linecap:round; stroke-linejoin:round; stroke-width:2; stroke-opacity:1; fill:none" points="299.465,270.476 442.718,270.476 "></polyline>
<path clip-path="url(#clip260)" d="M490.621 273.728 L490.621 275.811 L471.038 275.811 Q471.316 280.209 473.677 282.524 Q476.061 284.816 480.297 284.816 Q482.751 284.816 485.043 284.214 Q487.358 283.612 489.626 282.409 L489.626 286.436 Q487.334 287.408 484.927 287.918 Q482.52 288.427 480.043 288.427 Q473.839 288.427 470.205 284.816 Q466.594 281.205 466.594 275.047 Q466.594 268.682 470.02 264.955 Q473.469 261.205 479.302 261.205 Q484.533 261.205 487.566 264.585 Q490.621 267.941 490.621 273.728 M486.362 272.478 Q486.316 268.983 484.395 266.899 Q482.496 264.816 479.348 264.816 Q475.784 264.816 473.631 266.83 Q471.501 268.844 471.177 272.501 L486.362 272.478 Z" fill="#000000" fill-rule="nonzero" fill-opacity="1"></path><path clip-path="url(#clip260)" d="M519.163 272.108 L519.163 287.756 L514.904 287.756 L514.904 272.247 Q514.904 268.566 513.468 266.737 Q512.033 264.909 509.163 264.909 Q505.714 264.909 503.723 267.108 Q501.732 269.307 501.732 273.103 L501.732 287.756 L497.45 287.756 L497.45 261.83 L501.732 261.83 L501.732 265.858 Q503.26 263.52 505.32 262.362 Q507.404 261.205 510.112 261.205 Q514.58 261.205 516.871 263.983 Q519.163 266.737 519.163 272.108 Z" fill="#000000" fill-rule="nonzero" fill-opacity="1"></path><path clip-path="url(#clip260)" d="M544.718 265.765 L544.718 251.737 L548.978 251.737 L548.978 287.756 L544.718 287.756 L544.718 283.867 Q543.376 286.182 541.316 287.316 Q539.279 288.427 536.408 288.427 Q531.709 288.427 528.746 284.677 Q525.806 280.927 525.806 274.816 Q525.806 268.705 528.746 264.955 Q531.709 261.205 536.408 261.205 Q539.279 261.205 541.316 262.339 Q543.376 263.45 544.718 265.765 M530.205 274.816 Q530.205 279.515 532.126 282.2 Q534.07 284.862 537.45 284.862 Q540.829 284.862 542.774 282.2 Q544.718 279.515 544.718 274.816 Q544.718 270.117 542.774 267.455 Q540.829 264.77 537.45 264.77 Q534.07 264.77 532.126 267.455 Q530.205 270.117 530.205 274.816 Z" fill="#000000" fill-rule="nonzero" fill-opacity="1"></path><path clip-path="url(#clip260)" d="M582.866 264.816 Q579.44 264.816 577.45 267.501 Q575.459 270.163 575.459 274.816 Q575.459 279.469 577.426 282.154 Q579.417 284.816 582.866 284.816 Q586.269 284.816 588.26 282.131 Q590.25 279.446 590.25 274.816 Q590.25 270.21 588.26 267.524 Q586.269 264.816 582.866 264.816 M582.866 261.205 Q588.422 261.205 591.593 264.816 Q594.764 268.427 594.764 274.816 Q594.764 281.182 591.593 284.816 Q588.422 288.427 582.866 288.427 Q577.288 288.427 574.116 284.816 Q570.968 281.182 570.968 274.816 Q570.968 268.427 574.116 264.816 Q577.288 261.205 582.866 261.205 Z" fill="#000000" fill-rule="nonzero" fill-opacity="1"></path><path clip-path="url(#clip260)" d="M614.949 251.737 L614.949 255.279 L610.875 255.279 Q608.584 255.279 607.681 256.205 Q606.801 257.131 606.801 259.538 L606.801 261.83 L613.815 261.83 L613.815 265.14 L606.801 265.14 L606.801 287.756 L602.519 287.756 L602.519 265.14 L598.445 265.14 L598.445 261.83 L602.519 261.83 L602.519 260.024 Q602.519 255.696 604.533 253.728 Q606.547 251.737 610.922 251.737 L614.949 251.737 Z" fill="#000000" fill-rule="nonzero" fill-opacity="1"></path><path clip-path="url(#clip260)" d="M637.797 254.469 L637.797 261.83 L646.57 261.83 L646.57 265.14 L637.797 265.14 L637.797 279.214 Q637.797 282.385 638.653 283.288 Q639.533 284.191 642.195 284.191 L646.57 284.191 L646.57 287.756 L642.195 287.756 Q637.264 287.756 635.389 285.927 Q633.514 284.075 633.514 279.214 L633.514 265.14 L630.389 265.14 L630.389 261.83 L633.514 261.83 L633.514 254.469 L637.797 254.469 Z" fill="#000000" fill-rule="nonzero" fill-opacity="1"></path><path clip-path="url(#clip260)" d="M667.195 265.811 Q666.477 265.395 665.62 265.21 Q664.787 265.001 663.769 265.001 Q660.158 265.001 658.213 267.362 Q656.292 269.7 656.292 274.098 L656.292 287.756 L652.009 287.756 L652.009 261.83 L656.292 261.83 L656.292 265.858 Q657.634 263.497 659.787 262.362 Q661.94 261.205 665.019 261.205 Q665.458 261.205 665.991 261.274 Q666.523 261.321 667.171 261.436 L667.195 265.811 Z" fill="#000000" fill-rule="nonzero" fill-opacity="1"></path><path clip-path="url(#clip260)" d="M683.444 274.723 Q678.282 274.723 676.292 275.904 Q674.301 277.084 674.301 279.932 Q674.301 282.2 675.782 283.543 Q677.287 284.862 679.856 284.862 Q683.398 284.862 685.528 282.362 Q687.681 279.839 687.681 275.672 L687.681 274.723 L683.444 274.723 M691.94 272.964 L691.94 287.756 L687.681 287.756 L687.681 283.821 Q686.222 286.182 684.046 287.316 Q681.87 288.427 678.722 288.427 Q674.741 288.427 672.38 286.205 Q670.042 283.959 670.042 280.209 Q670.042 275.834 672.958 273.612 Q675.898 271.39 681.708 271.39 L687.681 271.39 L687.681 270.973 Q687.681 268.034 685.736 266.436 Q683.815 264.816 680.319 264.816 Q678.097 264.816 675.991 265.348 Q673.884 265.881 671.94 266.946 L671.94 263.01 Q674.278 262.108 676.477 261.668 Q678.676 261.205 680.759 261.205 Q686.384 261.205 689.162 264.122 Q691.94 267.038 691.94 272.964 Z" fill="#000000" fill-rule="nonzero" fill-opacity="1"></path><path clip-path="url(#clip260)" d="M700.713 261.83 L704.972 261.83 L704.972 287.756 L700.713 287.756 L700.713 261.83 M700.713 251.737 L704.972 251.737 L704.972 257.131 L700.713 257.131 L700.713 251.737 Z" fill="#000000" fill-rule="nonzero" fill-opacity="1"></path><path clip-path="url(#clip260)" d="M735.435 272.108 L735.435 287.756 L731.176 287.756 L731.176 272.247 Q731.176 268.566 729.74 266.737 Q728.305 264.909 725.435 264.909 Q721.986 264.909 719.995 267.108 Q718.004 269.307 718.004 273.103 L718.004 287.756 L713.722 287.756 L713.722 261.83 L718.004 261.83 L718.004 265.858 Q719.532 263.52 721.592 262.362 Q723.676 261.205 726.384 261.205 Q730.852 261.205 733.143 263.983 Q735.435 266.737 735.435 272.108 Z" fill="#000000" fill-rule="nonzero" fill-opacity="1"></path><path clip-path="url(#clip260)" d="M743.93 261.83 L748.189 261.83 L748.189 287.756 L743.93 287.756 L743.93 261.83 M743.93 251.737 L748.189 251.737 L748.189 257.131 L743.93 257.131 L743.93 251.737 Z" fill="#000000" fill-rule="nonzero" fill-opacity="1"></path><path clip-path="url(#clip260)" d="M778.652 272.108 L778.652 287.756 L774.393 287.756 L774.393 272.247 Q774.393 268.566 772.958 266.737 Q771.523 264.909 768.652 264.909 Q765.203 264.909 763.213 267.108 Q761.222 269.307 761.222 273.103 L761.222 287.756 L756.939 287.756 L756.939 261.83 L761.222 261.83 L761.222 265.858 Q762.75 263.52 764.81 262.362 Q766.893 261.205 769.601 261.205 Q774.069 261.205 776.361 263.983 Q778.652 266.737 778.652 272.108 Z" fill="#000000" fill-rule="nonzero" fill-opacity="1"></path><path clip-path="url(#clip260)" d="M804.208 274.492 Q804.208 269.862 802.286 267.316 Q800.388 264.77 796.939 264.77 Q793.513 264.77 791.592 267.316 Q789.694 269.862 789.694 274.492 Q789.694 279.098 791.592 281.645 Q793.513 284.191 796.939 284.191 Q800.388 284.191 802.286 281.645 Q804.208 279.098 804.208 274.492 M808.467 284.538 Q808.467 291.158 805.527 294.376 Q802.587 297.617 796.523 297.617 Q794.277 297.617 792.286 297.27 Q790.296 296.945 788.421 296.251 L788.421 292.108 Q790.296 293.126 792.124 293.612 Q793.953 294.098 795.851 294.098 Q800.041 294.098 802.124 291.899 Q804.208 289.723 804.208 285.302 L804.208 283.196 Q802.888 285.487 800.828 286.621 Q798.768 287.756 795.898 287.756 Q791.129 287.756 788.212 284.121 Q785.296 280.487 785.296 274.492 Q785.296 268.473 788.212 264.839 Q791.129 261.205 795.898 261.205 Q798.768 261.205 800.828 262.339 Q802.888 263.473 804.208 265.765 L804.208 261.83 L808.467 261.83 L808.467 284.538 Z" fill="#000000" fill-rule="nonzero" fill-opacity="1"></path><path clip-path="url(#clip260)" d="M849.369 265.765 L849.369 251.737 L853.629 251.737 L853.629 287.756 L849.369 287.756 L849.369 283.867 Q848.027 286.182 845.967 287.316 Q843.93 288.427 841.059 288.427 Q836.36 288.427 833.397 284.677 Q830.458 280.927 830.458 274.816 Q830.458 268.705 833.397 264.955 Q836.36 261.205 841.059 261.205 Q843.93 261.205 845.967 262.339 Q848.027 263.45 849.369 265.765 M834.856 274.816 Q834.856 279.515 836.777 282.2 Q838.721 284.862 842.101 284.862 Q845.481 284.862 847.425 282.2 Q849.369 279.515 849.369 274.816 Q849.369 270.117 847.425 267.455 Q845.481 264.77 842.101 264.77 Q838.721 264.77 836.777 267.455 Q834.856 270.117 834.856 274.816 Z" fill="#000000" fill-rule="nonzero" fill-opacity="1"></path><path clip-path="url(#clip260)" d="M874.184 274.723 Q869.022 274.723 867.031 275.904 Q865.041 277.084 865.041 279.932 Q865.041 282.2 866.522 283.543 Q868.027 284.862 870.596 284.862 Q874.138 284.862 876.267 282.362 Q878.42 279.839 878.42 275.672 L878.42 274.723 L874.184 274.723 M882.679 272.964 L882.679 287.756 L878.42 287.756 L878.42 283.821 Q876.962 286.182 874.786 287.316 Q872.61 288.427 869.462 288.427 Q865.48 288.427 863.119 286.205 Q860.781 283.959 860.781 280.209 Q860.781 275.834 863.698 273.612 Q866.638 271.39 872.448 271.39 L878.42 271.39 L878.42 270.973 Q878.42 268.034 876.476 266.436 Q874.555 264.816 871.059 264.816 Q868.837 264.816 866.73 265.348 Q864.624 265.881 862.68 266.946 L862.68 263.01 Q865.018 262.108 867.217 261.668 Q869.416 261.205 871.499 261.205 Q877.124 261.205 879.902 264.122 Q882.679 267.038 882.679 272.964 Z" fill="#000000" fill-rule="nonzero" fill-opacity="1"></path><path clip-path="url(#clip260)" d="M895.666 254.469 L895.666 261.83 L904.439 261.83 L904.439 265.14 L895.666 265.14 L895.666 279.214 Q895.666 282.385 896.522 283.288 Q897.402 284.191 900.064 284.191 L904.439 284.191 L904.439 287.756 L900.064 287.756 Q895.133 287.756 893.258 285.927 Q891.383 284.075 891.383 279.214 L891.383 265.14 L888.258 265.14 L888.258 261.83 L891.383 261.83 L891.383 254.469 L895.666 254.469 Z" fill="#000000" fill-rule="nonzero" fill-opacity="1"></path><path clip-path="url(#clip260)" d="M921.823 274.723 Q916.661 274.723 914.67 275.904 Q912.679 277.084 912.679 279.932 Q912.679 282.2 914.161 283.543 Q915.665 284.862 918.235 284.862 Q921.776 284.862 923.906 282.362 Q926.059 279.839 926.059 275.672 L926.059 274.723 L921.823 274.723 M930.318 272.964 L930.318 287.756 L926.059 287.756 L926.059 283.821 Q924.601 286.182 922.425 287.316 Q920.249 288.427 917.101 288.427 Q913.119 288.427 910.758 286.205 Q908.42 283.959 908.42 280.209 Q908.42 275.834 911.337 273.612 Q914.277 271.39 920.087 271.39 L926.059 271.39 L926.059 270.973 Q926.059 268.034 924.114 266.436 Q922.193 264.816 918.698 264.816 Q916.476 264.816 914.369 265.348 Q912.263 265.881 910.318 266.946 L910.318 263.01 Q912.656 262.108 914.855 261.668 Q917.054 261.205 919.138 261.205 Q924.763 261.205 927.54 264.122 Q930.318 267.038 930.318 272.964 Z" fill="#000000" fill-rule="nonzero" fill-opacity="1"></path></svg>