<svg xmlns="http://www.w3.org/2000/svg" xmlns:xlink="http://www.w3.org/1999/xlink" width="600" height="400" viewBox="0 0 2400 1600">
<defs>
  <clipPath id="clip860">
    <rect x="0" y="0" width="2400" height="1600"></rect>
  </clipPath>
</defs>
<path clip-path="url(#clip860)" d="M0 1600 L2400 1600 L2400 0 L0 0  Z" fill="#ffffff" fill-rule="evenodd" fill-opacity="1"></path>
<defs>
  <clipPath id="clip861">
    <rect x="480" y="0" width="1681" height="1600"></rect>
  </clipPath>
</defs>
<path clip-path="url(#clip860)" d="M193.936 1423.18 L2352.76 1423.18 L2352.76 123.472 L193.936 123.472  Z" fill="#ffffff" fill-rule="evenodd" fill-opacity="1"></path>
<defs>
  <clipPath id="clip862">
    <rect x="193" y="123" width="2160" height="1301"></rect>
  </clipPath>
</defs>
<polyline clip-path="url(#clip862)" style="stroke:#000000; stroke-linecap:round; stroke-linejoin:round; stroke-width:2; stroke-opacity:0.1; fill:none" points="255.035,1423.18 255.035,123.472 "></polyline>
<polyline clip-path="url(#clip862)" style="stroke:#000000; stroke-linecap:round; stroke-linejoin:round; stroke-width:2; stroke-opacity:0.1; fill:none" points="606.176,1423.18 606.176,123.472 "></polyline>
<polyline clip-path="url(#clip862)" style="stroke:#000000; stroke-linecap:round; stroke-linejoin:round; stroke-width:2; stroke-opacity:0.1; fill:none" points="957.318,1423.18 957.318,123.472 "></polyline>
<polyline clip-path="url(#clip862)" style="stroke:#000000; stroke-linecap:round; stroke-linejoin:round; stroke-width:2; stroke-opacity:0.1; fill:none" points="1308.46,1423.18 1308.46,123.472 "></polyline>
<polyline clip-path="url(#clip862)" style="stroke:#000000; stroke-linecap:round; stroke-linejoin:round; stroke-width:2; stroke-opacity:0.1; fill:none" points="1659.6,1423.18 1659.6,123.472 "></polyline>
<polyline clip-path="url(#clip862)" style="stroke:#000000; stroke-linecap:round; stroke-linejoin:round; stroke-width:2; stroke-opacity:0.1; fill:none" points="2010.74,1423.18 2010.74,123.472 "></polyline>
<polyline clip-path="url(#clip862)" style="stroke:#000000; stroke-linecap:round; stroke-linejoin:round; stroke-width:2; stroke-opacity:0.1; fill:none" points="193.936,1295.9 2352.76,1295.9 "></polyline>
<polyline clip-path="url(#clip862)" style="stroke:#000000; stroke-linecap:round; stroke-linejoin:round; stroke-width:2; stroke-opacity:0.1; fill:none" points="193.936,971.433 2352.76,971.433 "></polyline>
<polyline clip-path="url(#clip862)" style="stroke:#000000; stroke-linecap:round; stroke-linejoin:round; stroke-width:2; stroke-opacity:0.1; fill:none" points="193.936,646.962 2352.76,646.962 "></polyline>
<polyline clip-path="url(#clip862)" style="stroke:#000000; stroke-linecap:round; stroke-linejoin:round; stroke-width:2; stroke-opacity:0.1; fill:none" points="193.936,322.492 2352.76,322.492 "></polyline>
<polyline clip-path="url(#clip860)" style="stroke:#000000; stroke-linecap:round; stroke-linejoin:round; stroke-width:4; stroke-opacity:1; fill:none" points="193.936,1423.18 2352.76,1423.18 "></polyline>
<polyline clip-path="url(#clip860)" style="stroke:#000000; stroke-linecap:round; stroke-linejoin:round; stroke-width:4; stroke-opacity:1; fill:none" points="255.035,1423.18 255.035,1404.28 "></polyline>
<polyline clip-path="url(#clip860)" style="stroke:#000000; stroke-linecap:round; stroke-linejoin:round; stroke-width:4; stroke-opacity:1; fill:none" points="606.176,1423.18 606.176,1404.28 "></polyline>
<polyline clip-path="url(#clip860)" style="stroke:#000000; stroke-linecap:round; stroke-linejoin:round; stroke-width:4; stroke-opacity:1; fill:none" points="957.318,1423.18 957.318,1404.28 "></polyline>
<polyline clip-path="url(#clip860)" style="stroke:#000000; stroke-linecap:round; stroke-linejoin:round; stroke-width:4; stroke-opacity:1; fill:none" points="1308.46,1423.18 1308.46,1404.28 "></polyline>
<polyline clip-path="url(#clip860)" style="stroke:#000000; stroke-linecap:round; stroke-linejoin:round; stroke-width:4; stroke-opacity:1; fill:none" points="1659.6,1423.18 1659.6,1404.28 "></polyline>
<polyline clip-path="url(#clip860)" style="stroke:#000000; stroke-linecap:round; stroke-linejoin:round; stroke-width:4; stroke-opacity:1; fill:none" points="2010.74,1423.18 2010.74,1404.28 "></polyline>
<path clip-path="url(#clip860)" d="M255.035 1454.1 Q251.424 1454.1 249.595 1457.66 Q247.789 1461.2 247.789 1468.33 Q247.789 1475.44 249.595 1479.01 Q251.424 1482.55 255.035 1482.55 Q258.669 1482.55 260.474 1479.01 Q262.303 1475.44 262.303 1468.33 Q262.303 1461.2 260.474 1457.66 Q258.669 1454.1 255.035 1454.1 M255.035 1450.39 Q260.845 1450.39 263.9 1455 Q266.979 1459.58 266.979 1468.33 Q266.979 1477.06 263.9 1481.67 Q260.845 1486.25 255.035 1486.25 Q249.225 1486.25 246.146 1481.67 Q243.09 1477.06 243.09 1468.33 Q243.09 1459.58 246.146 1455 Q249.225 1450.39 255.035 1450.39 Z" fill="#000000" fill-rule="nonzero" fill-opacity="1"></path><path clip-path="url(#clip860)" d="M596.454 1451.02 L614.811 1451.02 L614.811 1454.96 L600.737 1454.96 L600.737 1463.43 Q601.755 1463.08 602.774 1462.92 Q603.792 1462.73 604.811 1462.73 Q610.598 1462.73 613.977 1465.9 Q617.357 1469.08 617.357 1474.49 Q617.357 1480.07 613.885 1483.17 Q610.413 1486.25 604.093 1486.25 Q601.917 1486.25 599.649 1485.88 Q597.403 1485.51 594.996 1484.77 L594.996 1480.07 Q597.079 1481.2 599.302 1481.76 Q601.524 1482.32 604.001 1482.32 Q608.005 1482.32 610.343 1480.21 Q612.681 1478.1 612.681 1474.49 Q612.681 1470.88 610.343 1468.77 Q608.005 1466.67 604.001 1466.67 Q602.126 1466.67 600.251 1467.08 Q598.399 1467.5 596.454 1468.38 L596.454 1451.02 Z" fill="#000000" fill-rule="nonzero" fill-opacity="1"></path><path clip-path="url(#clip860)" d="M932.006 1481.64 L939.645 1481.64 L939.645 1455.28 L931.335 1456.95 L931.335 1452.69 L939.599 1451.02 L944.274 1451.02 L944.274 1481.64 L951.913 1481.64 L951.913 1485.58 L932.006 1485.58 L932.006 1481.64 Z" fill="#000000" fill-rule="nonzero" fill-opacity="1"></path><path clip-path="url(#clip860)" d="M971.358 1454.1 Q967.746 1454.1 965.918 1457.66 Q964.112 1461.2 964.112 1468.33 Q964.112 1475.44 965.918 1479.01 Q967.746 1482.55 971.358 1482.55 Q974.992 1482.55 976.797 1479.01 Q978.626 1475.44 978.626 1468.33 Q978.626 1461.2 976.797 1457.66 Q974.992 1454.1 971.358 1454.1 M971.358 1450.39 Q977.168 1450.39 980.223 1455 Q983.302 1459.58 983.302 1468.33 Q983.302 1477.06 980.223 1481.67 Q977.168 1486.25 971.358 1486.25 Q965.547 1486.25 962.469 1481.67 Q959.413 1477.06 959.413 1468.33 Q959.413 1459.58 962.469 1455 Q965.547 1450.39 971.358 1450.39 Z" fill="#000000" fill-rule="nonzero" fill-opacity="1"></path><path clip-path="url(#clip860)" d="M1283.65 1481.64 L1291.28 1481.64 L1291.28 1455.28 L1282.97 1456.95 L1282.97 1452.69 L1291.24 1451.02 L1295.91 1451.02 L1295.91 1481.64 L1303.55 1481.64 L1303.55 1485.58 L1283.65 1485.58 L1283.65 1481.64 Z" fill="#000000" fill-rule="nonzero" fill-opacity="1"></path><path clip-path="url(#clip860)" d="M1313.04 1451.02 L1331.4 1451.02 L1331.4 1454.96 L1317.33 1454.96 L1317.33 1463.43 Q1318.34 1463.08 1319.36 1462.92 Q1320.38 1462.73 1321.4 1462.73 Q1327.19 1462.73 1330.57 1465.9 Q1333.95 1469.08 1333.95 1474.49 Q1333.95 1480.07 1330.47 1483.17 Q1327 1486.25 1320.68 1486.25 Q1318.51 1486.25 1316.24 1485.88 Q1313.99 1485.51 1311.59 1484.77 L1311.59 1480.07 Q1313.67 1481.2 1315.89 1481.76 Q1318.11 1482.32 1320.59 1482.32 Q1324.59 1482.32 1326.93 1480.21 Q1329.27 1478.1 1329.27 1474.49 Q1329.27 1470.88 1326.93 1468.77 Q1324.59 1466.67 1320.59 1466.67 Q1318.71 1466.67 1316.84 1467.08 Q1314.99 1467.5 1313.04 1468.38 L1313.04 1451.02 Z" fill="#000000" fill-rule="nonzero" fill-opacity="1"></path><path clip-path="url(#clip860)" d="M1638.38 1481.64 L1654.69 1481.64 L1654.69 1485.58 L1632.75 1485.58 L1632.75 1481.64 Q1635.41 1478.89 1640 1474.26 Q1644.6 1469.61 1645.78 1468.27 Q1648.03 1465.74 1648.91 1464.01 Q1649.81 1462.25 1649.81 1460.56 Q1649.81 1457.8 1647.87 1456.07 Q1645.94 1454.33 1642.84 1454.33 Q1640.64 1454.33 1638.19 1455.09 Q1635.76 1455.86 1632.98 1457.41 L1632.98 1452.69 Q1635.81 1451.55 1638.26 1450.97 Q1640.71 1450.39 1642.75 1450.39 Q1648.12 1450.39 1651.31 1453.08 Q1654.51 1455.77 1654.51 1460.26 Q1654.51 1462.39 1653.7 1464.31 Q1652.91 1466.2 1650.81 1468.8 Q1650.23 1469.47 1647.13 1472.69 Q1644.02 1475.88 1638.38 1481.64 Z" fill="#000000" fill-rule="nonzero" fill-opacity="1"></path><path clip-path="url(#clip860)" d="M1674.51 1454.1 Q1670.9 1454.1 1669.07 1457.66 Q1667.26 1461.2 1667.26 1468.33 Q1667.26 1475.44 1669.07 1479.01 Q1670.9 1482.55 1674.51 1482.55 Q1678.14 1482.55 1679.95 1479.01 Q1681.78 1475.44 1681.78 1468.33 Q1681.78 1461.2 1679.95 1457.66 Q1678.14 1454.1 1674.51 1454.1 M1674.51 1450.39 Q1680.32 1450.39 1683.37 1455 Q1686.45 1459.58 1686.45 1468.33 Q1686.45 1477.06 1683.37 1481.67 Q1680.32 1486.25 1674.51 1486.25 Q1668.7 1486.25 1665.62 1481.67 Q1662.56 1477.06 1662.56 1468.33 Q1662.56 1459.58 1665.62 1455 Q1668.7 1450.39 1674.51 1450.39 Z" fill="#000000" fill-rule="nonzero" fill-opacity="1"></path><path clip-path="url(#clip860)" d="M1990.01 1481.64 L2006.33 1481.64 L2006.33 1485.58 L1984.39 1485.58 L1984.39 1481.64 Q1987.05 1478.89 1991.64 1474.26 Q1996.24 1469.61 1997.42 1468.27 Q1999.67 1465.74 2000.55 1464.01 Q2001.45 1462.25 2001.45 1460.56 Q2001.45 1457.8 1999.51 1456.07 Q1997.58 1454.33 1994.48 1454.33 Q1992.28 1454.33 1989.83 1455.09 Q1987.4 1455.86 1984.62 1457.41 L1984.62 1452.69 Q1987.45 1451.55 1989.9 1450.97 Q1992.35 1450.39 1994.39 1450.39 Q1999.76 1450.39 2002.95 1453.08 Q2006.15 1455.77 2006.15 1460.26 Q2006.15 1462.39 2005.34 1464.31 Q2004.55 1466.2 2002.45 1468.8 Q2001.87 1469.47 1998.76 1472.69 Q1995.66 1475.88 1990.01 1481.64 Z" fill="#000000" fill-rule="nonzero" fill-opacity="1"></path><path clip-path="url(#clip860)" d="M2016.2 1451.02 L2034.55 1451.02 L2034.55 1454.96 L2020.48 1454.96 L2020.48 1463.43 Q2021.5 1463.08 2022.51 1462.92 Q2023.53 1462.73 2024.55 1462.73 Q2030.34 1462.73 2033.72 1465.9 Q2037.1 1469.08 2037.1 1474.49 Q2037.1 1480.07 2033.63 1483.17 Q2030.15 1486.25 2023.83 1486.25 Q2021.66 1486.25 2019.39 1485.88 Q2017.14 1485.51 2014.74 1484.77 L2014.74 1480.07 Q2016.82 1481.2 2019.04 1481.76 Q2021.26 1482.32 2023.74 1482.32 Q2027.75 1482.32 2030.08 1480.21 Q2032.42 1478.1 2032.42 1474.49 Q2032.42 1470.88 2030.08 1468.77 Q2027.75 1466.67 2023.74 1466.67 Q2021.87 1466.67 2019.99 1467.08 Q2018.14 1467.5 2016.2 1468.38 L2016.2 1451.02 Z" fill="#000000" fill-rule="nonzero" fill-opacity="1"></path><path clip-path="url(#clip860)" d="M1110.7 1520.52 L1150.9 1520.52 L1150.9 1525.93 L1134.03 1525.93 L1134.03 1568.04 L1127.57 1568.04 L1127.57 1525.93 L1110.7 1525.93 L1110.7 1520.52 Z" fill="#000000" fill-rule="nonzero" fill-opacity="1"></path><path clip-path="url(#clip860)" d="M1154.85 1532.4 L1160.7 1532.4 L1160.7 1568.04 L1154.85 1568.04 L1154.85 1532.4 M1154.85 1518.52 L1160.7 1518.52 L1160.7 1525.93 L1154.85 1525.93 L1154.85 1518.52 Z" fill="#000000" fill-rule="nonzero" fill-opacity="1"></path><path clip-path="url(#clip860)" d="M1200.71 1539.24 Q1202.91 1535.29 1205.96 1533.41 Q1209.02 1531.54 1213.16 1531.54 Q1218.73 1531.54 1221.75 1535.45 Q1224.78 1539.33 1224.78 1546.53 L1224.78 1568.04 L1218.89 1568.04 L1218.89 1546.72 Q1218.89 1541.59 1217.07 1539.11 Q1215.26 1536.63 1211.53 1536.63 Q1206.98 1536.63 1204.34 1539.65 Q1201.7 1542.68 1201.7 1547.9 L1201.7 1568.04 L1195.81 1568.04 L1195.81 1546.72 Q1195.81 1541.56 1194 1539.11 Q1192.18 1536.63 1188.4 1536.63 Q1183.91 1536.63 1181.27 1539.68 Q1178.62 1542.71 1178.62 1547.9 L1178.62 1568.04 L1172.74 1568.04 L1172.74 1532.4 L1178.62 1532.4 L1178.62 1537.93 Q1180.63 1534.66 1183.43 1533.1 Q1186.23 1531.54 1190.08 1531.54 Q1193.97 1531.54 1196.67 1533.51 Q1199.41 1535.48 1200.71 1539.24 Z" fill="#000000" fill-rule="nonzero" fill-opacity="1"></path><path clip-path="url(#clip860)" d="M1266.95 1548.76 L1266.95 1551.62 L1240.02 1551.62 Q1240.4 1557.67 1243.65 1560.85 Q1246.93 1564 1252.75 1564 Q1256.13 1564 1259.28 1563.17 Q1262.46 1562.35 1265.58 1560.69 L1265.58 1566.23 Q1262.43 1567.57 1259.12 1568.27 Q1255.81 1568.97 1252.4 1568.97 Q1243.87 1568.97 1238.88 1564 Q1233.91 1559.04 1233.91 1550.57 Q1233.91 1541.82 1238.62 1536.69 Q1243.36 1531.54 1251.38 1531.54 Q1258.58 1531.54 1262.75 1536.18 Q1266.95 1540.8 1266.95 1548.76 M1261.09 1547.04 Q1261.03 1542.23 1258.39 1539.37 Q1255.78 1536.5 1251.45 1536.5 Q1246.55 1536.5 1243.59 1539.27 Q1240.66 1542.04 1240.21 1547.07 L1261.09 1547.04 Z" fill="#000000" fill-rule="nonzero" fill-opacity="1"></path><path clip-path="url(#clip860)" d="M1326.02 1522.08 L1326.02 1528.35 Q1322.36 1526.6 1319.12 1525.74 Q1315.87 1524.88 1312.85 1524.88 Q1307.59 1524.88 1304.73 1526.92 Q1301.9 1528.96 1301.9 1532.71 Q1301.9 1535.87 1303.77 1537.49 Q1305.68 1539.08 1310.97 1540.07 L1314.85 1540.86 Q1322.04 1542.23 1325.45 1545.7 Q1328.89 1549.14 1328.89 1554.93 Q1328.89 1561.84 1324.24 1565.4 Q1319.62 1568.97 1310.68 1568.97 Q1307.31 1568.97 1303.49 1568.2 Q1299.7 1567.44 1295.63 1565.94 L1295.63 1559.32 Q1299.54 1561.52 1303.3 1562.63 Q1307.05 1563.75 1310.68 1563.75 Q1316.19 1563.75 1319.18 1561.58 Q1322.17 1559.42 1322.17 1555.41 Q1322.17 1551.91 1320.01 1549.93 Q1317.87 1547.96 1312.97 1546.97 L1309.06 1546.21 Q1301.86 1544.78 1298.65 1541.72 Q1295.43 1538.67 1295.43 1533.22 Q1295.43 1526.92 1299.86 1523.29 Q1304.32 1519.66 1312.11 1519.66 Q1315.46 1519.66 1318.92 1520.27 Q1322.39 1520.87 1326.02 1522.08 Z" fill="#000000" fill-rule="nonzero" fill-opacity="1"></path><path clip-path="url(#clip860)" d="M1344.45 1522.27 L1344.45 1532.4 L1356.51 1532.4 L1356.51 1536.95 L1344.45 1536.95 L1344.45 1556.3 Q1344.45 1560.66 1345.63 1561.9 Q1346.84 1563.14 1350.5 1563.14 L1356.51 1563.14 L1356.51 1568.04 L1350.5 1568.04 Q1343.72 1568.04 1341.14 1565.53 Q1338.56 1562.98 1338.56 1556.3 L1338.56 1536.95 L1334.27 1536.95 L1334.27 1532.4 L1338.56 1532.4 L1338.56 1522.27 L1344.45 1522.27 Z" fill="#000000" fill-rule="nonzero" fill-opacity="1"></path><path clip-path="url(#clip860)" d="M1394.71 1548.76 L1394.71 1551.62 L1367.78 1551.62 Q1368.16 1557.67 1371.41 1560.85 Q1374.69 1564 1380.51 1564 Q1383.89 1564 1387.04 1563.17 Q1390.22 1562.35 1393.34 1560.69 L1393.34 1566.23 Q1390.19 1567.57 1386.88 1568.27 Q1383.57 1568.97 1380.16 1568.97 Q1371.63 1568.97 1366.64 1564 Q1361.67 1559.04 1361.67 1550.57 Q1361.67 1541.82 1366.38 1536.69 Q1371.12 1531.54 1379.14 1531.54 Q1386.34 1531.54 1390.51 1536.18 Q1394.71 1540.8 1394.71 1548.76 M1388.85 1547.04 Q1388.79 1542.23 1386.15 1539.37 Q1383.54 1536.5 1379.21 1536.5 Q1374.31 1536.5 1371.35 1539.27 Q1368.42 1542.04 1367.97 1547.07 L1388.85 1547.04 Z" fill="#000000" fill-rule="nonzero" fill-opacity="1"></path><path clip-path="url(#clip860)" d="M1409.99 1562.7 L1409.99 1581.6 L1404.1 1581.6 L1404.1 1532.4 L1409.99 1532.4 L1409.99 1537.81 Q1411.83 1534.62 1414.63 1533.1 Q1417.47 1531.54 1421.38 1531.54 Q1427.87 1531.54 1431.92 1536.69 Q1435.99 1541.85 1435.99 1550.25 Q1435.99 1558.65 1431.92 1563.81 Q1427.87 1568.97 1421.38 1568.97 Q1417.47 1568.97 1414.63 1567.44 Q1411.83 1565.88 1409.99 1562.7 M1429.91 1550.25 Q1429.91 1543.79 1427.24 1540.13 Q1424.6 1536.44 1419.95 1536.44 Q1415.3 1536.44 1412.63 1540.13 Q1409.99 1543.79 1409.99 1550.25 Q1409.99 1556.71 1412.63 1560.4 Q1415.3 1564.07 1419.95 1564.07 Q1424.6 1564.07 1427.24 1560.4 Q1429.91 1556.71 1429.91 1550.25 Z" fill="#000000" fill-rule="nonzero" fill-opacity="1"></path><polyline clip-path="url(#clip860)" style="stroke:#000000; stroke-linecap:round; stroke-linejoin:round; stroke-width:4; stroke-opacity:1; fill:none" points="193.936,1423.18 193.936,123.472 "></polyline>
<polyline clip-path="url(#clip860)" style="stroke:#000000; stroke-linecap:round; stroke-linejoin:round; stroke-width:4; stroke-opacity:1; fill:none" points="193.936,1295.9 212.834,1295.9 "></polyline>
<polyline clip-path="url(#clip860)" style="stroke:#000000; stroke-linecap:round; stroke-linejoin:round; stroke-width:4; stroke-opacity:1; fill:none" points="193.936,971.433 212.834,971.433 "></polyline>
<polyline clip-path="url(#clip860)" style="stroke:#000000; stroke-linecap:round; stroke-linejoin:round; stroke-width:4; stroke-opacity:1; fill:none" points="193.936,646.962 212.834,646.962 "></polyline>
<polyline clip-path="url(#clip860)" style="stroke:#000000; stroke-linecap:round; stroke-linejoin:round; stroke-width:4; stroke-opacity:1; fill:none" points="193.936,322.492 212.834,322.492 "></polyline>
<path clip-path="url(#clip860)" d="M50.9921 1296.35 L80.6679 1296.35 L80.6679 1300.29 L50.9921 1300.29 L50.9921 1296.35 Z" fill="#000000" fill-rule="nonzero" fill-opacity="1"></path><path clip-path="url(#clip860)" d="M91.5706 1309.25 L99.2095 1309.25 L99.2095 1282.88 L90.8993 1284.55 L90.8993 1280.29 L99.1632 1278.62 L103.839 1278.62 L103.839 1309.25 L111.478 1309.25 L111.478 1313.18 L91.5706 1313.18 L91.5706 1309.25 Z" fill="#000000" fill-rule="nonzero" fill-opacity="1"></path><path clip-path="url(#clip860)" d="M120.922 1307.3 L125.807 1307.3 L125.807 1313.18 L120.922 1313.18 L120.922 1307.3 Z" fill="#000000" fill-rule="nonzero" fill-opacity="1"></path><path clip-path="url(#clip860)" d="M145.992 1281.7 Q142.381 1281.7 140.552 1285.27 Q138.746 1288.81 138.746 1295.94 Q138.746 1303.04 140.552 1306.61 Q142.381 1310.15 145.992 1310.15 Q149.626 1310.15 151.431 1306.61 Q153.26 1303.04 153.26 1295.94 Q153.26 1288.81 151.431 1285.27 Q149.626 1281.7 145.992 1281.7 M145.992 1278 Q151.802 1278 154.857 1282.6 Q157.936 1287.19 157.936 1295.94 Q157.936 1304.66 154.857 1309.27 Q151.802 1313.85 145.992 1313.85 Q140.181 1313.85 137.103 1309.27 Q134.047 1304.66 134.047 1295.94 Q134.047 1287.19 137.103 1282.6 Q140.181 1278 145.992 1278 Z" fill="#000000" fill-rule="nonzero" fill-opacity="1"></path><path clip-path="url(#clip860)" d="M51.9875 971.884 L81.6633 971.884 L81.6633 975.819 L51.9875 975.819 L51.9875 971.884 Z" fill="#000000" fill-rule="nonzero" fill-opacity="1"></path><path clip-path="url(#clip860)" d="M101.756 957.231 Q98.1447 957.231 96.316 960.796 Q94.5104 964.338 94.5104 971.467 Q94.5104 978.574 96.316 982.139 Q98.1447 985.68 101.756 985.68 Q105.39 985.68 107.196 982.139 Q109.024 978.574 109.024 971.467 Q109.024 964.338 107.196 960.796 Q105.39 957.231 101.756 957.231 M101.756 953.528 Q107.566 953.528 110.621 958.134 Q113.7 962.717 113.7 971.467 Q113.7 980.194 110.621 984.801 Q107.566 989.384 101.756 989.384 Q95.9456 989.384 92.8669 984.801 Q89.8114 980.194 89.8114 971.467 Q89.8114 962.717 92.8669 958.134 Q95.9456 953.528 101.756 953.528 Z" fill="#000000" fill-rule="nonzero" fill-opacity="1"></path><path clip-path="url(#clip860)" d="M121.918 982.833 L126.802 982.833 L126.802 988.713 L121.918 988.713 L121.918 982.833 Z" fill="#000000" fill-rule="nonzero" fill-opacity="1"></path><path clip-path="url(#clip860)" d="M137.033 954.153 L155.39 954.153 L155.39 958.088 L141.316 958.088 L141.316 966.56 Q142.334 966.213 143.353 966.051 Q144.371 965.865 145.39 965.865 Q151.177 965.865 154.556 969.037 Q157.936 972.208 157.936 977.625 Q157.936 983.203 154.464 986.305 Q150.992 989.384 144.672 989.384 Q142.496 989.384 140.228 989.014 Q137.982 988.643 135.575 987.902 L135.575 983.203 Q137.658 984.338 139.881 984.893 Q142.103 985.449 144.58 985.449 Q148.584 985.449 150.922 983.342 Q153.26 981.236 153.26 977.625 Q153.26 974.014 150.922 971.907 Q148.584 969.801 144.58 969.801 Q142.705 969.801 140.83 970.217 Q138.978 970.634 137.033 971.514 L137.033 954.153 Z" fill="#000000" fill-rule="nonzero" fill-opacity="1"></path><path clip-path="url(#clip860)" d="M100.76 632.761 Q97.1493 632.761 95.3206 636.326 Q93.515 639.867 93.515 646.997 Q93.515 654.103 95.3206 657.668 Q97.1493 661.21 100.76 661.21 Q104.395 661.21 106.2 657.668 Q108.029 654.103 108.029 646.997 Q108.029 639.867 106.2 636.326 Q104.395 632.761 100.76 632.761 M100.76 629.057 Q106.571 629.057 109.626 633.664 Q112.705 638.247 112.705 646.997 Q112.705 655.724 109.626 660.33 Q106.571 664.913 100.76 664.913 Q94.9502 664.913 91.8715 660.33 Q88.816 655.724 88.816 646.997 Q88.816 638.247 91.8715 633.664 Q94.9502 629.057 100.76 629.057 Z" fill="#000000" fill-rule="nonzero" fill-opacity="1"></path><path clip-path="url(#clip860)" d="M120.922 658.362 L125.807 658.362 L125.807 664.242 L120.922 664.242 L120.922 658.362 Z" fill="#000000" fill-rule="nonzero" fill-opacity="1"></path><path clip-path="url(#clip860)" d="M145.992 632.761 Q142.381 632.761 140.552 636.326 Q138.746 639.867 138.746 646.997 Q138.746 654.103 140.552 657.668 Q142.381 661.21 145.992 661.21 Q149.626 661.21 151.431 657.668 Q153.26 654.103 153.26 646.997 Q153.26 639.867 151.431 636.326 Q149.626 632.761 145.992 632.761 M145.992 629.057 Q151.802 629.057 154.857 633.664 Q157.936 638.247 157.936 646.997 Q157.936 655.724 154.857 660.33 Q151.802 664.913 145.992 664.913 Q140.181 664.913 137.103 660.33 Q134.047 655.724 134.047 646.997 Q134.047 638.247 137.103 633.664 Q140.181 629.057 145.992 629.057 Z" fill="#000000" fill-rule="nonzero" fill-opacity="1"></path><path clip-path="url(#clip860)" d="M101.756 308.29 Q98.1447 308.29 96.316 311.855 Q94.5104 315.397 94.5104 322.526 Q94.5104 329.633 96.316 333.198 Q98.1447 336.739 101.756 336.739 Q105.39 336.739 107.196 333.198 Q109.024 329.633 109.024 322.526 Q109.024 315.397 107.196 311.855 Q105.39 308.29 101.756 308.29 M101.756 304.587 Q107.566 304.587 110.621 309.193 Q113.7 313.776 113.7 322.526 Q113.7 331.253 110.621 335.86 Q107.566 340.443 101.756 340.443 Q95.9456 340.443 92.8669 335.86 Q89.8114 331.253 89.8114 322.526 Q89.8114 313.776 92.8669 309.193 Q95.9456 304.587 101.756 304.587 Z" fill="#000000" fill-rule="nonzero" fill-opacity="1"></path><path clip-path="url(#clip860)" d="M121.918 333.892 L126.802 333.892 L126.802 339.772 L121.918 339.772 L121.918 333.892 Z" fill="#000000" fill-rule="nonzero" fill-opacity="1"></path><path clip-path="url(#clip860)" d="M137.033 305.212 L155.39 305.212 L155.39 309.147 L141.316 309.147 L141.316 317.619 Q142.334 317.272 143.353 317.11 Q144.371 316.924 145.39 316.924 Q151.177 316.924 154.556 320.096 Q157.936 323.267 157.936 328.684 Q157.936 334.262 154.464 337.364 Q150.992 340.443 144.672 340.443 Q142.496 340.443 140.228 340.072 Q137.982 339.702 135.575 338.961 L135.575 334.262 Q137.658 335.397 139.881 335.952 Q142.103 336.508 144.58 336.508 Q148.584 336.508 150.922 334.401 Q153.26 332.295 153.26 328.684 Q153.26 325.073 150.922 322.966 Q148.584 320.86 144.58 320.86 Q142.705 320.86 140.83 321.276 Q138.978 321.693 137.033 322.573 L137.033 305.212 Z" fill="#000000" fill-rule="nonzero" fill-opacity="1"></path><path clip-path="url(#clip860)" d="M186.205 65.6895 L199.573 65.6895 L199.573 19.5497 L185.03 22.4663 L185.03 15.0127 L199.492 12.096 L207.675 12.096 L207.675 65.6895 L221.043 65.6895 L221.043 72.576 L186.205 72.576 L186.205 65.6895 Z" fill="#000000" fill-rule="nonzero" fill-opacity="1"></path><path clip-path="url(#clip860)" d="M308.502 16.7545 L308.502 25.383 Q304.37 21.5346 299.671 19.6307 Q295.012 17.7268 289.746 17.7268 Q279.376 17.7268 273.866 24.0867 Q268.357 30.4061 268.357 42.3968 Q268.357 54.3469 273.866 60.7069 Q279.376 67.0263 289.746 67.0263 Q295.012 67.0263 299.671 65.1223 Q304.37 63.2184 308.502 59.3701 L308.502 67.9175 Q304.208 70.8341 299.387 72.2924 Q294.607 73.7508 289.26 73.7508 Q275.527 73.7508 267.628 65.3654 Q259.729 56.9395 259.729 42.3968 Q259.729 27.8135 267.628 19.4281 Q275.527 11.0023 289.26 11.0023 Q294.688 11.0023 299.468 12.4606 Q304.289 13.8784 308.502 16.7545 Z" fill="#000000" fill-rule="nonzero" fill-opacity="1"></path><path clip-path="url(#clip860)" d="M338.397 32.4315 Q332.402 32.4315 328.918 37.1306 Q325.434 41.7891 325.434 49.9314 Q325.434 58.0738 328.878 62.7728 Q332.361 67.4314 338.397 67.4314 Q344.352 67.4314 347.836 62.7323 Q351.32 58.0333 351.32 49.9314 Q351.32 41.8701 347.836 37.1711 Q344.352 32.4315 338.397 32.4315 M338.397 26.1121 Q348.119 26.1121 353.669 32.4315 Q359.219 38.7509 359.219 49.9314 Q359.219 61.0714 353.669 67.4314 Q348.119 73.7508 338.397 73.7508 Q328.635 73.7508 323.085 67.4314 Q317.576 61.0714 317.576 49.9314 Q317.576 38.7509 323.085 32.4315 Q328.635 26.1121 338.397 26.1121 Z" fill="#000000" fill-rule="nonzero" fill-opacity="1"></path><path clip-path="url(#clip860)" d="M406.898 35.9153 Q409.693 30.8922 413.582 28.5022 Q417.471 26.1121 422.737 26.1121 Q429.826 26.1121 433.675 31.0947 Q437.523 36.0368 437.523 45.1919 L437.523 72.576 L430.029 72.576 L430.029 45.4349 Q430.029 38.913 427.72 35.7533 Q425.411 32.5936 420.671 32.5936 Q414.878 32.5936 411.516 36.4419 Q408.154 40.2903 408.154 46.9338 L408.154 72.576 L400.66 72.576 L400.66 45.4349 Q400.66 38.8725 398.351 35.7533 Q396.042 32.5936 391.221 32.5936 Q385.509 32.5936 382.147 36.4824 Q378.785 40.3308 378.785 46.9338 L378.785 72.576 L371.291 72.576 L371.291 27.2059 L378.785 27.2059 L378.785 34.2544 Q381.337 30.082 384.902 28.0971 Q388.466 26.1121 393.368 26.1121 Q398.31 26.1121 401.753 28.6237 Q405.237 31.1352 406.898 35.9153 Z" fill="#000000" fill-rule="nonzero" fill-opacity="1"></path><path clip-path="url(#clip860)" d="M487.714 35.9153 Q490.509 30.8922 494.398 28.5022 Q498.286 26.1121 503.553 26.1121 Q510.642 26.1121 514.49 31.0947 Q518.338 36.0368 518.338 45.1919 L518.338 72.576 L510.844 72.576 L510.844 45.4349 Q510.844 38.913 508.535 35.7533 Q506.226 32.5936 501.487 32.5936 Q495.694 32.5936 492.332 36.4419 Q488.969 40.2903 488.969 46.9338 L488.969 72.576 L481.475 72.576 L481.475 45.4349 Q481.475 38.8725 479.166 35.7533 Q476.857 32.5936 472.037 32.5936 Q466.325 32.5936 462.963 36.4824 Q459.6 40.3308 459.6 46.9338 L459.6 72.576 L452.106 72.576 L452.106 27.2059 L459.6 27.2059 L459.6 34.2544 Q462.152 30.082 465.717 28.0971 Q469.282 26.1121 474.184 26.1121 Q479.126 26.1121 482.569 28.6237 Q486.053 31.1352 487.714 35.9153 Z" fill="#000000" fill-rule="nonzero" fill-opacity="1"></path><path clip-path="url(#clip860)" d="M532.436 54.671 L532.436 27.2059 L539.889 27.2059 L539.889 54.3874 Q539.889 60.8284 542.401 64.0691 Q544.912 67.2693 549.935 67.2693 Q555.971 67.2693 559.455 63.421 Q562.979 59.5726 562.979 52.9291 L562.979 27.2059 L570.433 27.2059 L570.433 72.576 L562.979 72.576 L562.979 65.6084 Q560.265 69.7404 556.66 71.7658 Q553.095 73.7508 548.356 73.7508 Q540.537 73.7508 536.486 68.8897 Q532.436 64.0286 532.436 54.671 M551.191 26.1121 L551.191 26.1121 Z" fill="#000000" fill-rule="nonzero" fill-opacity="1"></path><path clip-path="url(#clip860)" d="M623.5 45.1919 L623.5 72.576 L616.046 72.576 L616.046 45.4349 Q616.046 38.994 613.535 35.7938 Q611.023 32.5936 606 32.5936 Q599.964 32.5936 596.48 36.4419 Q592.997 40.2903 592.997 46.9338 L592.997 72.576 L585.502 72.576 L585.502 27.2059 L592.997 27.2059 L592.997 34.2544 Q595.67 30.163 599.275 28.1376 Q602.921 26.1121 607.661 26.1121 Q615.479 26.1121 619.49 30.9732 Q623.5 35.7938 623.5 45.1919 Z" fill="#000000" fill-rule="nonzero" fill-opacity="1"></path><path clip-path="url(#clip860)" d="M638.367 27.2059 L645.82 27.2059 L645.82 72.576 L638.367 72.576 L638.367 27.2059 M638.367 9.54393 L645.82 9.54393 L645.82 18.9825 L638.367 18.9825 L638.367 9.54393 Z" fill="#000000" fill-rule="nonzero" fill-opacity="1"></path><path clip-path="url(#clip860)" d="M668.789 14.324 L668.789 27.2059 L684.142 27.2059 L684.142 32.9987 L668.789 32.9987 L668.789 57.6282 Q668.789 63.1779 670.288 64.7578 Q671.827 66.3376 676.486 66.3376 L684.142 66.3376 L684.142 72.576 L676.486 72.576 Q667.857 72.576 664.576 69.3758 Q661.295 66.1351 661.295 57.6282 L661.295 32.9987 L655.826 32.9987 L655.826 27.2059 L661.295 27.2059 L661.295 14.324 L668.789 14.324 Z" fill="#000000" fill-rule="nonzero" fill-opacity="1"></path><path clip-path="url(#clip860)" d="M712.822 76.7889 Q709.663 84.8907 706.665 87.3618 Q703.667 89.8329 698.644 89.8329 L692.689 89.8329 L692.689 83.5945 L697.064 83.5945 Q700.143 83.5945 701.844 82.1361 Q703.546 80.6778 705.612 75.2496 L706.949 71.8468 L688.598 27.2059 L696.497 27.2059 L710.675 62.6918 L724.854 27.2059 L732.753 27.2059 L712.822 76.7889 Z" fill="#000000" fill-rule="nonzero" fill-opacity="1"></path><path clip-path="url(#clip860)" d="M794.286 17.6457 Q785.374 17.6457 780.108 24.2892 Q774.882 30.9327 774.882 42.3968 Q774.882 53.8203 780.108 60.4638 Q785.374 67.1073 794.286 67.1073 Q803.198 67.1073 808.383 60.4638 Q813.609 53.8203 813.609 42.3968 Q813.609 30.9327 808.383 24.2892 Q803.198 17.6457 794.286 17.6457 M794.286 11.0023 Q807.006 11.0023 814.622 19.5497 Q822.237 28.0566 822.237 42.3968 Q822.237 56.6965 814.622 65.2439 Q807.006 73.7508 794.286 73.7508 Q781.526 73.7508 773.869 65.2439 Q766.254 56.737 766.254 42.3968 Q766.254 28.0566 773.869 19.5497 Q781.526 11.0023 794.286 11.0023 Z" fill="#000000" fill-rule="nonzero" fill-opacity="1"></path><path clip-path="url(#clip860)" d="M863.637 28.5427 L863.637 35.5912 Q860.478 33.9709 857.075 33.1607 Q853.672 32.3505 850.026 32.3505 Q844.477 32.3505 841.682 34.0519 Q838.927 35.7533 838.927 39.156 Q838.927 41.7486 840.912 43.2475 Q842.897 44.7058 848.892 46.0426 L851.444 46.6097 Q859.384 48.3111 862.706 51.4303 Q866.068 54.509 866.068 60.0587 Q866.068 66.3781 861.045 70.0644 Q856.062 73.7508 847.312 73.7508 Q843.667 73.7508 839.697 73.0216 Q835.767 72.3329 831.392 70.9151 L831.392 63.2184 Q835.524 65.3654 839.535 66.4591 Q843.545 67.5124 847.474 67.5124 Q852.741 67.5124 855.576 65.73 Q858.412 63.9071 858.412 60.6258 Q858.412 57.5877 856.346 55.9673 Q854.32 54.3469 847.393 52.8481 L844.801 52.2405 Q837.874 50.7821 834.795 47.7845 Q831.716 44.7463 831.716 39.4801 Q831.716 33.0797 836.253 29.5959 Q840.79 26.1121 849.135 26.1121 Q853.267 26.1121 856.913 26.7198 Q860.559 27.3274 863.637 28.5427 Z" fill="#000000" fill-rule="nonzero" fill-opacity="1"></path><path clip-path="url(#clip860)" d="M910.587 28.9478 L910.587 35.9153 Q907.428 34.1734 904.228 33.3227 Q901.068 32.4315 897.827 32.4315 Q890.576 32.4315 886.566 37.0496 Q882.555 41.6271 882.555 49.9314 Q882.555 58.2358 886.566 62.8538 Q890.576 67.4314 897.827 67.4314 Q901.068 67.4314 904.228 66.5807 Q907.428 65.6895 910.587 63.9476 L910.587 70.8341 Q907.468 72.2924 904.106 73.0216 Q900.784 73.7508 897.017 73.7508 Q886.768 73.7508 880.732 67.3098 Q874.696 60.8689 874.696 49.9314 Q874.696 38.832 880.773 32.472 Q886.89 26.1121 897.503 26.1121 Q900.946 26.1121 904.228 26.8413 Q907.509 27.5299 910.587 28.9478 Z" fill="#000000" fill-rule="nonzero" fill-opacity="1"></path><path clip-path="url(#clip860)" d="M923.55 27.2059 L931.004 27.2059 L931.004 72.576 L923.55 72.576 L923.55 27.2059 M923.55 9.54393 L931.004 9.54393 L931.004 18.9825 L923.55 18.9825 L923.55 9.54393 Z" fill="#000000" fill-rule="nonzero" fill-opacity="1"></path><path clip-path="url(#clip860)" d="M946.6 9.54393 L954.054 9.54393 L954.054 72.576 L946.6 72.576 L946.6 9.54393 Z" fill="#000000" fill-rule="nonzero" fill-opacity="1"></path><path clip-path="url(#clip860)" d="M969.65 9.54393 L977.103 9.54393 L977.103 72.576 L969.65 72.576 L969.65 9.54393 Z" fill="#000000" fill-rule="nonzero" fill-opacity="1"></path><path clip-path="url(#clip860)" d="M1013.32 49.7694 Q1004.28 49.7694 1000.8 51.8354 Q997.317 53.9013 997.317 58.8839 Q997.317 62.8538 999.91 65.2034 Q1002.54 67.5124 1007.04 67.5124 Q1013.24 67.5124 1016.96 63.1374 Q1020.73 58.7219 1020.73 51.4303 L1020.73 49.7694 L1013.32 49.7694 M1028.19 46.6907 L1028.19 72.576 L1020.73 72.576 L1020.73 65.6895 Q1018.18 69.8214 1014.37 71.8063 Q1010.56 73.7508 1005.05 73.7508 Q998.087 73.7508 993.955 69.8619 Q989.864 65.9325 989.864 59.3701 Q989.864 51.7138 994.968 47.825 Q1000.11 43.9361 1010.28 43.9361 L1020.73 43.9361 L1020.73 43.2069 Q1020.73 38.0623 1017.33 35.2672 Q1013.97 32.4315 1007.85 32.4315 Q1003.96 32.4315 1000.27 33.3632 Q996.588 34.295 993.185 36.1584 L993.185 29.2718 Q997.277 27.692 1001.13 26.9223 Q1004.97 26.1121 1008.62 26.1121 Q1018.46 26.1121 1023.32 31.2163 Q1028.19 36.3204 1028.19 46.6907 Z" fill="#000000" fill-rule="nonzero" fill-opacity="1"></path><path clip-path="url(#clip860)" d="M1050.91 14.324 L1050.91 27.2059 L1066.26 27.2059 L1066.26 32.9987 L1050.91 32.9987 L1050.91 57.6282 Q1050.91 63.1779 1052.41 64.7578 Q1053.95 66.3376 1058.61 66.3376 L1066.26 66.3376 L1066.26 72.576 L1058.61 72.576 Q1049.98 72.576 1046.7 69.3758 Q1043.42 66.1351 1043.42 57.6282 L1043.42 32.9987 L1037.95 32.9987 L1037.95 27.2059 L1043.42 27.2059 L1043.42 14.324 L1050.91 14.324 Z" fill="#000000" fill-rule="nonzero" fill-opacity="1"></path><path clip-path="url(#clip860)" d="M1076.07 27.2059 L1083.52 27.2059 L1083.52 72.576 L1076.07 72.576 L1076.07 27.2059 M1076.07 9.54393 L1083.52 9.54393 L1083.52 18.9825 L1076.07 18.9825 L1076.07 9.54393 Z" fill="#000000" fill-rule="nonzero" fill-opacity="1"></path><path clip-path="url(#clip860)" d="M1116.7 32.4315 Q1110.7 32.4315 1107.22 37.1306 Q1103.73 41.7891 1103.73 49.9314 Q1103.73 58.0738 1107.18 62.7728 Q1110.66 67.4314 1116.7 67.4314 Q1122.65 67.4314 1126.14 62.7323 Q1129.62 58.0333 1129.62 49.9314 Q1129.62 41.8701 1126.14 37.1711 Q1122.65 32.4315 1116.7 32.4315 M1116.7 26.1121 Q1126.42 26.1121 1131.97 32.4315 Q1137.52 38.7509 1137.52 49.9314 Q1137.52 61.0714 1131.97 67.4314 Q1126.42 73.7508 1116.7 73.7508 Q1106.93 73.7508 1101.39 67.4314 Q1095.88 61.0714 1095.88 49.9314 Q1095.88 38.7509 1101.39 32.4315 Q1106.93 26.1121 1116.7 26.1121 Z" fill="#000000" fill-rule="nonzero" fill-opacity="1"></path><path clip-path="url(#clip860)" d="M1187.59 45.1919 L1187.59 72.576 L1180.13 72.576 L1180.13 45.4349 Q1180.13 38.994 1177.62 35.7938 Q1175.11 32.5936 1170.09 32.5936 Q1164.05 32.5936 1160.57 36.4419 Q1157.09 40.2903 1157.09 46.9338 L1157.09 72.576 L1149.59 72.576 L1149.59 27.2059 L1157.09 27.2059 L1157.09 34.2544 Q1159.76 30.163 1163.36 28.1376 Q1167.01 26.1121 1171.75 26.1121 Q1179.57 26.1121 1183.58 30.9732 Q1187.59 35.7938 1187.59 45.1919 Z" fill="#000000" fill-rule="nonzero" fill-opacity="1"></path><path clip-path="url(#clip860)" d="M1258.68 34.0924 L1258.68 9.54393 L1266.14 9.54393 L1266.14 72.576 L1258.68 72.576 L1258.68 65.7705 Q1256.33 69.8214 1252.73 71.8063 Q1249.16 73.7508 1244.14 73.7508 Q1235.92 73.7508 1230.73 67.1883 Q1225.59 60.6258 1225.59 49.9314 Q1225.59 39.2371 1230.73 32.6746 Q1235.92 26.1121 1244.14 26.1121 Q1249.16 26.1121 1252.73 28.0971 Q1256.33 30.0415 1258.68 34.0924 M1233.28 49.9314 Q1233.28 58.1548 1236.64 62.8538 Q1240.05 67.5124 1245.96 67.5124 Q1251.88 67.5124 1255.28 62.8538 Q1258.68 58.1548 1258.68 49.9314 Q1258.68 41.7081 1255.28 37.0496 Q1251.88 32.3505 1245.96 32.3505 Q1240.05 32.3505 1236.64 37.0496 Q1233.28 41.7081 1233.28 49.9314 Z" fill="#000000" fill-rule="nonzero" fill-opacity="1"></path><path clip-path="url(#clip860)" d="M1289.59 65.6895 L1318.15 65.6895 L1318.15 72.576 L1279.75 72.576 L1279.75 65.6895 Q1284.4 60.8689 1292.43 52.7671 Q1300.49 44.6248 1302.55 42.2752 Q1306.48 37.8598 1308.02 34.8216 Q1309.6 31.7429 1309.6 28.7857 Q1309.6 23.9651 1306.2 20.927 Q1302.84 17.8888 1297.41 17.8888 Q1293.56 17.8888 1289.27 19.2256 Q1285.01 20.5624 1280.15 23.2765 L1280.15 15.0127 Q1285.09 13.0277 1289.39 12.015 Q1293.68 11.0023 1297.25 11.0023 Q1306.64 11.0023 1312.23 15.7013 Q1317.82 20.4004 1317.82 28.2591 Q1317.82 31.9859 1316.41 35.3482 Q1315.03 38.6699 1311.34 43.2069 Q1310.33 44.3817 1304.9 50.0125 Q1299.47 55.6027 1289.59 65.6895 Z" fill="#000000" fill-rule="nonzero" fill-opacity="1"></path><path clip-path="url(#clip860)" d="M1336.18 62.2867 L1344.72 62.2867 L1344.72 69.2543 L1338.08 82.2172 L1332.85 82.2172 L1336.18 69.2543 L1336.18 62.2867 Z" fill="#000000" fill-rule="nonzero" fill-opacity="1"></path><path clip-path="url(#clip860)" d="M1422.34 35.9153 Q1425.13 30.8922 1429.02 28.5022 Q1432.91 26.1121 1438.18 26.1121 Q1445.27 26.1121 1449.11 31.0947 Q1452.96 36.0368 1452.96 45.1919 L1452.96 72.576 L1445.47 72.576 L1445.47 45.4349 Q1445.47 38.913 1443.16 35.7533 Q1440.85 32.5936 1436.11 32.5936 Q1430.32 32.5936 1426.96 36.4419 Q1423.59 40.2903 1423.59 46.9338 L1423.59 72.576 L1416.1 72.576 L1416.1 45.4349 Q1416.1 38.8725 1413.79 35.7533 Q1411.48 32.5936 1406.66 32.5936 Q1400.95 32.5936 1397.59 36.4824 Q1394.22 40.3308 1394.22 46.9338 L1394.22 72.576 L1386.73 72.576 L1386.73 27.2059 L1394.22 27.2059 L1394.22 34.2544 Q1396.78 30.082 1400.34 28.0971 Q1403.91 26.1121 1408.81 26.1121 Q1413.75 26.1121 1417.19 28.6237 Q1420.68 31.1352 1422.34 35.9153 Z" fill="#000000" fill-rule="nonzero" fill-opacity="1"></path><path clip-path="url(#clip860)" d="M1485.41 32.4315 Q1479.42 32.4315 1475.93 37.1306 Q1472.45 41.7891 1472.45 49.9314 Q1472.45 58.0738 1475.89 62.7728 Q1479.37 67.4314 1485.41 67.4314 Q1491.37 67.4314 1494.85 62.7323 Q1498.33 58.0333 1498.33 49.9314 Q1498.33 41.8701 1494.85 37.1711 Q1491.37 32.4315 1485.41 32.4315 M1485.41 26.1121 Q1495.13 26.1121 1500.68 32.4315 Q1506.23 38.7509 1506.23 49.9314 Q1506.23 61.0714 1500.68 67.4314 Q1495.13 73.7508 1485.41 73.7508 Q1475.65 73.7508 1470.1 67.4314 Q1464.59 61.0714 1464.59 49.9314 Q1464.59 38.7509 1470.1 32.4315 Q1475.65 26.1121 1485.41 26.1121 Z" fill="#000000" fill-rule="nonzero" fill-opacity="1"></path><path clip-path="url(#clip860)" d="M1513.24 27.2059 L1521.14 27.2059 L1535.32 65.2844 L1549.5 27.2059 L1557.4 27.2059 L1540.38 72.576 L1530.25 72.576 L1513.24 27.2059 Z" fill="#000000" fill-rule="nonzero" fill-opacity="1"></path><path clip-path="url(#clip860)" d="M1567.68 27.2059 L1575.14 27.2059 L1575.14 72.576 L1567.68 72.576 L1567.68 27.2059 M1567.68 9.54393 L1575.14 9.54393 L1575.14 18.9825 L1567.68 18.9825 L1567.68 9.54393 Z" fill="#000000" fill-rule="nonzero" fill-opacity="1"></path><path clip-path="url(#clip860)" d="M1628.45 45.1919 L1628.45 72.576 L1620.99 72.576 L1620.99 45.4349 Q1620.99 38.994 1618.48 35.7938 Q1615.97 32.5936 1610.95 32.5936 Q1604.91 32.5936 1601.43 36.4419 Q1597.94 40.2903 1597.94 46.9338 L1597.94 72.576 L1590.45 72.576 L1590.45 27.2059 L1597.94 27.2059 L1597.94 34.2544 Q1600.62 30.163 1604.22 28.1376 Q1607.87 26.1121 1612.61 26.1121 Q1620.43 26.1121 1624.44 30.9732 Q1628.45 35.7938 1628.45 45.1919 Z" fill="#000000" fill-rule="nonzero" fill-opacity="1"></path><path clip-path="url(#clip860)" d="M1673.17 49.3643 Q1673.17 41.2625 1669.81 36.8065 Q1666.49 32.3505 1660.45 32.3505 Q1654.46 32.3505 1651.09 36.8065 Q1647.77 41.2625 1647.77 49.3643 Q1647.77 57.4256 1651.09 61.8816 Q1654.46 66.3376 1660.45 66.3376 Q1666.49 66.3376 1669.81 61.8816 Q1673.17 57.4256 1673.17 49.3643 M1680.62 66.9452 Q1680.62 78.5308 1675.48 84.1616 Q1670.33 89.8329 1659.72 89.8329 Q1655.79 89.8329 1652.31 89.2252 Q1648.82 88.6581 1645.54 87.4428 L1645.54 80.1917 Q1648.82 81.9741 1652.02 82.8248 Q1655.22 83.6755 1658.55 83.6755 Q1665.88 83.6755 1669.52 79.8271 Q1673.17 76.0193 1673.17 68.282 L1673.17 64.5957 Q1670.86 68.6061 1667.26 70.5911 Q1663.65 72.576 1658.63 72.576 Q1650.28 72.576 1645.18 66.2161 Q1640.07 59.8562 1640.07 49.3643 Q1640.07 38.832 1645.18 32.472 Q1650.28 26.1121 1658.63 26.1121 Q1663.65 26.1121 1667.26 28.0971 Q1670.86 30.082 1673.17 34.0924 L1673.17 27.2059 L1680.62 27.2059 L1680.62 66.9452 Z" fill="#000000" fill-rule="nonzero" fill-opacity="1"></path><path clip-path="url(#clip860)" d="M1729.56 65.7705 L1729.56 89.8329 L1722.06 89.8329 L1722.06 27.2059 L1729.56 27.2059 L1729.56 34.0924 Q1731.91 30.0415 1735.47 28.0971 Q1739.08 26.1121 1744.06 26.1121 Q1752.32 26.1121 1757.47 32.6746 Q1762.65 39.2371 1762.65 49.9314 Q1762.65 60.6258 1757.47 67.1883 Q1752.32 73.7508 1744.06 73.7508 Q1739.08 73.7508 1735.47 71.8063 Q1731.91 69.8214 1729.56 65.7705 M1754.92 49.9314 Q1754.92 41.7081 1751.51 37.0496 Q1748.15 32.3505 1742.24 32.3505 Q1736.32 32.3505 1732.92 37.0496 Q1729.56 41.7081 1729.56 49.9314 Q1729.56 58.1548 1732.92 62.8538 Q1736.32 67.5124 1742.24 67.5124 Q1748.15 67.5124 1751.51 62.8538 Q1754.92 58.1548 1754.92 49.9314 Z" fill="#000000" fill-rule="nonzero" fill-opacity="1"></path><path clip-path="url(#clip860)" d="M1792.59 32.4315 Q1786.6 32.4315 1783.11 37.1306 Q1779.63 41.7891 1779.63 49.9314 Q1779.63 58.0738 1783.07 62.7728 Q1786.56 67.4314 1792.59 67.4314 Q1798.55 67.4314 1802.03 62.7323 Q1805.51 58.0333 1805.51 49.9314 Q1805.51 41.8701 1802.03 37.1711 Q1798.55 32.4315 1792.59 32.4315 M1792.59 26.1121 Q1802.31 26.1121 1807.86 32.4315 Q1813.41 38.7509 1813.41 49.9314 Q1813.41 61.0714 1807.86 67.4314 Q1802.31 73.7508 1792.59 73.7508 Q1782.83 73.7508 1777.28 67.4314 Q1771.77 61.0714 1771.77 49.9314 Q1771.77 38.7509 1777.28 32.4315 Q1782.83 26.1121 1792.59 26.1121 Z" fill="#000000" fill-rule="nonzero" fill-opacity="1"></path><path clip-path="url(#clip860)" d="M1825.77 27.2059 L1833.22 27.2059 L1833.22 72.576 L1825.77 72.576 L1825.77 27.2059 M1825.77 9.54393 L1833.22 9.54393 L1833.22 18.9825 L1825.77 18.9825 L1825.77 9.54393 Z" fill="#000000" fill-rule="nonzero" fill-opacity="1"></path><path clip-path="url(#clip860)" d="M1886.53 45.1919 L1886.53 72.576 L1879.08 72.576 L1879.08 45.4349 Q1879.08 38.994 1876.57 35.7938 Q1874.05 32.5936 1869.03 32.5936 Q1863 32.5936 1859.51 36.4419 Q1856.03 40.2903 1856.03 46.9338 L1856.03 72.576 L1848.53 72.576 L1848.53 27.2059 L1856.03 27.2059 L1856.03 34.2544 Q1858.7 30.163 1862.31 28.1376 Q1865.95 26.1121 1870.69 26.1121 Q1878.51 26.1121 1882.52 30.9732 Q1886.53 35.7938 1886.53 45.1919 Z" fill="#000000" fill-rule="nonzero" fill-opacity="1"></path><path clip-path="url(#clip860)" d="M1908.77 14.324 L1908.77 27.2059 L1924.12 27.2059 L1924.12 32.9987 L1908.77 32.9987 L1908.77 57.6282 Q1908.77 63.1779 1910.27 64.7578 Q1911.81 66.3376 1916.47 66.3376 L1924.12 66.3376 L1924.12 72.576 L1916.47 72.576 Q1907.84 72.576 1904.56 69.3758 Q1901.28 66.1351 1901.28 57.6282 L1901.28 32.9987 L1895.81 32.9987 L1895.81 27.2059 L1901.28 27.2059 L1901.28 14.324 L1908.77 14.324 Z" fill="#000000" fill-rule="nonzero" fill-opacity="1"></path><path clip-path="url(#clip860)" d="M1967.51 65.7705 L1967.51 89.8329 L1960.01 89.8329 L1960.01 27.2059 L1967.51 27.2059 L1967.51 34.0924 Q1969.86 30.0415 1973.42 28.0971 Q1977.03 26.1121 1982.01 26.1121 Q1990.27 26.1121 1995.42 32.6746 Q2000.6 39.2371 2000.6 49.9314 Q2000.6 60.6258 1995.42 67.1883 Q1990.27 73.7508 1982.01 73.7508 Q1977.03 73.7508 1973.42 71.8063 Q1969.86 69.8214 1967.51 65.7705 M1992.87 49.9314 Q1992.87 41.7081 1989.46 37.0496 Q1986.1 32.3505 1980.19 32.3505 Q1974.27 32.3505 1970.87 37.0496 Q1967.51 41.7081 1967.51 49.9314 Q1967.51 58.1548 1970.87 62.8538 Q1974.27 67.5124 1980.19 67.5124 Q1986.1 67.5124 1989.46 62.8538 Q1992.87 58.1548 1992.87 49.9314 Z" fill="#000000" fill-rule="nonzero" fill-opacity="1"></path><path clip-path="url(#clip860)" d="M2039.25 34.1734 Q2037.99 33.4443 2036.5 33.1202 Q2035.04 32.7556 2033.26 32.7556 Q2026.94 32.7556 2023.53 36.8875 Q2020.17 40.9789 2020.17 48.6757 L2020.17 72.576 L2012.68 72.576 L2012.68 27.2059 L2020.17 27.2059 L2020.17 34.2544 Q2022.52 30.1225 2026.29 28.1376 Q2030.05 26.1121 2035.44 26.1121 Q2036.21 26.1121 2037.14 26.2337 Q2038.08 26.3147 2039.21 26.5172 L2039.25 34.1734 Z" fill="#000000" fill-rule="nonzero" fill-opacity="1"></path><path clip-path="url(#clip860)" d="M2084.05 48.0275 L2084.05 51.6733 L2049.78 51.6733 Q2050.27 59.3701 2054.4 63.421 Q2058.57 67.4314 2065.99 67.4314 Q2070.28 67.4314 2074.29 66.3781 Q2078.34 65.3249 2082.31 63.2184 L2082.31 70.267 Q2078.3 71.9684 2074.09 72.8596 Q2069.88 73.7508 2065.54 73.7508 Q2054.68 73.7508 2048.32 67.4314 Q2042.01 61.1119 2042.01 50.3365 Q2042.01 39.1965 2048 32.6746 Q2054.04 26.1121 2064.24 26.1121 Q2073.4 26.1121 2078.71 32.0264 Q2084.05 37.9003 2084.05 48.0275 M2076.6 45.84 Q2076.52 39.7232 2073.16 36.0774 Q2069.83 32.4315 2064.33 32.4315 Q2058.09 32.4315 2054.32 35.9558 Q2050.59 39.4801 2050.03 45.8805 L2076.6 45.84 Z" fill="#000000" fill-rule="nonzero" fill-opacity="1"></path><path clip-path="url(#clip860)" d="M2126.14 34.0924 L2126.14 9.54393 L2133.6 9.54393 L2133.6 72.576 L2126.14 72.576 L2126.14 65.7705 Q2123.79 69.8214 2120.19 71.8063 Q2116.62 73.7508 2111.6 73.7508 Q2103.38 73.7508 2098.19 67.1883 Q2093.05 60.6258 2093.05 49.9314 Q2093.05 39.2371 2098.19 32.6746 Q2103.38 26.1121 2111.6 26.1121 Q2116.62 26.1121 2120.19 28.0971 Q2123.79 30.0415 2126.14 34.0924 M2100.74 49.9314 Q2100.74 58.1548 2104.11 62.8538 Q2107.51 67.5124 2113.42 67.5124 Q2119.34 67.5124 2122.74 62.8538 Q2126.14 58.1548 2126.14 49.9314 Q2126.14 41.7081 2122.74 37.0496 Q2119.34 32.3505 2113.42 32.3505 Q2107.51 32.3505 2104.11 37.0496 Q2100.74 41.7081 2100.74 49.9314 Z" fill="#000000" fill-rule="nonzero" fill-opacity="1"></path><path clip-path="url(#clip860)" d="M2148.95 27.2059 L2156.4 27.2059 L2156.4 72.576 L2148.95 72.576 L2148.95 27.2059 M2148.95 9.54393 L2156.4 9.54393 L2156.4 18.9825 L2148.95 18.9825 L2148.95 9.54393 Z" fill="#000000" fill-rule="nonzero" fill-opacity="1"></path><path clip-path="url(#clip860)" d="M2204.65 28.9478 L2204.65 35.9153 Q2201.49 34.1734 2198.29 33.3227 Q2195.13 32.4315 2191.89 32.4315 Q2184.64 32.4315 2180.63 37.0496 Q2176.62 41.6271 2176.62 49.9314 Q2176.62 58.2358 2180.63 62.8538 Q2184.64 67.4314 2191.89 67.4314 Q2195.13 67.4314 2198.29 66.5807 Q2201.49 65.6895 2204.65 63.9476 L2204.65 70.8341 Q2201.53 72.2924 2198.17 73.0216 Q2194.85 73.7508 2191.08 73.7508 Q2180.83 73.7508 2174.79 67.3098 Q2168.76 60.8689 2168.76 49.9314 Q2168.76 38.832 2174.83 32.472 Q2180.95 26.1121 2191.56 26.1121 Q2195.01 26.1121 2198.29 26.8413 Q2201.57 27.5299 2204.65 28.9478 Z" fill="#000000" fill-rule="nonzero" fill-opacity="1"></path><path clip-path="url(#clip860)" d="M2224.98 14.324 L2224.98 27.2059 L2240.34 27.2059 L2240.34 32.9987 L2224.98 32.9987 L2224.98 57.6282 Q2224.98 63.1779 2226.48 64.7578 Q2228.02 66.3376 2232.68 66.3376 L2240.34 66.3376 L2240.34 72.576 L2232.68 72.576 Q2224.05 72.576 2220.77 69.3758 Q2217.49 66.1351 2217.49 57.6282 L2217.49 32.9987 L2212.02 32.9987 L2212.02 27.2059 L2217.49 27.2059 L2217.49 14.324 L2224.98 14.324 Z" fill="#000000" fill-rule="nonzero" fill-opacity="1"></path><path clip-path="url(#clip860)" d="M2250.14 27.2059 L2257.59 27.2059 L2257.59 72.576 L2250.14 72.576 L2250.14 27.2059 M2250.14 9.54393 L2257.59 9.54393 L2257.59 18.9825 L2250.14 18.9825 L2250.14 9.54393 Z" fill="#000000" fill-rule="nonzero" fill-opacity="1"></path><path clip-path="url(#clip860)" d="M2290.77 32.4315 Q2284.78 32.4315 2281.29 37.1306 Q2277.81 41.7891 2277.81 49.9314 Q2277.81 58.0738 2281.25 62.7728 Q2284.74 67.4314 2290.77 67.4314 Q2296.73 67.4314 2300.21 62.7323 Q2303.69 58.0333 2303.69 49.9314 Q2303.69 41.8701 2300.21 37.1711 Q2296.73 32.4315 2290.77 32.4315 M2290.77 26.1121 Q2300.49 26.1121 2306.04 32.4315 Q2311.59 38.7509 2311.59 49.9314 Q2311.59 61.0714 2306.04 67.4314 Q2300.49 73.7508 2290.77 73.7508 Q2281.01 73.7508 2275.46 67.4314 Q2269.95 61.0714 2269.95 49.9314 Q2269.95 38.7509 2275.46 32.4315 Q2281.01 26.1121 2290.77 26.1121 Z" fill="#000000" fill-rule="nonzero" fill-opacity="1"></path><path clip-path="url(#clip860)" d="M2361.66 45.1919 L2361.66 72.576 L2354.21 72.576 L2354.21 45.4349 Q2354.21 38.994 2351.7 35.7938 Q2349.19 32.5936 2344.16 32.5936 Q2338.13 32.5936 2334.64 36.4419 Q2331.16 40.2903 2331.16 46.9338 L2331.16 72.576 L2323.66 72.576 L2323.66 27.2059 L2331.16 27.2059 L2331.16 34.2544 Q2333.83 30.163 2337.44 28.1376 Q2341.08 26.1121 2345.82 26.1121 Q2353.64 26.1121 2357.65 30.9732 Q2361.66 35.7938 2361.66 45.1919 Z" fill="#000000" fill-rule="nonzero" fill-opacity="1"></path><polyline clip-path="url(#clip862)" style="stroke:#009af9; stroke-linecap:round; stroke-linejoin:round; stroke-width:4; stroke-opacity:1; fill:none" points="255.035,646.962 325.263,1053.95 395.491,1117.36 465.72,1135.59 535.948,921.765 606.176,1135.59 676.405,176.56 746.633,239.973 816.862,646.962 887.09,1053.95 957.318,1117.36 1027.55,1135.59 1097.78,921.765 1168,1135.59 1238.23,176.56 1308.46,239.973 1378.69,646.962 1448.92,1053.95 1519.15,1117.36 1589.37,1135.59 1659.6,921.765 1729.83,1135.59 1800.06,176.56 1870.29,239.973 1940.52,646.962 2010.74,1053.95 2080.97,1117.36 2151.2,1135.59 2221.43,921.765 2291.66,1135.59 "></polyline>
<polyline clip-path="url(#clip862)" style="stroke:#e26f46; stroke-linecap:round; stroke-linejoin:round; stroke-width:4; stroke-opacity:1; fill:none" points="255.035,646.962 325.263,1055.68 395.491,1271.79 465.72,1175.3 535.948,1111.92 606.176,1204.69 676.405,1292.15 746.633,1368.05 816.862,1247.33 887.09,1080.27 957.318,1124.84 1027.55,1245.96 1097.78,1330.13 1168,1358.05 1238.23,1143.26 1308.46,1054.62 1378.69,1174.16 1448.92,1273.9 1519.15,1370.09 1589.37,1288.66 1659.6,1067.19 1729.83,1076.47 1800.06,1219.74 1870.29,1300.1 1940.52,1386.4 2010.74,1193.71 2080.97,1032.9 2151.2,1122.2 2221.43,1250.76 2291.66,1334.49 "></polyline>
<polyline clip-path="url(#clip862)" style="stroke:#ff0000; stroke-linecap:round; stroke-linejoin:round; stroke-width:2; stroke-opacity:1; fill:none" points="1308.46,1360.8 1308.46,160.256 "></polyline>
<path clip-path="url(#clip860)" d="M1592.62 374.156 L2280.8 374.156 L2280.8 166.796 L1592.62 166.796  Z" fill="#ffffff" fill-rule="evenodd" fill-opacity="1"></path>
<polyline clip-path="url(#clip860)" style="stroke:#000000; stroke-linecap:round; stroke-linejoin:round; stroke-width:4; stroke-opacity:1; fill:none" points="1592.62,374.156 2280.8,374.156 2280.8,166.796 1592.62,166.796 1592.62,374.156 "></polyline>
<polyline clip-path="url(#clip860)" style="stroke:#009af9; stroke-linecap:round; stroke-linejoin:round; stroke-width:4; stroke-opacity:1; fill:none" points="1616.61,218.636 1760.53,218.636 "></polyline>
<path clip-path="url(#clip860)" d="M1803.43 213.925 L1803.43 199.897 L1807.69 199.897 L1807.69 235.916 L1803.43 235.916 L1803.43 232.027 Q1802.09 234.342 1800.03 235.476 Q1797.99 236.587 1795.12 236.587 Q1790.42 236.587 1787.46 232.837 Q1784.52 229.087 1784.52 222.976 Q1784.52 216.865 1787.46 213.115 Q1790.42 209.365 1795.12 209.365 Q1797.99 209.365 1800.03 210.499 Q1802.09 211.61 1803.43 213.925 M1788.92 222.976 Q1788.92 227.675 1790.84 230.36 Q1792.78 233.022 1796.16 233.022 Q1799.54 233.022 1801.49 230.36 Q1803.43 227.675 1803.43 222.976 Q1803.43 218.277 1801.49 215.615 Q1799.54 212.93 1796.16 212.93 Q1792.78 212.93 1790.84 215.615 Q1788.92 218.277 1788.92 222.976 Z" fill="#000000" fill-rule="nonzero" fill-opacity="1"></path><path clip-path="url(#clip860)" d="M1828.25 222.883 Q1823.08 222.883 1821.09 224.064 Q1819.1 225.244 1819.1 228.092 Q1819.1 230.36 1820.58 231.703 Q1822.09 233.022 1824.66 233.022 Q1828.2 233.022 1830.33 230.522 Q1832.48 227.999 1832.48 223.832 L1832.48 222.883 L1828.25 222.883 M1836.74 221.124 L1836.74 235.916 L1832.48 235.916 L1832.48 231.981 Q1831.02 234.342 1828.85 235.476 Q1826.67 236.587 1823.52 236.587 Q1819.54 236.587 1817.18 234.365 Q1814.84 232.119 1814.84 228.369 Q1814.84 223.994 1817.76 221.772 Q1820.7 219.55 1826.51 219.55 L1832.48 219.55 L1832.48 219.133 Q1832.48 216.194 1830.54 214.596 Q1828.62 212.976 1825.12 212.976 Q1822.9 212.976 1820.79 213.508 Q1818.69 214.041 1816.74 215.106 L1816.74 211.17 Q1819.08 210.268 1821.28 209.828 Q1823.48 209.365 1825.56 209.365 Q1831.19 209.365 1833.96 212.282 Q1836.74 215.198 1836.74 221.124 Z" fill="#000000" fill-rule="nonzero" fill-opacity="1"></path><path clip-path="url(#clip860)" d="M1849.73 202.629 L1849.73 209.99 L1858.5 209.99 L1858.5 213.3 L1849.73 213.3 L1849.73 227.374 Q1849.73 230.545 1850.58 231.448 Q1851.46 232.351 1854.13 232.351 L1858.5 232.351 L1858.5 235.916 L1854.13 235.916 Q1849.19 235.916 1847.32 234.087 Q1845.44 232.235 1845.44 227.374 L1845.44 213.3 L1842.32 213.3 L1842.32 209.99 L1845.44 209.99 L1845.44 202.629 L1849.73 202.629 Z" fill="#000000" fill-rule="nonzero" fill-opacity="1"></path><path clip-path="url(#clip860)" d="M1875.88 222.883 Q1870.72 222.883 1868.73 224.064 Q1866.74 225.244 1866.74 228.092 Q1866.74 230.36 1868.22 231.703 Q1869.73 233.022 1872.3 233.022 Q1875.84 233.022 1877.97 230.522 Q1880.12 227.999 1880.12 223.832 L1880.12 222.883 L1875.88 222.883 M1884.38 221.124 L1884.38 235.916 L1880.12 235.916 L1880.12 231.981 Q1878.66 234.342 1876.49 235.476 Q1874.31 236.587 1871.16 236.587 Q1867.18 236.587 1864.82 234.365 Q1862.48 232.119 1862.48 228.369 Q1862.48 223.994 1865.4 221.772 Q1868.34 219.55 1874.15 219.55 L1880.12 219.55 L1880.12 219.133 Q1880.12 216.194 1878.18 214.596 Q1876.25 212.976 1872.76 212.976 Q1870.54 212.976 1868.43 213.508 Q1866.32 214.041 1864.38 215.106 L1864.38 211.17 Q1866.72 210.268 1868.92 209.828 Q1871.12 209.365 1873.2 209.365 Q1878.82 209.365 1881.6 212.282 Q1884.38 215.198 1884.38 221.124 Z" fill="#000000" fill-rule="nonzero" fill-opacity="1"></path><polyline clip-path="url(#clip860)" style="stroke:#e26f46; stroke-linecap:round; stroke-linejoin:round; stroke-width:4; stroke-opacity:1; fill:none" points="1616.61,270.476 1760.53,270.476 "></polyline>
<path clip-path="url(#clip860)" d="M1788.8 283.867 L1788.8 297.617 L1784.52 297.617 L1784.52 261.83 L1788.8 261.83 L1788.8 265.765 Q1790.14 263.45 1792.18 262.339 Q1794.24 261.205 1797.09 261.205 Q1801.81 261.205 1804.75 264.955 Q1807.71 268.705 1807.71 274.816 Q1807.71 280.927 1804.75 284.677 Q1801.81 288.427 1797.09 288.427 Q1794.24 288.427 1792.18 287.316 Q1790.14 286.182 1788.8 283.867 M1803.29 274.816 Q1803.29 270.117 1801.35 267.455 Q1799.43 264.77 1796.05 264.77 Q1792.67 264.77 1790.72 267.455 Q1788.8 270.117 1788.8 274.816 Q1788.8 279.515 1790.72 282.2 Q1792.67 284.862 1796.05 284.862 Q1799.43 284.862 1801.35 282.2 Q1803.29 279.515 1803.29 274.816 Z" fill="#000000" fill-rule="nonzero" fill-opacity="1"></path><path clip-path="url(#clip860)" d="M1829.8 265.811 Q1829.08 265.395 1828.22 265.21 Q1827.39 265.001 1826.37 265.001 Q1822.76 265.001 1820.82 267.362 Q1818.89 269.7 1818.89 274.098 L1818.89 287.756 L1814.61 287.756 L1814.61 261.83 L1818.89 261.83 L1818.89 265.858 Q1820.24 263.497 1822.39 262.362 Q1824.54 261.205 1827.62 261.205 Q1828.06 261.205 1828.59 261.274 Q1829.13 261.321 1829.77 261.436 L1829.8 265.811 Z" fill="#000000" fill-rule="nonzero" fill-opacity="1"></path><path clip-path="url(#clip860)" d="M1855.4 273.728 L1855.4 275.811 L1835.82 275.811 Q1836.09 280.209 1838.45 282.524 Q1840.84 284.816 1845.07 284.816 Q1847.53 284.816 1849.82 284.214 Q1852.13 283.612 1854.4 282.409 L1854.4 286.436 Q1852.11 287.408 1849.7 287.918 Q1847.3 288.427 1844.82 288.427 Q1838.62 288.427 1834.98 284.816 Q1831.37 281.205 1831.37 275.047 Q1831.37 268.682 1834.8 264.955 Q1838.25 261.205 1844.08 261.205 Q1849.31 261.205 1852.34 264.585 Q1855.4 267.941 1855.4 273.728 M1851.14 272.478 Q1851.09 268.983 1849.17 266.899 Q1847.27 264.816 1844.13 264.816 Q1840.56 264.816 1838.41 266.83 Q1836.28 268.844 1835.95 272.501 L1851.14 272.478 Z" fill="#000000" fill-rule="nonzero" fill-opacity="1"></path><path clip-path="url(#clip860)" d="M1879.45 265.765 L1879.45 251.737 L1883.71 251.737 L1883.71 287.756 L1879.45 287.756 L1879.45 283.867 Q1878.11 286.182 1876.05 287.316 Q1874.01 288.427 1871.14 288.427 Q1866.44 288.427 1863.48 284.677 Q1860.54 280.927 1860.54 274.816 Q1860.54 268.705 1863.48 264.955 Q1866.44 261.205 1871.14 261.205 Q1874.01 261.205 1876.05 262.339 Q1878.11 263.45 1879.45 265.765 M1864.94 274.816 Q1864.94 279.515 1866.86 282.2 Q1868.8 284.862 1872.18 284.862 Q1875.56 284.862 1877.5 282.2 Q1879.45 279.515 1879.45 274.816 Q1879.45 270.117 1877.5 267.455 Q1875.56 264.77 1872.18 264.77 Q1868.8 264.77 1866.86 267.455 Q1864.94 270.117 1864.94 274.816 Z" fill="#000000" fill-rule="nonzero" fill-opacity="1"></path><path clip-path="url(#clip860)" d="M1892.48 261.83 L1896.74 261.83 L1896.74 287.756 L1892.48 287.756 L1892.48 261.83 M1892.48 251.737 L1896.74 251.737 L1896.74 257.131 L1892.48 257.131 L1892.48 251.737 Z" fill="#000000" fill-rule="nonzero" fill-opacity="1"></path><path clip-path="url(#clip860)" d="M1924.31 262.825 L1924.31 266.807 Q1922.5 265.811 1920.68 265.325 Q1918.87 264.816 1917.02 264.816 Q1912.88 264.816 1910.58 267.455 Q1908.29 270.071 1908.29 274.816 Q1908.29 279.561 1910.58 282.2 Q1912.88 284.816 1917.02 284.816 Q1918.87 284.816 1920.68 284.33 Q1922.5 283.821 1924.31 282.825 L1924.31 286.76 Q1922.53 287.594 1920.61 288.01 Q1918.71 288.427 1916.56 288.427 Q1910.7 288.427 1907.25 284.746 Q1903.8 281.066 1903.8 274.816 Q1903.8 268.473 1907.27 264.839 Q1910.77 261.205 1916.83 261.205 Q1918.8 261.205 1920.68 261.622 Q1922.55 262.015 1924.31 262.825 Z" fill="#000000" fill-rule="nonzero" fill-opacity="1"></path><path clip-path="url(#clip860)" d="M1935.93 254.469 L1935.93 261.83 L1944.7 261.83 L1944.7 265.14 L1935.93 265.14 L1935.93 279.214 Q1935.93 282.385 1936.79 283.288 Q1937.67 284.191 1940.33 284.191 L1944.7 284.191 L1944.7 287.756 L1940.33 287.756 Q1935.4 287.756 1933.52 285.927 Q1931.65 284.075 1931.65 279.214 L1931.65 265.14 L1928.52 265.14 L1928.52 261.83 L1931.65 261.83 L1931.65 254.469 L1935.93 254.469 Z" fill="#000000" fill-rule="nonzero" fill-opacity="1"></path><path clip-path="url(#clip860)" d="M1950.31 261.83 L1954.56 261.83 L1954.56 287.756 L1950.31 287.756 L1950.31 261.83 M1950.31 251.737 L1954.56 251.737 L1954.56 257.131 L1950.31 257.131 L1950.31 251.737 Z" fill="#000000" fill-rule="nonzero" fill-opacity="1"></path><path clip-path="url(#clip860)" d="M1973.52 264.816 Q1970.1 264.816 1968.11 267.501 Q1966.12 270.163 1966.12 274.816 Q1966.12 279.469 1968.08 282.154 Q1970.07 284.816 1973.52 284.816 Q1976.93 284.816 1978.92 282.131 Q1980.91 279.446 1980.91 274.816 Q1980.91 270.21 1978.92 267.524 Q1976.93 264.816 1973.52 264.816 M1973.52 261.205 Q1979.08 261.205 1982.25 264.816 Q1985.42 268.427 1985.42 274.816 Q1985.42 281.182 1982.25 284.816 Q1979.08 288.427 1973.52 288.427 Q1967.94 288.427 1964.77 284.816 Q1961.62 281.182 1961.62 274.816 Q1961.62 268.427 1964.77 264.816 Q1967.94 261.205 1973.52 261.205 Z" fill="#000000" fill-rule="nonzero" fill-opacity="1"></path><path clip-path="url(#clip860)" d="M2014.03 272.108 L2014.03 287.756 L2009.77 287.756 L2009.77 272.247 Q2009.77 268.566 2008.34 266.737 Q2006.9 264.909 2004.03 264.909 Q2000.58 264.909 1998.59 267.108 Q1996.6 269.307 1996.6 273.103 L1996.6 287.756 L1992.32 287.756 L1992.32 261.83 L1996.6 261.83 L1996.6 265.858 Q1998.13 263.52 2000.19 262.362 Q2002.27 261.205 2004.98 261.205 Q2009.45 261.205 2011.74 263.983 Q2014.03 266.737 2014.03 272.108 Z" fill="#000000" fill-rule="nonzero" fill-opacity="1"></path><polyline clip-path="url(#clip860)" style="stroke:#ff0000; stroke-linecap:round; stroke-linejoin:round; stroke-width:2; stroke-opacity:1; fill:none" points="1616.61,322.316 1760.53,322.316 "></polyline>
<path clip-path="url(#clip860)" d="M1784.52 305.036 L1806.37 305.036 L1806.37 308.971 L1789.2 308.971 L1789.2 319.202 L1805.65 319.202 L1805.65 323.137 L1789.2 323.137 L1789.2 335.661 L1806.79 335.661 L1806.79 339.596 L1784.52 339.596 L1784.52 305.036 Z" fill="#000000" fill-rule="nonzero" fill-opacity="1"></path><path clip-path="url(#clip860)" d="M1835.84 323.948 L1835.84 339.596 L1831.58 339.596 L1831.58 324.087 Q1831.58 320.406 1830.14 318.577 Q1828.71 316.749 1825.84 316.749 Q1822.39 316.749 1820.4 318.948 Q1818.41 321.147 1818.41 324.943 L1818.41 339.596 L1814.13 339.596 L1814.13 313.67 L1818.41 313.67 L1818.41 317.698 Q1819.94 315.36 1822 314.202 Q1824.08 313.045 1826.79 313.045 Q1831.26 313.045 1833.55 315.823 Q1835.84 318.577 1835.84 323.948 Z" fill="#000000" fill-rule="nonzero" fill-opacity="1"></path><path clip-path="url(#clip860)" d="M1861.39 317.605 L1861.39 303.577 L1865.65 303.577 L1865.65 339.596 L1861.39 339.596 L1861.39 335.707 Q1860.05 338.022 1857.99 339.156 Q1855.95 340.267 1853.08 340.267 Q1848.38 340.267 1845.42 336.517 Q1842.48 332.767 1842.48 326.656 Q1842.48 320.545 1845.42 316.795 Q1848.38 313.045 1853.08 313.045 Q1855.95 313.045 1857.99 314.179 Q1860.05 315.29 1861.39 317.605 M1846.88 326.656 Q1846.88 331.355 1848.8 334.04 Q1850.75 336.702 1854.13 336.702 Q1857.5 336.702 1859.45 334.04 Q1861.39 331.355 1861.39 326.656 Q1861.39 321.957 1859.45 319.295 Q1857.5 316.61 1854.13 316.61 Q1850.75 316.61 1848.8 319.295 Q1846.88 321.957 1846.88 326.656 Z" fill="#000000" fill-rule="nonzero" fill-opacity="1"></path><path clip-path="url(#clip860)" d="M1899.54 316.656 Q1896.12 316.656 1894.13 319.341 Q1892.13 322.003 1892.13 326.656 Q1892.13 331.309 1894.1 333.994 Q1896.09 336.656 1899.54 336.656 Q1902.94 336.656 1904.94 333.971 Q1906.93 331.286 1906.93 326.656 Q1906.93 322.05 1904.94 319.364 Q1902.94 316.656 1899.54 316.656 M1899.54 313.045 Q1905.1 313.045 1908.27 316.656 Q1911.44 320.267 1911.44 326.656 Q1911.44 333.022 1908.27 336.656 Q1905.1 340.267 1899.54 340.267 Q1893.96 340.267 1890.79 336.656 Q1887.64 333.022 1887.64 326.656 Q1887.64 320.267 1890.79 316.656 Q1893.96 313.045 1899.54 313.045 Z" fill="#000000" fill-rule="nonzero" fill-opacity="1"></path><path clip-path="url(#clip860)" d="M1931.62 303.577 L1931.62 307.119 L1927.55 307.119 Q1925.26 307.119 1924.36 308.045 Q1923.48 308.971 1923.48 311.378 L1923.48 313.67 L1930.49 313.67 L1930.49 316.98 L1923.48 316.98 L1923.48 339.596 L1919.19 339.596 L1919.19 316.98 L1915.12 316.98 L1915.12 313.67 L1919.19 313.67 L1919.19 311.864 Q1919.19 307.536 1921.21 305.568 Q1923.22 303.577 1927.6 303.577 L1931.62 303.577 Z" fill="#000000" fill-rule="nonzero" fill-opacity="1"></path><path clip-path="url(#clip860)" d="M1945.65 305.036 L1974.89 305.036 L1974.89 308.971 L1962.62 308.971 L1962.62 339.596 L1957.92 339.596 L1957.92 308.971 L1945.65 308.971 L1945.65 305.036 Z" fill="#000000" fill-rule="nonzero" fill-opacity="1"></path><path clip-path="url(#clip860)" d="M1987.27 317.651 Q1986.56 317.235 1985.7 317.05 Q1984.87 316.841 1983.85 316.841 Q1980.24 316.841 1978.29 319.202 Q1976.37 321.54 1976.37 325.938 L1976.37 339.596 L1972.09 339.596 L1972.09 313.67 L1976.37 313.67 L1976.37 317.698 Q1977.71 315.337 1979.87 314.202 Q1982.02 313.045 1985.1 313.045 Q1985.54 313.045 1986.07 313.114 Q1986.6 313.161 1987.25 313.276 L1987.27 317.651 Z" fill="#000000" fill-rule="nonzero" fill-opacity="1"></path><path clip-path="url(#clip860)" d="M2003.52 326.563 Q1998.36 326.563 1996.37 327.744 Q1994.38 328.924 1994.38 331.772 Q1994.38 334.04 1995.86 335.383 Q1997.37 336.702 1999.93 336.702 Q2003.48 336.702 2005.61 334.202 Q2007.76 331.679 2007.76 327.512 L2007.76 326.563 L2003.52 326.563 M2012.02 324.804 L2012.02 339.596 L2007.76 339.596 L2007.76 335.661 Q2006.3 338.022 2004.12 339.156 Q2001.95 340.267 1998.8 340.267 Q1994.82 340.267 1992.46 338.045 Q1990.12 335.799 1990.12 332.049 Q1990.12 327.674 1993.04 325.452 Q1995.98 323.23 2001.79 323.23 L2007.76 323.23 L2007.76 322.813 Q2007.76 319.874 2005.81 318.276 Q2003.89 316.656 2000.4 316.656 Q1998.18 316.656 1996.07 317.188 Q1993.96 317.721 1992.02 318.786 L1992.02 314.85 Q1994.36 313.948 1996.56 313.508 Q1998.75 313.045 2000.84 313.045 Q2006.46 313.045 2009.24 315.962 Q2012.02 318.878 2012.02 324.804 Z" fill="#000000" fill-rule="nonzero" fill-opacity="1"></path><path clip-path="url(#clip860)" d="M2020.79 313.67 L2025.05 313.67 L2025.05 339.596 L2020.79 339.596 L2020.79 313.67 M2020.79 303.577 L2025.05 303.577 L2025.05 308.971 L2020.79 308.971 L2020.79 303.577 Z" fill="#000000" fill-rule="nonzero" fill-opacity="1"></path><path clip-path="url(#clip860)" d="M2055.51 323.948 L2055.51 339.596 L2051.25 339.596 L2051.25 324.087 Q2051.25 320.406 2049.82 318.577 Q2048.38 316.749 2045.51 316.749 Q2042.06 316.749 2040.07 318.948 Q2038.08 321.147 2038.08 324.943 L2038.08 339.596 L2033.8 339.596 L2033.8 313.67 L2038.08 313.67 L2038.08 317.698 Q2039.61 315.36 2041.67 314.202 Q2043.75 313.045 2046.46 313.045 Q2050.93 313.045 2053.22 315.823 Q2055.51 318.577 2055.51 323.948 Z" fill="#000000" fill-rule="nonzero" fill-opacity="1"></path><path clip-path="url(#clip860)" d="M2064.01 313.67 L2068.27 313.67 L2068.27 339.596 L2064.01 339.596 L2064.01 313.67 M2064.01 303.577 L2068.27 303.577 L2068.27 308.971 L2064.01 308.971 L2064.01 303.577 Z" fill="#000000" fill-rule="nonzero" fill-opacity="1"></path><path clip-path="url(#clip860)" d="M2098.73 323.948 L2098.73 339.596 L2094.47 339.596 L2094.47 324.087 Q2094.47 320.406 2093.04 318.577 Q2091.6 316.749 2088.73 316.749 Q2085.28 316.749 2083.29 318.948 Q2081.3 321.147 2081.3 324.943 L2081.3 339.596 L2077.02 339.596 L2077.02 313.67 L2081.3 313.67 L2081.3 317.698 Q2082.83 315.36 2084.89 314.202 Q2086.97 313.045 2089.68 313.045 Q2094.15 313.045 2096.44 315.823 Q2098.73 318.577 2098.73 323.948 Z" fill="#000000" fill-rule="nonzero" fill-opacity="1"></path><path clip-path="url(#clip860)" d="M2124.29 326.332 Q2124.29 321.702 2122.36 319.156 Q2120.47 316.61 2117.02 316.61 Q2113.59 316.61 2111.67 319.156 Q2109.77 321.702 2109.77 326.332 Q2109.77 330.938 2111.67 333.485 Q2113.59 336.031 2117.02 336.031 Q2120.47 336.031 2122.36 333.485 Q2124.29 330.938 2124.29 326.332 M2128.55 336.378 Q2128.55 342.998 2125.61 346.216 Q2122.67 349.457 2116.6 349.457 Q2114.36 349.457 2112.36 349.11 Q2110.37 348.785 2108.5 348.091 L2108.5 343.948 Q2110.37 344.966 2112.2 345.452 Q2114.03 345.938 2115.93 345.938 Q2120.12 345.938 2122.2 343.739 Q2124.29 341.563 2124.29 337.142 L2124.29 335.036 Q2122.97 337.327 2120.91 338.461 Q2118.85 339.596 2115.98 339.596 Q2111.21 339.596 2108.29 335.961 Q2105.37 332.327 2105.37 326.332 Q2105.37 320.313 2108.29 316.679 Q2111.21 313.045 2115.98 313.045 Q2118.85 313.045 2120.91 314.179 Q2122.97 315.313 2124.29 317.605 L2124.29 313.67 L2128.55 313.67 L2128.55 336.378 Z" fill="#000000" fill-rule="nonzero" fill-opacity="1"></path><path clip-path="url(#clip860)" d="M2157.25 308.878 L2157.25 335.753 L2162.9 335.753 Q2170.05 335.753 2173.36 332.512 Q2176.69 329.272 2176.69 322.281 Q2176.69 315.337 2173.36 312.119 Q2170.05 308.878 2162.9 308.878 L2157.25 308.878 M2152.57 305.036 L2162.18 305.036 Q2172.23 305.036 2176.92 309.226 Q2181.62 313.392 2181.62 322.281 Q2181.62 331.216 2176.9 335.406 Q2172.18 339.596 2162.18 339.596 L2152.57 339.596 L2152.57 305.036 Z" fill="#000000" fill-rule="nonzero" fill-opacity="1"></path><path clip-path="url(#clip860)" d="M2200.67 326.563 Q2195.51 326.563 2193.52 327.744 Q2191.53 328.924 2191.53 331.772 Q2191.53 334.04 2193.01 335.383 Q2194.52 336.702 2197.09 336.702 Q2200.63 336.702 2202.76 334.202 Q2204.91 331.679 2204.91 327.512 L2204.91 326.563 L2200.67 326.563 M2209.17 324.804 L2209.17 339.596 L2204.91 339.596 L2204.91 335.661 Q2203.45 338.022 2201.28 339.156 Q2199.1 340.267 2195.95 340.267 Q2191.97 340.267 2189.61 338.045 Q2187.27 335.799 2187.27 332.049 Q2187.27 327.674 2190.19 325.452 Q2193.13 323.23 2198.94 323.23 L2204.91 323.23 L2204.91 322.813 Q2204.91 319.874 2202.97 318.276 Q2201.04 316.656 2197.55 316.656 Q2195.33 316.656 2193.22 317.188 Q2191.11 317.721 2189.17 318.786 L2189.17 314.85 Q2191.51 313.948 2193.71 313.508 Q2195.91 313.045 2197.99 313.045 Q2203.61 313.045 2206.39 315.962 Q2209.17 318.878 2209.17 324.804 Z" fill="#000000" fill-rule="nonzero" fill-opacity="1"></path><path clip-path="url(#clip860)" d="M2222.16 306.309 L2222.16 313.67 L2230.93 313.67 L2230.93 316.98 L2222.16 316.98 L2222.16 331.054 Q2222.16 334.225 2223.01 335.128 Q2223.89 336.031 2226.55 336.031 L2230.93 336.031 L2230.93 339.596 L2226.55 339.596 Q2221.62 339.596 2219.75 337.767 Q2217.87 335.915 2217.87 331.054 L2217.87 316.98 L2214.75 316.98 L2214.75 313.67 L2217.87 313.67 L2217.87 306.309 L2222.16 306.309 Z" fill="#000000" fill-rule="nonzero" fill-opacity="1"></path><path clip-path="url(#clip860)" d="M2248.31 326.563 Q2243.15 326.563 2241.16 327.744 Q2239.17 328.924 2239.17 331.772 Q2239.17 334.04 2240.65 335.383 Q2242.16 336.702 2244.73 336.702 Q2248.27 336.702 2250.4 334.202 Q2252.55 331.679 2252.55 327.512 L2252.55 326.563 L2248.31 326.563 M2256.81 324.804 L2256.81 339.596 L2252.55 339.596 L2252.55 335.661 Q2251.09 338.022 2248.91 339.156 Q2246.74 340.267 2243.59 340.267 Q2239.61 340.267 2237.25 338.045 Q2234.91 335.799 2234.91 332.049 Q2234.91 327.674 2237.83 325.452 Q2240.77 323.23 2246.58 323.23 L2252.55 323.23 L2252.55 322.813 Q2252.55 319.874 2250.6 318.276 Q2248.68 316.656 2245.19 316.656 Q2242.97 316.656 2240.86 317.188 Q2238.75 317.721 2236.81 318.786 L2236.81 314.85 Q2239.15 313.948 2241.35 313.508 Q2243.54 313.045 2245.63 313.045 Q2251.25 313.045 2254.03 315.962 Q2256.81 318.878 2256.81 324.804 Z" fill="#000000" fill-rule="nonzero" fill-opacity="1"></path></svg>