<svg xmlns="http://www.w3.org/2000/svg" xmlns:xlink="http://www.w3.org/1999/xlink" width="600" height="400" viewBox="0 0 2400 1600">
<defs>
  <clipPath id="clip220">
    <rect x="0" y="0" width="2400" height="1600"></rect>
  </clipPath>
</defs>
<path clip-path="url(#clip220)" d="M0 1600 L2400 1600 L2400 0 L0 0  Z" fill="#ffffff" fill-rule="evenodd" fill-opacity="1"></path>
<defs>
  <clipPath id="clip221">
    <rect x="480" y="0" width="1681" height="1600"></rect>
  </clipPath>
</defs>
<path clip-path="url(#clip220)" d="M194.422 1423.18 L2352.76 1423.18 L2352.76 123.472 L194.422 123.472  Z" fill="#ffffff" fill-rule="evenodd" fill-opacity="1"></path>
<defs>
  <clipPath id="clip222">
    <rect x="194" y="123" width="2159" height="1301"></rect>
  </clipPath>
</defs>
<polyline clip-path="url(#clip222)" style="stroke:#000000; stroke-linecap:round; stroke-linejoin:round; stroke-width:2; stroke-opacity:0.1; fill:none" points="255.507,1423.18 255.507,123.472 "></polyline>
<polyline clip-path="url(#clip222)" style="stroke:#000000; stroke-linecap:round; stroke-linejoin:round; stroke-width:2; stroke-opacity:0.1; fill:none" points="606.57,1423.18 606.57,123.472 "></polyline>
<polyline clip-path="url(#clip222)" style="stroke:#000000; stroke-linecap:round; stroke-linejoin:round; stroke-width:2; stroke-opacity:0.1; fill:none" points="957.633,1423.18 957.633,123.472 "></polyline>
<polyline clip-path="url(#clip222)" style="stroke:#000000; stroke-linecap:round; stroke-linejoin:round; stroke-width:2; stroke-opacity:0.1; fill:none" points="1308.7,1423.18 1308.7,123.472 "></polyline>
<polyline clip-path="url(#clip222)" style="stroke:#000000; stroke-linecap:round; stroke-linejoin:round; stroke-width:2; stroke-opacity:0.1; fill:none" points="1659.76,1423.18 1659.76,123.472 "></polyline>
<polyline clip-path="url(#clip222)" style="stroke:#000000; stroke-linecap:round; stroke-linejoin:round; stroke-width:2; stroke-opacity:0.1; fill:none" points="2010.82,1423.18 2010.82,123.472 "></polyline>
<polyline clip-path="url(#clip222)" style="stroke:#000000; stroke-linecap:round; stroke-linejoin:round; stroke-width:2; stroke-opacity:0.1; fill:none" points="194.422,1189.28 2352.76,1189.28 "></polyline>
<polyline clip-path="url(#clip222)" style="stroke:#000000; stroke-linecap:round; stroke-linejoin:round; stroke-width:2; stroke-opacity:0.1; fill:none" points="194.422,932.026 2352.76,932.026 "></polyline>
<polyline clip-path="url(#clip222)" style="stroke:#000000; stroke-linecap:round; stroke-linejoin:round; stroke-width:2; stroke-opacity:0.1; fill:none" points="194.422,674.769 2352.76,674.769 "></polyline>
<polyline clip-path="url(#clip222)" style="stroke:#000000; stroke-linecap:round; stroke-linejoin:round; stroke-width:2; stroke-opacity:0.1; fill:none" points="194.422,417.513 2352.76,417.513 "></polyline>
<polyline clip-path="url(#clip222)" style="stroke:#000000; stroke-linecap:round; stroke-linejoin:round; stroke-width:2; stroke-opacity:0.1; fill:none" points="194.422,160.256 2352.76,160.256 "></polyline>
<polyline clip-path="url(#clip220)" style="stroke:#000000; stroke-linecap:round; stroke-linejoin:round; stroke-width:4; stroke-opacity:1; fill:none" points="194.422,1423.18 2352.76,1423.18 "></polyline>
<polyline clip-path="url(#clip220)" style="stroke:#000000; stroke-linecap:round; stroke-linejoin:round; stroke-width:4; stroke-opacity:1; fill:none" points="255.507,1423.18 255.507,1404.28 "></polyline>
<polyline clip-path="url(#clip220)" style="stroke:#000000; stroke-linecap:round; stroke-linejoin:round; stroke-width:4; stroke-opacity:1; fill:none" points="606.57,1423.18 606.57,1404.28 "></polyline>
<polyline clip-path="url(#clip220)" style="stroke:#000000; stroke-linecap:round; stroke-linejoin:round; stroke-width:4; stroke-opacity:1; fill:none" points="957.633,1423.18 957.633,1404.28 "></polyline>
<polyline clip-path="url(#clip220)" style="stroke:#000000; stroke-linecap:round; stroke-linejoin:round; stroke-width:4; stroke-opacity:1; fill:none" points="1308.7,1423.18 1308.7,1404.28 "></polyline>
<polyline clip-path="url(#clip220)" style="stroke:#000000; stroke-linecap:round; stroke-linejoin:round; stroke-width:4; stroke-opacity:1; fill:none" points="1659.76,1423.18 1659.76,1404.28 "></polyline>
<polyline clip-path="url(#clip220)" style="stroke:#000000; stroke-linecap:round; stroke-linejoin:round; stroke-width:4; stroke-opacity:1; fill:none" points="2010.82,1423.18 2010.82,1404.28 "></polyline>
<path clip-path="url(#clip220)" d="M255.507 1454.1 Q251.896 1454.1 250.067 1457.66 Q248.262 1461.2 248.262 1468.33 Q248.262 1475.44 250.067 1479.01 Q251.896 1482.55 255.507 1482.55 Q259.141 1482.55 260.947 1479.01 Q262.776 1475.44 262.776 1468.33 Q262.776 1461.2 260.947 1457.66 Q259.141 1454.1 255.507 1454.1 M255.507 1450.39 Q261.317 1450.39 264.373 1455 Q267.451 1459.58 267.451 1468.33 Q267.451 1477.06 264.373 1481.67 Q261.317 1486.25 255.507 1486.25 Q249.697 1486.25 246.618 1481.67 Q243.563 1477.06 243.563 1468.33 Q243.563 1459.58 246.618 1455 Q249.697 1450.39 255.507 1450.39 Z" fill="#000000" fill-rule="nonzero" fill-opacity="1"></path><path clip-path="url(#clip220)" d="M596.848 1451.02 L615.204 1451.02 L615.204 1454.96 L601.13 1454.96 L601.13 1463.43 Q602.149 1463.08 603.167 1462.92 Q604.186 1462.73 605.204 1462.73 Q610.991 1462.73 614.371 1465.9 Q617.75 1469.08 617.75 1474.49 Q617.75 1480.07 614.278 1483.17 Q610.806 1486.25 604.486 1486.25 Q602.311 1486.25 600.042 1485.88 Q597.797 1485.51 595.389 1484.77 L595.389 1480.07 Q597.473 1481.2 599.695 1481.76 Q601.917 1482.32 604.394 1482.32 Q608.398 1482.32 610.736 1480.21 Q613.074 1478.1 613.074 1474.49 Q613.074 1470.88 610.736 1468.77 Q608.398 1466.67 604.394 1466.67 Q602.519 1466.67 600.644 1467.08 Q598.792 1467.5 596.848 1468.38 L596.848 1451.02 Z" fill="#000000" fill-rule="nonzero" fill-opacity="1"></path><path clip-path="url(#clip220)" d="M932.32 1481.64 L939.959 1481.64 L939.959 1455.28 L931.649 1456.95 L931.649 1452.69 L939.913 1451.02 L944.589 1451.02 L944.589 1481.64 L952.227 1481.64 L952.227 1485.58 L932.32 1485.58 L932.32 1481.64 Z" fill="#000000" fill-rule="nonzero" fill-opacity="1"></path><path clip-path="url(#clip220)" d="M971.672 1454.1 Q968.061 1454.1 966.232 1457.66 Q964.426 1461.2 964.426 1468.33 Q964.426 1475.44 966.232 1479.01 Q968.061 1482.55 971.672 1482.55 Q975.306 1482.55 977.112 1479.01 Q978.94 1475.44 978.94 1468.33 Q978.94 1461.2 977.112 1457.66 Q975.306 1454.1 971.672 1454.1 M971.672 1450.39 Q977.482 1450.39 980.537 1455 Q983.616 1459.58 983.616 1468.33 Q983.616 1477.06 980.537 1481.67 Q977.482 1486.25 971.672 1486.25 Q965.862 1486.25 962.783 1481.67 Q959.727 1477.06 959.727 1468.33 Q959.727 1459.58 962.783 1455 Q965.862 1450.39 971.672 1450.39 Z" fill="#000000" fill-rule="nonzero" fill-opacity="1"></path><path clip-path="url(#clip220)" d="M1283.88 1481.64 L1291.52 1481.64 L1291.52 1455.28 L1283.21 1456.95 L1283.21 1452.69 L1291.47 1451.02 L1296.15 1451.02 L1296.15 1481.64 L1303.79 1481.64 L1303.79 1485.58 L1283.88 1485.58 L1283.88 1481.64 Z" fill="#000000" fill-rule="nonzero" fill-opacity="1"></path><path clip-path="url(#clip220)" d="M1313.28 1451.02 L1331.63 1451.02 L1331.63 1454.96 L1317.56 1454.96 L1317.56 1463.43 Q1318.58 1463.08 1319.6 1462.92 Q1320.62 1462.73 1321.64 1462.73 Q1327.42 1462.73 1330.8 1465.9 Q1334.18 1469.08 1334.18 1474.49 Q1334.18 1480.07 1330.71 1483.17 Q1327.24 1486.25 1320.92 1486.25 Q1318.74 1486.25 1316.47 1485.88 Q1314.23 1485.51 1311.82 1484.77 L1311.82 1480.07 Q1313.9 1481.2 1316.13 1481.76 Q1318.35 1482.32 1320.82 1482.32 Q1324.83 1482.32 1327.17 1480.21 Q1329.51 1478.1 1329.51 1474.49 Q1329.51 1470.88 1327.17 1468.77 Q1324.83 1466.67 1320.82 1466.67 Q1318.95 1466.67 1317.07 1467.08 Q1315.22 1467.5 1313.28 1468.38 L1313.28 1451.02 Z" fill="#000000" fill-rule="nonzero" fill-opacity="1"></path><path clip-path="url(#clip220)" d="M1638.53 1481.64 L1654.85 1481.64 L1654.85 1485.58 L1632.91 1485.58 L1632.91 1481.64 Q1635.57 1478.89 1640.15 1474.26 Q1644.76 1469.61 1645.94 1468.27 Q1648.18 1465.74 1649.06 1464.01 Q1649.97 1462.25 1649.97 1460.56 Q1649.97 1457.8 1648.02 1456.07 Q1646.1 1454.33 1643 1454.33 Q1640.8 1454.33 1638.35 1455.09 Q1635.92 1455.86 1633.14 1457.41 L1633.14 1452.69 Q1635.96 1451.55 1638.42 1450.97 Q1640.87 1450.39 1642.91 1450.39 Q1648.28 1450.39 1651.47 1453.08 Q1654.67 1455.77 1654.67 1460.26 Q1654.67 1462.39 1653.86 1464.31 Q1653.07 1466.2 1650.96 1468.8 Q1650.38 1469.47 1647.28 1472.69 Q1644.18 1475.88 1638.53 1481.64 Z" fill="#000000" fill-rule="nonzero" fill-opacity="1"></path><path clip-path="url(#clip220)" d="M1674.67 1454.1 Q1671.05 1454.1 1669.23 1457.66 Q1667.42 1461.2 1667.42 1468.33 Q1667.42 1475.44 1669.23 1479.01 Q1671.05 1482.55 1674.67 1482.55 Q1678.3 1482.55 1680.11 1479.01 Q1681.93 1475.44 1681.93 1468.33 Q1681.93 1461.2 1680.11 1457.66 Q1678.3 1454.1 1674.67 1454.1 M1674.67 1450.39 Q1680.48 1450.39 1683.53 1455 Q1686.61 1459.58 1686.61 1468.33 Q1686.61 1477.06 1683.53 1481.67 Q1680.48 1486.25 1674.67 1486.25 Q1668.86 1486.25 1665.78 1481.67 Q1662.72 1477.06 1662.72 1468.33 Q1662.72 1459.58 1665.78 1455 Q1668.86 1450.39 1674.67 1450.39 Z" fill="#000000" fill-rule="nonzero" fill-opacity="1"></path><path clip-path="url(#clip220)" d="M1990.09 1481.64 L2006.41 1481.64 L2006.41 1485.58 L1984.47 1485.58 L1984.47 1481.64 Q1987.13 1478.89 1991.71 1474.26 Q1996.32 1469.61 1997.5 1468.27 Q1999.74 1465.74 2000.62 1464.01 Q2001.53 1462.25 2001.53 1460.56 Q2001.53 1457.8 1999.58 1456.07 Q1997.66 1454.33 1994.56 1454.33 Q1992.36 1454.33 1989.91 1455.09 Q1987.48 1455.86 1984.7 1457.41 L1984.7 1452.69 Q1987.52 1451.55 1989.98 1450.97 Q1992.43 1450.39 1994.47 1450.39 Q1999.84 1450.39 2003.03 1453.08 Q2006.23 1455.77 2006.23 1460.26 Q2006.23 1462.39 2005.42 1464.31 Q2004.63 1466.2 2002.52 1468.8 Q2001.94 1469.47 1998.84 1472.69 Q1995.74 1475.88 1990.09 1481.64 Z" fill="#000000" fill-rule="nonzero" fill-opacity="1"></path><path clip-path="url(#clip220)" d="M2016.27 1451.02 L2034.63 1451.02 L2034.63 1454.96 L2020.55 1454.96 L2020.55 1463.43 Q2021.57 1463.08 2022.59 1462.92 Q2023.61 1462.73 2024.63 1462.73 Q2030.42 1462.73 2033.8 1465.9 Q2037.17 1469.08 2037.17 1474.49 Q2037.17 1480.07 2033.7 1483.17 Q2030.23 1486.25 2023.91 1486.25 Q2021.74 1486.25 2019.47 1485.88 Q2017.22 1485.51 2014.81 1484.77 L2014.81 1480.07 Q2016.9 1481.2 2019.12 1481.76 Q2021.34 1482.32 2023.82 1482.32 Q2027.82 1482.32 2030.16 1480.21 Q2032.5 1478.1 2032.5 1474.49 Q2032.5 1470.88 2030.16 1468.77 Q2027.82 1466.67 2023.82 1466.67 Q2021.94 1466.67 2020.07 1467.08 Q2018.22 1467.5 2016.27 1468.38 L2016.27 1451.02 Z" fill="#000000" fill-rule="nonzero" fill-opacity="1"></path><path clip-path="url(#clip220)" d="M1110.95 1520.52 L1151.14 1520.52 L1151.14 1525.93 L1134.28 1525.93 L1134.28 1568.04 L1127.81 1568.04 L1127.81 1525.93 L1110.95 1525.93 L1110.95 1520.52 Z" fill="#000000" fill-rule="nonzero" fill-opacity="1"></path><path clip-path="url(#clip220)" d="M1155.09 1532.4 L1160.95 1532.4 L1160.95 1568.04 L1155.09 1568.04 L1155.09 1532.4 M1155.09 1518.52 L1160.95 1518.52 L1160.95 1525.93 L1155.09 1525.93 L1155.09 1518.52 Z" fill="#000000" fill-rule="nonzero" fill-opacity="1"></path><path clip-path="url(#clip220)" d="M1200.96 1539.24 Q1203.15 1535.29 1206.21 1533.41 Q1209.26 1531.54 1213.4 1531.54 Q1218.97 1531.54 1221.99 1535.45 Q1225.02 1539.33 1225.02 1546.53 L1225.02 1568.04 L1219.13 1568.04 L1219.13 1546.72 Q1219.13 1541.59 1217.32 1539.11 Q1215.5 1536.63 1211.78 1536.63 Q1207.23 1536.63 1204.58 1539.65 Q1201.94 1542.68 1201.94 1547.9 L1201.94 1568.04 L1196.05 1568.04 L1196.05 1546.72 Q1196.05 1541.56 1194.24 1539.11 Q1192.43 1536.63 1188.64 1536.63 Q1184.15 1536.63 1181.51 1539.68 Q1178.87 1542.71 1178.87 1547.9 L1178.87 1568.04 L1172.98 1568.04 L1172.98 1532.4 L1178.87 1532.4 L1178.87 1537.93 Q1180.87 1534.66 1183.67 1533.1 Q1186.47 1531.54 1190.33 1531.54 Q1194.21 1531.54 1196.91 1533.51 Q1199.65 1535.48 1200.96 1539.24 Z" fill="#000000" fill-rule="nonzero" fill-opacity="1"></path><path clip-path="url(#clip220)" d="M1267.19 1548.76 L1267.19 1551.62 L1240.26 1551.62 Q1240.65 1557.67 1243.89 1560.85 Q1247.17 1564 1253 1564 Q1256.37 1564 1259.52 1563.17 Q1262.7 1562.35 1265.82 1560.69 L1265.82 1566.23 Q1262.67 1567.57 1259.36 1568.27 Q1256.05 1568.97 1252.65 1568.97 Q1244.12 1568.97 1239.12 1564 Q1234.15 1559.04 1234.15 1550.57 Q1234.15 1541.82 1238.86 1536.69 Q1243.61 1531.54 1251.63 1531.54 Q1258.82 1531.54 1262.99 1536.18 Q1267.19 1540.8 1267.19 1548.76 M1261.34 1547.04 Q1261.27 1542.23 1258.63 1539.37 Q1256.02 1536.5 1251.69 1536.5 Q1246.79 1536.5 1243.83 1539.27 Q1240.9 1542.04 1240.46 1547.07 L1261.34 1547.04 Z" fill="#000000" fill-rule="nonzero" fill-opacity="1"></path><path clip-path="url(#clip220)" d="M1326.27 1522.08 L1326.27 1528.35 Q1322.6 1526.6 1319.36 1525.74 Q1316.11 1524.88 1313.09 1524.88 Q1307.84 1524.88 1304.97 1526.92 Q1302.14 1528.96 1302.14 1532.71 Q1302.14 1535.87 1304.02 1537.49 Q1305.93 1539.08 1311.21 1540.07 L1315.09 1540.86 Q1322.29 1542.23 1325.69 1545.7 Q1329.13 1549.14 1329.13 1554.93 Q1329.13 1561.84 1324.48 1565.4 Q1319.87 1568.97 1310.92 1568.97 Q1307.55 1568.97 1303.73 1568.2 Q1299.94 1567.44 1295.87 1565.94 L1295.87 1559.32 Q1299.78 1561.52 1303.54 1562.63 Q1307.3 1563.75 1310.92 1563.75 Q1316.43 1563.75 1319.42 1561.58 Q1322.41 1559.42 1322.41 1555.41 Q1322.41 1551.91 1320.25 1549.93 Q1318.12 1547.96 1313.22 1546.97 L1309.3 1546.21 Q1302.11 1544.78 1298.89 1541.72 Q1295.68 1538.67 1295.68 1533.22 Q1295.68 1526.92 1300.1 1523.29 Q1304.56 1519.66 1312.36 1519.66 Q1315.7 1519.66 1319.17 1520.27 Q1322.64 1520.87 1326.27 1522.08 Z" fill="#000000" fill-rule="nonzero" fill-opacity="1"></path><path clip-path="url(#clip220)" d="M1344.69 1522.27 L1344.69 1532.4 L1356.76 1532.4 L1356.76 1536.95 L1344.69 1536.95 L1344.69 1556.3 Q1344.69 1560.66 1345.87 1561.9 Q1347.08 1563.14 1350.74 1563.14 L1356.76 1563.14 L1356.76 1568.04 L1350.74 1568.04 Q1343.96 1568.04 1341.38 1565.53 Q1338.81 1562.98 1338.81 1556.3 L1338.81 1536.95 L1334.51 1536.95 L1334.51 1532.4 L1338.81 1532.4 L1338.81 1522.27 L1344.69 1522.27 Z" fill="#000000" fill-rule="nonzero" fill-opacity="1"></path><path clip-path="url(#clip220)" d="M1394.95 1548.76 L1394.95 1551.62 L1368.02 1551.62 Q1368.41 1557.67 1371.65 1560.85 Q1374.93 1564 1380.76 1564 Q1384.13 1564 1387.28 1563.17 Q1390.46 1562.35 1393.58 1560.69 L1393.58 1566.23 Q1390.43 1567.57 1387.12 1568.27 Q1383.81 1568.97 1380.41 1568.97 Q1371.88 1568.97 1366.88 1564 Q1361.91 1559.04 1361.91 1550.57 Q1361.91 1541.82 1366.62 1536.69 Q1371.37 1531.54 1379.39 1531.54 Q1386.58 1531.54 1390.75 1536.18 Q1394.95 1540.8 1394.95 1548.76 M1389.09 1547.04 Q1389.03 1542.23 1386.39 1539.37 Q1383.78 1536.5 1379.45 1536.5 Q1374.55 1536.5 1371.59 1539.27 Q1368.66 1542.04 1368.22 1547.07 L1389.09 1547.04 Z" fill="#000000" fill-rule="nonzero" fill-opacity="1"></path><path clip-path="url(#clip220)" d="M1410.23 1562.7 L1410.23 1581.6 L1404.34 1581.6 L1404.34 1532.4 L1410.23 1532.4 L1410.23 1537.81 Q1412.07 1534.62 1414.88 1533.1 Q1417.71 1531.54 1421.62 1531.54 Q1428.12 1531.54 1432.16 1536.69 Q1436.23 1541.85 1436.23 1550.25 Q1436.23 1558.65 1432.16 1563.81 Q1428.12 1568.97 1421.62 1568.97 Q1417.71 1568.97 1414.88 1567.44 Q1412.07 1565.88 1410.23 1562.7 M1430.15 1550.25 Q1430.15 1543.79 1427.48 1540.13 Q1424.84 1536.44 1420.19 1536.44 Q1415.54 1536.44 1412.87 1540.13 Q1410.23 1543.79 1410.23 1550.25 Q1410.23 1556.71 1412.87 1560.4 Q1415.54 1564.07 1420.19 1564.07 Q1424.84 1564.07 1427.48 1560.4 Q1430.15 1556.71 1430.15 1550.25 Z" fill="#000000" fill-rule="nonzero" fill-opacity="1"></path><polyline clip-path="url(#clip220)" style="stroke:#000000; stroke-linecap:round; stroke-linejoin:round; stroke-width:4; stroke-opacity:1; fill:none" points="194.422,1423.18 194.422,123.472 "></polyline>
<polyline clip-path="url(#clip220)" style="stroke:#000000; stroke-linecap:round; stroke-linejoin:round; stroke-width:4; stroke-opacity:1; fill:none" points="194.422,1189.28 213.32,1189.28 "></polyline>
<polyline clip-path="url(#clip220)" style="stroke:#000000; stroke-linecap:round; stroke-linejoin:round; stroke-width:4; stroke-opacity:1; fill:none" points="194.422,932.026 213.32,932.026 "></polyline>
<polyline clip-path="url(#clip220)" style="stroke:#000000; stroke-linecap:round; stroke-linejoin:round; stroke-width:4; stroke-opacity:1; fill:none" points="194.422,674.769 213.32,674.769 "></polyline>
<polyline clip-path="url(#clip220)" style="stroke:#000000; stroke-linecap:round; stroke-linejoin:round; stroke-width:4; stroke-opacity:1; fill:none" points="194.422,417.513 213.32,417.513 "></polyline>
<polyline clip-path="url(#clip220)" style="stroke:#000000; stroke-linecap:round; stroke-linejoin:round; stroke-width:4; stroke-opacity:1; fill:none" points="194.422,160.256 213.32,160.256 "></polyline>
<path clip-path="url(#clip220)" d="M51.5708 1189.73 L81.2466 1189.73 L81.2466 1193.67 L51.5708 1193.67 L51.5708 1189.73 Z" fill="#000000" fill-rule="nonzero" fill-opacity="1"></path><path clip-path="url(#clip220)" d="M101.339 1175.08 Q97.728 1175.08 95.8993 1178.65 Q94.0937 1182.19 94.0937 1189.32 Q94.0937 1196.42 95.8993 1199.99 Q97.728 1203.53 101.339 1203.53 Q104.973 1203.53 106.779 1199.99 Q108.608 1196.42 108.608 1189.32 Q108.608 1182.19 106.779 1178.65 Q104.973 1175.08 101.339 1175.08 M101.339 1171.38 Q107.149 1171.38 110.205 1175.98 Q113.283 1180.57 113.283 1189.32 Q113.283 1198.04 110.205 1202.65 Q107.149 1207.23 101.339 1207.23 Q95.5289 1207.23 92.4502 1202.65 Q89.3947 1198.04 89.3947 1189.32 Q89.3947 1180.57 92.4502 1175.98 Q95.5289 1171.38 101.339 1171.38 Z" fill="#000000" fill-rule="nonzero" fill-opacity="1"></path><path clip-path="url(#clip220)" d="M121.501 1200.68 L126.385 1200.68 L126.385 1206.56 L121.501 1206.56 L121.501 1200.68 Z" fill="#000000" fill-rule="nonzero" fill-opacity="1"></path><path clip-path="url(#clip220)" d="M146.57 1190.15 Q143.237 1190.15 141.316 1191.93 Q139.418 1193.71 139.418 1196.84 Q139.418 1199.96 141.316 1201.75 Q143.237 1203.53 146.57 1203.53 Q149.904 1203.53 151.825 1201.75 Q153.746 1199.94 153.746 1196.84 Q153.746 1193.71 151.825 1191.93 Q149.927 1190.15 146.57 1190.15 M141.894 1188.16 Q138.885 1187.42 137.195 1185.36 Q135.529 1183.3 135.529 1180.34 Q135.529 1176.19 138.469 1173.78 Q141.431 1171.38 146.57 1171.38 Q151.732 1171.38 154.672 1173.78 Q157.612 1176.19 157.612 1180.34 Q157.612 1183.3 155.922 1185.36 Q154.255 1187.42 151.269 1188.16 Q154.649 1188.95 156.524 1191.24 Q158.422 1193.53 158.422 1196.84 Q158.422 1201.86 155.343 1204.55 Q152.288 1207.23 146.57 1207.23 Q140.853 1207.23 137.774 1204.55 Q134.719 1201.86 134.719 1196.84 Q134.719 1193.53 136.617 1191.24 Q138.515 1188.95 141.894 1188.16 M140.181 1180.78 Q140.181 1183.46 141.848 1184.96 Q143.538 1186.47 146.57 1186.47 Q149.58 1186.47 151.269 1184.96 Q152.982 1183.46 152.982 1180.78 Q152.982 1178.09 151.269 1176.59 Q149.58 1175.08 146.57 1175.08 Q143.538 1175.08 141.848 1176.59 Q140.181 1178.09 140.181 1180.78 Z" fill="#000000" fill-rule="nonzero" fill-opacity="1"></path><path clip-path="url(#clip220)" d="M51.3162 932.477 L80.992 932.477 L80.992 936.412 L51.3162 936.412 L51.3162 932.477 Z" fill="#000000" fill-rule="nonzero" fill-opacity="1"></path><path clip-path="url(#clip220)" d="M101.084 917.824 Q97.4734 917.824 95.6447 921.389 Q93.8391 924.931 93.8391 932.06 Q93.8391 939.167 95.6447 942.732 Q97.4734 946.273 101.084 946.273 Q104.719 946.273 106.524 942.732 Q108.353 939.167 108.353 932.06 Q108.353 924.931 106.524 921.389 Q104.719 917.824 101.084 917.824 M101.084 914.121 Q106.895 914.121 109.95 918.727 Q113.029 923.31 113.029 932.06 Q113.029 940.787 109.95 945.394 Q106.895 949.977 101.084 949.977 Q95.2743 949.977 92.1956 945.394 Q89.1401 940.787 89.1401 932.06 Q89.1401 923.31 92.1956 918.727 Q95.2743 914.121 101.084 914.121 Z" fill="#000000" fill-rule="nonzero" fill-opacity="1"></path><path clip-path="url(#clip220)" d="M121.246 943.426 L126.131 943.426 L126.131 949.306 L121.246 949.306 L121.246 943.426 Z" fill="#000000" fill-rule="nonzero" fill-opacity="1"></path><path clip-path="url(#clip220)" d="M146.894 930.162 Q143.746 930.162 141.894 932.315 Q140.066 934.468 140.066 938.218 Q140.066 941.945 141.894 944.12 Q143.746 946.273 146.894 946.273 Q150.043 946.273 151.871 944.12 Q153.723 941.945 153.723 938.218 Q153.723 934.468 151.871 932.315 Q150.043 930.162 146.894 930.162 M156.177 915.51 L156.177 919.769 Q154.417 918.935 152.612 918.496 Q150.83 918.056 149.07 918.056 Q144.441 918.056 141.987 921.181 Q139.556 924.306 139.209 930.625 Q140.575 928.611 142.635 927.547 Q144.695 926.459 147.172 926.459 Q152.38 926.459 155.39 929.63 Q158.422 932.778 158.422 938.218 Q158.422 943.542 155.274 946.759 Q152.126 949.977 146.894 949.977 Q140.899 949.977 137.728 945.394 Q134.556 940.787 134.556 932.06 Q134.556 923.866 138.445 919.005 Q142.334 914.121 148.885 914.121 Q150.644 914.121 152.427 914.468 Q154.232 914.815 156.177 915.51 Z" fill="#000000" fill-rule="nonzero" fill-opacity="1"></path><path clip-path="url(#clip220)" d="M50.9921 675.221 L80.6679 675.221 L80.6679 679.156 L50.9921 679.156 L50.9921 675.221 Z" fill="#000000" fill-rule="nonzero" fill-opacity="1"></path><path clip-path="url(#clip220)" d="M100.76 660.568 Q97.1493 660.568 95.3206 664.133 Q93.515 667.674 93.515 674.804 Q93.515 681.91 95.3206 685.475 Q97.1493 689.017 100.76 689.017 Q104.395 689.017 106.2 685.475 Q108.029 681.91 108.029 674.804 Q108.029 667.674 106.2 664.133 Q104.395 660.568 100.76 660.568 M100.76 656.864 Q106.571 656.864 109.626 661.471 Q112.705 666.054 112.705 674.804 Q112.705 683.531 109.626 688.137 Q106.571 692.72 100.76 692.72 Q94.9502 692.72 91.8715 688.137 Q88.816 683.531 88.816 674.804 Q88.816 666.054 91.8715 661.471 Q94.9502 656.864 100.76 656.864 Z" fill="#000000" fill-rule="nonzero" fill-opacity="1"></path><path clip-path="url(#clip220)" d="M120.922 686.17 L125.807 686.17 L125.807 692.049 L120.922 692.049 L120.922 686.17 Z" fill="#000000" fill-rule="nonzero" fill-opacity="1"></path><path clip-path="url(#clip220)" d="M148.839 661.563 L137.033 680.012 L148.839 680.012 L148.839 661.563 M147.612 657.489 L153.492 657.489 L153.492 680.012 L158.422 680.012 L158.422 683.901 L153.492 683.901 L153.492 692.049 L148.839 692.049 L148.839 683.901 L133.237 683.901 L133.237 679.387 L147.612 657.489 Z" fill="#000000" fill-rule="nonzero" fill-opacity="1"></path><path clip-path="url(#clip220)" d="M53.0754 417.964 L82.7512 417.964 L82.7512 421.899 L53.0754 421.899 L53.0754 417.964 Z" fill="#000000" fill-rule="nonzero" fill-opacity="1"></path><path clip-path="url(#clip220)" d="M102.844 403.311 Q99.2326 403.311 97.4039 406.876 Q95.5984 410.418 95.5984 417.547 Q95.5984 424.654 97.4039 428.219 Q99.2326 431.76 102.844 431.76 Q106.478 431.76 108.283 428.219 Q110.112 424.654 110.112 417.547 Q110.112 410.418 108.283 406.876 Q106.478 403.311 102.844 403.311 M102.844 399.608 Q108.654 399.608 111.709 404.214 Q114.788 408.798 114.788 417.547 Q114.788 426.274 111.709 430.881 Q108.654 435.464 102.844 435.464 Q97.0335 435.464 93.9549 430.881 Q90.8993 426.274 90.8993 417.547 Q90.8993 408.798 93.9549 404.214 Q97.0335 399.608 102.844 399.608 Z" fill="#000000" fill-rule="nonzero" fill-opacity="1"></path><path clip-path="url(#clip220)" d="M123.006 428.913 L127.89 428.913 L127.89 434.793 L123.006 434.793 L123.006 428.913 Z" fill="#000000" fill-rule="nonzero" fill-opacity="1"></path><path clip-path="url(#clip220)" d="M142.103 430.858 L158.422 430.858 L158.422 434.793 L136.478 434.793 L136.478 430.858 Q139.14 428.103 143.723 423.473 Q148.33 418.821 149.51 417.478 Q151.755 414.955 152.635 413.219 Q153.538 411.46 153.538 409.77 Q153.538 407.015 151.593 405.279 Q149.672 403.543 146.57 403.543 Q144.371 403.543 141.918 404.307 Q139.487 405.071 136.709 406.622 L136.709 401.899 Q139.533 400.765 141.987 400.186 Q144.441 399.608 146.478 399.608 Q151.848 399.608 155.042 402.293 Q158.237 404.978 158.237 409.469 Q158.237 411.598 157.427 413.52 Q156.64 415.418 154.533 418.01 Q153.955 418.682 150.853 421.899 Q147.751 425.094 142.103 430.858 Z" fill="#000000" fill-rule="nonzero" fill-opacity="1"></path><path clip-path="url(#clip220)" d="M101.246 146.055 Q97.6354 146.055 95.8067 149.62 Q94.0012 153.161 94.0012 160.291 Q94.0012 167.397 95.8067 170.962 Q97.6354 174.504 101.246 174.504 Q104.881 174.504 106.686 170.962 Q108.515 167.397 108.515 160.291 Q108.515 153.161 106.686 149.62 Q104.881 146.055 101.246 146.055 M101.246 142.351 Q107.057 142.351 110.112 146.958 Q113.191 151.541 113.191 160.291 Q113.191 169.018 110.112 173.624 Q107.057 178.208 101.246 178.208 Q95.4363 178.208 92.3576 173.624 Q89.3021 169.018 89.3021 160.291 Q89.3021 151.541 92.3576 146.958 Q95.4363 142.351 101.246 142.351 Z" fill="#000000" fill-rule="nonzero" fill-opacity="1"></path><path clip-path="url(#clip220)" d="M121.408 171.657 L126.293 171.657 L126.293 177.536 L121.408 177.536 L121.408 171.657 Z" fill="#000000" fill-rule="nonzero" fill-opacity="1"></path><path clip-path="url(#clip220)" d="M146.478 146.055 Q142.867 146.055 141.038 149.62 Q139.232 153.161 139.232 160.291 Q139.232 167.397 141.038 170.962 Q142.867 174.504 146.478 174.504 Q150.112 174.504 151.918 170.962 Q153.746 167.397 153.746 160.291 Q153.746 153.161 151.918 149.62 Q150.112 146.055 146.478 146.055 M146.478 142.351 Q152.288 142.351 155.343 146.958 Q158.422 151.541 158.422 160.291 Q158.422 169.018 155.343 173.624 Q152.288 178.208 146.478 178.208 Q140.668 178.208 137.589 173.624 Q134.533 169.018 134.533 160.291 Q134.533 151.541 137.589 146.958 Q140.668 142.351 146.478 142.351 Z" fill="#000000" fill-rule="nonzero" fill-opacity="1"></path><path clip-path="url(#clip220)" d="M186.448 65.6895 L199.816 65.6895 L199.816 19.5497 L185.273 22.4663 L185.273 15.0127 L199.735 12.096 L207.918 12.096 L207.918 65.6895 L221.286 65.6895 L221.286 72.576 L186.448 72.576 L186.448 65.6895 Z" fill="#000000" fill-rule="nonzero" fill-opacity="1"></path><path clip-path="url(#clip220)" d="M308.745 16.7545 L308.745 25.383 Q304.613 21.5346 299.914 19.6307 Q295.255 17.7268 289.989 17.7268 Q279.619 17.7268 274.109 24.0867 Q268.6 30.4061 268.6 42.3968 Q268.6 54.3469 274.109 60.7069 Q279.619 67.0263 289.989 67.0263 Q295.255 67.0263 299.914 65.1223 Q304.613 63.2184 308.745 59.3701 L308.745 67.9175 Q304.451 70.8341 299.63 72.2924 Q294.85 73.7508 289.503 73.7508 Q275.77 73.7508 267.871 65.3654 Q259.972 56.9395 259.972 42.3968 Q259.972 27.8135 267.871 19.4281 Q275.77 11.0023 289.503 11.0023 Q294.931 11.0023 299.711 12.4606 Q304.532 13.8784 308.745 16.7545 Z" fill="#000000" fill-rule="nonzero" fill-opacity="1"></path><path clip-path="url(#clip220)" d="M338.64 32.4315 Q332.645 32.4315 329.161 37.1306 Q325.677 41.7891 325.677 49.9314 Q325.677 58.0738 329.121 62.7728 Q332.604 67.4314 338.64 67.4314 Q344.595 67.4314 348.079 62.7323 Q351.563 58.0333 351.563 49.9314 Q351.563 41.8701 348.079 37.1711 Q344.595 32.4315 338.64 32.4315 M338.64 26.1121 Q348.362 26.1121 353.912 32.4315 Q359.462 38.7509 359.462 49.9314 Q359.462 61.0714 353.912 67.4314 Q348.362 73.7508 338.64 73.7508 Q328.878 73.7508 323.328 67.4314 Q317.819 61.0714 317.819 49.9314 Q317.819 38.7509 323.328 32.4315 Q328.878 26.1121 338.64 26.1121 Z" fill="#000000" fill-rule="nonzero" fill-opacity="1"></path><path clip-path="url(#clip220)" d="M407.141 35.9153 Q409.936 30.8922 413.825 28.5022 Q417.714 26.1121 422.98 26.1121 Q430.069 26.1121 433.918 31.0947 Q437.766 36.0368 437.766 45.1919 L437.766 72.576 L430.272 72.576 L430.272 45.4349 Q430.272 38.913 427.963 35.7533 Q425.654 32.5936 420.914 32.5936 Q415.121 32.5936 411.759 36.4419 Q408.397 40.2903 408.397 46.9338 L408.397 72.576 L400.903 72.576 L400.903 45.4349 Q400.903 38.8725 398.594 35.7533 Q396.285 32.5936 391.464 32.5936 Q385.752 32.5936 382.39 36.4824 Q379.028 40.3308 379.028 46.9338 L379.028 72.576 L371.534 72.576 L371.534 27.2059 L379.028 27.2059 L379.028 34.2544 Q381.58 30.082 385.145 28.0971 Q388.709 26.1121 393.611 26.1121 Q398.553 26.1121 401.996 28.6237 Q405.48 31.1352 407.141 35.9153 Z" fill="#000000" fill-rule="nonzero" fill-opacity="1"></path><path clip-path="url(#clip220)" d="M487.957 35.9153 Q490.752 30.8922 494.641 28.5022 Q498.53 26.1121 503.796 26.1121 Q510.885 26.1121 514.733 31.0947 Q518.581 36.0368 518.581 45.1919 L518.581 72.576 L511.087 72.576 L511.087 45.4349 Q511.087 38.913 508.778 35.7533 Q506.469 32.5936 501.73 32.5936 Q495.937 32.5936 492.575 36.4419 Q489.212 40.2903 489.212 46.9338 L489.212 72.576 L481.718 72.576 L481.718 45.4349 Q481.718 38.8725 479.409 35.7533 Q477.1 32.5936 472.28 32.5936 Q466.568 32.5936 463.206 36.4824 Q459.843 40.3308 459.843 46.9338 L459.843 72.576 L452.349 72.576 L452.349 27.2059 L459.843 27.2059 L459.843 34.2544 Q462.395 30.082 465.96 28.0971 Q469.525 26.1121 474.427 26.1121 Q479.369 26.1121 482.812 28.6237 Q486.296 31.1352 487.957 35.9153 Z" fill="#000000" fill-rule="nonzero" fill-opacity="1"></path><path clip-path="url(#clip220)" d="M532.679 54.671 L532.679 27.2059 L540.132 27.2059 L540.132 54.3874 Q540.132 60.8284 542.644 64.0691 Q545.155 67.2693 550.179 67.2693 Q556.214 67.2693 559.698 63.421 Q563.222 59.5726 563.222 52.9291 L563.222 27.2059 L570.676 27.2059 L570.676 72.576 L563.222 72.576 L563.222 65.6084 Q560.508 69.7404 556.903 71.7658 Q553.338 73.7508 548.599 73.7508 Q540.78 73.7508 536.73 68.8897 Q532.679 64.0286 532.679 54.671 M551.434 26.1121 L551.434 26.1121 Z" fill="#000000" fill-rule="nonzero" fill-opacity="1"></path><path clip-path="url(#clip220)" d="M623.743 45.1919 L623.743 72.576 L616.289 72.576 L616.289 45.4349 Q616.289 38.994 613.778 35.7938 Q611.266 32.5936 606.243 32.5936 Q600.207 32.5936 596.723 36.4419 Q593.24 40.2903 593.24 46.9338 L593.24 72.576 L585.745 72.576 L585.745 27.2059 L593.24 27.2059 L593.24 34.2544 Q595.913 30.163 599.519 28.1376 Q603.164 26.1121 607.904 26.1121 Q615.722 26.1121 619.733 30.9732 Q623.743 35.7938 623.743 45.1919 Z" fill="#000000" fill-rule="nonzero" fill-opacity="1"></path><path clip-path="url(#clip220)" d="M638.61 27.2059 L646.063 27.2059 L646.063 72.576 L638.61 72.576 L638.61 27.2059 M638.61 9.54393 L646.063 9.54393 L646.063 18.9825 L638.61 18.9825 L638.61 9.54393 Z" fill="#000000" fill-rule="nonzero" fill-opacity="1"></path><path clip-path="url(#clip220)" d="M669.032 14.324 L669.032 27.2059 L684.385 27.2059 L684.385 32.9987 L669.032 32.9987 L669.032 57.6282 Q669.032 63.1779 670.531 64.7578 Q672.07 66.3376 676.729 66.3376 L684.385 66.3376 L684.385 72.576 L676.729 72.576 Q668.1 72.576 664.819 69.3758 Q661.538 66.1351 661.538 57.6282 L661.538 32.9987 L656.069 32.9987 L656.069 27.2059 L661.538 27.2059 L661.538 14.324 L669.032 14.324 Z" fill="#000000" fill-rule="nonzero" fill-opacity="1"></path><path clip-path="url(#clip220)" d="M713.065 76.7889 Q709.906 84.8907 706.908 87.3618 Q703.91 89.8329 698.887 89.8329 L692.932 89.8329 L692.932 83.5945 L697.307 83.5945 Q700.386 83.5945 702.087 82.1361 Q703.789 80.6778 705.855 75.2496 L707.192 71.8468 L688.841 27.2059 L696.74 27.2059 L710.918 62.6918 L725.097 27.2059 L732.996 27.2059 L713.065 76.7889 Z" fill="#000000" fill-rule="nonzero" fill-opacity="1"></path><path clip-path="url(#clip220)" d="M794.529 17.6457 Q785.617 17.6457 780.351 24.2892 Q775.125 30.9327 775.125 42.3968 Q775.125 53.8203 780.351 60.4638 Q785.617 67.1073 794.529 67.1073 Q803.441 67.1073 808.626 60.4638 Q813.852 53.8203 813.852 42.3968 Q813.852 30.9327 808.626 24.2892 Q803.441 17.6457 794.529 17.6457 M794.529 11.0023 Q807.249 11.0023 814.865 19.5497 Q822.48 28.0566 822.48 42.3968 Q822.48 56.6965 814.865 65.2439 Q807.249 73.7508 794.529 73.7508 Q781.769 73.7508 774.113 65.2439 Q766.497 56.737 766.497 42.3968 Q766.497 28.0566 774.113 19.5497 Q781.769 11.0023 794.529 11.0023 Z" fill="#000000" fill-rule="nonzero" fill-opacity="1"></path><path clip-path="url(#clip220)" d="M863.881 28.5427 L863.881 35.5912 Q860.721 33.9709 857.318 33.1607 Q853.915 32.3505 850.27 32.3505 Q844.72 32.3505 841.925 34.0519 Q839.17 35.7533 839.17 39.156 Q839.17 41.7486 841.155 43.2475 Q843.14 44.7058 849.135 46.0426 L851.687 46.6097 Q859.627 48.3111 862.949 51.4303 Q866.311 54.509 866.311 60.0587 Q866.311 66.3781 861.288 70.0644 Q856.305 73.7508 847.555 73.7508 Q843.91 73.7508 839.94 73.0216 Q836.01 72.3329 831.635 70.9151 L831.635 63.2184 Q835.767 65.3654 839.778 66.4591 Q843.788 67.5124 847.717 67.5124 Q852.984 67.5124 855.819 65.73 Q858.655 63.9071 858.655 60.6258 Q858.655 57.5877 856.589 55.9673 Q854.563 54.3469 847.636 52.8481 L845.044 52.2405 Q838.117 50.7821 835.038 47.7845 Q831.959 44.7463 831.959 39.4801 Q831.959 33.0797 836.496 29.5959 Q841.033 26.1121 849.378 26.1121 Q853.51 26.1121 857.156 26.7198 Q860.802 27.3274 863.881 28.5427 Z" fill="#000000" fill-rule="nonzero" fill-opacity="1"></path><path clip-path="url(#clip220)" d="M910.831 28.9478 L910.831 35.9153 Q907.671 34.1734 904.471 33.3227 Q901.311 32.4315 898.07 32.4315 Q890.819 32.4315 886.809 37.0496 Q882.798 41.6271 882.798 49.9314 Q882.798 58.2358 886.809 62.8538 Q890.819 67.4314 898.07 67.4314 Q901.311 67.4314 904.471 66.5807 Q907.671 65.6895 910.831 63.9476 L910.831 70.8341 Q907.711 72.2924 904.349 73.0216 Q901.027 73.7508 897.26 73.7508 Q887.011 73.7508 880.975 67.3098 Q874.94 60.8689 874.94 49.9314 Q874.94 38.832 881.016 32.472 Q887.133 26.1121 897.746 26.1121 Q901.189 26.1121 904.471 26.8413 Q907.752 27.5299 910.831 28.9478 Z" fill="#000000" fill-rule="nonzero" fill-opacity="1"></path><path clip-path="url(#clip220)" d="M923.793 27.2059 L931.247 27.2059 L931.247 72.576 L923.793 72.576 L923.793 27.2059 M923.793 9.54393 L931.247 9.54393 L931.247 18.9825 L923.793 18.9825 L923.793 9.54393 Z" fill="#000000" fill-rule="nonzero" fill-opacity="1"></path><path clip-path="url(#clip220)" d="M946.843 9.54393 L954.297 9.54393 L954.297 72.576 L946.843 72.576 L946.843 9.54393 Z" fill="#000000" fill-rule="nonzero" fill-opacity="1"></path><path clip-path="url(#clip220)" d="M969.893 9.54393 L977.346 9.54393 L977.346 72.576 L969.893 72.576 L969.893 9.54393 Z" fill="#000000" fill-rule="nonzero" fill-opacity="1"></path><path clip-path="url(#clip220)" d="M1013.56 49.7694 Q1004.53 49.7694 1001.04 51.8354 Q997.56 53.9013 997.56 58.8839 Q997.56 62.8538 1000.15 65.2034 Q1002.79 67.5124 1007.28 67.5124 Q1013.48 67.5124 1017.21 63.1374 Q1020.97 58.7219 1020.97 51.4303 L1020.97 49.7694 L1013.56 49.7694 M1028.43 46.6907 L1028.43 72.576 L1020.97 72.576 L1020.97 65.6895 Q1018.42 69.8214 1014.61 71.8063 Q1010.81 73.7508 1005.3 73.7508 Q998.33 73.7508 994.198 69.8619 Q990.107 65.9325 990.107 59.3701 Q990.107 51.7138 995.211 47.825 Q1000.36 43.9361 1010.52 43.9361 L1020.97 43.9361 L1020.97 43.2069 Q1020.97 38.0623 1017.57 35.2672 Q1014.21 32.4315 1008.09 32.4315 Q1004.2 32.4315 1000.52 33.3632 Q996.831 34.295 993.428 36.1584 L993.428 29.2718 Q997.52 27.692 1001.37 26.9223 Q1005.22 26.1121 1008.86 26.1121 Q1018.71 26.1121 1023.57 31.2163 Q1028.43 36.3204 1028.43 46.6907 Z" fill="#000000" fill-rule="nonzero" fill-opacity="1"></path><path clip-path="url(#clip220)" d="M1051.15 14.324 L1051.15 27.2059 L1066.51 27.2059 L1066.51 32.9987 L1051.15 32.9987 L1051.15 57.6282 Q1051.15 63.1779 1052.65 64.7578 Q1054.19 66.3376 1058.85 66.3376 L1066.51 66.3376 L1066.51 72.576 L1058.85 72.576 Q1050.22 72.576 1046.94 69.3758 Q1043.66 66.1351 1043.66 57.6282 L1043.66 32.9987 L1038.19 32.9987 L1038.19 27.2059 L1043.66 27.2059 L1043.66 14.324 L1051.15 14.324 Z" fill="#000000" fill-rule="nonzero" fill-opacity="1"></path><path clip-path="url(#clip220)" d="M1076.31 27.2059 L1083.76 27.2059 L1083.76 72.576 L1076.31 72.576 L1076.31 27.2059 M1076.31 9.54393 L1083.76 9.54393 L1083.76 18.9825 L1076.31 18.9825 L1076.31 9.54393 Z" fill="#000000" fill-rule="nonzero" fill-opacity="1"></path><path clip-path="url(#clip220)" d="M1116.94 32.4315 Q1110.95 32.4315 1107.46 37.1306 Q1103.98 41.7891 1103.98 49.9314 Q1103.98 58.0738 1107.42 62.7728 Q1110.9 67.4314 1116.94 67.4314 Q1122.9 67.4314 1126.38 62.7323 Q1129.86 58.0333 1129.86 49.9314 Q1129.86 41.8701 1126.38 37.1711 Q1122.9 32.4315 1116.94 32.4315 M1116.94 26.1121 Q1126.66 26.1121 1132.21 32.4315 Q1137.76 38.7509 1137.76 49.9314 Q1137.76 61.0714 1132.21 67.4314 Q1126.66 73.7508 1116.94 73.7508 Q1107.18 73.7508 1101.63 67.4314 Q1096.12 61.0714 1096.12 49.9314 Q1096.12 38.7509 1101.63 32.4315 Q1107.18 26.1121 1116.94 26.1121 Z" fill="#000000" fill-rule="nonzero" fill-opacity="1"></path><path clip-path="url(#clip220)" d="M1187.83 45.1919 L1187.83 72.576 L1180.38 72.576 L1180.38 45.4349 Q1180.38 38.994 1177.87 35.7938 Q1175.35 32.5936 1170.33 32.5936 Q1164.3 32.5936 1160.81 36.4419 Q1157.33 40.2903 1157.33 46.9338 L1157.33 72.576 L1149.83 72.576 L1149.83 27.2059 L1157.33 27.2059 L1157.33 34.2544 Q1160 30.163 1163.61 28.1376 Q1167.25 26.1121 1171.99 26.1121 Q1179.81 26.1121 1183.82 30.9732 Q1187.83 35.7938 1187.83 45.1919 Z" fill="#000000" fill-rule="nonzero" fill-opacity="1"></path><path clip-path="url(#clip220)" d="M1258.92 34.0924 L1258.92 9.54393 L1266.38 9.54393 L1266.38 72.576 L1258.92 72.576 L1258.92 65.7705 Q1256.58 69.8214 1252.97 71.8063 Q1249.41 73.7508 1244.38 73.7508 Q1236.16 73.7508 1230.97 67.1883 Q1225.83 60.6258 1225.83 49.9314 Q1225.83 39.2371 1230.97 32.6746 Q1236.16 26.1121 1244.38 26.1121 Q1249.41 26.1121 1252.97 28.0971 Q1256.58 30.0415 1258.92 34.0924 M1233.53 49.9314 Q1233.53 58.1548 1236.89 62.8538 Q1240.29 67.5124 1246.2 67.5124 Q1252.12 67.5124 1255.52 62.8538 Q1258.92 58.1548 1258.92 49.9314 Q1258.92 41.7081 1255.52 37.0496 Q1252.12 32.3505 1246.2 32.3505 Q1240.29 32.3505 1236.89 37.0496 Q1233.53 41.7081 1233.53 49.9314 Z" fill="#000000" fill-rule="nonzero" fill-opacity="1"></path><path clip-path="url(#clip220)" d="M1284.2 65.6895 L1297.57 65.6895 L1297.57 19.5497 L1283.03 22.4663 L1283.03 15.0127 L1297.49 12.096 L1305.67 12.096 L1305.67 65.6895 L1319.04 65.6895 L1319.04 72.576 L1284.2 72.576 L1284.2 65.6895 Z" fill="#000000" fill-rule="nonzero" fill-opacity="1"></path><path clip-path="url(#clip220)" d="M1336.42 62.2867 L1344.97 62.2867 L1344.97 69.2543 L1338.32 82.2172 L1333.1 82.2172 L1336.42 69.2543 L1336.42 62.2867 Z" fill="#000000" fill-rule="nonzero" fill-opacity="1"></path><path clip-path="url(#clip220)" d="M1422.58 35.9153 Q1425.38 30.8922 1429.27 28.5022 Q1433.15 26.1121 1438.42 26.1121 Q1445.51 26.1121 1449.36 31.0947 Q1453.21 36.0368 1453.21 45.1919 L1453.21 72.576 L1445.71 72.576 L1445.71 45.4349 Q1445.71 38.913 1443.4 35.7533 Q1441.09 32.5936 1436.35 32.5936 Q1430.56 32.5936 1427.2 36.4419 Q1423.84 40.2903 1423.84 46.9338 L1423.84 72.576 L1416.34 72.576 L1416.34 45.4349 Q1416.34 38.8725 1414.03 35.7533 Q1411.72 32.5936 1406.9 32.5936 Q1401.19 32.5936 1397.83 36.4824 Q1394.47 40.3308 1394.47 46.9338 L1394.47 72.576 L1386.97 72.576 L1386.97 27.2059 L1394.47 27.2059 L1394.47 34.2544 Q1397.02 30.082 1400.58 28.0971 Q1404.15 26.1121 1409.05 26.1121 Q1413.99 26.1121 1417.44 28.6237 Q1420.92 31.1352 1422.58 35.9153 Z" fill="#000000" fill-rule="nonzero" fill-opacity="1"></path><path clip-path="url(#clip220)" d="M1485.65 32.4315 Q1479.66 32.4315 1476.17 37.1306 Q1472.69 41.7891 1472.69 49.9314 Q1472.69 58.0738 1476.13 62.7728 Q1479.62 67.4314 1485.65 67.4314 Q1491.61 67.4314 1495.09 62.7323 Q1498.58 58.0333 1498.58 49.9314 Q1498.58 41.8701 1495.09 37.1711 Q1491.61 32.4315 1485.65 32.4315 M1485.65 26.1121 Q1495.38 26.1121 1500.93 32.4315 Q1506.48 38.7509 1506.48 49.9314 Q1506.48 61.0714 1500.93 67.4314 Q1495.38 73.7508 1485.65 73.7508 Q1475.89 73.7508 1470.34 67.4314 Q1464.83 61.0714 1464.83 49.9314 Q1464.83 38.7509 1470.34 32.4315 Q1475.89 26.1121 1485.65 26.1121 Z" fill="#000000" fill-rule="nonzero" fill-opacity="1"></path><path clip-path="url(#clip220)" d="M1513.48 27.2059 L1521.38 27.2059 L1535.56 65.2844 L1549.74 27.2059 L1557.64 27.2059 L1540.62 72.576 L1530.5 72.576 L1513.48 27.2059 Z" fill="#000000" fill-rule="nonzero" fill-opacity="1"></path><path clip-path="url(#clip220)" d="M1567.93 27.2059 L1575.38 27.2059 L1575.38 72.576 L1567.93 72.576 L1567.93 27.2059 M1567.93 9.54393 L1575.38 9.54393 L1575.38 18.9825 L1567.93 18.9825 L1567.93 9.54393 Z" fill="#000000" fill-rule="nonzero" fill-opacity="1"></path><path clip-path="url(#clip220)" d="M1628.69 45.1919 L1628.69 72.576 L1621.24 72.576 L1621.24 45.4349 Q1621.24 38.994 1618.73 35.7938 Q1616.21 32.5936 1611.19 32.5936 Q1605.16 32.5936 1601.67 36.4419 Q1598.19 40.2903 1598.19 46.9338 L1598.19 72.576 L1590.69 72.576 L1590.69 27.2059 L1598.19 27.2059 L1598.19 34.2544 Q1600.86 30.163 1604.47 28.1376 Q1608.11 26.1121 1612.85 26.1121 Q1620.67 26.1121 1624.68 30.9732 Q1628.69 35.7938 1628.69 45.1919 Z" fill="#000000" fill-rule="nonzero" fill-opacity="1"></path><path clip-path="url(#clip220)" d="M1673.41 49.3643 Q1673.41 41.2625 1670.05 36.8065 Q1666.73 32.3505 1660.69 32.3505 Q1654.7 32.3505 1651.34 36.8065 Q1648.01 41.2625 1648.01 49.3643 Q1648.01 57.4256 1651.34 61.8816 Q1654.7 66.3376 1660.69 66.3376 Q1666.73 66.3376 1670.05 61.8816 Q1673.41 57.4256 1673.41 49.3643 M1680.87 66.9452 Q1680.87 78.5308 1675.72 84.1616 Q1670.58 89.8329 1659.96 89.8329 Q1656.03 89.8329 1652.55 89.2252 Q1649.07 88.6581 1645.79 87.4428 L1645.79 80.1917 Q1649.07 81.9741 1652.27 82.8248 Q1655.47 83.6755 1658.79 83.6755 Q1666.12 83.6755 1669.77 79.8271 Q1673.41 76.0193 1673.41 68.282 L1673.41 64.5957 Q1671.1 68.6061 1667.5 70.5911 Q1663.89 72.576 1658.87 72.576 Q1650.53 72.576 1645.42 66.2161 Q1640.32 59.8562 1640.32 49.3643 Q1640.32 38.832 1645.42 32.472 Q1650.53 26.1121 1658.87 26.1121 Q1663.89 26.1121 1667.5 28.0971 Q1671.1 30.082 1673.41 34.0924 L1673.41 27.2059 L1680.87 27.2059 L1680.87 66.9452 Z" fill="#000000" fill-rule="nonzero" fill-opacity="1"></path><path clip-path="url(#clip220)" d="M1729.8 65.7705 L1729.8 89.8329 L1722.31 89.8329 L1722.31 27.2059 L1729.8 27.2059 L1729.8 34.0924 Q1732.15 30.0415 1735.72 28.0971 Q1739.32 26.1121 1744.3 26.1121 Q1752.57 26.1121 1757.71 32.6746 Q1762.9 39.2371 1762.9 49.9314 Q1762.9 60.6258 1757.71 67.1883 Q1752.57 73.7508 1744.3 73.7508 Q1739.32 73.7508 1735.72 71.8063 Q1732.15 69.8214 1729.8 65.7705 M1755.16 49.9314 Q1755.16 41.7081 1751.76 37.0496 Q1748.4 32.3505 1742.48 32.3505 Q1736.57 32.3505 1733.16 37.0496 Q1729.8 41.7081 1729.8 49.9314 Q1729.8 58.1548 1733.16 62.8538 Q1736.57 67.5124 1742.48 67.5124 Q1748.4 67.5124 1751.76 62.8538 Q1755.16 58.1548 1755.16 49.9314 Z" fill="#000000" fill-rule="nonzero" fill-opacity="1"></path><path clip-path="url(#clip220)" d="M1792.83 32.4315 Q1786.84 32.4315 1783.35 37.1306 Q1779.87 41.7891 1779.87 49.9314 Q1779.87 58.0738 1783.31 62.7728 Q1786.8 67.4314 1792.83 67.4314 Q1798.79 67.4314 1802.27 62.7323 Q1805.76 58.0333 1805.76 49.9314 Q1805.76 41.8701 1802.27 37.1711 Q1798.79 32.4315 1792.83 32.4315 M1792.83 26.1121 Q1802.56 26.1121 1808.11 32.4315 Q1813.66 38.7509 1813.66 49.9314 Q1813.66 61.0714 1808.11 67.4314 Q1802.56 73.7508 1792.83 73.7508 Q1783.07 73.7508 1777.52 67.4314 Q1772.01 61.0714 1772.01 49.9314 Q1772.01 38.7509 1777.52 32.4315 Q1783.07 26.1121 1792.83 26.1121 Z" fill="#000000" fill-rule="nonzero" fill-opacity="1"></path><path clip-path="url(#clip220)" d="M1826.01 27.2059 L1833.46 27.2059 L1833.46 72.576 L1826.01 72.576 L1826.01 27.2059 M1826.01 9.54393 L1833.46 9.54393 L1833.46 18.9825 L1826.01 18.9825 L1826.01 9.54393 Z" fill="#000000" fill-rule="nonzero" fill-opacity="1"></path><path clip-path="url(#clip220)" d="M1886.77 45.1919 L1886.77 72.576 L1879.32 72.576 L1879.32 45.4349 Q1879.32 38.994 1876.81 35.7938 Q1874.3 32.5936 1869.27 32.5936 Q1863.24 32.5936 1859.75 36.4419 Q1856.27 40.2903 1856.27 46.9338 L1856.27 72.576 L1848.78 72.576 L1848.78 27.2059 L1856.27 27.2059 L1856.27 34.2544 Q1858.94 30.163 1862.55 28.1376 Q1866.2 26.1121 1870.94 26.1121 Q1878.75 26.1121 1882.76 30.9732 Q1886.77 35.7938 1886.77 45.1919 Z" fill="#000000" fill-rule="nonzero" fill-opacity="1"></path><path clip-path="url(#clip220)" d="M1909.01 14.324 L1909.01 27.2059 L1924.37 27.2059 L1924.37 32.9987 L1909.01 32.9987 L1909.01 57.6282 Q1909.01 63.1779 1910.51 64.7578 Q1912.05 66.3376 1916.71 66.3376 L1924.37 66.3376 L1924.37 72.576 L1916.71 72.576 Q1908.08 72.576 1904.8 69.3758 Q1901.52 66.1351 1901.52 57.6282 L1901.52 32.9987 L1896.05 32.9987 L1896.05 27.2059 L1901.52 27.2059 L1901.52 14.324 L1909.01 14.324 Z" fill="#000000" fill-rule="nonzero" fill-opacity="1"></path><path clip-path="url(#clip220)" d="M1967.75 65.7705 L1967.75 89.8329 L1960.26 89.8329 L1960.26 27.2059 L1967.75 27.2059 L1967.75 34.0924 Q1970.1 30.0415 1973.67 28.0971 Q1977.27 26.1121 1982.25 26.1121 Q1990.52 26.1121 1995.66 32.6746 Q2000.85 39.2371 2000.85 49.9314 Q2000.85 60.6258 1995.66 67.1883 Q1990.52 73.7508 1982.25 73.7508 Q1977.27 73.7508 1973.67 71.8063 Q1970.1 69.8214 1967.75 65.7705 M1993.11 49.9314 Q1993.11 41.7081 1989.71 37.0496 Q1986.35 32.3505 1980.43 32.3505 Q1974.52 32.3505 1971.11 37.0496 Q1967.75 41.7081 1967.75 49.9314 Q1967.75 58.1548 1971.11 62.8538 Q1974.52 67.5124 1980.43 67.5124 Q1986.35 67.5124 1989.71 62.8538 Q1993.11 58.1548 1993.11 49.9314 Z" fill="#000000" fill-rule="nonzero" fill-opacity="1"></path><path clip-path="url(#clip220)" d="M2039.49 34.1734 Q2038.24 33.4443 2036.74 33.1202 Q2035.28 32.7556 2033.5 32.7556 Q2027.18 32.7556 2023.78 36.8875 Q2020.41 40.9789 2020.41 48.6757 L2020.41 72.576 L2012.92 72.576 L2012.92 27.2059 L2020.41 27.2059 L2020.41 34.2544 Q2022.76 30.1225 2026.53 28.1376 Q2030.3 26.1121 2035.69 26.1121 Q2036.46 26.1121 2037.39 26.2337 Q2038.32 26.3147 2039.45 26.5172 L2039.49 34.1734 Z" fill="#000000" fill-rule="nonzero" fill-opacity="1"></path><path clip-path="url(#clip220)" d="M2084.3 48.0275 L2084.3 51.6733 L2050.03 51.6733 Q2050.51 59.3701 2054.64 63.421 Q2058.82 67.4314 2066.23 67.4314 Q2070.52 67.4314 2074.53 66.3781 Q2078.58 65.3249 2082.55 63.2184 L2082.55 70.267 Q2078.54 71.9684 2074.33 72.8596 Q2070.12 73.7508 2065.78 73.7508 Q2054.93 73.7508 2048.57 67.4314 Q2042.25 61.1119 2042.25 50.3365 Q2042.25 39.1965 2048.24 32.6746 Q2054.28 26.1121 2064.49 26.1121 Q2073.64 26.1121 2078.95 32.0264 Q2084.3 37.9003 2084.3 48.0275 M2076.84 45.84 Q2076.76 39.7232 2073.4 36.0774 Q2070.08 32.4315 2064.57 32.4315 Q2058.33 32.4315 2054.56 35.9558 Q2050.84 39.4801 2050.27 45.8805 L2076.84 45.84 Z" fill="#000000" fill-rule="nonzero" fill-opacity="1"></path><path clip-path="url(#clip220)" d="M2126.39 34.0924 L2126.39 9.54393 L2133.84 9.54393 L2133.84 72.576 L2126.39 72.576 L2126.39 65.7705 Q2124.04 69.8214 2120.43 71.8063 Q2116.87 73.7508 2111.84 73.7508 Q2103.62 73.7508 2098.43 67.1883 Q2093.29 60.6258 2093.29 49.9314 Q2093.29 39.2371 2098.43 32.6746 Q2103.62 26.1121 2111.84 26.1121 Q2116.87 26.1121 2120.43 28.0971 Q2124.04 30.0415 2126.39 34.0924 M2100.99 49.9314 Q2100.99 58.1548 2104.35 62.8538 Q2107.75 67.5124 2113.67 67.5124 Q2119.58 67.5124 2122.98 62.8538 Q2126.39 58.1548 2126.39 49.9314 Q2126.39 41.7081 2122.98 37.0496 Q2119.58 32.3505 2113.67 32.3505 Q2107.75 32.3505 2104.35 37.0496 Q2100.99 41.7081 2100.99 49.9314 Z" fill="#000000" fill-rule="nonzero" fill-opacity="1"></path><path clip-path="url(#clip220)" d="M2149.19 27.2059 L2156.65 27.2059 L2156.65 72.576 L2149.19 72.576 L2149.19 27.2059 M2149.19 9.54393 L2156.65 9.54393 L2156.65 18.9825 L2149.19 18.9825 L2149.19 9.54393 Z" fill="#000000" fill-rule="nonzero" fill-opacity="1"></path><path clip-path="url(#clip220)" d="M2204.89 28.9478 L2204.89 35.9153 Q2201.73 34.1734 2198.53 33.3227 Q2195.37 32.4315 2192.13 32.4315 Q2184.88 32.4315 2180.87 37.0496 Q2176.86 41.6271 2176.86 49.9314 Q2176.86 58.2358 2180.87 62.8538 Q2184.88 67.4314 2192.13 67.4314 Q2195.37 67.4314 2198.53 66.5807 Q2201.73 65.6895 2204.89 63.9476 L2204.89 70.8341 Q2201.77 72.2924 2198.41 73.0216 Q2195.09 73.7508 2191.32 73.7508 Q2181.07 73.7508 2175.04 67.3098 Q2169 60.8689 2169 49.9314 Q2169 38.832 2175.08 32.472 Q2181.19 26.1121 2191.81 26.1121 Q2195.25 26.1121 2198.53 26.8413 Q2201.81 27.5299 2204.89 28.9478 Z" fill="#000000" fill-rule="nonzero" fill-opacity="1"></path><path clip-path="url(#clip220)" d="M2225.23 14.324 L2225.23 27.2059 L2240.58 27.2059 L2240.58 32.9987 L2225.23 32.9987 L2225.23 57.6282 Q2225.23 63.1779 2226.73 64.7578 Q2228.27 66.3376 2232.92 66.3376 L2240.58 66.3376 L2240.58 72.576 L2232.92 72.576 Q2224.3 72.576 2221.01 69.3758 Q2217.73 66.1351 2217.73 57.6282 L2217.73 32.9987 L2212.26 32.9987 L2212.26 27.2059 L2217.73 27.2059 L2217.73 14.324 L2225.23 14.324 Z" fill="#000000" fill-rule="nonzero" fill-opacity="1"></path><path clip-path="url(#clip220)" d="M2250.38 27.2059 L2257.84 27.2059 L2257.84 72.576 L2250.38 72.576 L2250.38 27.2059 M2250.38 9.54393 L2257.84 9.54393 L2257.84 18.9825 L2250.38 18.9825 L2250.38 9.54393 Z" fill="#000000" fill-rule="nonzero" fill-opacity="1"></path><path clip-path="url(#clip220)" d="M2291.01 32.4315 Q2285.02 32.4315 2281.53 37.1306 Q2278.05 41.7891 2278.05 49.9314 Q2278.05 58.0738 2281.49 62.7728 Q2284.98 67.4314 2291.01 67.4314 Q2296.97 67.4314 2300.45 62.7323 Q2303.94 58.0333 2303.94 49.9314 Q2303.94 41.8701 2300.45 37.1711 Q2296.97 32.4315 2291.01 32.4315 M2291.01 26.1121 Q2300.74 26.1121 2306.29 32.4315 Q2311.84 38.7509 2311.84 49.9314 Q2311.84 61.0714 2306.29 67.4314 Q2300.74 73.7508 2291.01 73.7508 Q2281.25 73.7508 2275.7 67.4314 Q2270.19 61.0714 2270.19 49.9314 Q2270.19 38.7509 2275.7 32.4315 Q2281.25 26.1121 2291.01 26.1121 Z" fill="#000000" fill-rule="nonzero" fill-opacity="1"></path><path clip-path="url(#clip220)" d="M2361.9 45.1919 L2361.9 72.576 L2354.45 72.576 L2354.45 45.4349 Q2354.45 38.994 2351.94 35.7938 Q2349.43 32.5936 2344.41 32.5936 Q2338.37 32.5936 2334.89 36.4419 Q2331.4 40.2903 2331.4 46.9338 L2331.4 72.576 L2323.91 72.576 L2323.91 27.2059 L2331.4 27.2059 L2331.4 34.2544 Q2334.08 30.163 2337.68 28.1376 Q2341.33 26.1121 2346.07 26.1121 Q2353.88 26.1121 2357.89 30.9732 Q2361.9 35.7938 2361.9 45.1919 Z" fill="#000000" fill-rule="nonzero" fill-opacity="1"></path><polyline clip-path="url(#clip222)" style="stroke:#009af9; stroke-linecap:round; stroke-linejoin:round; stroke-width:4; stroke-opacity:1; fill:none" points="255.507,160.256 325.72,543.609 395.932,879.997 466.145,1128.77 536.357,1310.74 606.57,1128.77 676.782,879.997 746.995,543.609 817.207,160.256 887.42,543.609 957.633,879.997 1027.85,1128.77 1098.06,1310.74 1168.27,1128.77 1238.48,879.997 1308.7,543.609 1378.91,160.256 1449.12,543.609 1519.33,879.997 1589.55,1128.77 1659.76,1310.74 1729.97,1128.77 1800.18,879.997 1870.4,543.609 1940.61,160.256 2010.82,543.609 2081.03,879.997 2151.25,1128.77 2221.46,1310.74 2291.67,1128.77 "></polyline>
<polyline clip-path="url(#clip222)" style="stroke:#e26f46; stroke-linecap:round; stroke-linejoin:round; stroke-width:4; stroke-opacity:1; fill:none" points="255.507,160.256 325.72,518.917 395.932,819.075 466.145,1218.25 536.357,1291.49 606.57,1105.06 676.782,632.805 746.995,577.731 817.207,1121.14 887.42,1332.76 957.633,1281.65 1027.85,879.085 1098.06,412.992 1168.27,791.342 1238.48,1280.38 1308.7,1359.46 1378.91,1185.28 1449.12,614.474 1519.33,372.582 1589.55,1048.19 1659.76,1358.58 1729.97,1349.2 1800.18,1007.76 1870.4,394.232 1940.61,536.244 2010.82,1217.91 2081.03,1386.4 2151.25,1294.36 2221.46,781.602 2291.67,268.374 "></polyline>
<polyline clip-path="url(#clip222)" style="stroke:#ff0000; stroke-linecap:round; stroke-linejoin:round; stroke-width:2; stroke-opacity:1; fill:none" points="1308.7,1382.22 1308.7,160.256 "></polyline>
<path clip-path="url(#clip220)" d="M1592.69 374.156 L2280.81 374.156 L2280.81 166.796 L1592.69 166.796  Z" fill="#ffffff" fill-rule="evenodd" fill-opacity="1"></path>
<polyline clip-path="url(#clip220)" style="stroke:#000000; stroke-linecap:round; stroke-linejoin:round; stroke-width:4; stroke-opacity:1; fill:none" points="1592.69,374.156 2280.81,374.156 2280.81,166.796 1592.69,166.796 1592.69,374.156 "></polyline>
<polyline clip-path="url(#clip220)" style="stroke:#009af9; stroke-linecap:round; stroke-linejoin:round; stroke-width:4; stroke-opacity:1; fill:none" points="1616.67,218.636 1760.56,218.636 "></polyline>
<path clip-path="url(#clip220)" d="M1803.45 213.925 L1803.45 199.897 L1807.71 199.897 L1807.71 235.916 L1803.45 235.916 L1803.45 232.027 Q1802.11 234.342 1800.05 235.476 Q1798.01 236.587 1795.14 236.587 Q1790.44 236.587 1787.48 232.837 Q1784.54 229.087 1784.54 222.976 Q1784.54 216.865 1787.48 213.115 Q1790.44 209.365 1795.14 209.365 Q1798.01 209.365 1800.05 210.499 Q1802.11 211.61 1803.45 213.925 M1788.94 222.976 Q1788.94 227.675 1790.86 230.36 Q1792.8 233.022 1796.18 233.022 Q1799.56 233.022 1801.51 230.36 Q1803.45 227.675 1803.45 222.976 Q1803.45 218.277 1801.51 215.615 Q1799.56 212.93 1796.18 212.93 Q1792.8 212.93 1790.86 215.615 Q1788.94 218.277 1788.94 222.976 Z" fill="#000000" fill-rule="nonzero" fill-opacity="1"></path><path clip-path="url(#clip220)" d="M1828.27 222.883 Q1823.11 222.883 1821.11 224.064 Q1819.12 225.244 1819.12 228.092 Q1819.12 230.36 1820.61 231.703 Q1822.11 233.022 1824.68 233.022 Q1828.22 233.022 1830.35 230.522 Q1832.5 227.999 1832.5 223.832 L1832.5 222.883 L1828.27 222.883 M1836.76 221.124 L1836.76 235.916 L1832.5 235.916 L1832.5 231.981 Q1831.05 234.342 1828.87 235.476 Q1826.69 236.587 1823.55 236.587 Q1819.56 236.587 1817.2 234.365 Q1814.86 232.119 1814.86 228.369 Q1814.86 223.994 1817.78 221.772 Q1820.72 219.55 1826.53 219.55 L1832.5 219.55 L1832.5 219.133 Q1832.5 216.194 1830.56 214.596 Q1828.64 212.976 1825.14 212.976 Q1822.92 212.976 1820.81 213.508 Q1818.71 214.041 1816.76 215.106 L1816.76 211.17 Q1819.1 210.268 1821.3 209.828 Q1823.5 209.365 1825.58 209.365 Q1831.21 209.365 1833.99 212.282 Q1836.76 215.198 1836.76 221.124 Z" fill="#000000" fill-rule="nonzero" fill-opacity="1"></path><path clip-path="url(#clip220)" d="M1849.75 202.629 L1849.75 209.99 L1858.52 209.99 L1858.52 213.3 L1849.75 213.3 L1849.75 227.374 Q1849.75 230.545 1850.61 231.448 Q1851.48 232.351 1854.15 232.351 L1858.52 232.351 L1858.52 235.916 L1854.15 235.916 Q1849.22 235.916 1847.34 234.087 Q1845.47 232.235 1845.47 227.374 L1845.47 213.3 L1842.34 213.3 L1842.34 209.99 L1845.47 209.99 L1845.47 202.629 L1849.75 202.629 Z" fill="#000000" fill-rule="nonzero" fill-opacity="1"></path><path clip-path="url(#clip220)" d="M1875.91 222.883 Q1870.74 222.883 1868.75 224.064 Q1866.76 225.244 1866.76 228.092 Q1866.76 230.36 1868.24 231.703 Q1869.75 233.022 1872.32 233.022 Q1875.86 233.022 1877.99 230.522 Q1880.14 227.999 1880.14 223.832 L1880.14 222.883 L1875.91 222.883 M1884.4 221.124 L1884.4 235.916 L1880.14 235.916 L1880.14 231.981 Q1878.68 234.342 1876.51 235.476 Q1874.33 236.587 1871.18 236.587 Q1867.2 236.587 1864.84 234.365 Q1862.5 232.119 1862.5 228.369 Q1862.5 223.994 1865.42 221.772 Q1868.36 219.55 1874.17 219.55 L1880.14 219.55 L1880.14 219.133 Q1880.14 216.194 1878.2 214.596 Q1876.28 212.976 1872.78 212.976 Q1870.56 212.976 1868.45 213.508 Q1866.35 214.041 1864.4 215.106 L1864.4 211.17 Q1866.74 210.268 1868.94 209.828 Q1871.14 209.365 1873.22 209.365 Q1878.85 209.365 1881.62 212.282 Q1884.4 215.198 1884.4 221.124 Z" fill="#000000" fill-rule="nonzero" fill-opacity="1"></path><polyline clip-path="url(#clip220)" style="stroke:#e26f46; stroke-linecap:round; stroke-linejoin:round; stroke-width:4; stroke-opacity:1; fill:none" points="1616.67,270.476 1760.56,270.476 "></polyline>
<path clip-path="url(#clip220)" d="M1788.82 283.867 L1788.82 297.617 L1784.54 297.617 L1784.54 261.83 L1788.82 261.83 L1788.82 265.765 Q1790.17 263.45 1792.2 262.339 Q1794.26 261.205 1797.11 261.205 Q1801.83 261.205 1804.77 264.955 Q1807.74 268.705 1807.74 274.816 Q1807.74 280.927 1804.77 284.677 Q1801.83 288.427 1797.11 288.427 Q1794.26 288.427 1792.2 287.316 Q1790.17 286.182 1788.82 283.867 M1803.31 274.816 Q1803.31 270.117 1801.37 267.455 Q1799.45 264.77 1796.07 264.77 Q1792.69 264.77 1790.74 267.455 Q1788.82 270.117 1788.82 274.816 Q1788.82 279.515 1790.74 282.2 Q1792.69 284.862 1796.07 284.862 Q1799.45 284.862 1801.37 282.2 Q1803.31 279.515 1803.31 274.816 Z" fill="#000000" fill-rule="nonzero" fill-opacity="1"></path><path clip-path="url(#clip220)" d="M1829.82 265.811 Q1829.1 265.395 1828.24 265.21 Q1827.41 265.001 1826.39 265.001 Q1822.78 265.001 1820.84 267.362 Q1818.92 269.7 1818.92 274.098 L1818.92 287.756 L1814.63 287.756 L1814.63 261.83 L1818.92 261.83 L1818.92 265.858 Q1820.26 263.497 1822.41 262.362 Q1824.56 261.205 1827.64 261.205 Q1828.08 261.205 1828.61 261.274 Q1829.15 261.321 1829.8 261.436 L1829.82 265.811 Z" fill="#000000" fill-rule="nonzero" fill-opacity="1"></path><path clip-path="url(#clip220)" d="M1855.42 273.728 L1855.42 275.811 L1835.84 275.811 Q1836.11 280.209 1838.48 282.524 Q1840.86 284.816 1845.1 284.816 Q1847.55 284.816 1849.84 284.214 Q1852.16 283.612 1854.42 282.409 L1854.42 286.436 Q1852.13 287.408 1849.73 287.918 Q1847.32 288.427 1844.84 288.427 Q1838.64 288.427 1835 284.816 Q1831.39 281.205 1831.39 275.047 Q1831.39 268.682 1834.82 264.955 Q1838.27 261.205 1844.1 261.205 Q1849.33 261.205 1852.36 264.585 Q1855.42 267.941 1855.42 273.728 M1851.16 272.478 Q1851.11 268.983 1849.19 266.899 Q1847.3 264.816 1844.15 264.816 Q1840.58 264.816 1838.43 266.83 Q1836.3 268.844 1835.98 272.501 L1851.16 272.478 Z" fill="#000000" fill-rule="nonzero" fill-opacity="1"></path><path clip-path="url(#clip220)" d="M1879.47 265.765 L1879.47 251.737 L1883.73 251.737 L1883.73 287.756 L1879.47 287.756 L1879.47 283.867 Q1878.13 286.182 1876.07 287.316 Q1874.03 288.427 1871.16 288.427 Q1866.46 288.427 1863.5 284.677 Q1860.56 280.927 1860.56 274.816 Q1860.56 268.705 1863.5 264.955 Q1866.46 261.205 1871.16 261.205 Q1874.03 261.205 1876.07 262.339 Q1878.13 263.45 1879.47 265.765 M1864.96 274.816 Q1864.96 279.515 1866.88 282.2 Q1868.82 284.862 1872.2 284.862 Q1875.58 284.862 1877.53 282.2 Q1879.47 279.515 1879.47 274.816 Q1879.47 270.117 1877.53 267.455 Q1875.58 264.77 1872.2 264.77 Q1868.82 264.77 1866.88 267.455 Q1864.96 270.117 1864.96 274.816 Z" fill="#000000" fill-rule="nonzero" fill-opacity="1"></path><path clip-path="url(#clip220)" d="M1892.5 261.83 L1896.76 261.83 L1896.76 287.756 L1892.5 287.756 L1892.5 261.83 M1892.5 251.737 L1896.76 251.737 L1896.76 257.131 L1892.5 257.131 L1892.5 251.737 Z" fill="#000000" fill-rule="nonzero" fill-opacity="1"></path><path clip-path="url(#clip220)" d="M1924.33 262.825 L1924.33 266.807 Q1922.53 265.811 1920.7 265.325 Q1918.89 264.816 1917.04 264.816 Q1912.9 264.816 1910.6 267.455 Q1908.31 270.071 1908.31 274.816 Q1908.31 279.561 1910.6 282.2 Q1912.9 284.816 1917.04 284.816 Q1918.89 284.816 1920.7 284.33 Q1922.53 283.821 1924.33 282.825 L1924.33 286.76 Q1922.55 287.594 1920.63 288.01 Q1918.73 288.427 1916.58 288.427 Q1910.72 288.427 1907.27 284.746 Q1903.82 281.066 1903.82 274.816 Q1903.82 268.473 1907.29 264.839 Q1910.79 261.205 1916.85 261.205 Q1918.82 261.205 1920.7 261.622 Q1922.57 262.015 1924.33 262.825 Z" fill="#000000" fill-rule="nonzero" fill-opacity="1"></path><path clip-path="url(#clip220)" d="M1935.95 254.469 L1935.95 261.83 L1944.73 261.83 L1944.73 265.14 L1935.95 265.14 L1935.95 279.214 Q1935.95 282.385 1936.81 283.288 Q1937.69 284.191 1940.35 284.191 L1944.73 284.191 L1944.73 287.756 L1940.35 287.756 Q1935.42 287.756 1933.54 285.927 Q1931.67 284.075 1931.67 279.214 L1931.67 265.14 L1928.54 265.14 L1928.54 261.83 L1931.67 261.83 L1931.67 254.469 L1935.95 254.469 Z" fill="#000000" fill-rule="nonzero" fill-opacity="1"></path><path clip-path="url(#clip220)" d="M1950.33 261.83 L1954.59 261.83 L1954.59 287.756 L1950.33 287.756 L1950.33 261.83 M1950.33 251.737 L1954.59 251.737 L1954.59 257.131 L1950.33 257.131 L1950.33 251.737 Z" fill="#000000" fill-rule="nonzero" fill-opacity="1"></path><path clip-path="url(#clip220)" d="M1973.54 264.816 Q1970.12 264.816 1968.13 267.501 Q1966.14 270.163 1966.14 274.816 Q1966.14 279.469 1968.1 282.154 Q1970.1 284.816 1973.54 284.816 Q1976.95 284.816 1978.94 282.131 Q1980.93 279.446 1980.93 274.816 Q1980.93 270.21 1978.94 267.524 Q1976.95 264.816 1973.54 264.816 M1973.54 261.205 Q1979.1 261.205 1982.27 264.816 Q1985.44 268.427 1985.44 274.816 Q1985.44 281.182 1982.27 284.816 Q1979.1 288.427 1973.54 288.427 Q1967.97 288.427 1964.79 284.816 Q1961.65 281.182 1961.65 274.816 Q1961.65 268.427 1964.79 264.816 Q1967.97 261.205 1973.54 261.205 Z" fill="#000000" fill-rule="nonzero" fill-opacity="1"></path><path clip-path="url(#clip220)" d="M2014.05 272.108 L2014.05 287.756 L2009.79 287.756 L2009.79 272.247 Q2009.79 268.566 2008.36 266.737 Q2006.92 264.909 2004.05 264.909 Q2000.6 264.909 1998.61 267.108 Q1996.62 269.307 1996.62 273.103 L1996.62 287.756 L1992.34 287.756 L1992.34 261.83 L1996.62 261.83 L1996.62 265.858 Q1998.15 263.52 2000.21 262.362 Q2002.29 261.205 2005 261.205 Q2009.47 261.205 2011.76 263.983 Q2014.05 266.737 2014.05 272.108 Z" fill="#000000" fill-rule="nonzero" fill-opacity="1"></path><polyline clip-path="url(#clip220)" style="stroke:#ff0000; stroke-linecap:round; stroke-linejoin:round; stroke-width:2; stroke-opacity:1; fill:none" points="1616.67,322.316 1760.56,322.316 "></polyline>
<path clip-path="url(#clip220)" d="M1784.54 305.036 L1806.39 305.036 L1806.39 308.971 L1789.22 308.971 L1789.22 319.202 L1805.67 319.202 L1805.67 323.137 L1789.22 323.137 L1789.22 335.661 L1806.81 335.661 L1806.81 339.596 L1784.54 339.596 L1784.54 305.036 Z" fill="#000000" fill-rule="nonzero" fill-opacity="1"></path><path clip-path="url(#clip220)" d="M1835.86 323.948 L1835.86 339.596 L1831.6 339.596 L1831.6 324.087 Q1831.6 320.406 1830.17 318.577 Q1828.73 316.749 1825.86 316.749 Q1822.41 316.749 1820.42 318.948 Q1818.43 321.147 1818.43 324.943 L1818.43 339.596 L1814.15 339.596 L1814.15 313.67 L1818.43 313.67 L1818.43 317.698 Q1819.96 315.36 1822.02 314.202 Q1824.1 313.045 1826.81 313.045 Q1831.28 313.045 1833.57 315.823 Q1835.86 318.577 1835.86 323.948 Z" fill="#000000" fill-rule="nonzero" fill-opacity="1"></path><path clip-path="url(#clip220)" d="M1861.42 317.605 L1861.42 303.577 L1865.67 303.577 L1865.67 339.596 L1861.42 339.596 L1861.42 335.707 Q1860.07 338.022 1858.01 339.156 Q1855.98 340.267 1853.11 340.267 Q1848.41 340.267 1845.44 336.517 Q1842.5 332.767 1842.5 326.656 Q1842.5 320.545 1845.44 316.795 Q1848.41 313.045 1853.11 313.045 Q1855.98 313.045 1858.01 314.179 Q1860.07 315.29 1861.42 317.605 M1846.9 326.656 Q1846.9 331.355 1848.82 334.04 Q1850.77 336.702 1854.15 336.702 Q1857.53 336.702 1859.47 334.04 Q1861.42 331.355 1861.42 326.656 Q1861.42 321.957 1859.47 319.295 Q1857.53 316.61 1854.15 316.61 Q1850.77 316.61 1848.82 319.295 Q1846.9 321.957 1846.9 326.656 Z" fill="#000000" fill-rule="nonzero" fill-opacity="1"></path><path clip-path="url(#clip220)" d="M1899.56 316.656 Q1896.14 316.656 1894.15 319.341 Q1892.16 322.003 1892.16 326.656 Q1892.16 331.309 1894.12 333.994 Q1896.11 336.656 1899.56 336.656 Q1902.97 336.656 1904.96 333.971 Q1906.95 331.286 1906.95 326.656 Q1906.95 322.05 1904.96 319.364 Q1902.97 316.656 1899.56 316.656 M1899.56 313.045 Q1905.12 313.045 1908.29 316.656 Q1911.46 320.267 1911.46 326.656 Q1911.46 333.022 1908.29 336.656 Q1905.12 340.267 1899.56 340.267 Q1893.98 340.267 1890.81 336.656 Q1887.67 333.022 1887.67 326.656 Q1887.67 320.267 1890.81 316.656 Q1893.98 313.045 1899.56 313.045 Z" fill="#000000" fill-rule="nonzero" fill-opacity="1"></path><path clip-path="url(#clip220)" d="M1931.65 303.577 L1931.65 307.119 L1927.57 307.119 Q1925.28 307.119 1924.38 308.045 Q1923.5 308.971 1923.5 311.378 L1923.5 313.67 L1930.51 313.67 L1930.51 316.98 L1923.5 316.98 L1923.5 339.596 L1919.22 339.596 L1919.22 316.98 L1915.14 316.98 L1915.14 313.67 L1919.22 313.67 L1919.22 311.864 Q1919.22 307.536 1921.23 305.568 Q1923.24 303.577 1927.62 303.577 L1931.65 303.577 Z" fill="#000000" fill-rule="nonzero" fill-opacity="1"></path><path clip-path="url(#clip220)" d="M1945.67 305.036 L1974.91 305.036 L1974.91 308.971 L1962.64 308.971 L1962.64 339.596 L1957.94 339.596 L1957.94 308.971 L1945.67 308.971 L1945.67 305.036 Z" fill="#000000" fill-rule="nonzero" fill-opacity="1"></path><path clip-path="url(#clip220)" d="M1987.29 317.651 Q1986.58 317.235 1985.72 317.05 Q1984.89 316.841 1983.87 316.841 Q1980.26 316.841 1978.31 319.202 Q1976.39 321.54 1976.39 325.938 L1976.39 339.596 L1972.11 339.596 L1972.11 313.67 L1976.39 313.67 L1976.39 317.698 Q1977.73 315.337 1979.89 314.202 Q1982.04 313.045 1985.12 313.045 Q1985.56 313.045 1986.09 313.114 Q1986.62 313.161 1987.27 313.276 L1987.29 317.651 Z" fill="#000000" fill-rule="nonzero" fill-opacity="1"></path><path clip-path="url(#clip220)" d="M2003.54 326.563 Q1998.38 326.563 1996.39 327.744 Q1994.4 328.924 1994.4 331.772 Q1994.4 334.04 1995.88 335.383 Q1997.39 336.702 1999.96 336.702 Q2003.5 336.702 2005.63 334.202 Q2007.78 331.679 2007.78 327.512 L2007.78 326.563 L2003.54 326.563 M2012.04 324.804 L2012.04 339.596 L2007.78 339.596 L2007.78 335.661 Q2006.32 338.022 2004.15 339.156 Q2001.97 340.267 1998.82 340.267 Q1994.84 340.267 1992.48 338.045 Q1990.14 335.799 1990.14 332.049 Q1990.14 327.674 1993.06 325.452 Q1996 323.23 2001.81 323.23 L2007.78 323.23 L2007.78 322.813 Q2007.78 319.874 2005.84 318.276 Q2003.91 316.656 2000.42 316.656 Q1998.2 316.656 1996.09 317.188 Q1993.98 317.721 1992.04 318.786 L1992.04 314.85 Q1994.38 313.948 1996.58 313.508 Q1998.78 313.045 2000.86 313.045 Q2006.48 313.045 2009.26 315.962 Q2012.04 318.878 2012.04 324.804 Z" fill="#000000" fill-rule="nonzero" fill-opacity="1"></path><path clip-path="url(#clip220)" d="M2020.81 313.67 L2025.07 313.67 L2025.07 339.596 L2020.81 339.596 L2020.81 313.67 M2020.81 303.577 L2025.07 303.577 L2025.07 308.971 L2020.81 308.971 L2020.81 303.577 Z" fill="#000000" fill-rule="nonzero" fill-opacity="1"></path><path clip-path="url(#clip220)" d="M2055.53 323.948 L2055.53 339.596 L2051.28 339.596 L2051.28 324.087 Q2051.28 320.406 2049.84 318.577 Q2048.41 316.749 2045.53 316.749 Q2042.09 316.749 2040.1 318.948 Q2038.1 321.147 2038.1 324.943 L2038.1 339.596 L2033.82 339.596 L2033.82 313.67 L2038.1 313.67 L2038.1 317.698 Q2039.63 315.36 2041.69 314.202 Q2043.78 313.045 2046.48 313.045 Q2050.95 313.045 2053.24 315.823 Q2055.53 318.577 2055.53 323.948 Z" fill="#000000" fill-rule="nonzero" fill-opacity="1"></path><path clip-path="url(#clip220)" d="M2064.03 313.67 L2068.29 313.67 L2068.29 339.596 L2064.03 339.596 L2064.03 313.67 M2064.03 303.577 L2068.29 303.577 L2068.29 308.971 L2064.03 308.971 L2064.03 303.577 Z" fill="#000000" fill-rule="nonzero" fill-opacity="1"></path><path clip-path="url(#clip220)" d="M2098.75 323.948 L2098.75 339.596 L2094.49 339.596 L2094.49 324.087 Q2094.49 320.406 2093.06 318.577 Q2091.62 316.749 2088.75 316.749 Q2085.3 316.749 2083.31 318.948 Q2081.32 321.147 2081.32 324.943 L2081.32 339.596 L2077.04 339.596 L2077.04 313.67 L2081.32 313.67 L2081.32 317.698 Q2082.85 315.36 2084.91 314.202 Q2086.99 313.045 2089.7 313.045 Q2094.17 313.045 2096.46 315.823 Q2098.75 318.577 2098.75 323.948 Z" fill="#000000" fill-rule="nonzero" fill-opacity="1"></path><path clip-path="url(#clip220)" d="M2124.31 326.332 Q2124.31 321.702 2122.39 319.156 Q2120.49 316.61 2117.04 316.61 Q2113.61 316.61 2111.69 319.156 Q2109.79 321.702 2109.79 326.332 Q2109.79 330.938 2111.69 333.485 Q2113.61 336.031 2117.04 336.031 Q2120.49 336.031 2122.39 333.485 Q2124.31 330.938 2124.31 326.332 M2128.57 336.378 Q2128.57 342.998 2125.63 346.216 Q2122.69 349.457 2116.62 349.457 Q2114.38 349.457 2112.39 349.11 Q2110.4 348.785 2108.52 348.091 L2108.52 343.948 Q2110.4 344.966 2112.22 345.452 Q2114.05 345.938 2115.95 345.938 Q2120.14 345.938 2122.22 343.739 Q2124.31 341.563 2124.31 337.142 L2124.31 335.036 Q2122.99 337.327 2120.93 338.461 Q2118.87 339.596 2116 339.596 Q2111.23 339.596 2108.31 335.961 Q2105.4 332.327 2105.4 326.332 Q2105.4 320.313 2108.31 316.679 Q2111.23 313.045 2116 313.045 Q2118.87 313.045 2120.93 314.179 Q2122.99 315.313 2124.31 317.605 L2124.31 313.67 L2128.57 313.67 L2128.57 336.378 Z" fill="#000000" fill-rule="nonzero" fill-opacity="1"></path><path clip-path="url(#clip220)" d="M2157.27 308.878 L2157.27 335.753 L2162.92 335.753 Q2170.07 335.753 2173.38 332.512 Q2176.71 329.272 2176.71 322.281 Q2176.71 315.337 2173.38 312.119 Q2170.07 308.878 2162.92 308.878 L2157.27 308.878 M2152.59 305.036 L2162.2 305.036 Q2172.25 305.036 2176.95 309.226 Q2181.65 313.392 2181.65 322.281 Q2181.65 331.216 2176.92 335.406 Q2172.2 339.596 2162.2 339.596 L2152.59 339.596 L2152.59 305.036 Z" fill="#000000" fill-rule="nonzero" fill-opacity="1"></path><path clip-path="url(#clip220)" d="M2200.7 326.563 Q2195.53 326.563 2193.54 327.744 Q2191.55 328.924 2191.55 331.772 Q2191.55 334.04 2193.03 335.383 Q2194.54 336.702 2197.11 336.702 Q2200.65 336.702 2202.78 334.202 Q2204.93 331.679 2204.93 327.512 L2204.93 326.563 L2200.7 326.563 M2209.19 324.804 L2209.19 339.596 L2204.93 339.596 L2204.93 335.661 Q2203.47 338.022 2201.3 339.156 Q2199.12 340.267 2195.97 340.267 Q2191.99 340.267 2189.63 338.045 Q2187.29 335.799 2187.29 332.049 Q2187.29 327.674 2190.21 325.452 Q2193.15 323.23 2198.96 323.23 L2204.93 323.23 L2204.93 322.813 Q2204.93 319.874 2202.99 318.276 Q2201.07 316.656 2197.57 316.656 Q2195.35 316.656 2193.24 317.188 Q2191.14 317.721 2189.19 318.786 L2189.19 314.85 Q2191.53 313.948 2193.73 313.508 Q2195.93 313.045 2198.01 313.045 Q2203.64 313.045 2206.41 315.962 Q2209.19 318.878 2209.19 324.804 Z" fill="#000000" fill-rule="nonzero" fill-opacity="1"></path><path clip-path="url(#clip220)" d="M2222.18 306.309 L2222.18 313.67 L2230.95 313.67 L2230.95 316.98 L2222.18 316.98 L2222.18 331.054 Q2222.18 334.225 2223.03 335.128 Q2223.91 336.031 2226.58 336.031 L2230.95 336.031 L2230.95 339.596 L2226.58 339.596 Q2221.64 339.596 2219.77 337.767 Q2217.89 335.915 2217.89 331.054 L2217.89 316.98 L2214.77 316.98 L2214.77 313.67 L2217.89 313.67 L2217.89 306.309 L2222.18 306.309 Z" fill="#000000" fill-rule="nonzero" fill-opacity="1"></path><path clip-path="url(#clip220)" d="M2248.33 326.563 Q2243.17 326.563 2241.18 327.744 Q2239.19 328.924 2239.19 331.772 Q2239.19 334.04 2240.67 335.383 Q2242.18 336.702 2244.75 336.702 Q2248.29 336.702 2250.42 334.202 Q2252.57 331.679 2252.57 327.512 L2252.57 326.563 L2248.33 326.563 M2256.83 324.804 L2256.83 339.596 L2252.57 339.596 L2252.57 335.661 Q2251.11 338.022 2248.94 339.156 Q2246.76 340.267 2243.61 340.267 Q2239.63 340.267 2237.27 338.045 Q2234.93 335.799 2234.93 332.049 Q2234.93 327.674 2237.85 325.452 Q2240.79 323.23 2246.6 323.23 L2252.57 323.23 L2252.57 322.813 Q2252.57 319.874 2250.63 318.276 Q2248.71 316.656 2245.21 316.656 Q2242.99 316.656 2240.88 317.188 Q2238.77 317.721 2236.83 318.786 L2236.83 314.85 Q2239.17 313.948 2241.37 313.508 Q2243.57 313.045 2245.65 313.045 Q2251.27 313.045 2254.05 315.962 Q2256.83 318.878 2256.83 324.804 Z" fill="#000000" fill-rule="nonzero" fill-opacity="1"></path></svg>