<svg xmlns="http://www.w3.org/2000/svg" xmlns:xlink="http://www.w3.org/1999/xlink" width="600" height="400" viewBox="0 0 2400 1600">
<defs>
  <clipPath id="clip740">
    <rect x="0" y="0" width="2400" height="1600"></rect>
  </clipPath>
</defs>
<path clip-path="url(#clip740)" d="M0 1600 L2400 1600 L2400 0 L0 0  Z" fill="#ffffff" fill-rule="evenodd" fill-opacity="1"></path>
<defs>
  <clipPath id="clip741">
    <rect x="480" y="0" width="1681" height="1600"></rect>
  </clipPath>
</defs>
<path clip-path="url(#clip740)" d="M194.422 1423.18 L2352.76 1423.18 L2352.76 123.472 L194.422 123.472  Z" fill="#ffffff" fill-rule="evenodd" fill-opacity="1"></path>
<defs>
  <clipPath id="clip742">
    <rect x="194" y="123" width="2159" height="1301"></rect>
  </clipPath>
</defs>
<polyline clip-path="url(#clip742)" style="stroke:#000000; stroke-linecap:round; stroke-linejoin:round; stroke-width:2; stroke-opacity:0.1; fill:none" points="255.507,1423.18 255.507,123.472 "></polyline>
<polyline clip-path="url(#clip742)" style="stroke:#000000; stroke-linecap:round; stroke-linejoin:round; stroke-width:2; stroke-opacity:0.1; fill:none" points="606.57,1423.18 606.57,123.472 "></polyline>
<polyline clip-path="url(#clip742)" style="stroke:#000000; stroke-linecap:round; stroke-linejoin:round; stroke-width:2; stroke-opacity:0.1; fill:none" points="957.633,1423.18 957.633,123.472 "></polyline>
<polyline clip-path="url(#clip742)" style="stroke:#000000; stroke-linecap:round; stroke-linejoin:round; stroke-width:2; stroke-opacity:0.1; fill:none" points="1308.7,1423.18 1308.7,123.472 "></polyline>
<polyline clip-path="url(#clip742)" style="stroke:#000000; stroke-linecap:round; stroke-linejoin:round; stroke-width:2; stroke-opacity:0.1; fill:none" points="1659.76,1423.18 1659.76,123.472 "></polyline>
<polyline clip-path="url(#clip742)" style="stroke:#000000; stroke-linecap:round; stroke-linejoin:round; stroke-width:2; stroke-opacity:0.1; fill:none" points="2010.82,1423.18 2010.82,123.472 "></polyline>
<polyline clip-path="url(#clip742)" style="stroke:#000000; stroke-linecap:round; stroke-linejoin:round; stroke-width:2; stroke-opacity:0.1; fill:none" points="194.422,1299.81 2352.76,1299.81 "></polyline>
<polyline clip-path="url(#clip742)" style="stroke:#000000; stroke-linecap:round; stroke-linejoin:round; stroke-width:2; stroke-opacity:0.1; fill:none" points="194.422,1126.63 2352.76,1126.63 "></polyline>
<polyline clip-path="url(#clip742)" style="stroke:#000000; stroke-linecap:round; stroke-linejoin:round; stroke-width:2; stroke-opacity:0.1; fill:none" points="194.422,953.447 2352.76,953.447 "></polyline>
<polyline clip-path="url(#clip742)" style="stroke:#000000; stroke-linecap:round; stroke-linejoin:round; stroke-width:2; stroke-opacity:0.1; fill:none" points="194.422,780.267 2352.76,780.267 "></polyline>
<polyline clip-path="url(#clip742)" style="stroke:#000000; stroke-linecap:round; stroke-linejoin:round; stroke-width:2; stroke-opacity:0.1; fill:none" points="194.422,607.088 2352.76,607.088 "></polyline>
<polyline clip-path="url(#clip742)" style="stroke:#000000; stroke-linecap:round; stroke-linejoin:round; stroke-width:2; stroke-opacity:0.1; fill:none" points="194.422,433.908 2352.76,433.908 "></polyline>
<polyline clip-path="url(#clip742)" style="stroke:#000000; stroke-linecap:round; stroke-linejoin:round; stroke-width:2; stroke-opacity:0.1; fill:none" points="194.422,260.729 2352.76,260.729 "></polyline>
<polyline clip-path="url(#clip740)" style="stroke:#000000; stroke-linecap:round; stroke-linejoin:round; stroke-width:4; stroke-opacity:1; fill:none" points="194.422,1423.18 2352.76,1423.18 "></polyline>
<polyline clip-path="url(#clip740)" style="stroke:#000000; stroke-linecap:round; stroke-linejoin:round; stroke-width:4; stroke-opacity:1; fill:none" points="255.507,1423.18 255.507,1404.28 "></polyline>
<polyline clip-path="url(#clip740)" style="stroke:#000000; stroke-linecap:round; stroke-linejoin:round; stroke-width:4; stroke-opacity:1; fill:none" points="606.57,1423.18 606.57,1404.28 "></polyline>
<polyline clip-path="url(#clip740)" style="stroke:#000000; stroke-linecap:round; stroke-linejoin:round; stroke-width:4; stroke-opacity:1; fill:none" points="957.633,1423.18 957.633,1404.28 "></polyline>
<polyline clip-path="url(#clip740)" style="stroke:#000000; stroke-linecap:round; stroke-linejoin:round; stroke-width:4; stroke-opacity:1; fill:none" points="1308.7,1423.18 1308.7,1404.28 "></polyline>
<polyline clip-path="url(#clip740)" style="stroke:#000000; stroke-linecap:round; stroke-linejoin:round; stroke-width:4; stroke-opacity:1; fill:none" points="1659.76,1423.18 1659.76,1404.28 "></polyline>
<polyline clip-path="url(#clip740)" style="stroke:#000000; stroke-linecap:round; stroke-linejoin:round; stroke-width:4; stroke-opacity:1; fill:none" points="2010.82,1423.18 2010.82,1404.28 "></polyline>
<path clip-path="url(#clip740)" d="M255.507 1454.1 Q251.896 1454.1 250.067 1457.66 Q248.262 1461.2 248.262 1468.33 Q248.262 1475.44 250.067 1479.01 Q251.896 1482.55 255.507 1482.55 Q259.141 1482.55 260.947 1479.01 Q262.776 1475.44 262.776 1468.33 Q262.776 1461.2 260.947 1457.66 Q259.141 1454.1 255.507 1454.1 M255.507 1450.39 Q261.317 1450.39 264.373 1455 Q267.451 1459.58 267.451 1468.33 Q267.451 1477.06 264.373 1481.67 Q261.317 1486.25 255.507 1486.25 Q249.697 1486.25 246.618 1481.67 Q243.563 1477.06 243.563 1468.33 Q243.563 1459.58 246.618 1455 Q249.697 1450.39 255.507 1450.39 Z" fill="#000000" fill-rule="nonzero" fill-opacity="1"></path><path clip-path="url(#clip740)" d="M596.848 1451.02 L615.204 1451.02 L615.204 1454.96 L601.13 1454.96 L601.13 1463.43 Q602.149 1463.08 603.167 1462.92 Q604.186 1462.73 605.204 1462.73 Q610.991 1462.73 614.371 1465.9 Q617.75 1469.08 617.75 1474.49 Q617.75 1480.07 614.278 1483.17 Q610.806 1486.25 604.486 1486.25 Q602.311 1486.25 600.042 1485.88 Q597.797 1485.51 595.389 1484.77 L595.389 1480.07 Q597.473 1481.2 599.695 1481.76 Q601.917 1482.32 604.394 1482.32 Q608.398 1482.32 610.736 1480.21 Q613.074 1478.1 613.074 1474.49 Q613.074 1470.88 610.736 1468.77 Q608.398 1466.67 604.394 1466.67 Q602.519 1466.67 600.644 1467.08 Q598.792 1467.5 596.848 1468.38 L596.848 1451.02 Z" fill="#000000" fill-rule="nonzero" fill-opacity="1"></path><path clip-path="url(#clip740)" d="M932.32 1481.64 L939.959 1481.64 L939.959 1455.28 L931.649 1456.95 L931.649 1452.69 L939.913 1451.02 L944.589 1451.02 L944.589 1481.64 L952.227 1481.64 L952.227 1485.58 L932.32 1485.58 L932.32 1481.64 Z" fill="#000000" fill-rule="nonzero" fill-opacity="1"></path><path clip-path="url(#clip740)" d="M971.672 1454.1 Q968.061 1454.1 966.232 1457.66 Q964.426 1461.2 964.426 1468.33 Q964.426 1475.44 966.232 1479.01 Q968.061 1482.55 971.672 1482.55 Q975.306 1482.55 977.112 1479.01 Q978.94 1475.44 978.94 1468.33 Q978.94 1461.2 977.112 1457.66 Q975.306 1454.1 971.672 1454.1 M971.672 1450.39 Q977.482 1450.39 980.537 1455 Q983.616 1459.58 983.616 1468.33 Q983.616 1477.06 980.537 1481.67 Q977.482 1486.25 971.672 1486.25 Q965.862 1486.25 962.783 1481.67 Q959.727 1477.06 959.727 1468.33 Q959.727 1459.58 962.783 1455 Q965.862 1450.39 971.672 1450.39 Z" fill="#000000" fill-rule="nonzero" fill-opacity="1"></path><path clip-path="url(#clip740)" d="M1283.88 1481.64 L1291.52 1481.64 L1291.52 1455.28 L1283.21 1456.95 L1283.21 1452.69 L1291.47 1451.02 L1296.15 1451.02 L1296.15 1481.64 L1303.79 1481.64 L1303.79 1485.58 L1283.88 1485.58 L1283.88 1481.64 Z" fill="#000000" fill-rule="nonzero" fill-opacity="1"></path><path clip-path="url(#clip740)" d="M1313.28 1451.02 L1331.63 1451.02 L1331.63 1454.96 L1317.56 1454.96 L1317.56 1463.43 Q1318.58 1463.08 1319.6 1462.92 Q1320.62 1462.73 1321.64 1462.73 Q1327.42 1462.73 1330.8 1465.9 Q1334.18 1469.08 1334.18 1474.49 Q1334.18 1480.07 1330.71 1483.17 Q1327.24 1486.25 1320.92 1486.25 Q1318.74 1486.25 1316.47 1485.88 Q1314.23 1485.51 1311.82 1484.77 L1311.82 1480.07 Q1313.9 1481.2 1316.13 1481.76 Q1318.35 1482.32 1320.82 1482.32 Q1324.83 1482.32 1327.17 1480.21 Q1329.51 1478.1 1329.51 1474.49 Q1329.51 1470.88 1327.17 1468.77 Q1324.83 1466.67 1320.82 1466.67 Q1318.95 1466.67 1317.07 1467.08 Q1315.22 1467.5 1313.28 1468.38 L1313.28 1451.02 Z" fill="#000000" fill-rule="nonzero" fill-opacity="1"></path><path clip-path="url(#clip740)" d="M1638.53 1481.64 L1654.85 1481.64 L1654.85 1485.58 L1632.91 1485.58 L1632.91 1481.64 Q1635.57 1478.89 1640.15 1474.26 Q1644.76 1469.61 1645.94 1468.27 Q1648.18 1465.74 1649.06 1464.01 Q1649.97 1462.25 1649.97 1460.56 Q1649.97 1457.8 1648.02 1456.07 Q1646.1 1454.33 1643 1454.33 Q1640.8 1454.33 1638.35 1455.09 Q1635.92 1455.86 1633.14 1457.41 L1633.14 1452.69 Q1635.96 1451.55 1638.42 1450.97 Q1640.87 1450.39 1642.91 1450.39 Q1648.28 1450.39 1651.47 1453.08 Q1654.67 1455.77 1654.67 1460.26 Q1654.67 1462.39 1653.86 1464.31 Q1653.07 1466.2 1650.96 1468.8 Q1650.38 1469.47 1647.28 1472.69 Q1644.18 1475.88 1638.53 1481.64 Z" fill="#000000" fill-rule="nonzero" fill-opacity="1"></path><path clip-path="url(#clip740)" d="M1674.67 1454.1 Q1671.05 1454.1 1669.23 1457.66 Q1667.42 1461.2 1667.42 1468.33 Q1667.42 1475.44 1669.23 1479.01 Q1671.05 1482.55 1674.67 1482.55 Q1678.3 1482.55 1680.11 1479.01 Q1681.93 1475.44 1681.93 1468.33 Q1681.93 1461.2 1680.11 1457.66 Q1678.3 1454.1 1674.67 1454.1 M1674.67 1450.39 Q1680.48 1450.39 1683.53 1455 Q1686.61 1459.58 1686.61 1468.33 Q1686.61 1477.06 1683.53 1481.67 Q1680.48 1486.25 1674.67 1486.25 Q1668.86 1486.25 1665.78 1481.67 Q1662.72 1477.06 1662.72 1468.33 Q1662.72 1459.58 1665.78 1455 Q1668.86 1450.39 1674.67 1450.39 Z" fill="#000000" fill-rule="nonzero" fill-opacity="1"></path><path clip-path="url(#clip740)" d="M1990.09 1481.64 L2006.41 1481.64 L2006.41 1485.58 L1984.47 1485.58 L1984.47 1481.64 Q1987.13 1478.89 1991.71 1474.26 Q1996.32 1469.61 1997.5 1468.27 Q1999.74 1465.74 2000.62 1464.01 Q2001.53 1462.25 2001.53 1460.56 Q2001.53 1457.8 1999.58 1456.07 Q1997.66 1454.33 1994.56 1454.33 Q1992.36 1454.33 1989.91 1455.09 Q1987.48 1455.86 1984.7 1457.41 L1984.7 1452.69 Q1987.52 1451.55 1989.98 1450.97 Q1992.43 1450.39 1994.47 1450.39 Q1999.84 1450.39 2003.03 1453.08 Q2006.23 1455.77 2006.23 1460.26 Q2006.23 1462.39 2005.42 1464.31 Q2004.63 1466.2 2002.52 1468.8 Q2001.94 1469.47 1998.84 1472.69 Q1995.74 1475.88 1990.09 1481.64 Z" fill="#000000" fill-rule="nonzero" fill-opacity="1"></path><path clip-path="url(#clip740)" d="M2016.27 1451.02 L2034.63 1451.02 L2034.63 1454.96 L2020.55 1454.96 L2020.55 1463.43 Q2021.57 1463.08 2022.59 1462.92 Q2023.61 1462.73 2024.63 1462.73 Q2030.42 1462.73 2033.8 1465.9 Q2037.17 1469.08 2037.17 1474.49 Q2037.17 1480.07 2033.7 1483.17 Q2030.23 1486.25 2023.91 1486.25 Q2021.74 1486.25 2019.47 1485.88 Q2017.22 1485.51 2014.81 1484.77 L2014.81 1480.07 Q2016.9 1481.2 2019.12 1481.76 Q2021.34 1482.32 2023.82 1482.32 Q2027.82 1482.32 2030.16 1480.21 Q2032.5 1478.1 2032.5 1474.49 Q2032.5 1470.88 2030.16 1468.77 Q2027.82 1466.67 2023.82 1466.67 Q2021.94 1466.67 2020.07 1467.08 Q2018.22 1467.5 2016.27 1468.38 L2016.27 1451.02 Z" fill="#000000" fill-rule="nonzero" fill-opacity="1"></path><path clip-path="url(#clip740)" d="M1110.95 1520.52 L1151.14 1520.52 L1151.14 1525.93 L1134.28 1525.93 L1134.28 1568.04 L1127.81 1568.04 L1127.81 1525.93 L1110.95 1525.93 L1110.95 1520.52 Z" fill="#000000" fill-rule="nonzero" fill-opacity="1"></path><path clip-path="url(#clip740)" d="M1155.09 1532.4 L1160.95 1532.4 L1160.95 1568.04 L1155.09 1568.04 L1155.09 1532.4 M1155.09 1518.52 L1160.95 1518.52 L1160.95 1525.93 L1155.09 1525.93 L1155.09 1518.52 Z" fill="#000000" fill-rule="nonzero" fill-opacity="1"></path><path clip-path="url(#clip740)" d="M1200.96 1539.24 Q1203.15 1535.29 1206.21 1533.41 Q1209.26 1531.54 1213.4 1531.54 Q1218.97 1531.54 1221.99 1535.45 Q1225.02 1539.33 1225.02 1546.53 L1225.02 1568.04 L1219.13 1568.04 L1219.13 1546.72 Q1219.13 1541.59 1217.32 1539.11 Q1215.5 1536.63 1211.78 1536.63 Q1207.23 1536.63 1204.58 1539.65 Q1201.94 1542.68 1201.94 1547.9 L1201.94 1568.04 L1196.05 1568.04 L1196.05 1546.72 Q1196.05 1541.56 1194.24 1539.11 Q1192.43 1536.63 1188.64 1536.63 Q1184.15 1536.63 1181.51 1539.68 Q1178.87 1542.71 1178.87 1547.9 L1178.87 1568.04 L1172.98 1568.04 L1172.98 1532.4 L1178.87 1532.4 L1178.87 1537.93 Q1180.87 1534.66 1183.67 1533.1 Q1186.47 1531.54 1190.33 1531.54 Q1194.21 1531.54 1196.91 1533.51 Q1199.65 1535.48 1200.96 1539.24 Z" fill="#000000" fill-rule="nonzero" fill-opacity="1"></path><path clip-path="url(#clip740)" d="M1267.19 1548.76 L1267.19 1551.62 L1240.26 1551.62 Q1240.65 1557.67 1243.89 1560.85 Q1247.17 1564 1253 1564 Q1256.37 1564 1259.52 1563.17 Q1262.7 1562.35 1265.82 1560.69 L1265.82 1566.23 Q1262.67 1567.57 1259.36 1568.27 Q1256.05 1568.97 1252.65 1568.97 Q1244.12 1568.97 1239.12 1564 Q1234.15 1559.04 1234.15 1550.57 Q1234.15 1541.82 1238.86 1536.69 Q1243.61 1531.54 1251.63 1531.54 Q1258.82 1531.54 1262.99 1536.18 Q1267.19 1540.8 1267.19 1548.76 M1261.34 1547.04 Q1261.27 1542.23 1258.63 1539.37 Q1256.02 1536.5 1251.69 1536.5 Q1246.79 1536.5 1243.83 1539.27 Q1240.9 1542.04 1240.46 1547.07 L1261.34 1547.04 Z" fill="#000000" fill-rule="nonzero" fill-opacity="1"></path><path clip-path="url(#clip740)" d="M1326.27 1522.08 L1326.27 1528.35 Q1322.6 1526.6 1319.36 1525.74 Q1316.11 1524.88 1313.09 1524.88 Q1307.84 1524.88 1304.97 1526.92 Q1302.14 1528.96 1302.14 1532.71 Q1302.14 1535.87 1304.02 1537.49 Q1305.93 1539.08 1311.21 1540.07 L1315.09 1540.86 Q1322.29 1542.23 1325.69 1545.7 Q1329.13 1549.14 1329.13 1554.93 Q1329.13 1561.84 1324.48 1565.4 Q1319.87 1568.97 1310.92 1568.97 Q1307.55 1568.97 1303.73 1568.2 Q1299.94 1567.44 1295.87 1565.94 L1295.87 1559.32 Q1299.78 1561.52 1303.54 1562.63 Q1307.3 1563.75 1310.92 1563.75 Q1316.43 1563.75 1319.42 1561.58 Q1322.41 1559.42 1322.41 1555.41 Q1322.41 1551.91 1320.25 1549.93 Q1318.12 1547.96 1313.22 1546.97 L1309.3 1546.21 Q1302.11 1544.78 1298.89 1541.72 Q1295.68 1538.67 1295.68 1533.22 Q1295.68 1526.92 1300.1 1523.29 Q1304.56 1519.66 1312.36 1519.66 Q1315.7 1519.66 1319.17 1520.27 Q1322.64 1520.87 1326.27 1522.08 Z" fill="#000000" fill-rule="nonzero" fill-opacity="1"></path><path clip-path="url(#clip740)" d="M1344.69 1522.27 L1344.69 1532.4 L1356.76 1532.4 L1356.76 1536.95 L1344.69 1536.95 L1344.69 1556.3 Q1344.69 1560.66 1345.87 1561.9 Q1347.08 1563.14 1350.74 1563.14 L1356.76 1563.14 L1356.76 1568.04 L1350.74 1568.04 Q1343.96 1568.04 1341.38 1565.53 Q1338.81 1562.98 1338.81 1556.3 L1338.81 1536.95 L1334.51 1536.95 L1334.51 1532.4 L1338.81 1532.4 L1338.81 1522.27 L1344.69 1522.27 Z" fill="#000000" fill-rule="nonzero" fill-opacity="1"></path><path clip-path="url(#clip740)" d="M1394.95 1548.76 L1394.95 1551.62 L1368.02 1551.62 Q1368.41 1557.67 1371.65 1560.85 Q1374.93 1564 1380.76 1564 Q1384.13 1564 1387.28 1563.17 Q1390.46 1562.35 1393.58 1560.69 L1393.58 1566.23 Q1390.43 1567.57 1387.12 1568.27 Q1383.81 1568.97 1380.41 1568.97 Q1371.88 1568.97 1366.88 1564 Q1361.91 1559.04 1361.91 1550.57 Q1361.91 1541.82 1366.62 1536.69 Q1371.37 1531.54 1379.39 1531.54 Q1386.58 1531.54 1390.75 1536.18 Q1394.95 1540.8 1394.95 1548.76 M1389.09 1547.04 Q1389.03 1542.23 1386.39 1539.37 Q1383.78 1536.5 1379.45 1536.5 Q1374.55 1536.5 1371.59 1539.27 Q1368.66 1542.04 1368.22 1547.07 L1389.09 1547.04 Z" fill="#000000" fill-rule="nonzero" fill-opacity="1"></path><path clip-path="url(#clip740)" d="M1410.23 1562.7 L1410.23 1581.6 L1404.34 1581.6 L1404.34 1532.4 L1410.23 1532.4 L1410.23 1537.81 Q1412.07 1534.62 1414.88 1533.1 Q1417.71 1531.54 1421.62 1531.54 Q1428.12 1531.54 1432.16 1536.69 Q1436.23 1541.85 1436.23 1550.25 Q1436.23 1558.65 1432.16 1563.81 Q1428.12 1568.97 1421.62 1568.97 Q1417.71 1568.97 1414.88 1567.44 Q1412.07 1565.88 1410.23 1562.7 M1430.15 1550.25 Q1430.15 1543.79 1427.48 1540.13 Q1424.84 1536.44 1420.19 1536.44 Q1415.54 1536.44 1412.87 1540.13 Q1410.23 1543.79 1410.23 1550.25 Q1410.23 1556.71 1412.87 1560.4 Q1415.54 1564.07 1420.19 1564.07 Q1424.84 1564.07 1427.48 1560.4 Q1430.15 1556.71 1430.15 1550.25 Z" fill="#000000" fill-rule="nonzero" fill-opacity="1"></path><polyline clip-path="url(#clip740)" style="stroke:#000000; stroke-linecap:round; stroke-linejoin:round; stroke-width:4; stroke-opacity:1; fill:none" points="194.422,1423.18 194.422,123.472 "></polyline>
<polyline clip-path="url(#clip740)" style="stroke:#000000; stroke-linecap:round; stroke-linejoin:round; stroke-width:4; stroke-opacity:1; fill:none" points="194.422,1299.81 213.32,1299.81 "></polyline>
<polyline clip-path="url(#clip740)" style="stroke:#000000; stroke-linecap:round; stroke-linejoin:round; stroke-width:4; stroke-opacity:1; fill:none" points="194.422,1126.63 213.32,1126.63 "></polyline>
<polyline clip-path="url(#clip740)" style="stroke:#000000; stroke-linecap:round; stroke-linejoin:round; stroke-width:4; stroke-opacity:1; fill:none" points="194.422,953.447 213.32,953.447 "></polyline>
<polyline clip-path="url(#clip740)" style="stroke:#000000; stroke-linecap:round; stroke-linejoin:round; stroke-width:4; stroke-opacity:1; fill:none" points="194.422,780.267 213.32,780.267 "></polyline>
<polyline clip-path="url(#clip740)" style="stroke:#000000; stroke-linecap:round; stroke-linejoin:round; stroke-width:4; stroke-opacity:1; fill:none" points="194.422,607.088 213.32,607.088 "></polyline>
<polyline clip-path="url(#clip740)" style="stroke:#000000; stroke-linecap:round; stroke-linejoin:round; stroke-width:4; stroke-opacity:1; fill:none" points="194.422,433.908 213.32,433.908 "></polyline>
<polyline clip-path="url(#clip740)" style="stroke:#000000; stroke-linecap:round; stroke-linejoin:round; stroke-width:4; stroke-opacity:1; fill:none" points="194.422,260.729 213.32,260.729 "></polyline>
<path clip-path="url(#clip740)" d="M51.5708 1300.26 L81.2466 1300.26 L81.2466 1304.19 L51.5708 1304.19 L51.5708 1300.26 Z" fill="#000000" fill-rule="nonzero" fill-opacity="1"></path><path clip-path="url(#clip740)" d="M101.339 1285.6 Q97.728 1285.6 95.8993 1289.17 Q94.0937 1292.71 94.0937 1299.84 Q94.0937 1306.95 95.8993 1310.51 Q97.728 1314.05 101.339 1314.05 Q104.973 1314.05 106.779 1310.51 Q108.608 1306.95 108.608 1299.84 Q108.608 1292.71 106.779 1289.17 Q104.973 1285.6 101.339 1285.6 M101.339 1281.9 Q107.149 1281.9 110.205 1286.51 Q113.283 1291.09 113.283 1299.84 Q113.283 1308.57 110.205 1313.17 Q107.149 1317.76 101.339 1317.76 Q95.5289 1317.76 92.4502 1313.17 Q89.3947 1308.57 89.3947 1299.84 Q89.3947 1291.09 92.4502 1286.51 Q95.5289 1281.9 101.339 1281.9 Z" fill="#000000" fill-rule="nonzero" fill-opacity="1"></path><path clip-path="url(#clip740)" d="M121.501 1311.21 L126.385 1311.21 L126.385 1317.09 L121.501 1317.09 L121.501 1311.21 Z" fill="#000000" fill-rule="nonzero" fill-opacity="1"></path><path clip-path="url(#clip740)" d="M146.57 1300.67 Q143.237 1300.67 141.316 1302.46 Q139.418 1304.24 139.418 1307.36 Q139.418 1310.49 141.316 1312.27 Q143.237 1314.05 146.57 1314.05 Q149.904 1314.05 151.825 1312.27 Q153.746 1310.47 153.746 1307.36 Q153.746 1304.24 151.825 1302.46 Q149.927 1300.67 146.57 1300.67 M141.894 1298.68 Q138.885 1297.94 137.195 1295.88 Q135.529 1293.82 135.529 1290.86 Q135.529 1286.72 138.469 1284.31 Q141.431 1281.9 146.57 1281.9 Q151.732 1281.9 154.672 1284.31 Q157.612 1286.72 157.612 1290.86 Q157.612 1293.82 155.922 1295.88 Q154.255 1297.94 151.269 1298.68 Q154.649 1299.47 156.524 1301.76 Q158.422 1304.05 158.422 1307.36 Q158.422 1312.39 155.343 1315.07 Q152.288 1317.76 146.57 1317.76 Q140.853 1317.76 137.774 1315.07 Q134.719 1312.39 134.719 1307.36 Q134.719 1304.05 136.617 1301.76 Q138.515 1299.47 141.894 1298.68 M140.181 1291.3 Q140.181 1293.98 141.848 1295.49 Q143.538 1296.99 146.57 1296.99 Q149.58 1296.99 151.269 1295.49 Q152.982 1293.98 152.982 1291.3 Q152.982 1288.61 151.269 1287.11 Q149.58 1285.6 146.57 1285.6 Q143.538 1285.6 141.848 1287.11 Q140.181 1288.61 140.181 1291.3 Z" fill="#000000" fill-rule="nonzero" fill-opacity="1"></path><path clip-path="url(#clip740)" d="M51.3162 1127.08 L80.992 1127.08 L80.992 1131.01 L51.3162 1131.01 L51.3162 1127.08 Z" fill="#000000" fill-rule="nonzero" fill-opacity="1"></path><path clip-path="url(#clip740)" d="M101.084 1112.43 Q97.4734 1112.43 95.6447 1115.99 Q93.8391 1119.53 93.8391 1126.66 Q93.8391 1133.77 95.6447 1137.33 Q97.4734 1140.87 101.084 1140.87 Q104.719 1140.87 106.524 1137.33 Q108.353 1133.77 108.353 1126.66 Q108.353 1119.53 106.524 1115.99 Q104.719 1112.43 101.084 1112.43 M101.084 1108.72 Q106.895 1108.72 109.95 1113.33 Q113.029 1117.91 113.029 1126.66 Q113.029 1135.39 109.95 1139.99 Q106.895 1144.58 101.084 1144.58 Q95.2743 1144.58 92.1956 1139.99 Q89.1401 1135.39 89.1401 1126.66 Q89.1401 1117.91 92.1956 1113.33 Q95.2743 1108.72 101.084 1108.72 Z" fill="#000000" fill-rule="nonzero" fill-opacity="1"></path><path clip-path="url(#clip740)" d="M121.246 1138.03 L126.131 1138.03 L126.131 1143.91 L121.246 1143.91 L121.246 1138.03 Z" fill="#000000" fill-rule="nonzero" fill-opacity="1"></path><path clip-path="url(#clip740)" d="M146.894 1124.76 Q143.746 1124.76 141.894 1126.92 Q140.066 1129.07 140.066 1132.82 Q140.066 1136.55 141.894 1138.72 Q143.746 1140.87 146.894 1140.87 Q150.043 1140.87 151.871 1138.72 Q153.723 1136.55 153.723 1132.82 Q153.723 1129.07 151.871 1126.92 Q150.043 1124.76 146.894 1124.76 M156.177 1110.11 L156.177 1114.37 Q154.417 1113.54 152.612 1113.1 Q150.83 1112.66 149.07 1112.66 Q144.441 1112.66 141.987 1115.78 Q139.556 1118.91 139.209 1125.23 Q140.575 1123.21 142.635 1122.15 Q144.695 1121.06 147.172 1121.06 Q152.38 1121.06 155.39 1124.23 Q158.422 1127.38 158.422 1132.82 Q158.422 1138.14 155.274 1141.36 Q152.126 1144.58 146.894 1144.58 Q140.899 1144.58 137.728 1139.99 Q134.556 1135.39 134.556 1126.66 Q134.556 1118.47 138.445 1113.61 Q142.334 1108.72 148.885 1108.72 Q150.644 1108.72 152.427 1109.07 Q154.232 1109.42 156.177 1110.11 Z" fill="#000000" fill-rule="nonzero" fill-opacity="1"></path><path clip-path="url(#clip740)" d="M50.9921 953.898 L80.6679 953.898 L80.6679 957.833 L50.9921 957.833 L50.9921 953.898 Z" fill="#000000" fill-rule="nonzero" fill-opacity="1"></path><path clip-path="url(#clip740)" d="M100.76 939.246 Q97.1493 939.246 95.3206 942.81 Q93.515 946.352 93.515 953.482 Q93.515 960.588 95.3206 964.153 Q97.1493 967.694 100.76 967.694 Q104.395 967.694 106.2 964.153 Q108.029 960.588 108.029 953.482 Q108.029 946.352 106.2 942.81 Q104.395 939.246 100.76 939.246 M100.76 935.542 Q106.571 935.542 109.626 940.148 Q112.705 944.732 112.705 953.482 Q112.705 962.208 109.626 966.815 Q106.571 971.398 100.76 971.398 Q94.9502 971.398 91.8715 966.815 Q88.816 962.208 88.816 953.482 Q88.816 944.732 91.8715 940.148 Q94.9502 935.542 100.76 935.542 Z" fill="#000000" fill-rule="nonzero" fill-opacity="1"></path><path clip-path="url(#clip740)" d="M120.922 964.847 L125.807 964.847 L125.807 970.727 L120.922 970.727 L120.922 964.847 Z" fill="#000000" fill-rule="nonzero" fill-opacity="1"></path><path clip-path="url(#clip740)" d="M148.839 940.241 L137.033 958.69 L148.839 958.69 L148.839 940.241 M147.612 936.167 L153.492 936.167 L153.492 958.69 L158.422 958.69 L158.422 962.579 L153.492 962.579 L153.492 970.727 L148.839 970.727 L148.839 962.579 L133.237 962.579 L133.237 958.065 L147.612 936.167 Z" fill="#000000" fill-rule="nonzero" fill-opacity="1"></path><path clip-path="url(#clip740)" d="M53.0754 780.719 L82.7512 780.719 L82.7512 784.654 L53.0754 784.654 L53.0754 780.719 Z" fill="#000000" fill-rule="nonzero" fill-opacity="1"></path><path clip-path="url(#clip740)" d="M102.844 766.066 Q99.2326 766.066 97.4039 769.631 Q95.5984 773.173 95.5984 780.302 Q95.5984 787.409 97.4039 790.973 Q99.2326 794.515 102.844 794.515 Q106.478 794.515 108.283 790.973 Q110.112 787.409 110.112 780.302 Q110.112 773.173 108.283 769.631 Q106.478 766.066 102.844 766.066 M102.844 762.362 Q108.654 762.362 111.709 766.969 Q114.788 771.552 114.788 780.302 Q114.788 789.029 111.709 793.635 Q108.654 798.219 102.844 798.219 Q97.0335 798.219 93.9549 793.635 Q90.8993 789.029 90.8993 780.302 Q90.8993 771.552 93.9549 766.969 Q97.0335 762.362 102.844 762.362 Z" fill="#000000" fill-rule="nonzero" fill-opacity="1"></path><path clip-path="url(#clip740)" d="M123.006 791.668 L127.89 791.668 L127.89 797.547 L123.006 797.547 L123.006 791.668 Z" fill="#000000" fill-rule="nonzero" fill-opacity="1"></path><path clip-path="url(#clip740)" d="M142.103 793.612 L158.422 793.612 L158.422 797.547 L136.478 797.547 L136.478 793.612 Q139.14 790.858 143.723 786.228 Q148.33 781.575 149.51 780.233 Q151.755 777.71 152.635 775.973 Q153.538 774.214 153.538 772.524 Q153.538 769.77 151.593 768.034 Q149.672 766.298 146.57 766.298 Q144.371 766.298 141.918 767.061 Q139.487 767.825 136.709 769.376 L136.709 764.654 Q139.533 763.52 141.987 762.941 Q144.441 762.362 146.478 762.362 Q151.848 762.362 155.042 765.048 Q158.237 767.733 158.237 772.223 Q158.237 774.353 157.427 776.274 Q156.64 778.172 154.533 780.765 Q153.955 781.436 150.853 784.654 Q147.751 787.848 142.103 793.612 Z" fill="#000000" fill-rule="nonzero" fill-opacity="1"></path><path clip-path="url(#clip740)" d="M101.246 592.887 Q97.6354 592.887 95.8067 596.451 Q94.0012 599.993 94.0012 607.123 Q94.0012 614.229 95.8067 617.794 Q97.6354 621.335 101.246 621.335 Q104.881 621.335 106.686 617.794 Q108.515 614.229 108.515 607.123 Q108.515 599.993 106.686 596.451 Q104.881 592.887 101.246 592.887 M101.246 589.183 Q107.057 589.183 110.112 593.789 Q113.191 598.373 113.191 607.123 Q113.191 615.849 110.112 620.456 Q107.057 625.039 101.246 625.039 Q95.4363 625.039 92.3576 620.456 Q89.3021 615.849 89.3021 607.123 Q89.3021 598.373 92.3576 593.789 Q95.4363 589.183 101.246 589.183 Z" fill="#000000" fill-rule="nonzero" fill-opacity="1"></path><path clip-path="url(#clip740)" d="M121.408 618.488 L126.293 618.488 L126.293 624.368 L121.408 624.368 L121.408 618.488 Z" fill="#000000" fill-rule="nonzero" fill-opacity="1"></path><path clip-path="url(#clip740)" d="M146.478 592.887 Q142.867 592.887 141.038 596.451 Q139.232 599.993 139.232 607.123 Q139.232 614.229 141.038 617.794 Q142.867 621.335 146.478 621.335 Q150.112 621.335 151.918 617.794 Q153.746 614.229 153.746 607.123 Q153.746 599.993 151.918 596.451 Q150.112 592.887 146.478 592.887 M146.478 589.183 Q152.288 589.183 155.343 593.789 Q158.422 598.373 158.422 607.123 Q158.422 615.849 155.343 620.456 Q152.288 625.039 146.478 625.039 Q140.668 625.039 137.589 620.456 Q134.533 615.849 134.533 607.123 Q134.533 598.373 137.589 593.789 Q140.668 589.183 146.478 589.183 Z" fill="#000000" fill-rule="nonzero" fill-opacity="1"></path><path clip-path="url(#clip740)" d="M102.844 419.707 Q99.2326 419.707 97.4039 423.272 Q95.5984 426.813 95.5984 433.943 Q95.5984 441.05 97.4039 444.614 Q99.2326 448.156 102.844 448.156 Q106.478 448.156 108.283 444.614 Q110.112 441.05 110.112 433.943 Q110.112 426.813 108.283 423.272 Q106.478 419.707 102.844 419.707 M102.844 416.003 Q108.654 416.003 111.709 420.61 Q114.788 425.193 114.788 433.943 Q114.788 442.67 111.709 447.276 Q108.654 451.86 102.844 451.86 Q97.0335 451.86 93.9549 447.276 Q90.8993 442.67 90.8993 433.943 Q90.8993 425.193 93.9549 420.61 Q97.0335 416.003 102.844 416.003 Z" fill="#000000" fill-rule="nonzero" fill-opacity="1"></path><path clip-path="url(#clip740)" d="M123.006 445.309 L127.89 445.309 L127.89 451.188 L123.006 451.188 L123.006 445.309 Z" fill="#000000" fill-rule="nonzero" fill-opacity="1"></path><path clip-path="url(#clip740)" d="M142.103 447.253 L158.422 447.253 L158.422 451.188 L136.478 451.188 L136.478 447.253 Q139.14 444.499 143.723 439.869 Q148.33 435.216 149.51 433.874 Q151.755 431.35 152.635 429.614 Q153.538 427.855 153.538 426.165 Q153.538 423.411 151.593 421.675 Q149.672 419.939 146.57 419.939 Q144.371 419.939 141.918 420.702 Q139.487 421.466 136.709 423.017 L136.709 418.295 Q139.533 417.161 141.987 416.582 Q144.441 416.003 146.478 416.003 Q151.848 416.003 155.042 418.689 Q158.237 421.374 158.237 425.864 Q158.237 427.994 157.427 429.915 Q156.64 431.813 154.533 434.406 Q153.955 435.077 150.853 438.295 Q147.751 441.489 142.103 447.253 Z" fill="#000000" fill-rule="nonzero" fill-opacity="1"></path><path clip-path="url(#clip740)" d="M100.76 246.528 Q97.1493 246.528 95.3206 250.092 Q93.515 253.634 93.515 260.764 Q93.515 267.87 95.3206 271.435 Q97.1493 274.976 100.76 274.976 Q104.395 274.976 106.2 271.435 Q108.029 267.87 108.029 260.764 Q108.029 253.634 106.2 250.092 Q104.395 246.528 100.76 246.528 M100.76 242.824 Q106.571 242.824 109.626 247.43 Q112.705 252.014 112.705 260.764 Q112.705 269.49 109.626 274.097 Q106.571 278.68 100.76 278.68 Q94.9502 278.68 91.8715 274.097 Q88.816 269.49 88.816 260.764 Q88.816 252.014 91.8715 247.43 Q94.9502 242.824 100.76 242.824 Z" fill="#000000" fill-rule="nonzero" fill-opacity="1"></path><path clip-path="url(#clip740)" d="M120.922 272.129 L125.807 272.129 L125.807 278.009 L120.922 278.009 L120.922 272.129 Z" fill="#000000" fill-rule="nonzero" fill-opacity="1"></path><path clip-path="url(#clip740)" d="M148.839 247.523 L137.033 265.972 L148.839 265.972 L148.839 247.523 M147.612 243.449 L153.492 243.449 L153.492 265.972 L158.422 265.972 L158.422 269.861 L153.492 269.861 L153.492 278.009 L148.839 278.009 L148.839 269.861 L133.237 269.861 L133.237 265.347 L147.612 243.449 Z" fill="#000000" fill-rule="nonzero" fill-opacity="1"></path><path clip-path="url(#clip740)" d="M236.436 65.6895 L264.995 65.6895 L264.995 72.576 L226.592 72.576 L226.592 65.6895 Q231.251 60.8689 239.272 52.7671 Q247.333 44.6248 249.399 42.2752 Q253.328 37.8598 254.868 34.8216 Q256.447 31.7429 256.447 28.7857 Q256.447 23.9651 253.045 20.927 Q249.682 17.8888 244.254 17.8888 Q240.406 17.8888 236.112 19.2256 Q231.858 20.5624 226.997 23.2765 L226.997 15.0127 Q231.939 13.0277 236.233 12.015 Q240.527 11.0023 244.092 11.0023 Q253.49 11.0023 259.081 15.7013 Q264.671 20.4004 264.671 28.2591 Q264.671 31.9859 263.253 35.3482 Q261.876 38.6699 258.189 43.2069 Q257.177 44.3817 251.748 50.0125 Q246.32 55.6027 236.436 65.6895 Z" fill="#000000" fill-rule="nonzero" fill-opacity="1"></path><path clip-path="url(#clip740)" d="M353.102 16.7545 L353.102 25.383 Q348.97 21.5346 344.271 19.6307 Q339.613 17.7268 334.346 17.7268 Q323.976 17.7268 318.467 24.0867 Q312.958 30.4061 312.958 42.3968 Q312.958 54.3469 318.467 60.7069 Q323.976 67.0263 334.346 67.0263 Q339.613 67.0263 344.271 65.1223 Q348.97 63.2184 353.102 59.3701 L353.102 67.9175 Q348.808 70.8341 343.988 72.2924 Q339.207 73.7508 333.86 73.7508 Q320.128 73.7508 312.228 65.3654 Q304.329 56.9395 304.329 42.3968 Q304.329 27.8135 312.228 19.4281 Q320.128 11.0023 333.86 11.0023 Q339.288 11.0023 344.069 12.4606 Q348.889 13.8784 353.102 16.7545 Z" fill="#000000" fill-rule="nonzero" fill-opacity="1"></path><path clip-path="url(#clip740)" d="M382.998 32.4315 Q377.002 32.4315 373.519 37.1306 Q370.035 41.7891 370.035 49.9314 Q370.035 58.0738 373.478 62.7728 Q376.962 67.4314 382.998 67.4314 Q388.953 67.4314 392.436 62.7323 Q395.92 58.0333 395.92 49.9314 Q395.92 41.8701 392.436 37.1711 Q388.953 32.4315 382.998 32.4315 M382.998 26.1121 Q392.72 26.1121 398.27 32.4315 Q403.819 38.7509 403.819 49.9314 Q403.819 61.0714 398.27 67.4314 Q392.72 73.7508 382.998 73.7508 Q373.235 73.7508 367.685 67.4314 Q362.176 61.0714 362.176 49.9314 Q362.176 38.7509 367.685 32.4315 Q373.235 26.1121 382.998 26.1121 Z" fill="#000000" fill-rule="nonzero" fill-opacity="1"></path><path clip-path="url(#clip740)" d="M451.499 35.9153 Q454.294 30.8922 458.182 28.5022 Q462.071 26.1121 467.338 26.1121 Q474.427 26.1121 478.275 31.0947 Q482.123 36.0368 482.123 45.1919 L482.123 72.576 L474.629 72.576 L474.629 45.4349 Q474.629 38.913 472.32 35.7533 Q470.011 32.5936 465.272 32.5936 Q459.479 32.5936 456.117 36.4419 Q452.754 40.2903 452.754 46.9338 L452.754 72.576 L445.26 72.576 L445.26 45.4349 Q445.26 38.8725 442.951 35.7533 Q440.642 32.5936 435.822 32.5936 Q430.11 32.5936 426.747 36.4824 Q423.385 40.3308 423.385 46.9338 L423.385 72.576 L415.891 72.576 L415.891 27.2059 L423.385 27.2059 L423.385 34.2544 Q425.937 30.082 429.502 28.0971 Q433.067 26.1121 437.968 26.1121 Q442.911 26.1121 446.354 28.6237 Q449.838 31.1352 451.499 35.9153 Z" fill="#000000" fill-rule="nonzero" fill-opacity="1"></path><path clip-path="url(#clip740)" d="M532.314 35.9153 Q535.109 30.8922 538.998 28.5022 Q542.887 26.1121 548.153 26.1121 Q555.242 26.1121 559.091 31.0947 Q562.939 36.0368 562.939 45.1919 L562.939 72.576 L555.445 72.576 L555.445 45.4349 Q555.445 38.913 553.136 35.7533 Q550.827 32.5936 546.087 32.5936 Q540.294 32.5936 536.932 36.4419 Q533.57 40.2903 533.57 46.9338 L533.57 72.576 L526.076 72.576 L526.076 45.4349 Q526.076 38.8725 523.767 35.7533 Q521.458 32.5936 516.637 32.5936 Q510.925 32.5936 507.563 36.4824 Q504.201 40.3308 504.201 46.9338 L504.201 72.576 L496.707 72.576 L496.707 27.2059 L504.201 27.2059 L504.201 34.2544 Q506.753 30.082 510.318 28.0971 Q513.882 26.1121 518.784 26.1121 Q523.726 26.1121 527.169 28.6237 Q530.653 31.1352 532.314 35.9153 Z" fill="#000000" fill-rule="nonzero" fill-opacity="1"></path><path clip-path="url(#clip740)" d="M577.036 54.671 L577.036 27.2059 L584.49 27.2059 L584.49 54.3874 Q584.49 60.8284 587.001 64.0691 Q589.513 67.2693 594.536 67.2693 Q600.572 67.2693 604.056 63.421 Q607.58 59.5726 607.58 52.9291 L607.58 27.2059 L615.034 27.2059 L615.034 72.576 L607.58 72.576 L607.58 65.6084 Q604.866 69.7404 601.26 71.7658 Q597.696 73.7508 592.956 73.7508 Q585.138 73.7508 581.087 68.8897 Q577.036 64.0286 577.036 54.671 M595.792 26.1121 L595.792 26.1121 Z" fill="#000000" fill-rule="nonzero" fill-opacity="1"></path><path clip-path="url(#clip740)" d="M668.1 45.1919 L668.1 72.576 L660.647 72.576 L660.647 45.4349 Q660.647 38.994 658.135 35.7938 Q655.624 32.5936 650.6 32.5936 Q644.565 32.5936 641.081 36.4419 Q637.597 40.2903 637.597 46.9338 L637.597 72.576 L630.103 72.576 L630.103 27.2059 L637.597 27.2059 L637.597 34.2544 Q640.271 30.163 643.876 28.1376 Q647.522 26.1121 652.261 26.1121 Q660.08 26.1121 664.09 30.9732 Q668.1 35.7938 668.1 45.1919 Z" fill="#000000" fill-rule="nonzero" fill-opacity="1"></path><path clip-path="url(#clip740)" d="M682.967 27.2059 L690.421 27.2059 L690.421 72.576 L682.967 72.576 L682.967 27.2059 M682.967 9.54393 L690.421 9.54393 L690.421 18.9825 L682.967 18.9825 L682.967 9.54393 Z" fill="#000000" fill-rule="nonzero" fill-opacity="1"></path><path clip-path="url(#clip740)" d="M713.389 14.324 L713.389 27.2059 L728.742 27.2059 L728.742 32.9987 L713.389 32.9987 L713.389 57.6282 Q713.389 63.1779 714.888 64.7578 Q716.428 66.3376 721.086 66.3376 L728.742 66.3376 L728.742 72.576 L721.086 72.576 Q712.458 72.576 709.177 69.3758 Q705.895 66.1351 705.895 57.6282 L705.895 32.9987 L700.427 32.9987 L700.427 27.2059 L705.895 27.2059 L705.895 14.324 L713.389 14.324 Z" fill="#000000" fill-rule="nonzero" fill-opacity="1"></path><path clip-path="url(#clip740)" d="M738.546 27.2059 L745.999 27.2059 L745.999 72.576 L738.546 72.576 L738.546 27.2059 M738.546 9.54393 L745.999 9.54393 L745.999 18.9825 L738.546 18.9825 L738.546 9.54393 Z" fill="#000000" fill-rule="nonzero" fill-opacity="1"></path><path clip-path="url(#clip740)" d="M800.403 48.0275 L800.403 51.6733 L766.132 51.6733 Q766.618 59.3701 770.75 63.421 Q774.923 67.4314 782.336 67.4314 Q786.63 67.4314 790.64 66.3781 Q794.691 65.3249 798.661 63.2184 L798.661 70.267 Q794.651 71.9684 790.438 72.8596 Q786.225 73.7508 781.89 73.7508 Q771.034 73.7508 764.674 67.4314 Q758.354 61.1119 758.354 50.3365 Q758.354 39.1965 764.35 32.6746 Q770.386 26.1121 780.594 26.1121 Q789.749 26.1121 795.056 32.0264 Q800.403 37.9003 800.403 48.0275 M792.949 45.84 Q792.868 39.7232 789.506 36.0774 Q786.184 32.4315 780.675 32.4315 Q774.437 32.4315 770.669 35.9558 Q766.942 39.4801 766.375 45.8805 L792.949 45.84 Z" fill="#000000" fill-rule="nonzero" fill-opacity="1"></path><path clip-path="url(#clip740)" d="M841.56 28.5427 L841.56 35.5912 Q838.4 33.9709 834.998 33.1607 Q831.595 32.3505 827.949 32.3505 Q822.399 32.3505 819.604 34.0519 Q816.85 35.7533 816.85 39.156 Q816.85 41.7486 818.834 43.2475 Q820.819 44.7058 826.815 46.0426 L829.367 46.6097 Q837.307 48.3111 840.628 51.4303 Q843.991 54.509 843.991 60.0587 Q843.991 66.3781 838.967 70.0644 Q833.985 73.7508 825.235 73.7508 Q821.589 73.7508 817.619 73.0216 Q813.69 72.3329 809.315 70.9151 L809.315 63.2184 Q813.447 65.3654 817.457 66.4591 Q821.468 67.5124 825.397 67.5124 Q830.663 67.5124 833.499 65.73 Q836.334 63.9071 836.334 60.6258 Q836.334 57.5877 834.268 55.9673 Q832.243 54.3469 825.316 52.8481 L822.723 52.2405 Q815.796 50.7821 812.718 47.7845 Q809.639 44.7463 809.639 39.4801 Q809.639 33.0797 814.176 29.5959 Q818.713 26.1121 827.058 26.1121 Q831.19 26.1121 834.836 26.7198 Q838.481 27.3274 841.56 28.5427 Z" fill="#000000" fill-rule="nonzero" fill-opacity="1"></path><path clip-path="url(#clip740)" d="M882.555 12.096 L890.738 12.096 L890.738 68.3631 Q890.738 79.3005 886.566 84.2426 Q882.434 89.1847 873.238 89.1847 L870.119 89.1847 L870.119 82.2982 L872.671 82.2982 Q878.099 82.2982 880.327 79.26 Q882.555 76.2218 882.555 68.3631 L882.555 12.096 Z" fill="#000000" fill-rule="nonzero" fill-opacity="1"></path><path clip-path="url(#clip740)" d="M924.28 32.4315 Q918.284 32.4315 914.8 37.1306 Q911.317 41.7891 911.317 49.9314 Q911.317 58.0738 914.76 62.7728 Q918.244 67.4314 924.28 67.4314 Q930.234 67.4314 933.718 62.7323 Q937.202 58.0333 937.202 49.9314 Q937.202 41.8701 933.718 37.1711 Q930.234 32.4315 924.28 32.4315 M924.28 26.1121 Q934.002 26.1121 939.551 32.4315 Q945.101 38.7509 945.101 49.9314 Q945.101 61.0714 939.551 67.4314 Q934.002 73.7508 924.28 73.7508 Q914.517 73.7508 908.967 67.4314 Q903.458 61.0714 903.458 49.9314 Q903.458 38.7509 908.967 32.4315 Q914.517 26.1121 924.28 26.1121 Z" fill="#000000" fill-rule="nonzero" fill-opacity="1"></path><path clip-path="url(#clip740)" d="M957.456 27.2059 L964.91 27.2059 L964.91 72.576 L957.456 72.576 L957.456 27.2059 M957.456 9.54393 L964.91 9.54393 L964.91 18.9825 L957.456 18.9825 L957.456 9.54393 Z" fill="#000000" fill-rule="nonzero" fill-opacity="1"></path><path clip-path="url(#clip740)" d="M1018.22 45.1919 L1018.22 72.576 L1010.77 72.576 L1010.77 45.4349 Q1010.77 38.994 1008.25 35.7938 Q1005.74 32.5936 1000.72 32.5936 Q994.684 32.5936 991.2 36.4419 Q987.717 40.2903 987.717 46.9338 L987.717 72.576 L980.223 72.576 L980.223 27.2059 L987.717 27.2059 L987.717 34.2544 Q990.39 30.163 993.996 28.1376 Q997.641 26.1121 1002.38 26.1121 Q1010.2 26.1121 1014.21 30.9732 Q1018.22 35.7938 1018.22 45.1919 Z" fill="#000000" fill-rule="nonzero" fill-opacity="1"></path><path clip-path="url(#clip740)" d="M1033.09 27.2059 L1040.54 27.2059 L1040.54 72.576 L1033.09 72.576 L1033.09 27.2059 M1033.09 9.54393 L1040.54 9.54393 L1040.54 18.9825 L1033.09 18.9825 L1033.09 9.54393 Z" fill="#000000" fill-rule="nonzero" fill-opacity="1"></path><path clip-path="url(#clip740)" d="M1093.85 45.1919 L1093.85 72.576 L1086.4 72.576 L1086.4 45.4349 Q1086.4 38.994 1083.89 35.7938 Q1081.37 32.5936 1076.35 32.5936 Q1070.31 32.5936 1066.83 36.4419 Q1063.35 40.2903 1063.35 46.9338 L1063.35 72.576 L1055.85 72.576 L1055.85 27.2059 L1063.35 27.2059 L1063.35 34.2544 Q1066.02 30.163 1069.63 28.1376 Q1073.27 26.1121 1078.01 26.1121 Q1085.83 26.1121 1089.84 30.9732 Q1093.85 35.7938 1093.85 45.1919 Z" fill="#000000" fill-rule="nonzero" fill-opacity="1"></path><path clip-path="url(#clip740)" d="M1138.57 49.3643 Q1138.57 41.2625 1135.21 36.8065 Q1131.89 32.3505 1125.85 32.3505 Q1119.86 32.3505 1116.49 36.8065 Q1113.17 41.2625 1113.17 49.3643 Q1113.17 57.4256 1116.49 61.8816 Q1119.86 66.3376 1125.85 66.3376 Q1131.89 66.3376 1135.21 61.8816 Q1138.57 57.4256 1138.57 49.3643 M1146.03 66.9452 Q1146.03 78.5308 1140.88 84.1616 Q1135.74 89.8329 1125.12 89.8329 Q1121.19 89.8329 1117.71 89.2252 Q1114.23 88.6581 1110.95 87.4428 L1110.95 80.1917 Q1114.23 81.9741 1117.43 82.8248 Q1120.63 83.6755 1123.95 83.6755 Q1131.28 83.6755 1134.93 79.8271 Q1138.57 76.0193 1138.57 68.282 L1138.57 64.5957 Q1136.26 68.6061 1132.66 70.5911 Q1129.05 72.576 1124.03 72.576 Q1115.68 72.576 1110.58 66.2161 Q1105.48 59.8562 1105.48 49.3643 Q1105.48 38.832 1110.58 32.472 Q1115.68 26.1121 1124.03 26.1121 Q1129.05 26.1121 1132.66 28.0971 Q1136.26 30.082 1138.57 34.0924 L1138.57 27.2059 L1146.03 27.2059 L1146.03 66.9452 Z" fill="#000000" fill-rule="nonzero" fill-opacity="1"></path><path clip-path="url(#clip740)" d="M1217.61 34.0924 L1217.61 9.54393 L1225.06 9.54393 L1225.06 72.576 L1217.61 72.576 L1217.61 65.7705 Q1215.26 69.8214 1211.65 71.8063 Q1208.09 73.7508 1203.06 73.7508 Q1194.84 73.7508 1189.65 67.1883 Q1184.51 60.6258 1184.51 49.9314 Q1184.51 39.2371 1189.65 32.6746 Q1194.84 26.1121 1203.06 26.1121 Q1208.09 26.1121 1211.65 28.0971 Q1215.26 30.0415 1217.61 34.0924 M1192.21 49.9314 Q1192.21 58.1548 1195.57 62.8538 Q1198.97 67.5124 1204.89 67.5124 Q1210.8 67.5124 1214.2 62.8538 Q1217.61 58.1548 1217.61 49.9314 Q1217.61 41.7081 1214.2 37.0496 Q1210.8 32.3505 1204.89 32.3505 Q1198.97 32.3505 1195.57 37.0496 Q1192.21 41.7081 1192.21 49.9314 Z" fill="#000000" fill-rule="nonzero" fill-opacity="1"></path><path clip-path="url(#clip740)" d="M1248.51 65.6895 L1277.07 65.6895 L1277.07 72.576 L1238.67 72.576 L1238.67 65.6895 Q1243.33 60.8689 1251.35 52.7671 Q1259.41 44.6248 1261.48 42.2752 Q1265.41 37.8598 1266.95 34.8216 Q1268.53 31.7429 1268.53 28.7857 Q1268.53 23.9651 1265.12 20.927 Q1261.76 17.8888 1256.33 17.8888 Q1252.48 17.8888 1248.19 19.2256 Q1243.94 20.5624 1239.08 23.2765 L1239.08 15.0127 Q1244.02 13.0277 1248.31 12.015 Q1252.61 11.0023 1256.17 11.0023 Q1265.57 11.0023 1271.16 15.7013 Q1276.75 20.4004 1276.75 28.2591 Q1276.75 31.9859 1275.33 35.3482 Q1273.95 38.6699 1270.27 43.2069 Q1269.25 44.3817 1263.83 50.0125 Q1258.4 55.6027 1248.51 65.6895 Z" fill="#000000" fill-rule="nonzero" fill-opacity="1"></path><path clip-path="url(#clip740)" d="M1295.1 62.2867 L1303.65 62.2867 L1303.65 69.2543 L1297 82.2172 L1291.78 82.2172 L1295.1 69.2543 L1295.1 62.2867 Z" fill="#000000" fill-rule="nonzero" fill-opacity="1"></path><path clip-path="url(#clip740)" d="M1381.26 35.9153 Q1384.06 30.8922 1387.95 28.5022 Q1391.83 26.1121 1397.1 26.1121 Q1404.19 26.1121 1408.04 31.0947 Q1411.89 36.0368 1411.89 45.1919 L1411.89 72.576 L1404.39 72.576 L1404.39 45.4349 Q1404.39 38.913 1402.08 35.7533 Q1399.77 32.5936 1395.04 32.5936 Q1389.24 32.5936 1385.88 36.4419 Q1382.52 40.2903 1382.52 46.9338 L1382.52 72.576 L1375.02 72.576 L1375.02 45.4349 Q1375.02 38.8725 1372.71 35.7533 Q1370.41 32.5936 1365.59 32.5936 Q1359.87 32.5936 1356.51 36.4824 Q1353.15 40.3308 1353.15 46.9338 L1353.15 72.576 L1345.65 72.576 L1345.65 27.2059 L1353.15 27.2059 L1353.15 34.2544 Q1355.7 30.082 1359.27 28.0971 Q1362.83 26.1121 1367.73 26.1121 Q1372.67 26.1121 1376.12 28.6237 Q1379.6 31.1352 1381.26 35.9153 Z" fill="#000000" fill-rule="nonzero" fill-opacity="1"></path><path clip-path="url(#clip740)" d="M1444.33 32.4315 Q1438.34 32.4315 1434.86 37.1306 Q1431.37 41.7891 1431.37 49.9314 Q1431.37 58.0738 1434.81 62.7728 Q1438.3 67.4314 1444.33 67.4314 Q1450.29 67.4314 1453.77 62.7323 Q1457.26 58.0333 1457.26 49.9314 Q1457.26 41.8701 1453.77 37.1711 Q1450.29 32.4315 1444.33 32.4315 M1444.33 26.1121 Q1454.06 26.1121 1459.61 32.4315 Q1465.16 38.7509 1465.16 49.9314 Q1465.16 61.0714 1459.61 67.4314 Q1454.06 73.7508 1444.33 73.7508 Q1434.57 73.7508 1429.02 67.4314 Q1423.51 61.0714 1423.51 49.9314 Q1423.51 38.7509 1429.02 32.4315 Q1434.57 26.1121 1444.33 26.1121 Z" fill="#000000" fill-rule="nonzero" fill-opacity="1"></path><path clip-path="url(#clip740)" d="M1472.16 27.2059 L1480.06 27.2059 L1494.24 65.2844 L1508.42 27.2059 L1516.32 27.2059 L1499.31 72.576 L1489.18 72.576 L1472.16 27.2059 Z" fill="#000000" fill-rule="nonzero" fill-opacity="1"></path><path clip-path="url(#clip740)" d="M1526.61 27.2059 L1534.06 27.2059 L1534.06 72.576 L1526.61 72.576 L1526.61 27.2059 M1526.61 9.54393 L1534.06 9.54393 L1534.06 18.9825 L1526.61 18.9825 L1526.61 9.54393 Z" fill="#000000" fill-rule="nonzero" fill-opacity="1"></path><path clip-path="url(#clip740)" d="M1587.37 45.1919 L1587.37 72.576 L1579.92 72.576 L1579.92 45.4349 Q1579.92 38.994 1577.41 35.7938 Q1574.9 32.5936 1569.87 32.5936 Q1563.84 32.5936 1560.35 36.4419 Q1556.87 40.2903 1556.87 46.9338 L1556.87 72.576 L1549.37 72.576 L1549.37 27.2059 L1556.87 27.2059 L1556.87 34.2544 Q1559.54 30.163 1563.15 28.1376 Q1566.79 26.1121 1571.53 26.1121 Q1579.35 26.1121 1583.36 30.9732 Q1587.37 35.7938 1587.37 45.1919 Z" fill="#000000" fill-rule="nonzero" fill-opacity="1"></path><path clip-path="url(#clip740)" d="M1632.09 49.3643 Q1632.09 41.2625 1628.73 36.8065 Q1625.41 32.3505 1619.37 32.3505 Q1613.38 32.3505 1610.02 36.8065 Q1606.69 41.2625 1606.69 49.3643 Q1606.69 57.4256 1610.02 61.8816 Q1613.38 66.3376 1619.37 66.3376 Q1625.41 66.3376 1628.73 61.8816 Q1632.09 57.4256 1632.09 49.3643 M1639.55 66.9452 Q1639.55 78.5308 1634.4 84.1616 Q1629.26 89.8329 1618.65 89.8329 Q1614.72 89.8329 1611.23 89.2252 Q1607.75 88.6581 1604.47 87.4428 L1604.47 80.1917 Q1607.75 81.9741 1610.95 82.8248 Q1614.15 83.6755 1617.47 83.6755 Q1624.8 83.6755 1628.45 79.8271 Q1632.09 76.0193 1632.09 68.282 L1632.09 64.5957 Q1629.79 68.6061 1626.18 70.5911 Q1622.57 72.576 1617.55 72.576 Q1609.21 72.576 1604.1 66.2161 Q1599 59.8562 1599 49.3643 Q1599 38.832 1604.1 32.472 Q1609.21 26.1121 1617.55 26.1121 Q1622.57 26.1121 1626.18 28.0971 Q1629.79 30.082 1632.09 34.0924 L1632.09 27.2059 L1639.55 27.2059 L1639.55 66.9452 Z" fill="#000000" fill-rule="nonzero" fill-opacity="1"></path><path clip-path="url(#clip740)" d="M1688.48 65.7705 L1688.48 89.8329 L1680.99 89.8329 L1680.99 27.2059 L1688.48 27.2059 L1688.48 34.0924 Q1690.83 30.0415 1694.4 28.0971 Q1698 26.1121 1702.98 26.1121 Q1711.25 26.1121 1716.39 32.6746 Q1721.58 39.2371 1721.58 49.9314 Q1721.58 60.6258 1716.39 67.1883 Q1711.25 73.7508 1702.98 73.7508 Q1698 73.7508 1694.4 71.8063 Q1690.83 69.8214 1688.48 65.7705 M1713.84 49.9314 Q1713.84 41.7081 1710.44 37.0496 Q1707.08 32.3505 1701.16 32.3505 Q1695.25 32.3505 1691.84 37.0496 Q1688.48 41.7081 1688.48 49.9314 Q1688.48 58.1548 1691.84 62.8538 Q1695.25 67.5124 1701.16 67.5124 Q1707.08 67.5124 1710.44 62.8538 Q1713.84 58.1548 1713.84 49.9314 Z" fill="#000000" fill-rule="nonzero" fill-opacity="1"></path><path clip-path="url(#clip740)" d="M1751.51 32.4315 Q1745.52 32.4315 1742.04 37.1306 Q1738.55 41.7891 1738.55 49.9314 Q1738.55 58.0738 1742 62.7728 Q1745.48 67.4314 1751.51 67.4314 Q1757.47 67.4314 1760.95 62.7323 Q1764.44 58.0333 1764.44 49.9314 Q1764.44 41.8701 1760.95 37.1711 Q1757.47 32.4315 1751.51 32.4315 M1751.51 26.1121 Q1761.24 26.1121 1766.79 32.4315 Q1772.34 38.7509 1772.34 49.9314 Q1772.34 61.0714 1766.79 67.4314 Q1761.24 73.7508 1751.51 73.7508 Q1741.75 73.7508 1736.2 67.4314 Q1730.69 61.0714 1730.69 49.9314 Q1730.69 38.7509 1736.2 32.4315 Q1741.75 26.1121 1751.51 26.1121 Z" fill="#000000" fill-rule="nonzero" fill-opacity="1"></path><path clip-path="url(#clip740)" d="M1784.69 27.2059 L1792.15 27.2059 L1792.15 72.576 L1784.69 72.576 L1784.69 27.2059 M1784.69 9.54393 L1792.15 9.54393 L1792.15 18.9825 L1784.69 18.9825 L1784.69 9.54393 Z" fill="#000000" fill-rule="nonzero" fill-opacity="1"></path><path clip-path="url(#clip740)" d="M1845.46 45.1919 L1845.46 72.576 L1838 72.576 L1838 45.4349 Q1838 38.994 1835.49 35.7938 Q1832.98 32.5936 1827.96 32.5936 Q1821.92 32.5936 1818.44 36.4419 Q1814.95 40.2903 1814.95 46.9338 L1814.95 72.576 L1807.46 72.576 L1807.46 27.2059 L1814.95 27.2059 L1814.95 34.2544 Q1817.63 30.163 1821.23 28.1376 Q1824.88 26.1121 1829.62 26.1121 Q1837.43 26.1121 1841.44 30.9732 Q1845.46 35.7938 1845.46 45.1919 Z" fill="#000000" fill-rule="nonzero" fill-opacity="1"></path><path clip-path="url(#clip740)" d="M1867.69 14.324 L1867.69 27.2059 L1883.05 27.2059 L1883.05 32.9987 L1867.69 32.9987 L1867.69 57.6282 Q1867.69 63.1779 1869.19 64.7578 Q1870.73 66.3376 1875.39 66.3376 L1883.05 66.3376 L1883.05 72.576 L1875.39 72.576 Q1866.76 72.576 1863.48 69.3758 Q1860.2 66.1351 1860.2 57.6282 L1860.2 32.9987 L1854.73 32.9987 L1854.73 27.2059 L1860.2 27.2059 L1860.2 14.324 L1867.69 14.324 Z" fill="#000000" fill-rule="nonzero" fill-opacity="1"></path><path clip-path="url(#clip740)" d="M1926.43 65.7705 L1926.43 89.8329 L1918.94 89.8329 L1918.94 27.2059 L1926.43 27.2059 L1926.43 34.0924 Q1928.78 30.0415 1932.35 28.0971 Q1935.95 26.1121 1940.93 26.1121 Q1949.2 26.1121 1954.34 32.6746 Q1959.53 39.2371 1959.53 49.9314 Q1959.53 60.6258 1954.34 67.1883 Q1949.2 73.7508 1940.93 73.7508 Q1935.95 73.7508 1932.35 71.8063 Q1928.78 69.8214 1926.43 65.7705 M1951.79 49.9314 Q1951.79 41.7081 1948.39 37.0496 Q1945.03 32.3505 1939.11 32.3505 Q1933.2 32.3505 1929.79 37.0496 Q1926.43 41.7081 1926.43 49.9314 Q1926.43 58.1548 1929.79 62.8538 Q1933.2 67.5124 1939.11 67.5124 Q1945.03 67.5124 1948.39 62.8538 Q1951.79 58.1548 1951.79 49.9314 Z" fill="#000000" fill-rule="nonzero" fill-opacity="1"></path><path clip-path="url(#clip740)" d="M1998.17 34.1734 Q1996.92 33.4443 1995.42 33.1202 Q1993.96 32.7556 1992.18 32.7556 Q1985.86 32.7556 1982.46 36.8875 Q1979.09 40.9789 1979.09 48.6757 L1979.09 72.576 L1971.6 72.576 L1971.6 27.2059 L1979.09 27.2059 L1979.09 34.2544 Q1981.44 30.1225 1985.21 28.1376 Q1988.98 26.1121 1994.37 26.1121 Q1995.14 26.1121 1996.07 26.2337 Q1997 26.3147 1998.13 26.5172 L1998.17 34.1734 Z" fill="#000000" fill-rule="nonzero" fill-opacity="1"></path><path clip-path="url(#clip740)" d="M2042.98 48.0275 L2042.98 51.6733 L2008.71 51.6733 Q2009.19 59.3701 2013.32 63.421 Q2017.5 67.4314 2024.91 67.4314 Q2029.2 67.4314 2033.21 66.3781 Q2037.27 65.3249 2041.24 63.2184 L2041.24 70.267 Q2037.22 71.9684 2033.01 72.8596 Q2028.8 73.7508 2024.46 73.7508 Q2013.61 73.7508 2007.25 67.4314 Q2000.93 61.1119 2000.93 50.3365 Q2000.93 39.1965 2006.92 32.6746 Q2012.96 26.1121 2023.17 26.1121 Q2032.32 26.1121 2037.63 32.0264 Q2042.98 37.9003 2042.98 48.0275 M2035.52 45.84 Q2035.44 39.7232 2032.08 36.0774 Q2028.76 32.4315 2023.25 32.4315 Q2017.01 32.4315 2013.24 35.9558 Q2009.52 39.4801 2008.95 45.8805 L2035.52 45.84 Z" fill="#000000" fill-rule="nonzero" fill-opacity="1"></path><path clip-path="url(#clip740)" d="M2085.07 34.0924 L2085.07 9.54393 L2092.52 9.54393 L2092.52 72.576 L2085.07 72.576 L2085.07 65.7705 Q2082.72 69.8214 2079.11 71.8063 Q2075.55 73.7508 2070.52 73.7508 Q2062.3 73.7508 2057.11 67.1883 Q2051.97 60.6258 2051.97 49.9314 Q2051.97 39.2371 2057.11 32.6746 Q2062.3 26.1121 2070.52 26.1121 Q2075.55 26.1121 2079.11 28.0971 Q2082.72 30.0415 2085.07 34.0924 M2059.67 49.9314 Q2059.67 58.1548 2063.03 62.8538 Q2066.43 67.5124 2072.35 67.5124 Q2078.26 67.5124 2081.66 62.8538 Q2085.07 58.1548 2085.07 49.9314 Q2085.07 41.7081 2081.66 37.0496 Q2078.26 32.3505 2072.35 32.3505 Q2066.43 32.3505 2063.03 37.0496 Q2059.67 41.7081 2059.67 49.9314 Z" fill="#000000" fill-rule="nonzero" fill-opacity="1"></path><path clip-path="url(#clip740)" d="M2107.87 27.2059 L2115.33 27.2059 L2115.33 72.576 L2107.87 72.576 L2107.87 27.2059 M2107.87 9.54393 L2115.33 9.54393 L2115.33 18.9825 L2107.87 18.9825 L2107.87 9.54393 Z" fill="#000000" fill-rule="nonzero" fill-opacity="1"></path><path clip-path="url(#clip740)" d="M2163.57 28.9478 L2163.57 35.9153 Q2160.41 34.1734 2157.21 33.3227 Q2154.05 32.4315 2150.81 32.4315 Q2143.56 32.4315 2139.55 37.0496 Q2135.54 41.6271 2135.54 49.9314 Q2135.54 58.2358 2139.55 62.8538 Q2143.56 67.4314 2150.81 67.4314 Q2154.05 67.4314 2157.21 66.5807 Q2160.41 65.6895 2163.57 63.9476 L2163.57 70.8341 Q2160.45 72.2924 2157.09 73.0216 Q2153.77 73.7508 2150 73.7508 Q2139.75 73.7508 2133.72 67.3098 Q2127.68 60.8689 2127.68 49.9314 Q2127.68 38.832 2133.76 32.472 Q2139.87 26.1121 2150.49 26.1121 Q2153.93 26.1121 2157.21 26.8413 Q2160.49 27.5299 2163.57 28.9478 Z" fill="#000000" fill-rule="nonzero" fill-opacity="1"></path><path clip-path="url(#clip740)" d="M2183.91 14.324 L2183.91 27.2059 L2199.26 27.2059 L2199.26 32.9987 L2183.91 32.9987 L2183.91 57.6282 Q2183.91 63.1779 2185.41 64.7578 Q2186.95 66.3376 2191.6 66.3376 L2199.26 66.3376 L2199.26 72.576 L2191.6 72.576 Q2182.98 72.576 2179.7 69.3758 Q2176.41 66.1351 2176.41 57.6282 L2176.41 32.9987 L2170.95 32.9987 L2170.95 27.2059 L2176.41 27.2059 L2176.41 14.324 L2183.91 14.324 Z" fill="#000000" fill-rule="nonzero" fill-opacity="1"></path><path clip-path="url(#clip740)" d="M2209.06 27.2059 L2216.52 27.2059 L2216.52 72.576 L2209.06 72.576 L2209.06 27.2059 M2209.06 9.54393 L2216.52 9.54393 L2216.52 18.9825 L2209.06 18.9825 L2209.06 9.54393 Z" fill="#000000" fill-rule="nonzero" fill-opacity="1"></path><path clip-path="url(#clip740)" d="M2249.69 32.4315 Q2243.7 32.4315 2240.22 37.1306 Q2236.73 41.7891 2236.73 49.9314 Q2236.73 58.0738 2240.18 62.7728 Q2243.66 67.4314 2249.69 67.4314 Q2255.65 67.4314 2259.13 62.7323 Q2262.62 58.0333 2262.62 49.9314 Q2262.62 41.8701 2259.13 37.1711 Q2255.65 32.4315 2249.69 32.4315 M2249.69 26.1121 Q2259.42 26.1121 2264.97 32.4315 Q2270.52 38.7509 2270.52 49.9314 Q2270.52 61.0714 2264.97 67.4314 Q2259.42 73.7508 2249.69 73.7508 Q2239.93 73.7508 2234.38 67.4314 Q2228.87 61.0714 2228.87 49.9314 Q2228.87 38.7509 2234.38 32.4315 Q2239.93 26.1121 2249.69 26.1121 Z" fill="#000000" fill-rule="nonzero" fill-opacity="1"></path><path clip-path="url(#clip740)" d="M2320.59 45.1919 L2320.59 72.576 L2313.13 72.576 L2313.13 45.4349 Q2313.13 38.994 2310.62 35.7938 Q2308.11 32.5936 2303.09 32.5936 Q2297.05 32.5936 2293.57 36.4419 Q2290.08 40.2903 2290.08 46.9338 L2290.08 72.576 L2282.59 72.576 L2282.59 27.2059 L2290.08 27.2059 L2290.08 34.2544 Q2292.76 30.163 2296.36 28.1376 Q2300.01 26.1121 2304.75 26.1121 Q2312.56 26.1121 2316.58 30.9732 Q2320.59 35.7938 2320.59 45.1919 Z" fill="#000000" fill-rule="nonzero" fill-opacity="1"></path><polyline clip-path="url(#clip742)" style="stroke:#009af9; stroke-linecap:round; stroke-linejoin:round; stroke-width:4; stroke-opacity:1; fill:none" points="255.507,1381.57 325.72,1366.53 395.932,1326.18 466.145,1271.2 536.357,1211.86 606.57,1154.73 676.782,1154.73 746.995,1065.55 817.207,1076.47 887.42,1077.78 957.633,1069.75 1027.85,160.256 1098.06,160.256 1168.27,269.362 1238.48,244.917 1308.7,229.021 1378.91,223.662 1449.12,228.903 1519.33,228.903 1589.55,368.904 1659.76,338.113 1729.97,224.795 1800.18,276.022 1870.4,327.81 1940.61,327.81 2010.82,703.036 2081.03,669.961 2151.25,441.95 2221.46,283.755 2291.67,326.846 "></polyline>
<polyline clip-path="url(#clip742)" style="stroke:#e26f46; stroke-linecap:round; stroke-linejoin:round; stroke-width:4; stroke-opacity:1; fill:none" points="255.507,1381.57 325.72,260.566 395.932,952.572 466.145,1221.78 536.357,1189.16 606.57,1215.75 676.782,1229.56 746.995,1232.45 817.207,1235.61 887.42,1238.38 957.633,1241.03 1027.85,1243.73 1098.06,1246.41 1168.27,1249.05 1238.48,1251.61 1308.7,1253.95 1378.91,1256.06 1449.12,1257.97 1519.33,1259.71 1589.55,1261.3 1659.76,1262.77 1729.97,1264.11 1800.18,1265.34 1870.4,1266.48 1940.61,1267.53 2010.82,1268.51 2081.03,1269.41 2151.25,1270.25 2221.46,1271.04 2291.67,1271.81 "></polyline>
<polyline clip-path="url(#clip742)" style="stroke:#ff0000; stroke-linecap:round; stroke-linejoin:round; stroke-width:2; stroke-opacity:1; fill:none" points="1308.7,1386.4 1308.7,174.139 "></polyline>
<path clip-path="url(#clip740)" d="M266.367 374.156 L954.489 374.156 L954.489 166.796 L266.367 166.796  Z" fill="#ffffff" fill-rule="evenodd" fill-opacity="1"></path>
<polyline clip-path="url(#clip740)" style="stroke:#000000; stroke-linecap:round; stroke-linejoin:round; stroke-width:4; stroke-opacity:1; fill:none" points="266.367,374.156 954.489,374.156 954.489,166.796 266.367,166.796 266.367,374.156 "></polyline>
<polyline clip-path="url(#clip740)" style="stroke:#009af9; stroke-linecap:round; stroke-linejoin:round; stroke-width:4; stroke-opacity:1; fill:none" points="290.348,218.636 434.237,218.636 "></polyline>
<path clip-path="url(#clip740)" d="M477.13 213.925 L477.13 199.897 L481.39 199.897 L481.39 235.916 L477.13 235.916 L477.13 232.027 Q475.788 234.342 473.728 235.476 Q471.691 236.587 468.82 236.587 Q464.121 236.587 461.158 232.837 Q458.218 229.087 458.218 222.976 Q458.218 216.865 461.158 213.115 Q464.121 209.365 468.82 209.365 Q471.691 209.365 473.728 210.499 Q475.788 211.61 477.13 213.925 M462.617 222.976 Q462.617 227.675 464.538 230.36 Q466.482 233.022 469.862 233.022 Q473.242 233.022 475.186 230.36 Q477.13 227.675 477.13 222.976 Q477.13 218.277 475.186 215.615 Q473.242 212.93 469.862 212.93 Q466.482 212.93 464.538 215.615 Q462.617 218.277 462.617 222.976 Z" fill="#000000" fill-rule="nonzero" fill-opacity="1"></path><path clip-path="url(#clip740)" d="M501.945 222.883 Q496.783 222.883 494.792 224.064 Q492.802 225.244 492.802 228.092 Q492.802 230.36 494.283 231.703 Q495.788 233.022 498.357 233.022 Q501.899 233.022 504.028 230.522 Q506.181 227.999 506.181 223.832 L506.181 222.883 L501.945 222.883 M510.44 221.124 L510.44 235.916 L506.181 235.916 L506.181 231.981 Q504.723 234.342 502.547 235.476 Q500.371 236.587 497.223 236.587 Q493.241 236.587 490.88 234.365 Q488.542 232.119 488.542 228.369 Q488.542 223.994 491.459 221.772 Q494.399 219.55 500.209 219.55 L506.181 219.55 L506.181 219.133 Q506.181 216.194 504.237 214.596 Q502.315 212.976 498.82 212.976 Q496.598 212.976 494.491 213.508 Q492.385 214.041 490.441 215.106 L490.441 211.17 Q492.778 210.268 494.978 209.828 Q497.177 209.365 499.26 209.365 Q504.885 209.365 507.663 212.282 Q510.44 215.198 510.44 221.124 Z" fill="#000000" fill-rule="nonzero" fill-opacity="1"></path><path clip-path="url(#clip740)" d="M523.426 202.629 L523.426 209.99 L532.2 209.99 L532.2 213.3 L523.426 213.3 L523.426 227.374 Q523.426 230.545 524.283 231.448 Q525.163 232.351 527.825 232.351 L532.2 232.351 L532.2 235.916 L527.825 235.916 Q522.894 235.916 521.019 234.087 Q519.144 232.235 519.144 227.374 L519.144 213.3 L516.019 213.3 L516.019 209.99 L519.144 209.99 L519.144 202.629 L523.426 202.629 Z" fill="#000000" fill-rule="nonzero" fill-opacity="1"></path><path clip-path="url(#clip740)" d="M549.584 222.883 Q544.422 222.883 542.431 224.064 Q540.44 225.244 540.44 228.092 Q540.44 230.36 541.922 231.703 Q543.426 233.022 545.996 233.022 Q549.537 233.022 551.667 230.522 Q553.82 227.999 553.82 223.832 L553.82 222.883 L549.584 222.883 M558.079 221.124 L558.079 235.916 L553.82 235.916 L553.82 231.981 Q552.361 234.342 550.186 235.476 Q548.01 236.587 544.862 236.587 Q540.88 236.587 538.519 234.365 Q536.181 232.119 536.181 228.369 Q536.181 223.994 539.098 221.772 Q542.037 219.55 547.848 219.55 L553.82 219.55 L553.82 219.133 Q553.82 216.194 551.875 214.596 Q549.954 212.976 546.459 212.976 Q544.237 212.976 542.13 213.508 Q540.024 214.041 538.079 215.106 L538.079 211.17 Q540.417 210.268 542.616 209.828 Q544.815 209.365 546.899 209.365 Q552.524 209.365 555.301 212.282 Q558.079 215.198 558.079 221.124 Z" fill="#000000" fill-rule="nonzero" fill-opacity="1"></path><polyline clip-path="url(#clip740)" style="stroke:#e26f46; stroke-linecap:round; stroke-linejoin:round; stroke-width:4; stroke-opacity:1; fill:none" points="290.348,270.476 434.237,270.476 "></polyline>
<path clip-path="url(#clip740)" d="M462.501 283.867 L462.501 297.617 L458.218 297.617 L458.218 261.83 L462.501 261.83 L462.501 265.765 Q463.843 263.45 465.88 262.339 Q467.941 261.205 470.788 261.205 Q475.51 261.205 478.45 264.955 Q481.413 268.705 481.413 274.816 Q481.413 280.927 478.45 284.677 Q475.51 288.427 470.788 288.427 Q467.941 288.427 465.88 287.316 Q463.843 286.182 462.501 283.867 M476.992 274.816 Q476.992 270.117 475.047 267.455 Q473.126 264.77 469.746 264.77 Q466.367 264.77 464.422 267.455 Q462.501 270.117 462.501 274.816 Q462.501 279.515 464.422 282.2 Q466.367 284.862 469.746 284.862 Q473.126 284.862 475.047 282.2 Q476.992 279.515 476.992 274.816 Z" fill="#000000" fill-rule="nonzero" fill-opacity="1"></path><path clip-path="url(#clip740)" d="M503.496 265.811 Q502.778 265.395 501.922 265.21 Q501.089 265.001 500.07 265.001 Q496.459 265.001 494.515 267.362 Q492.593 269.7 492.593 274.098 L492.593 287.756 L488.311 287.756 L488.311 261.83 L492.593 261.83 L492.593 265.858 Q493.936 263.497 496.089 262.362 Q498.241 261.205 501.32 261.205 Q501.76 261.205 502.292 261.274 Q502.825 261.321 503.473 261.436 L503.496 265.811 Z" fill="#000000" fill-rule="nonzero" fill-opacity="1"></path><path clip-path="url(#clip740)" d="M529.098 273.728 L529.098 275.811 L509.514 275.811 Q509.792 280.209 512.153 282.524 Q514.538 284.816 518.774 284.816 Q521.227 284.816 523.519 284.214 Q525.834 283.612 528.102 282.409 L528.102 286.436 Q525.811 287.408 523.403 287.918 Q520.996 288.427 518.519 288.427 Q512.315 288.427 508.681 284.816 Q505.07 281.205 505.07 275.047 Q505.07 268.682 508.496 264.955 Q511.945 261.205 517.778 261.205 Q523.01 261.205 526.042 264.585 Q529.098 267.941 529.098 273.728 M524.838 272.478 Q524.792 268.983 522.871 266.899 Q520.973 264.816 517.825 264.816 Q514.26 264.816 512.107 266.83 Q509.977 268.844 509.653 272.501 L524.838 272.478 Z" fill="#000000" fill-rule="nonzero" fill-opacity="1"></path><path clip-path="url(#clip740)" d="M553.149 265.765 L553.149 251.737 L557.408 251.737 L557.408 287.756 L553.149 287.756 L553.149 283.867 Q551.806 286.182 549.746 287.316 Q547.709 288.427 544.838 288.427 Q540.139 288.427 537.176 284.677 Q534.237 280.927 534.237 274.816 Q534.237 268.705 537.176 264.955 Q540.139 261.205 544.838 261.205 Q547.709 261.205 549.746 262.339 Q551.806 263.45 553.149 265.765 M538.635 274.816 Q538.635 279.515 540.556 282.2 Q542.5 284.862 545.88 284.862 Q549.26 284.862 551.204 282.2 Q553.149 279.515 553.149 274.816 Q553.149 270.117 551.204 267.455 Q549.26 264.77 545.88 264.77 Q542.5 264.77 540.556 267.455 Q538.635 270.117 538.635 274.816 Z" fill="#000000" fill-rule="nonzero" fill-opacity="1"></path><path clip-path="url(#clip740)" d="M566.181 261.83 L570.44 261.83 L570.44 287.756 L566.181 287.756 L566.181 261.83 M566.181 251.737 L570.44 251.737 L570.44 257.131 L566.181 257.131 L566.181 251.737 Z" fill="#000000" fill-rule="nonzero" fill-opacity="1"></path><path clip-path="url(#clip740)" d="M598.009 262.825 L598.009 266.807 Q596.204 265.811 594.375 265.325 Q592.57 264.816 590.718 264.816 Q586.574 264.816 584.283 267.455 Q581.991 270.071 581.991 274.816 Q581.991 279.561 584.283 282.2 Q586.574 284.816 590.718 284.816 Q592.57 284.816 594.375 284.33 Q596.204 283.821 598.009 282.825 L598.009 286.76 Q596.227 287.594 594.306 288.01 Q592.408 288.427 590.255 288.427 Q584.398 288.427 580.949 284.746 Q577.5 281.066 577.5 274.816 Q577.5 268.473 580.972 264.839 Q584.468 261.205 590.533 261.205 Q592.5 261.205 594.375 261.622 Q596.25 262.015 598.009 262.825 Z" fill="#000000" fill-rule="nonzero" fill-opacity="1"></path><path clip-path="url(#clip740)" d="M609.63 254.469 L609.63 261.83 L618.403 261.83 L618.403 265.14 L609.63 265.14 L609.63 279.214 Q609.63 282.385 610.486 283.288 Q611.366 284.191 614.028 284.191 L618.403 284.191 L618.403 287.756 L614.028 287.756 Q609.097 287.756 607.222 285.927 Q605.347 284.075 605.347 279.214 L605.347 265.14 L602.222 265.14 L602.222 261.83 L605.347 261.83 L605.347 254.469 L609.63 254.469 Z" fill="#000000" fill-rule="nonzero" fill-opacity="1"></path><path clip-path="url(#clip740)" d="M624.005 261.83 L628.264 261.83 L628.264 287.756 L624.005 287.756 L624.005 261.83 M624.005 251.737 L628.264 251.737 L628.264 257.131 L624.005 257.131 L624.005 251.737 Z" fill="#000000" fill-rule="nonzero" fill-opacity="1"></path><path clip-path="url(#clip740)" d="M647.222 264.816 Q643.796 264.816 641.805 267.501 Q639.815 270.163 639.815 274.816 Q639.815 279.469 641.782 282.154 Q643.773 284.816 647.222 284.816 Q650.625 284.816 652.616 282.131 Q654.606 279.446 654.606 274.816 Q654.606 270.21 652.616 267.524 Q650.625 264.816 647.222 264.816 M647.222 261.205 Q652.778 261.205 655.949 264.816 Q659.12 268.427 659.12 274.816 Q659.12 281.182 655.949 284.816 Q652.778 288.427 647.222 288.427 Q641.643 288.427 638.472 284.816 Q635.324 281.182 635.324 274.816 Q635.324 268.427 638.472 264.816 Q641.643 261.205 647.222 261.205 Z" fill="#000000" fill-rule="nonzero" fill-opacity="1"></path><path clip-path="url(#clip740)" d="M687.731 272.108 L687.731 287.756 L683.472 287.756 L683.472 272.247 Q683.472 268.566 682.037 266.737 Q680.602 264.909 677.731 264.909 Q674.282 264.909 672.291 267.108 Q670.301 269.307 670.301 273.103 L670.301 287.756 L666.018 287.756 L666.018 261.83 L670.301 261.83 L670.301 265.858 Q671.828 263.52 673.889 262.362 Q675.972 261.205 678.68 261.205 Q683.148 261.205 685.439 263.983 Q687.731 266.737 687.731 272.108 Z" fill="#000000" fill-rule="nonzero" fill-opacity="1"></path><polyline clip-path="url(#clip740)" style="stroke:#ff0000; stroke-linecap:round; stroke-linejoin:round; stroke-width:2; stroke-opacity:1; fill:none" points="290.348,322.316 434.237,322.316 "></polyline>
<path clip-path="url(#clip740)" d="M458.218 305.036 L480.07 305.036 L480.07 308.971 L462.894 308.971 L462.894 319.202 L479.353 319.202 L479.353 323.137 L462.894 323.137 L462.894 335.661 L480.487 335.661 L480.487 339.596 L458.218 339.596 L458.218 305.036 Z" fill="#000000" fill-rule="nonzero" fill-opacity="1"></path><path clip-path="url(#clip740)" d="M509.538 323.948 L509.538 339.596 L505.278 339.596 L505.278 324.087 Q505.278 320.406 503.843 318.577 Q502.408 316.749 499.538 316.749 Q496.089 316.749 494.098 318.948 Q492.107 321.147 492.107 324.943 L492.107 339.596 L487.825 339.596 L487.825 313.67 L492.107 313.67 L492.107 317.698 Q493.635 315.36 495.695 314.202 Q497.778 313.045 500.487 313.045 Q504.954 313.045 507.246 315.823 Q509.538 318.577 509.538 323.948 Z" fill="#000000" fill-rule="nonzero" fill-opacity="1"></path><path clip-path="url(#clip740)" d="M535.093 317.605 L535.093 303.577 L539.352 303.577 L539.352 339.596 L535.093 339.596 L535.093 335.707 Q533.75 338.022 531.69 339.156 Q529.653 340.267 526.783 340.267 Q522.084 340.267 519.121 336.517 Q516.181 332.767 516.181 326.656 Q516.181 320.545 519.121 316.795 Q522.084 313.045 526.783 313.045 Q529.653 313.045 531.69 314.179 Q533.75 315.29 535.093 317.605 M520.579 326.656 Q520.579 331.355 522.501 334.04 Q524.445 336.702 527.825 336.702 Q531.204 336.702 533.149 334.04 Q535.093 331.355 535.093 326.656 Q535.093 321.957 533.149 319.295 Q531.204 316.61 527.825 316.61 Q524.445 316.61 522.501 319.295 Q520.579 321.957 520.579 326.656 Z" fill="#000000" fill-rule="nonzero" fill-opacity="1"></path><path clip-path="url(#clip740)" d="M573.241 316.656 Q569.815 316.656 567.824 319.341 Q565.834 322.003 565.834 326.656 Q565.834 331.309 567.801 333.994 Q569.792 336.656 573.241 336.656 Q576.644 336.656 578.634 333.971 Q580.625 331.286 580.625 326.656 Q580.625 322.05 578.634 319.364 Q576.644 316.656 573.241 316.656 M573.241 313.045 Q578.797 313.045 581.968 316.656 Q585.139 320.267 585.139 326.656 Q585.139 333.022 581.968 336.656 Q578.797 340.267 573.241 340.267 Q567.662 340.267 564.491 336.656 Q561.343 333.022 561.343 326.656 Q561.343 320.267 564.491 316.656 Q567.662 313.045 573.241 313.045 Z" fill="#000000" fill-rule="nonzero" fill-opacity="1"></path><path clip-path="url(#clip740)" d="M605.324 303.577 L605.324 307.119 L601.25 307.119 Q598.958 307.119 598.056 308.045 Q597.176 308.971 597.176 311.378 L597.176 313.67 L604.19 313.67 L604.19 316.98 L597.176 316.98 L597.176 339.596 L592.894 339.596 L592.894 316.98 L588.82 316.98 L588.82 313.67 L592.894 313.67 L592.894 311.864 Q592.894 307.536 594.908 305.568 Q596.921 303.577 601.296 303.577 L605.324 303.577 Z" fill="#000000" fill-rule="nonzero" fill-opacity="1"></path><path clip-path="url(#clip740)" d="M619.352 305.036 L648.588 305.036 L648.588 308.971 L636.319 308.971 L636.319 339.596 L631.62 339.596 L631.62 308.971 L619.352 308.971 L619.352 305.036 Z" fill="#000000" fill-rule="nonzero" fill-opacity="1"></path><path clip-path="url(#clip740)" d="M660.972 317.651 Q660.254 317.235 659.398 317.05 Q658.565 316.841 657.546 316.841 Q653.935 316.841 651.991 319.202 Q650.069 321.54 650.069 325.938 L650.069 339.596 L645.787 339.596 L645.787 313.67 L650.069 313.67 L650.069 317.698 Q651.412 315.337 653.565 314.202 Q655.717 313.045 658.796 313.045 Q659.236 313.045 659.768 313.114 Q660.301 313.161 660.949 313.276 L660.972 317.651 Z" fill="#000000" fill-rule="nonzero" fill-opacity="1"></path><path clip-path="url(#clip740)" d="M677.222 326.563 Q672.06 326.563 670.069 327.744 Q668.078 328.924 668.078 331.772 Q668.078 334.04 669.56 335.383 Q671.065 336.702 673.634 336.702 Q677.176 336.702 679.305 334.202 Q681.458 331.679 681.458 327.512 L681.458 326.563 L677.222 326.563 M685.717 324.804 L685.717 339.596 L681.458 339.596 L681.458 335.661 Q680 338.022 677.824 339.156 Q675.648 340.267 672.5 340.267 Q668.518 340.267 666.157 338.045 Q663.819 335.799 663.819 332.049 Q663.819 327.674 666.736 325.452 Q669.676 323.23 675.486 323.23 L681.458 323.23 L681.458 322.813 Q681.458 319.874 679.514 318.276 Q677.592 316.656 674.097 316.656 Q671.875 316.656 669.768 317.188 Q667.662 317.721 665.717 318.786 L665.717 314.85 Q668.055 313.948 670.254 313.508 Q672.453 313.045 674.537 313.045 Q680.162 313.045 682.939 315.962 Q685.717 318.878 685.717 324.804 Z" fill="#000000" fill-rule="nonzero" fill-opacity="1"></path><path clip-path="url(#clip740)" d="M694.49 313.67 L698.75 313.67 L698.75 339.596 L694.49 339.596 L694.49 313.67 M694.49 303.577 L698.75 303.577 L698.75 308.971 L694.49 308.971 L694.49 303.577 Z" fill="#000000" fill-rule="nonzero" fill-opacity="1"></path><path clip-path="url(#clip740)" d="M729.212 323.948 L729.212 339.596 L724.953 339.596 L724.953 324.087 Q724.953 320.406 723.518 318.577 Q722.083 316.749 719.212 316.749 Q715.763 316.749 713.773 318.948 Q711.782 321.147 711.782 324.943 L711.782 339.596 L707.5 339.596 L707.5 313.67 L711.782 313.67 L711.782 317.698 Q713.31 315.36 715.37 314.202 Q717.453 313.045 720.162 313.045 Q724.629 313.045 726.921 315.823 Q729.212 318.577 729.212 323.948 Z" fill="#000000" fill-rule="nonzero" fill-opacity="1"></path><path clip-path="url(#clip740)" d="M737.708 313.67 L741.967 313.67 L741.967 339.596 L737.708 339.596 L737.708 313.67 M737.708 303.577 L741.967 303.577 L741.967 308.971 L737.708 308.971 L737.708 303.577 Z" fill="#000000" fill-rule="nonzero" fill-opacity="1"></path><path clip-path="url(#clip740)" d="M772.43 323.948 L772.43 339.596 L768.171 339.596 L768.171 324.087 Q768.171 320.406 766.735 318.577 Q765.3 316.749 762.43 316.749 Q758.981 316.749 756.99 318.948 Q754.999 321.147 754.999 324.943 L754.999 339.596 L750.717 339.596 L750.717 313.67 L754.999 313.67 L754.999 317.698 Q756.527 315.36 758.587 314.202 Q760.671 313.045 763.379 313.045 Q767.846 313.045 770.138 315.823 Q772.43 318.577 772.43 323.948 Z" fill="#000000" fill-rule="nonzero" fill-opacity="1"></path><path clip-path="url(#clip740)" d="M797.985 326.332 Q797.985 321.702 796.064 319.156 Q794.166 316.61 790.717 316.61 Q787.291 316.61 785.369 319.156 Q783.471 321.702 783.471 326.332 Q783.471 330.938 785.369 333.485 Q787.291 336.031 790.717 336.031 Q794.166 336.031 796.064 333.485 Q797.985 330.938 797.985 326.332 M802.244 336.378 Q802.244 342.998 799.305 346.216 Q796.365 349.457 790.3 349.457 Q788.055 349.457 786.064 349.11 Q784.073 348.785 782.198 348.091 L782.198 343.948 Q784.073 344.966 785.902 345.452 Q787.731 345.938 789.629 345.938 Q793.819 345.938 795.902 343.739 Q797.985 341.563 797.985 337.142 L797.985 335.036 Q796.666 337.327 794.606 338.461 Q792.545 339.596 789.675 339.596 Q784.907 339.596 781.99 335.961 Q779.073 332.327 779.073 326.332 Q779.073 320.313 781.99 316.679 Q784.907 313.045 789.675 313.045 Q792.545 313.045 794.606 314.179 Q796.666 315.313 797.985 317.605 L797.985 313.67 L802.244 313.67 L802.244 336.378 Z" fill="#000000" fill-rule="nonzero" fill-opacity="1"></path><path clip-path="url(#clip740)" d="M830.948 308.878 L830.948 335.753 L836.596 335.753 Q843.749 335.753 847.059 332.512 Q850.392 329.272 850.392 322.281 Q850.392 315.337 847.059 312.119 Q843.749 308.878 836.596 308.878 L830.948 308.878 M826.272 305.036 L835.878 305.036 Q845.925 305.036 850.624 309.226 Q855.323 313.392 855.323 322.281 Q855.323 331.216 850.601 335.406 Q845.878 339.596 835.878 339.596 L826.272 339.596 L826.272 305.036 Z" fill="#000000" fill-rule="nonzero" fill-opacity="1"></path><path clip-path="url(#clip740)" d="M874.374 326.563 Q869.212 326.563 867.221 327.744 Q865.23 328.924 865.23 331.772 Q865.23 334.04 866.712 335.383 Q868.216 336.702 870.786 336.702 Q874.327 336.702 876.457 334.202 Q878.61 331.679 878.61 327.512 L878.61 326.563 L874.374 326.563 M882.869 324.804 L882.869 339.596 L878.61 339.596 L878.61 335.661 Q877.151 338.022 874.975 339.156 Q872.8 340.267 869.651 340.267 Q865.67 340.267 863.309 338.045 Q860.971 335.799 860.971 332.049 Q860.971 327.674 863.888 325.452 Q866.827 323.23 872.638 323.23 L878.61 323.23 L878.61 322.813 Q878.61 319.874 876.665 318.276 Q874.744 316.656 871.249 316.656 Q869.026 316.656 866.92 317.188 Q864.814 317.721 862.869 318.786 L862.869 314.85 Q865.207 313.948 867.406 313.508 Q869.605 313.045 871.688 313.045 Q877.313 313.045 880.091 315.962 Q882.869 318.878 882.869 324.804 Z" fill="#000000" fill-rule="nonzero" fill-opacity="1"></path><path clip-path="url(#clip740)" d="M895.855 306.309 L895.855 313.67 L904.628 313.67 L904.628 316.98 L895.855 316.98 L895.855 331.054 Q895.855 334.225 896.711 335.128 Q897.591 336.031 900.253 336.031 L904.628 336.031 L904.628 339.596 L900.253 339.596 Q895.323 339.596 893.448 337.767 Q891.573 335.915 891.573 331.054 L891.573 316.98 L888.448 316.98 L888.448 313.67 L891.573 313.67 L891.573 306.309 L895.855 306.309 Z" fill="#000000" fill-rule="nonzero" fill-opacity="1"></path><path clip-path="url(#clip740)" d="M922.012 326.563 Q916.85 326.563 914.86 327.744 Q912.869 328.924 912.869 331.772 Q912.869 334.04 914.35 335.383 Q915.855 336.702 918.424 336.702 Q921.966 336.702 924.096 334.202 Q926.248 331.679 926.248 327.512 L926.248 326.563 L922.012 326.563 M930.508 324.804 L930.508 339.596 L926.248 339.596 L926.248 335.661 Q924.79 338.022 922.614 339.156 Q920.438 340.267 917.29 340.267 Q913.309 340.267 910.948 338.045 Q908.61 335.799 908.61 332.049 Q908.61 327.674 911.526 325.452 Q914.466 323.23 920.276 323.23 L926.248 323.23 L926.248 322.813 Q926.248 319.874 924.304 318.276 Q922.383 316.656 918.887 316.656 Q916.665 316.656 914.559 317.188 Q912.452 317.721 910.508 318.786 L910.508 314.85 Q912.846 313.948 915.045 313.508 Q917.244 313.045 919.327 313.045 Q924.952 313.045 927.73 315.962 Q930.508 318.878 930.508 324.804 Z" fill="#000000" fill-rule="nonzero" fill-opacity="1"></path></svg>