<svg xmlns="http://www.w3.org/2000/svg" xmlns:xlink="http://www.w3.org/1999/xlink" width="600" height="400" viewBox="0 0 2400 1600">
<defs>
  <clipPath id="clip780">
    <rect x="0" y="0" width="2400" height="1600"></rect>
  </clipPath>
</defs>
<path clip-path="url(#clip780)" d="M0 1600 L2400 1600 L2400 0 L0 0  Z" fill="#ffffff" fill-rule="evenodd" fill-opacity="1"></path>
<defs>
  <clipPath id="clip781">
    <rect x="480" y="0" width="1681" height="1600"></rect>
  </clipPath>
</defs>
<path clip-path="url(#clip780)" d="M194.422 1423.18 L2352.76 1423.18 L2352.76 123.472 L194.422 123.472  Z" fill="#ffffff" fill-rule="evenodd" fill-opacity="1"></path>
<defs>
  <clipPath id="clip782">
    <rect x="194" y="123" width="2159" height="1301"></rect>
  </clipPath>
</defs>
<polyline clip-path="url(#clip782)" style="stroke:#000000; stroke-linecap:round; stroke-linejoin:round; stroke-width:2; stroke-opacity:0.1; fill:none" points="255.507,1423.18 255.507,123.472 "></polyline>
<polyline clip-path="url(#clip782)" style="stroke:#000000; stroke-linecap:round; stroke-linejoin:round; stroke-width:2; stroke-opacity:0.1; fill:none" points="606.57,1423.18 606.57,123.472 "></polyline>
<polyline clip-path="url(#clip782)" style="stroke:#000000; stroke-linecap:round; stroke-linejoin:round; stroke-width:2; stroke-opacity:0.1; fill:none" points="957.633,1423.18 957.633,123.472 "></polyline>
<polyline clip-path="url(#clip782)" style="stroke:#000000; stroke-linecap:round; stroke-linejoin:round; stroke-width:2; stroke-opacity:0.1; fill:none" points="1308.7,1423.18 1308.7,123.472 "></polyline>
<polyline clip-path="url(#clip782)" style="stroke:#000000; stroke-linecap:round; stroke-linejoin:round; stroke-width:2; stroke-opacity:0.1; fill:none" points="1659.76,1423.18 1659.76,123.472 "></polyline>
<polyline clip-path="url(#clip782)" style="stroke:#000000; stroke-linecap:round; stroke-linejoin:round; stroke-width:2; stroke-opacity:0.1; fill:none" points="2010.82,1423.18 2010.82,123.472 "></polyline>
<polyline clip-path="url(#clip782)" style="stroke:#000000; stroke-linecap:round; stroke-linejoin:round; stroke-width:2; stroke-opacity:0.1; fill:none" points="194.422,1209 2352.76,1209 "></polyline>
<polyline clip-path="url(#clip782)" style="stroke:#000000; stroke-linecap:round; stroke-linejoin:round; stroke-width:2; stroke-opacity:0.1; fill:none" points="194.422,946.815 2352.76,946.815 "></polyline>
<polyline clip-path="url(#clip782)" style="stroke:#000000; stroke-linecap:round; stroke-linejoin:round; stroke-width:2; stroke-opacity:0.1; fill:none" points="194.422,684.629 2352.76,684.629 "></polyline>
<polyline clip-path="url(#clip782)" style="stroke:#000000; stroke-linecap:round; stroke-linejoin:round; stroke-width:2; stroke-opacity:0.1; fill:none" points="194.422,422.443 2352.76,422.443 "></polyline>
<polyline clip-path="url(#clip782)" style="stroke:#000000; stroke-linecap:round; stroke-linejoin:round; stroke-width:2; stroke-opacity:0.1; fill:none" points="194.422,160.256 2352.76,160.256 "></polyline>
<polyline clip-path="url(#clip780)" style="stroke:#000000; stroke-linecap:round; stroke-linejoin:round; stroke-width:4; stroke-opacity:1; fill:none" points="194.422,1423.18 2352.76,1423.18 "></polyline>
<polyline clip-path="url(#clip780)" style="stroke:#000000; stroke-linecap:round; stroke-linejoin:round; stroke-width:4; stroke-opacity:1; fill:none" points="255.507,1423.18 255.507,1404.28 "></polyline>
<polyline clip-path="url(#clip780)" style="stroke:#000000; stroke-linecap:round; stroke-linejoin:round; stroke-width:4; stroke-opacity:1; fill:none" points="606.57,1423.18 606.57,1404.28 "></polyline>
<polyline clip-path="url(#clip780)" style="stroke:#000000; stroke-linecap:round; stroke-linejoin:round; stroke-width:4; stroke-opacity:1; fill:none" points="957.633,1423.18 957.633,1404.28 "></polyline>
<polyline clip-path="url(#clip780)" style="stroke:#000000; stroke-linecap:round; stroke-linejoin:round; stroke-width:4; stroke-opacity:1; fill:none" points="1308.7,1423.18 1308.7,1404.28 "></polyline>
<polyline clip-path="url(#clip780)" style="stroke:#000000; stroke-linecap:round; stroke-linejoin:round; stroke-width:4; stroke-opacity:1; fill:none" points="1659.76,1423.18 1659.76,1404.28 "></polyline>
<polyline clip-path="url(#clip780)" style="stroke:#000000; stroke-linecap:round; stroke-linejoin:round; stroke-width:4; stroke-opacity:1; fill:none" points="2010.82,1423.18 2010.82,1404.28 "></polyline>
<path clip-path="url(#clip780)" d="M255.507 1454.1 Q251.896 1454.1 250.067 1457.66 Q248.262 1461.2 248.262 1468.33 Q248.262 1475.44 250.067 1479.01 Q251.896 1482.55 255.507 1482.55 Q259.141 1482.55 260.947 1479.01 Q262.776 1475.44 262.776 1468.33 Q262.776 1461.2 260.947 1457.66 Q259.141 1454.1 255.507 1454.1 M255.507 1450.39 Q261.317 1450.39 264.373 1455 Q267.451 1459.58 267.451 1468.33 Q267.451 1477.06 264.373 1481.67 Q261.317 1486.25 255.507 1486.25 Q249.697 1486.25 246.618 1481.67 Q243.563 1477.06 243.563 1468.33 Q243.563 1459.58 246.618 1455 Q249.697 1450.39 255.507 1450.39 Z" fill="#000000" fill-rule="nonzero" fill-opacity="1"></path><path clip-path="url(#clip780)" d="M596.848 1451.02 L615.204 1451.02 L615.204 1454.96 L601.13 1454.96 L601.13 1463.43 Q602.149 1463.08 603.167 1462.92 Q604.186 1462.73 605.204 1462.73 Q610.991 1462.73 614.371 1465.9 Q617.75 1469.08 617.75 1474.49 Q617.75 1480.07 614.278 1483.17 Q610.806 1486.25 604.486 1486.25 Q602.311 1486.25 600.042 1485.88 Q597.797 1485.51 595.389 1484.77 L595.389 1480.07 Q597.473 1481.2 599.695 1481.76 Q601.917 1482.32 604.394 1482.32 Q608.398 1482.32 610.736 1480.21 Q613.074 1478.1 613.074 1474.49 Q613.074 1470.88 610.736 1468.77 Q608.398 1466.67 604.394 1466.67 Q602.519 1466.67 600.644 1467.08 Q598.792 1467.5 596.848 1468.38 L596.848 1451.02 Z" fill="#000000" fill-rule="nonzero" fill-opacity="1"></path><path clip-path="url(#clip780)" d="M932.32 1481.64 L939.959 1481.64 L939.959 1455.28 L931.649 1456.95 L931.649 1452.69 L939.913 1451.02 L944.589 1451.02 L944.589 1481.64 L952.227 1481.64 L952.227 1485.58 L932.32 1485.58 L932.32 1481.64 Z" fill="#000000" fill-rule="nonzero" fill-opacity="1"></path><path clip-path="url(#clip780)" d="M971.672 1454.1 Q968.061 1454.1 966.232 1457.66 Q964.426 1461.2 964.426 1468.33 Q964.426 1475.44 966.232 1479.01 Q968.061 1482.55 971.672 1482.55 Q975.306 1482.55 977.112 1479.01 Q978.94 1475.44 978.94 1468.33 Q978.94 1461.2 977.112 1457.66 Q975.306 1454.1 971.672 1454.1 M971.672 1450.39 Q977.482 1450.39 980.537 1455 Q983.616 1459.58 983.616 1468.33 Q983.616 1477.06 980.537 1481.67 Q977.482 1486.25 971.672 1486.25 Q965.862 1486.25 962.783 1481.67 Q959.727 1477.06 959.727 1468.33 Q959.727 1459.58 962.783 1455 Q965.862 1450.39 971.672 1450.39 Z" fill="#000000" fill-rule="nonzero" fill-opacity="1"></path><path clip-path="url(#clip780)" d="M1283.88 1481.64 L1291.52 1481.64 L1291.52 1455.28 L1283.21 1456.95 L1283.21 1452.69 L1291.47 1451.02 L1296.15 1451.02 L1296.15 1481.64 L1303.79 1481.64 L1303.79 1485.58 L1283.88 1485.58 L1283.88 1481.64 Z" fill="#000000" fill-rule="nonzero" fill-opacity="1"></path><path clip-path="url(#clip780)" d="M1313.28 1451.02 L1331.63 1451.02 L1331.63 1454.96 L1317.56 1454.96 L1317.56 1463.43 Q1318.58 1463.08 1319.6 1462.92 Q1320.62 1462.73 1321.64 1462.73 Q1327.42 1462.73 1330.8 1465.9 Q1334.18 1469.08 1334.18 1474.49 Q1334.18 1480.07 1330.71 1483.17 Q1327.24 1486.25 1320.92 1486.25 Q1318.74 1486.25 1316.47 1485.88 Q1314.23 1485.51 1311.82 1484.77 L1311.82 1480.07 Q1313.9 1481.2 1316.13 1481.76 Q1318.35 1482.32 1320.82 1482.32 Q1324.83 1482.32 1327.17 1480.21 Q1329.51 1478.1 1329.51 1474.49 Q1329.51 1470.88 1327.17 1468.77 Q1324.83 1466.67 1320.82 1466.67 Q1318.95 1466.67 1317.07 1467.08 Q1315.22 1467.5 1313.28 1468.38 L1313.28 1451.02 Z" fill="#000000" fill-rule="nonzero" fill-opacity="1"></path><path clip-path="url(#clip780)" d="M1638.53 1481.64 L1654.85 1481.64 L1654.85 1485.58 L1632.91 1485.58 L1632.91 1481.64 Q1635.57 1478.89 1640.15 1474.26 Q1644.76 1469.61 1645.94 1468.27 Q1648.18 1465.74 1649.06 1464.01 Q1649.97 1462.25 1649.97 1460.56 Q1649.97 1457.8 1648.02 1456.07 Q1646.1 1454.33 1643 1454.33 Q1640.8 1454.33 1638.35 1455.09 Q1635.92 1455.86 1633.14 1457.41 L1633.14 1452.69 Q1635.96 1451.55 1638.42 1450.97 Q1640.87 1450.39 1642.91 1450.39 Q1648.28 1450.39 1651.47 1453.08 Q1654.67 1455.77 1654.67 1460.26 Q1654.67 1462.39 1653.86 1464.31 Q1653.07 1466.2 1650.96 1468.8 Q1650.38 1469.47 1647.28 1472.69 Q1644.18 1475.88 1638.53 1481.64 Z" fill="#000000" fill-rule="nonzero" fill-opacity="1"></path><path clip-path="url(#clip780)" d="M1674.67 1454.1 Q1671.05 1454.1 1669.23 1457.66 Q1667.42 1461.2 1667.42 1468.33 Q1667.42 1475.44 1669.23 1479.01 Q1671.05 1482.55 1674.67 1482.55 Q1678.3 1482.55 1680.11 1479.01 Q1681.93 1475.44 1681.93 1468.33 Q1681.93 1461.2 1680.11 1457.66 Q1678.3 1454.1 1674.67 1454.1 M1674.67 1450.39 Q1680.48 1450.39 1683.53 1455 Q1686.61 1459.58 1686.61 1468.33 Q1686.61 1477.06 1683.53 1481.67 Q1680.48 1486.25 1674.67 1486.25 Q1668.86 1486.25 1665.78 1481.67 Q1662.72 1477.06 1662.72 1468.33 Q1662.72 1459.58 1665.78 1455 Q1668.86 1450.39 1674.67 1450.39 Z" fill="#000000" fill-rule="nonzero" fill-opacity="1"></path><path clip-path="url(#clip780)" d="M1990.09 1481.64 L2006.41 1481.64 L2006.41 1485.58 L1984.47 1485.58 L1984.47 1481.64 Q1987.13 1478.89 1991.71 1474.26 Q1996.32 1469.61 1997.5 1468.27 Q1999.74 1465.74 2000.62 1464.01 Q2001.53 1462.25 2001.53 1460.56 Q2001.53 1457.8 1999.58 1456.07 Q1997.66 1454.33 1994.56 1454.33 Q1992.36 1454.33 1989.91 1455.09 Q1987.48 1455.86 1984.7 1457.41 L1984.7 1452.69 Q1987.52 1451.55 1989.98 1450.97 Q1992.43 1450.39 1994.47 1450.39 Q1999.84 1450.39 2003.03 1453.08 Q2006.23 1455.77 2006.23 1460.26 Q2006.23 1462.39 2005.42 1464.31 Q2004.63 1466.2 2002.52 1468.8 Q2001.94 1469.47 1998.84 1472.69 Q1995.74 1475.88 1990.09 1481.64 Z" fill="#000000" fill-rule="nonzero" fill-opacity="1"></path><path clip-path="url(#clip780)" d="M2016.27 1451.02 L2034.63 1451.02 L2034.63 1454.96 L2020.55 1454.96 L2020.55 1463.43 Q2021.57 1463.08 2022.59 1462.92 Q2023.61 1462.73 2024.63 1462.73 Q2030.42 1462.73 2033.8 1465.9 Q2037.17 1469.08 2037.17 1474.49 Q2037.17 1480.07 2033.7 1483.17 Q2030.23 1486.25 2023.91 1486.25 Q2021.74 1486.25 2019.47 1485.88 Q2017.22 1485.51 2014.81 1484.77 L2014.81 1480.07 Q2016.9 1481.2 2019.12 1481.76 Q2021.34 1482.32 2023.82 1482.32 Q2027.82 1482.32 2030.16 1480.21 Q2032.5 1478.1 2032.5 1474.49 Q2032.5 1470.88 2030.16 1468.77 Q2027.82 1466.67 2023.82 1466.67 Q2021.94 1466.67 2020.07 1467.08 Q2018.22 1467.5 2016.27 1468.38 L2016.27 1451.02 Z" fill="#000000" fill-rule="nonzero" fill-opacity="1"></path><path clip-path="url(#clip780)" d="M1110.95 1520.52 L1151.14 1520.52 L1151.14 1525.93 L1134.28 1525.93 L1134.28 1568.04 L1127.81 1568.04 L1127.81 1525.93 L1110.95 1525.93 L1110.95 1520.52 Z" fill="#000000" fill-rule="nonzero" fill-opacity="1"></path><path clip-path="url(#clip780)" d="M1155.09 1532.4 L1160.95 1532.4 L1160.95 1568.04 L1155.09 1568.04 L1155.09 1532.4 M1155.09 1518.52 L1160.95 1518.52 L1160.95 1525.93 L1155.09 1525.93 L1155.09 1518.52 Z" fill="#000000" fill-rule="nonzero" fill-opacity="1"></path><path clip-path="url(#clip780)" d="M1200.96 1539.24 Q1203.15 1535.29 1206.21 1533.41 Q1209.26 1531.54 1213.4 1531.54 Q1218.97 1531.54 1221.99 1535.45 Q1225.02 1539.33 1225.02 1546.53 L1225.02 1568.04 L1219.13 1568.04 L1219.13 1546.72 Q1219.13 1541.59 1217.32 1539.11 Q1215.5 1536.63 1211.78 1536.63 Q1207.23 1536.63 1204.58 1539.65 Q1201.94 1542.68 1201.94 1547.9 L1201.94 1568.04 L1196.05 1568.04 L1196.05 1546.72 Q1196.05 1541.56 1194.24 1539.11 Q1192.43 1536.63 1188.64 1536.63 Q1184.15 1536.63 1181.51 1539.68 Q1178.87 1542.71 1178.87 1547.9 L1178.87 1568.04 L1172.98 1568.04 L1172.98 1532.4 L1178.87 1532.4 L1178.87 1537.93 Q1180.87 1534.66 1183.67 1533.1 Q1186.47 1531.54 1190.33 1531.54 Q1194.21 1531.54 1196.91 1533.51 Q1199.65 1535.48 1200.96 1539.24 Z" fill="#000000" fill-rule="nonzero" fill-opacity="1"></path><path clip-path="url(#clip780)" d="M1267.19 1548.76 L1267.19 1551.62 L1240.26 1551.62 Q1240.65 1557.67 1243.89 1560.85 Q1247.17 1564 1253 1564 Q1256.37 1564 1259.52 1563.17 Q1262.7 1562.35 1265.82 1560.69 L1265.82 1566.23 Q1262.67 1567.57 1259.36 1568.27 Q1256.05 1568.97 1252.65 1568.97 Q1244.12 1568.97 1239.12 1564 Q1234.15 1559.04 1234.15 1550.57 Q1234.15 1541.82 1238.86 1536.69 Q1243.61 1531.54 1251.63 1531.54 Q1258.82 1531.54 1262.99 1536.18 Q1267.19 1540.8 1267.19 1548.76 M1261.34 1547.04 Q1261.27 1542.23 1258.63 1539.37 Q1256.02 1536.5 1251.69 1536.5 Q1246.79 1536.5 1243.83 1539.27 Q1240.9 1542.04 1240.46 1547.07 L1261.34 1547.04 Z" fill="#000000" fill-rule="nonzero" fill-opacity="1"></path><path clip-path="url(#clip780)" d="M1326.27 1522.08 L1326.27 1528.35 Q1322.6 1526.6 1319.36 1525.74 Q1316.11 1524.88 1313.09 1524.88 Q1307.84 1524.88 1304.97 1526.92 Q1302.14 1528.96 1302.14 1532.71 Q1302.14 1535.87 1304.02 1537.49 Q1305.93 1539.08 1311.21 1540.07 L1315.09 1540.86 Q1322.29 1542.23 1325.69 1545.7 Q1329.13 1549.14 1329.13 1554.93 Q1329.13 1561.84 1324.48 1565.4 Q1319.87 1568.97 1310.92 1568.97 Q1307.55 1568.97 1303.73 1568.2 Q1299.94 1567.44 1295.87 1565.94 L1295.87 1559.32 Q1299.78 1561.52 1303.54 1562.63 Q1307.3 1563.75 1310.92 1563.75 Q1316.43 1563.75 1319.42 1561.58 Q1322.41 1559.42 1322.41 1555.41 Q1322.41 1551.91 1320.25 1549.93 Q1318.12 1547.96 1313.22 1546.97 L1309.3 1546.21 Q1302.11 1544.78 1298.89 1541.72 Q1295.68 1538.67 1295.68 1533.22 Q1295.68 1526.92 1300.1 1523.29 Q1304.56 1519.66 1312.36 1519.66 Q1315.7 1519.66 1319.17 1520.27 Q1322.64 1520.87 1326.27 1522.08 Z" fill="#000000" fill-rule="nonzero" fill-opacity="1"></path><path clip-path="url(#clip780)" d="M1344.69 1522.27 L1344.69 1532.4 L1356.76 1532.4 L1356.76 1536.95 L1344.69 1536.95 L1344.69 1556.3 Q1344.69 1560.66 1345.87 1561.9 Q1347.08 1563.14 1350.74 1563.14 L1356.76 1563.14 L1356.76 1568.04 L1350.74 1568.04 Q1343.96 1568.04 1341.38 1565.53 Q1338.81 1562.98 1338.81 1556.3 L1338.81 1536.95 L1334.51 1536.95 L1334.51 1532.4 L1338.81 1532.4 L1338.81 1522.27 L1344.69 1522.27 Z" fill="#000000" fill-rule="nonzero" fill-opacity="1"></path><path clip-path="url(#clip780)" d="M1394.95 1548.76 L1394.95 1551.62 L1368.02 1551.62 Q1368.41 1557.67 1371.65 1560.85 Q1374.93 1564 1380.76 1564 Q1384.13 1564 1387.28 1563.17 Q1390.46 1562.35 1393.58 1560.69 L1393.58 1566.23 Q1390.43 1567.57 1387.12 1568.27 Q1383.81 1568.97 1380.41 1568.97 Q1371.88 1568.97 1366.88 1564 Q1361.91 1559.04 1361.91 1550.57 Q1361.91 1541.82 1366.62 1536.69 Q1371.37 1531.54 1379.39 1531.54 Q1386.58 1531.54 1390.75 1536.18 Q1394.95 1540.8 1394.95 1548.76 M1389.09 1547.04 Q1389.03 1542.23 1386.39 1539.37 Q1383.78 1536.5 1379.45 1536.5 Q1374.55 1536.5 1371.59 1539.27 Q1368.66 1542.04 1368.22 1547.07 L1389.09 1547.04 Z" fill="#000000" fill-rule="nonzero" fill-opacity="1"></path><path clip-path="url(#clip780)" d="M1410.23 1562.7 L1410.23 1581.6 L1404.34 1581.6 L1404.34 1532.4 L1410.23 1532.4 L1410.23 1537.81 Q1412.07 1534.62 1414.88 1533.1 Q1417.71 1531.54 1421.62 1531.54 Q1428.12 1531.54 1432.16 1536.69 Q1436.23 1541.85 1436.23 1550.25 Q1436.23 1558.65 1432.16 1563.81 Q1428.12 1568.97 1421.62 1568.97 Q1417.71 1568.97 1414.88 1567.44 Q1412.07 1565.88 1410.23 1562.7 M1430.15 1550.25 Q1430.15 1543.79 1427.48 1540.13 Q1424.84 1536.44 1420.19 1536.44 Q1415.54 1536.44 1412.87 1540.13 Q1410.23 1543.79 1410.23 1550.25 Q1410.23 1556.71 1412.87 1560.4 Q1415.54 1564.07 1420.19 1564.07 Q1424.84 1564.07 1427.48 1560.4 Q1430.15 1556.71 1430.15 1550.25 Z" fill="#000000" fill-rule="nonzero" fill-opacity="1"></path><polyline clip-path="url(#clip780)" style="stroke:#000000; stroke-linecap:round; stroke-linejoin:round; stroke-width:4; stroke-opacity:1; fill:none" points="194.422,1423.18 194.422,123.472 "></polyline>
<polyline clip-path="url(#clip780)" style="stroke:#000000; stroke-linecap:round; stroke-linejoin:round; stroke-width:4; stroke-opacity:1; fill:none" points="194.422,1209 213.32,1209 "></polyline>
<polyline clip-path="url(#clip780)" style="stroke:#000000; stroke-linecap:round; stroke-linejoin:round; stroke-width:4; stroke-opacity:1; fill:none" points="194.422,946.815 213.32,946.815 "></polyline>
<polyline clip-path="url(#clip780)" style="stroke:#000000; stroke-linecap:round; stroke-linejoin:round; stroke-width:4; stroke-opacity:1; fill:none" points="194.422,684.629 213.32,684.629 "></polyline>
<polyline clip-path="url(#clip780)" style="stroke:#000000; stroke-linecap:round; stroke-linejoin:round; stroke-width:4; stroke-opacity:1; fill:none" points="194.422,422.443 213.32,422.443 "></polyline>
<polyline clip-path="url(#clip780)" style="stroke:#000000; stroke-linecap:round; stroke-linejoin:round; stroke-width:4; stroke-opacity:1; fill:none" points="194.422,160.256 213.32,160.256 "></polyline>
<path clip-path="url(#clip780)" d="M51.5708 1209.45 L81.2466 1209.45 L81.2466 1213.39 L51.5708 1213.39 L51.5708 1209.45 Z" fill="#000000" fill-rule="nonzero" fill-opacity="1"></path><path clip-path="url(#clip780)" d="M101.339 1194.8 Q97.728 1194.8 95.8993 1198.37 Q94.0937 1201.91 94.0937 1209.04 Q94.0937 1216.14 95.8993 1219.71 Q97.728 1223.25 101.339 1223.25 Q104.973 1223.25 106.779 1219.71 Q108.608 1216.14 108.608 1209.04 Q108.608 1201.91 106.779 1198.37 Q104.973 1194.8 101.339 1194.8 M101.339 1191.1 Q107.149 1191.1 110.205 1195.7 Q113.283 1200.29 113.283 1209.04 Q113.283 1217.76 110.205 1222.37 Q107.149 1226.95 101.339 1226.95 Q95.5289 1226.95 92.4502 1222.37 Q89.3947 1217.76 89.3947 1209.04 Q89.3947 1200.29 92.4502 1195.7 Q95.5289 1191.1 101.339 1191.1 Z" fill="#000000" fill-rule="nonzero" fill-opacity="1"></path><path clip-path="url(#clip780)" d="M121.501 1220.4 L126.385 1220.4 L126.385 1226.28 L121.501 1226.28 L121.501 1220.4 Z" fill="#000000" fill-rule="nonzero" fill-opacity="1"></path><path clip-path="url(#clip780)" d="M146.57 1209.87 Q143.237 1209.87 141.316 1211.65 Q139.418 1213.43 139.418 1216.56 Q139.418 1219.68 141.316 1221.47 Q143.237 1223.25 146.57 1223.25 Q149.904 1223.25 151.825 1221.47 Q153.746 1219.66 153.746 1216.56 Q153.746 1213.43 151.825 1211.65 Q149.927 1209.87 146.57 1209.87 M141.894 1207.88 Q138.885 1207.14 137.195 1205.08 Q135.529 1203.02 135.529 1200.06 Q135.529 1195.91 138.469 1193.5 Q141.431 1191.1 146.57 1191.1 Q151.732 1191.1 154.672 1193.5 Q157.612 1195.91 157.612 1200.06 Q157.612 1203.02 155.922 1205.08 Q154.255 1207.14 151.269 1207.88 Q154.649 1208.67 156.524 1210.96 Q158.422 1213.25 158.422 1216.56 Q158.422 1221.58 155.343 1224.27 Q152.288 1226.95 146.57 1226.95 Q140.853 1226.95 137.774 1224.27 Q134.719 1221.58 134.719 1216.56 Q134.719 1213.25 136.617 1210.96 Q138.515 1208.67 141.894 1207.88 M140.181 1200.49 Q140.181 1203.18 141.848 1204.68 Q143.538 1206.19 146.57 1206.19 Q149.58 1206.19 151.269 1204.68 Q152.982 1203.18 152.982 1200.49 Q152.982 1197.81 151.269 1196.31 Q149.58 1194.8 146.57 1194.8 Q143.538 1194.8 141.848 1196.31 Q140.181 1197.81 140.181 1200.49 Z" fill="#000000" fill-rule="nonzero" fill-opacity="1"></path><path clip-path="url(#clip780)" d="M51.3162 947.267 L80.992 947.267 L80.992 951.202 L51.3162 951.202 L51.3162 947.267 Z" fill="#000000" fill-rule="nonzero" fill-opacity="1"></path><path clip-path="url(#clip780)" d="M101.084 932.614 Q97.4734 932.614 95.6447 936.179 Q93.8391 939.721 93.8391 946.85 Q93.8391 953.957 95.6447 957.521 Q97.4734 961.063 101.084 961.063 Q104.719 961.063 106.524 957.521 Q108.353 953.957 108.353 946.85 Q108.353 939.721 106.524 936.179 Q104.719 932.614 101.084 932.614 M101.084 928.91 Q106.895 928.91 109.95 933.517 Q113.029 938.1 113.029 946.85 Q113.029 955.577 109.95 960.183 Q106.895 964.767 101.084 964.767 Q95.2743 964.767 92.1956 960.183 Q89.1401 955.577 89.1401 946.85 Q89.1401 938.1 92.1956 933.517 Q95.2743 928.91 101.084 928.91 Z" fill="#000000" fill-rule="nonzero" fill-opacity="1"></path><path clip-path="url(#clip780)" d="M121.246 958.216 L126.131 958.216 L126.131 964.095 L121.246 964.095 L121.246 958.216 Z" fill="#000000" fill-rule="nonzero" fill-opacity="1"></path><path clip-path="url(#clip780)" d="M146.894 944.952 Q143.746 944.952 141.894 947.105 Q140.066 949.258 140.066 953.008 Q140.066 956.734 141.894 958.91 Q143.746 961.063 146.894 961.063 Q150.043 961.063 151.871 958.91 Q153.723 956.734 153.723 953.008 Q153.723 949.258 151.871 947.105 Q150.043 944.952 146.894 944.952 M156.177 930.299 L156.177 934.559 Q154.417 933.725 152.612 933.285 Q150.83 932.846 149.07 932.846 Q144.441 932.846 141.987 935.971 Q139.556 939.096 139.209 945.415 Q140.575 943.401 142.635 942.336 Q144.695 941.248 147.172 941.248 Q152.38 941.248 155.39 944.42 Q158.422 947.568 158.422 953.008 Q158.422 958.332 155.274 961.549 Q152.126 964.767 146.894 964.767 Q140.899 964.767 137.728 960.183 Q134.556 955.577 134.556 946.85 Q134.556 938.656 138.445 933.795 Q142.334 928.91 148.885 928.91 Q150.644 928.91 152.427 929.258 Q154.232 929.605 156.177 930.299 Z" fill="#000000" fill-rule="nonzero" fill-opacity="1"></path><path clip-path="url(#clip780)" d="M50.9921 685.08 L80.6679 685.08 L80.6679 689.016 L50.9921 689.016 L50.9921 685.08 Z" fill="#000000" fill-rule="nonzero" fill-opacity="1"></path><path clip-path="url(#clip780)" d="M100.76 670.428 Q97.1493 670.428 95.3206 673.993 Q93.515 677.534 93.515 684.664 Q93.515 691.77 95.3206 695.335 Q97.1493 698.877 100.76 698.877 Q104.395 698.877 106.2 695.335 Q108.029 691.77 108.029 684.664 Q108.029 677.534 106.2 673.993 Q104.395 670.428 100.76 670.428 M100.76 666.724 Q106.571 666.724 109.626 671.331 Q112.705 675.914 112.705 684.664 Q112.705 693.391 109.626 697.997 Q106.571 702.58 100.76 702.58 Q94.9502 702.58 91.8715 697.997 Q88.816 693.391 88.816 684.664 Q88.816 675.914 91.8715 671.331 Q94.9502 666.724 100.76 666.724 Z" fill="#000000" fill-rule="nonzero" fill-opacity="1"></path><path clip-path="url(#clip780)" d="M120.922 696.029 L125.807 696.029 L125.807 701.909 L120.922 701.909 L120.922 696.029 Z" fill="#000000" fill-rule="nonzero" fill-opacity="1"></path><path clip-path="url(#clip780)" d="M148.839 671.423 L137.033 689.872 L148.839 689.872 L148.839 671.423 M147.612 667.349 L153.492 667.349 L153.492 689.872 L158.422 689.872 L158.422 693.761 L153.492 693.761 L153.492 701.909 L148.839 701.909 L148.839 693.761 L133.237 693.761 L133.237 689.247 L147.612 667.349 Z" fill="#000000" fill-rule="nonzero" fill-opacity="1"></path><path clip-path="url(#clip780)" d="M53.0754 422.894 L82.7512 422.894 L82.7512 426.829 L53.0754 426.829 L53.0754 422.894 Z" fill="#000000" fill-rule="nonzero" fill-opacity="1"></path><path clip-path="url(#clip780)" d="M102.844 408.241 Q99.2326 408.241 97.4039 411.806 Q95.5984 415.348 95.5984 422.477 Q95.5984 429.584 97.4039 433.149 Q99.2326 436.69 102.844 436.69 Q106.478 436.69 108.283 433.149 Q110.112 429.584 110.112 422.477 Q110.112 415.348 108.283 411.806 Q106.478 408.241 102.844 408.241 M102.844 404.538 Q108.654 404.538 111.709 409.144 Q114.788 413.727 114.788 422.477 Q114.788 431.204 111.709 435.811 Q108.654 440.394 102.844 440.394 Q97.0335 440.394 93.9549 435.811 Q90.8993 431.204 90.8993 422.477 Q90.8993 413.727 93.9549 409.144 Q97.0335 404.538 102.844 404.538 Z" fill="#000000" fill-rule="nonzero" fill-opacity="1"></path><path clip-path="url(#clip780)" d="M123.006 433.843 L127.89 433.843 L127.89 439.723 L123.006 439.723 L123.006 433.843 Z" fill="#000000" fill-rule="nonzero" fill-opacity="1"></path><path clip-path="url(#clip780)" d="M142.103 435.788 L158.422 435.788 L158.422 439.723 L136.478 439.723 L136.478 435.788 Q139.14 433.033 143.723 428.403 Q148.33 423.751 149.51 422.408 Q151.755 419.885 152.635 418.149 Q153.538 416.389 153.538 414.7 Q153.538 411.945 151.593 410.209 Q149.672 408.473 146.57 408.473 Q144.371 408.473 141.918 409.237 Q139.487 410.001 136.709 411.552 L136.709 406.829 Q139.533 405.695 141.987 405.116 Q144.441 404.538 146.478 404.538 Q151.848 404.538 155.042 407.223 Q158.237 409.908 158.237 414.399 Q158.237 416.528 157.427 418.45 Q156.64 420.348 154.533 422.94 Q153.955 423.612 150.853 426.829 Q147.751 430.024 142.103 435.788 Z" fill="#000000" fill-rule="nonzero" fill-opacity="1"></path><path clip-path="url(#clip780)" d="M101.246 146.055 Q97.6354 146.055 95.8067 149.62 Q94.0012 153.161 94.0012 160.291 Q94.0012 167.397 95.8067 170.962 Q97.6354 174.504 101.246 174.504 Q104.881 174.504 106.686 170.962 Q108.515 167.397 108.515 160.291 Q108.515 153.161 106.686 149.62 Q104.881 146.055 101.246 146.055 M101.246 142.351 Q107.057 142.351 110.112 146.958 Q113.191 151.541 113.191 160.291 Q113.191 169.018 110.112 173.624 Q107.057 178.208 101.246 178.208 Q95.4363 178.208 92.3576 173.624 Q89.3021 169.018 89.3021 160.291 Q89.3021 151.541 92.3576 146.958 Q95.4363 142.351 101.246 142.351 Z" fill="#000000" fill-rule="nonzero" fill-opacity="1"></path><path clip-path="url(#clip780)" d="M121.408 171.657 L126.293 171.657 L126.293 177.536 L121.408 177.536 L121.408 171.657 Z" fill="#000000" fill-rule="nonzero" fill-opacity="1"></path><path clip-path="url(#clip780)" d="M146.478 146.055 Q142.867 146.055 141.038 149.62 Q139.232 153.161 139.232 160.291 Q139.232 167.397 141.038 170.962 Q142.867 174.504 146.478 174.504 Q150.112 174.504 151.918 170.962 Q153.746 167.397 153.746 160.291 Q153.746 153.161 151.918 149.62 Q150.112 146.055 146.478 146.055 M146.478 142.351 Q152.288 142.351 155.343 146.958 Q158.422 151.541 158.422 160.291 Q158.422 169.018 155.343 173.624 Q152.288 178.208 146.478 178.208 Q140.668 178.208 137.589 173.624 Q134.533 169.018 134.533 160.291 Q134.533 151.541 137.589 146.958 Q140.668 142.351 146.478 142.351 Z" fill="#000000" fill-rule="nonzero" fill-opacity="1"></path><path clip-path="url(#clip780)" d="M236.436 65.6895 L264.995 65.6895 L264.995 72.576 L226.592 72.576 L226.592 65.6895 Q231.251 60.8689 239.272 52.7671 Q247.333 44.6248 249.399 42.2752 Q253.328 37.8598 254.868 34.8216 Q256.447 31.7429 256.447 28.7857 Q256.447 23.9651 253.045 20.927 Q249.682 17.8888 244.254 17.8888 Q240.406 17.8888 236.112 19.2256 Q231.858 20.5624 226.997 23.2765 L226.997 15.0127 Q231.939 13.0277 236.233 12.015 Q240.527 11.0023 244.092 11.0023 Q253.49 11.0023 259.081 15.7013 Q264.671 20.4004 264.671 28.2591 Q264.671 31.9859 263.253 35.3482 Q261.876 38.6699 258.189 43.2069 Q257.177 44.3817 251.748 50.0125 Q246.32 55.6027 236.436 65.6895 Z" fill="#000000" fill-rule="nonzero" fill-opacity="1"></path><path clip-path="url(#clip780)" d="M353.102 16.7545 L353.102 25.383 Q348.97 21.5346 344.271 19.6307 Q339.613 17.7268 334.346 17.7268 Q323.976 17.7268 318.467 24.0867 Q312.958 30.4061 312.958 42.3968 Q312.958 54.3469 318.467 60.7069 Q323.976 67.0263 334.346 67.0263 Q339.613 67.0263 344.271 65.1223 Q348.97 63.2184 353.102 59.3701 L353.102 67.9175 Q348.808 70.8341 343.988 72.2924 Q339.207 73.7508 333.86 73.7508 Q320.128 73.7508 312.228 65.3654 Q304.329 56.9395 304.329 42.3968 Q304.329 27.8135 312.228 19.4281 Q320.128 11.0023 333.86 11.0023 Q339.288 11.0023 344.069 12.4606 Q348.889 13.8784 353.102 16.7545 Z" fill="#000000" fill-rule="nonzero" fill-opacity="1"></path><path clip-path="url(#clip780)" d="M382.998 32.4315 Q377.002 32.4315 373.519 37.1306 Q370.035 41.7891 370.035 49.9314 Q370.035 58.0738 373.478 62.7728 Q376.962 67.4314 382.998 67.4314 Q388.953 67.4314 392.436 62.7323 Q395.92 58.0333 395.92 49.9314 Q395.92 41.8701 392.436 37.1711 Q388.953 32.4315 382.998 32.4315 M382.998 26.1121 Q392.72 26.1121 398.27 32.4315 Q403.819 38.7509 403.819 49.9314 Q403.819 61.0714 398.27 67.4314 Q392.72 73.7508 382.998 73.7508 Q373.235 73.7508 367.685 67.4314 Q362.176 61.0714 362.176 49.9314 Q362.176 38.7509 367.685 32.4315 Q373.235 26.1121 382.998 26.1121 Z" fill="#000000" fill-rule="nonzero" fill-opacity="1"></path><path clip-path="url(#clip780)" d="M451.499 35.9153 Q454.294 30.8922 458.182 28.5022 Q462.071 26.1121 467.338 26.1121 Q474.427 26.1121 478.275 31.0947 Q482.123 36.0368 482.123 45.1919 L482.123 72.576 L474.629 72.576 L474.629 45.4349 Q474.629 38.913 472.32 35.7533 Q470.011 32.5936 465.272 32.5936 Q459.479 32.5936 456.117 36.4419 Q452.754 40.2903 452.754 46.9338 L452.754 72.576 L445.26 72.576 L445.26 45.4349 Q445.26 38.8725 442.951 35.7533 Q440.642 32.5936 435.822 32.5936 Q430.11 32.5936 426.747 36.4824 Q423.385 40.3308 423.385 46.9338 L423.385 72.576 L415.891 72.576 L415.891 27.2059 L423.385 27.2059 L423.385 34.2544 Q425.937 30.082 429.502 28.0971 Q433.067 26.1121 437.968 26.1121 Q442.911 26.1121 446.354 28.6237 Q449.838 31.1352 451.499 35.9153 Z" fill="#000000" fill-rule="nonzero" fill-opacity="1"></path><path clip-path="url(#clip780)" d="M532.314 35.9153 Q535.109 30.8922 538.998 28.5022 Q542.887 26.1121 548.153 26.1121 Q555.242 26.1121 559.091 31.0947 Q562.939 36.0368 562.939 45.1919 L562.939 72.576 L555.445 72.576 L555.445 45.4349 Q555.445 38.913 553.136 35.7533 Q550.827 32.5936 546.087 32.5936 Q540.294 32.5936 536.932 36.4419 Q533.57 40.2903 533.57 46.9338 L533.57 72.576 L526.076 72.576 L526.076 45.4349 Q526.076 38.8725 523.767 35.7533 Q521.458 32.5936 516.637 32.5936 Q510.925 32.5936 507.563 36.4824 Q504.201 40.3308 504.201 46.9338 L504.201 72.576 L496.707 72.576 L496.707 27.2059 L504.201 27.2059 L504.201 34.2544 Q506.753 30.082 510.318 28.0971 Q513.882 26.1121 518.784 26.1121 Q523.726 26.1121 527.169 28.6237 Q530.653 31.1352 532.314 35.9153 Z" fill="#000000" fill-rule="nonzero" fill-opacity="1"></path><path clip-path="url(#clip780)" d="M577.036 54.671 L577.036 27.2059 L584.49 27.2059 L584.49 54.3874 Q584.49 60.8284 587.001 64.0691 Q589.513 67.2693 594.536 67.2693 Q600.572 67.2693 604.056 63.421 Q607.58 59.5726 607.58 52.9291 L607.58 27.2059 L615.034 27.2059 L615.034 72.576 L607.58 72.576 L607.58 65.6084 Q604.866 69.7404 601.26 71.7658 Q597.696 73.7508 592.956 73.7508 Q585.138 73.7508 581.087 68.8897 Q577.036 64.0286 577.036 54.671 M595.792 26.1121 L595.792 26.1121 Z" fill="#000000" fill-rule="nonzero" fill-opacity="1"></path><path clip-path="url(#clip780)" d="M668.1 45.1919 L668.1 72.576 L660.647 72.576 L660.647 45.4349 Q660.647 38.994 658.135 35.7938 Q655.624 32.5936 650.6 32.5936 Q644.565 32.5936 641.081 36.4419 Q637.597 40.2903 637.597 46.9338 L637.597 72.576 L630.103 72.576 L630.103 27.2059 L637.597 27.2059 L637.597 34.2544 Q640.271 30.163 643.876 28.1376 Q647.522 26.1121 652.261 26.1121 Q660.08 26.1121 664.09 30.9732 Q668.1 35.7938 668.1 45.1919 Z" fill="#000000" fill-rule="nonzero" fill-opacity="1"></path><path clip-path="url(#clip780)" d="M682.967 27.2059 L690.421 27.2059 L690.421 72.576 L682.967 72.576 L682.967 27.2059 M682.967 9.54393 L690.421 9.54393 L690.421 18.9825 L682.967 18.9825 L682.967 9.54393 Z" fill="#000000" fill-rule="nonzero" fill-opacity="1"></path><path clip-path="url(#clip780)" d="M713.389 14.324 L713.389 27.2059 L728.742 27.2059 L728.742 32.9987 L713.389 32.9987 L713.389 57.6282 Q713.389 63.1779 714.888 64.7578 Q716.428 66.3376 721.086 66.3376 L728.742 66.3376 L728.742 72.576 L721.086 72.576 Q712.458 72.576 709.177 69.3758 Q705.895 66.1351 705.895 57.6282 L705.895 32.9987 L700.427 32.9987 L700.427 27.2059 L705.895 27.2059 L705.895 14.324 L713.389 14.324 Z" fill="#000000" fill-rule="nonzero" fill-opacity="1"></path><path clip-path="url(#clip780)" d="M738.546 27.2059 L745.999 27.2059 L745.999 72.576 L738.546 72.576 L738.546 27.2059 M738.546 9.54393 L745.999 9.54393 L745.999 18.9825 L738.546 18.9825 L738.546 9.54393 Z" fill="#000000" fill-rule="nonzero" fill-opacity="1"></path><path clip-path="url(#clip780)" d="M800.403 48.0275 L800.403 51.6733 L766.132 51.6733 Q766.618 59.3701 770.75 63.421 Q774.923 67.4314 782.336 67.4314 Q786.63 67.4314 790.64 66.3781 Q794.691 65.3249 798.661 63.2184 L798.661 70.267 Q794.651 71.9684 790.438 72.8596 Q786.225 73.7508 781.89 73.7508 Q771.034 73.7508 764.674 67.4314 Q758.354 61.1119 758.354 50.3365 Q758.354 39.1965 764.35 32.6746 Q770.386 26.1121 780.594 26.1121 Q789.749 26.1121 795.056 32.0264 Q800.403 37.9003 800.403 48.0275 M792.949 45.84 Q792.868 39.7232 789.506 36.0774 Q786.184 32.4315 780.675 32.4315 Q774.437 32.4315 770.669 35.9558 Q766.942 39.4801 766.375 45.8805 L792.949 45.84 Z" fill="#000000" fill-rule="nonzero" fill-opacity="1"></path><path clip-path="url(#clip780)" d="M841.56 28.5427 L841.56 35.5912 Q838.4 33.9709 834.998 33.1607 Q831.595 32.3505 827.949 32.3505 Q822.399 32.3505 819.604 34.0519 Q816.85 35.7533 816.85 39.156 Q816.85 41.7486 818.834 43.2475 Q820.819 44.7058 826.815 46.0426 L829.367 46.6097 Q837.307 48.3111 840.628 51.4303 Q843.991 54.509 843.991 60.0587 Q843.991 66.3781 838.967 70.0644 Q833.985 73.7508 825.235 73.7508 Q821.589 73.7508 817.619 73.0216 Q813.69 72.3329 809.315 70.9151 L809.315 63.2184 Q813.447 65.3654 817.457 66.4591 Q821.468 67.5124 825.397 67.5124 Q830.663 67.5124 833.499 65.73 Q836.334 63.9071 836.334 60.6258 Q836.334 57.5877 834.268 55.9673 Q832.243 54.3469 825.316 52.8481 L822.723 52.2405 Q815.796 50.7821 812.718 47.7845 Q809.639 44.7463 809.639 39.4801 Q809.639 33.0797 814.176 29.5959 Q818.713 26.1121 827.058 26.1121 Q831.19 26.1121 834.836 26.7198 Q838.481 27.3274 841.56 28.5427 Z" fill="#000000" fill-rule="nonzero" fill-opacity="1"></path><path clip-path="url(#clip780)" d="M882.555 12.096 L890.738 12.096 L890.738 68.3631 Q890.738 79.3005 886.566 84.2426 Q882.434 89.1847 873.238 89.1847 L870.119 89.1847 L870.119 82.2982 L872.671 82.2982 Q878.099 82.2982 880.327 79.26 Q882.555 76.2218 882.555 68.3631 L882.555 12.096 Z" fill="#000000" fill-rule="nonzero" fill-opacity="1"></path><path clip-path="url(#clip780)" d="M924.28 32.4315 Q918.284 32.4315 914.8 37.1306 Q911.317 41.7891 911.317 49.9314 Q911.317 58.0738 914.76 62.7728 Q918.244 67.4314 924.28 67.4314 Q930.234 67.4314 933.718 62.7323 Q937.202 58.0333 937.202 49.9314 Q937.202 41.8701 933.718 37.1711 Q930.234 32.4315 924.28 32.4315 M924.28 26.1121 Q934.002 26.1121 939.551 32.4315 Q945.101 38.7509 945.101 49.9314 Q945.101 61.0714 939.551 67.4314 Q934.002 73.7508 924.28 73.7508 Q914.517 73.7508 908.967 67.4314 Q903.458 61.0714 903.458 49.9314 Q903.458 38.7509 908.967 32.4315 Q914.517 26.1121 924.28 26.1121 Z" fill="#000000" fill-rule="nonzero" fill-opacity="1"></path><path clip-path="url(#clip780)" d="M957.456 27.2059 L964.91 27.2059 L964.91 72.576 L957.456 72.576 L957.456 27.2059 M957.456 9.54393 L964.91 9.54393 L964.91 18.9825 L957.456 18.9825 L957.456 9.54393 Z" fill="#000000" fill-rule="nonzero" fill-opacity="1"></path><path clip-path="url(#clip780)" d="M1018.22 45.1919 L1018.22 72.576 L1010.77 72.576 L1010.77 45.4349 Q1010.77 38.994 1008.25 35.7938 Q1005.74 32.5936 1000.72 32.5936 Q994.684 32.5936 991.2 36.4419 Q987.717 40.2903 987.717 46.9338 L987.717 72.576 L980.223 72.576 L980.223 27.2059 L987.717 27.2059 L987.717 34.2544 Q990.39 30.163 993.996 28.1376 Q997.641 26.1121 1002.38 26.1121 Q1010.2 26.1121 1014.21 30.9732 Q1018.22 35.7938 1018.22 45.1919 Z" fill="#000000" fill-rule="nonzero" fill-opacity="1"></path><path clip-path="url(#clip780)" d="M1033.09 27.2059 L1040.54 27.2059 L1040.54 72.576 L1033.09 72.576 L1033.09 27.2059 M1033.09 9.54393 L1040.54 9.54393 L1040.54 18.9825 L1033.09 18.9825 L1033.09 9.54393 Z" fill="#000000" fill-rule="nonzero" fill-opacity="1"></path><path clip-path="url(#clip780)" d="M1093.85 45.1919 L1093.85 72.576 L1086.4 72.576 L1086.4 45.4349 Q1086.4 38.994 1083.89 35.7938 Q1081.37 32.5936 1076.35 32.5936 Q1070.31 32.5936 1066.83 36.4419 Q1063.35 40.2903 1063.35 46.9338 L1063.35 72.576 L1055.85 72.576 L1055.85 27.2059 L1063.35 27.2059 L1063.35 34.2544 Q1066.02 30.163 1069.63 28.1376 Q1073.27 26.1121 1078.01 26.1121 Q1085.83 26.1121 1089.84 30.9732 Q1093.85 35.7938 1093.85 45.1919 Z" fill="#000000" fill-rule="nonzero" fill-opacity="1"></path><path clip-path="url(#clip780)" d="M1138.57 49.3643 Q1138.57 41.2625 1135.21 36.8065 Q1131.89 32.3505 1125.85 32.3505 Q1119.86 32.3505 1116.49 36.8065 Q1113.17 41.2625 1113.17 49.3643 Q1113.17 57.4256 1116.49 61.8816 Q1119.86 66.3376 1125.85 66.3376 Q1131.89 66.3376 1135.21 61.8816 Q1138.57 57.4256 1138.57 49.3643 M1146.03 66.9452 Q1146.03 78.5308 1140.88 84.1616 Q1135.74 89.8329 1125.12 89.8329 Q1121.19 89.8329 1117.71 89.2252 Q1114.23 88.6581 1110.95 87.4428 L1110.95 80.1917 Q1114.23 81.9741 1117.43 82.8248 Q1120.63 83.6755 1123.95 83.6755 Q1131.28 83.6755 1134.93 79.8271 Q1138.57 76.0193 1138.57 68.282 L1138.57 64.5957 Q1136.26 68.6061 1132.66 70.5911 Q1129.05 72.576 1124.03 72.576 Q1115.68 72.576 1110.58 66.2161 Q1105.48 59.8562 1105.48 49.3643 Q1105.48 38.832 1110.58 32.472 Q1115.68 26.1121 1124.03 26.1121 Q1129.05 26.1121 1132.66 28.0971 Q1136.26 30.082 1138.57 34.0924 L1138.57 27.2059 L1146.03 27.2059 L1146.03 66.9452 Z" fill="#000000" fill-rule="nonzero" fill-opacity="1"></path><path clip-path="url(#clip780)" d="M1217.61 34.0924 L1217.61 9.54393 L1225.06 9.54393 L1225.06 72.576 L1217.61 72.576 L1217.61 65.7705 Q1215.26 69.8214 1211.65 71.8063 Q1208.09 73.7508 1203.06 73.7508 Q1194.84 73.7508 1189.65 67.1883 Q1184.51 60.6258 1184.51 49.9314 Q1184.51 39.2371 1189.65 32.6746 Q1194.84 26.1121 1203.06 26.1121 Q1208.09 26.1121 1211.65 28.0971 Q1215.26 30.0415 1217.61 34.0924 M1192.21 49.9314 Q1192.21 58.1548 1195.57 62.8538 Q1198.97 67.5124 1204.89 67.5124 Q1210.8 67.5124 1214.2 62.8538 Q1217.61 58.1548 1217.61 49.9314 Q1217.61 41.7081 1214.2 37.0496 Q1210.8 32.3505 1204.89 32.3505 Q1198.97 32.3505 1195.57 37.0496 Q1192.21 41.7081 1192.21 49.9314 Z" fill="#000000" fill-rule="nonzero" fill-opacity="1"></path><path clip-path="url(#clip780)" d="M1242.88 65.6895 L1256.25 65.6895 L1256.25 19.5497 L1241.71 22.4663 L1241.71 15.0127 L1256.17 12.096 L1264.35 12.096 L1264.35 65.6895 L1277.72 65.6895 L1277.72 72.576 L1242.88 72.576 L1242.88 65.6895 Z" fill="#000000" fill-rule="nonzero" fill-opacity="1"></path><path clip-path="url(#clip780)" d="M1295.1 62.2867 L1303.65 62.2867 L1303.65 69.2543 L1297 82.2172 L1291.78 82.2172 L1295.1 69.2543 L1295.1 62.2867 Z" fill="#000000" fill-rule="nonzero" fill-opacity="1"></path><path clip-path="url(#clip780)" d="M1381.26 35.9153 Q1384.06 30.8922 1387.95 28.5022 Q1391.83 26.1121 1397.1 26.1121 Q1404.19 26.1121 1408.04 31.0947 Q1411.89 36.0368 1411.89 45.1919 L1411.89 72.576 L1404.39 72.576 L1404.39 45.4349 Q1404.39 38.913 1402.08 35.7533 Q1399.77 32.5936 1395.04 32.5936 Q1389.24 32.5936 1385.88 36.4419 Q1382.52 40.2903 1382.52 46.9338 L1382.52 72.576 L1375.02 72.576 L1375.02 45.4349 Q1375.02 38.8725 1372.71 35.7533 Q1370.41 32.5936 1365.59 32.5936 Q1359.87 32.5936 1356.51 36.4824 Q1353.15 40.3308 1353.15 46.9338 L1353.15 72.576 L1345.65 72.576 L1345.65 27.2059 L1353.15 27.2059 L1353.15 34.2544 Q1355.7 30.082 1359.27 28.0971 Q1362.83 26.1121 1367.73 26.1121 Q1372.67 26.1121 1376.12 28.6237 Q1379.6 31.1352 1381.26 35.9153 Z" fill="#000000" fill-rule="nonzero" fill-opacity="1"></path><path clip-path="url(#clip780)" d="M1444.33 32.4315 Q1438.34 32.4315 1434.86 37.1306 Q1431.37 41.7891 1431.37 49.9314 Q1431.37 58.0738 1434.81 62.7728 Q1438.3 67.4314 1444.33 67.4314 Q1450.29 67.4314 1453.77 62.7323 Q1457.26 58.0333 1457.26 49.9314 Q1457.26 41.8701 1453.77 37.1711 Q1450.29 32.4315 1444.33 32.4315 M1444.33 26.1121 Q1454.06 26.1121 1459.61 32.4315 Q1465.16 38.7509 1465.16 49.9314 Q1465.16 61.0714 1459.61 67.4314 Q1454.06 73.7508 1444.33 73.7508 Q1434.57 73.7508 1429.02 67.4314 Q1423.51 61.0714 1423.51 49.9314 Q1423.51 38.7509 1429.02 32.4315 Q1434.57 26.1121 1444.33 26.1121 Z" fill="#000000" fill-rule="nonzero" fill-opacity="1"></path><path clip-path="url(#clip780)" d="M1472.16 27.2059 L1480.06 27.2059 L1494.24 65.2844 L1508.42 27.2059 L1516.32 27.2059 L1499.31 72.576 L1489.18 72.576 L1472.16 27.2059 Z" fill="#000000" fill-rule="nonzero" fill-opacity="1"></path><path clip-path="url(#clip780)" d="M1526.61 27.2059 L1534.06 27.2059 L1534.06 72.576 L1526.61 72.576 L1526.61 27.2059 M1526.61 9.54393 L1534.06 9.54393 L1534.06 18.9825 L1526.61 18.9825 L1526.61 9.54393 Z" fill="#000000" fill-rule="nonzero" fill-opacity="1"></path><path clip-path="url(#clip780)" d="M1587.37 45.1919 L1587.37 72.576 L1579.92 72.576 L1579.92 45.4349 Q1579.92 38.994 1577.41 35.7938 Q1574.9 32.5936 1569.87 32.5936 Q1563.84 32.5936 1560.35 36.4419 Q1556.87 40.2903 1556.87 46.9338 L1556.87 72.576 L1549.37 72.576 L1549.37 27.2059 L1556.87 27.2059 L1556.87 34.2544 Q1559.54 30.163 1563.15 28.1376 Q1566.79 26.1121 1571.53 26.1121 Q1579.35 26.1121 1583.36 30.9732 Q1587.37 35.7938 1587.37 45.1919 Z" fill="#000000" fill-rule="nonzero" fill-opacity="1"></path><path clip-path="url(#clip780)" d="M1632.09 49.3643 Q1632.09 41.2625 1628.73 36.8065 Q1625.41 32.3505 1619.37 32.3505 Q1613.38 32.3505 1610.02 36.8065 Q1606.69 41.2625 1606.69 49.3643 Q1606.69 57.4256 1610.02 61.8816 Q1613.38 66.3376 1619.37 66.3376 Q1625.41 66.3376 1628.73 61.8816 Q1632.09 57.4256 1632.09 49.3643 M1639.55 66.9452 Q1639.55 78.5308 1634.4 84.1616 Q1629.26 89.8329 1618.65 89.8329 Q1614.72 89.8329 1611.23 89.2252 Q1607.75 88.6581 1604.47 87.4428 L1604.47 80.1917 Q1607.75 81.9741 1610.95 82.8248 Q1614.15 83.6755 1617.47 83.6755 Q1624.8 83.6755 1628.45 79.8271 Q1632.09 76.0193 1632.09 68.282 L1632.09 64.5957 Q1629.79 68.6061 1626.18 70.5911 Q1622.57 72.576 1617.55 72.576 Q1609.21 72.576 1604.1 66.2161 Q1599 59.8562 1599 49.3643 Q1599 38.832 1604.1 32.472 Q1609.21 26.1121 1617.55 26.1121 Q1622.57 26.1121 1626.18 28.0971 Q1629.79 30.082 1632.09 34.0924 L1632.09 27.2059 L1639.55 27.2059 L1639.55 66.9452 Z" fill="#000000" fill-rule="nonzero" fill-opacity="1"></path><path clip-path="url(#clip780)" d="M1688.48 65.7705 L1688.48 89.8329 L1680.99 89.8329 L1680.99 27.2059 L1688.48 27.2059 L1688.48 34.0924 Q1690.83 30.0415 1694.4 28.0971 Q1698 26.1121 1702.98 26.1121 Q1711.25 26.1121 1716.39 32.6746 Q1721.58 39.2371 1721.58 49.9314 Q1721.58 60.6258 1716.39 67.1883 Q1711.25 73.7508 1702.98 73.7508 Q1698 73.7508 1694.4 71.8063 Q1690.83 69.8214 1688.48 65.7705 M1713.84 49.9314 Q1713.84 41.7081 1710.44 37.0496 Q1707.08 32.3505 1701.16 32.3505 Q1695.25 32.3505 1691.84 37.0496 Q1688.48 41.7081 1688.48 49.9314 Q1688.48 58.1548 1691.84 62.8538 Q1695.25 67.5124 1701.16 67.5124 Q1707.08 67.5124 1710.44 62.8538 Q1713.84 58.1548 1713.84 49.9314 Z" fill="#000000" fill-rule="nonzero" fill-opacity="1"></path><path clip-path="url(#clip780)" d="M1751.51 32.4315 Q1745.52 32.4315 1742.04 37.1306 Q1738.55 41.7891 1738.55 49.9314 Q1738.55 58.0738 1742 62.7728 Q1745.48 67.4314 1751.51 67.4314 Q1757.47 67.4314 1760.95 62.7323 Q1764.44 58.0333 1764.44 49.9314 Q1764.44 41.8701 1760.95 37.1711 Q1757.47 32.4315 1751.51 32.4315 M1751.51 26.1121 Q1761.24 26.1121 1766.79 32.4315 Q1772.34 38.7509 1772.34 49.9314 Q1772.34 61.0714 1766.79 67.4314 Q1761.24 73.7508 1751.51 73.7508 Q1741.75 73.7508 1736.2 67.4314 Q1730.69 61.0714 1730.69 49.9314 Q1730.69 38.7509 1736.2 32.4315 Q1741.75 26.1121 1751.51 26.1121 Z" fill="#000000" fill-rule="nonzero" fill-opacity="1"></path><path clip-path="url(#clip780)" d="M1784.69 27.2059 L1792.15 27.2059 L1792.15 72.576 L1784.69 72.576 L1784.69 27.2059 M1784.69 9.54393 L1792.15 9.54393 L1792.15 18.9825 L1784.69 18.9825 L1784.69 9.54393 Z" fill="#000000" fill-rule="nonzero" fill-opacity="1"></path><path clip-path="url(#clip780)" d="M1845.46 45.1919 L1845.46 72.576 L1838 72.576 L1838 45.4349 Q1838 38.994 1835.49 35.7938 Q1832.98 32.5936 1827.96 32.5936 Q1821.92 32.5936 1818.44 36.4419 Q1814.95 40.2903 1814.95 46.9338 L1814.95 72.576 L1807.46 72.576 L1807.46 27.2059 L1814.95 27.2059 L1814.95 34.2544 Q1817.63 30.163 1821.23 28.1376 Q1824.88 26.1121 1829.62 26.1121 Q1837.43 26.1121 1841.44 30.9732 Q1845.46 35.7938 1845.46 45.1919 Z" fill="#000000" fill-rule="nonzero" fill-opacity="1"></path><path clip-path="url(#clip780)" d="M1867.69 14.324 L1867.69 27.2059 L1883.05 27.2059 L1883.05 32.9987 L1867.69 32.9987 L1867.69 57.6282 Q1867.69 63.1779 1869.19 64.7578 Q1870.73 66.3376 1875.39 66.3376 L1883.05 66.3376 L1883.05 72.576 L1875.39 72.576 Q1866.76 72.576 1863.48 69.3758 Q1860.2 66.1351 1860.2 57.6282 L1860.2 32.9987 L1854.73 32.9987 L1854.73 27.2059 L1860.2 27.2059 L1860.2 14.324 L1867.69 14.324 Z" fill="#000000" fill-rule="nonzero" fill-opacity="1"></path><path clip-path="url(#clip780)" d="M1926.43 65.7705 L1926.43 89.8329 L1918.94 89.8329 L1918.94 27.2059 L1926.43 27.2059 L1926.43 34.0924 Q1928.78 30.0415 1932.35 28.0971 Q1935.95 26.1121 1940.93 26.1121 Q1949.2 26.1121 1954.34 32.6746 Q1959.53 39.2371 1959.53 49.9314 Q1959.53 60.6258 1954.34 67.1883 Q1949.2 73.7508 1940.93 73.7508 Q1935.95 73.7508 1932.35 71.8063 Q1928.78 69.8214 1926.43 65.7705 M1951.79 49.9314 Q1951.79 41.7081 1948.39 37.0496 Q1945.03 32.3505 1939.11 32.3505 Q1933.2 32.3505 1929.79 37.0496 Q1926.43 41.7081 1926.43 49.9314 Q1926.43 58.1548 1929.79 62.8538 Q1933.2 67.5124 1939.11 67.5124 Q1945.03 67.5124 1948.39 62.8538 Q1951.79 58.1548 1951.79 49.9314 Z" fill="#000000" fill-rule="nonzero" fill-opacity="1"></path><path clip-path="url(#clip780)" d="M1998.17 34.1734 Q1996.92 33.4443 1995.42 33.1202 Q1993.96 32.7556 1992.18 32.7556 Q1985.86 32.7556 1982.46 36.8875 Q1979.09 40.9789 1979.09 48.6757 L1979.09 72.576 L1971.6 72.576 L1971.6 27.2059 L1979.09 27.2059 L1979.09 34.2544 Q1981.44 30.1225 1985.21 28.1376 Q1988.98 26.1121 1994.37 26.1121 Q1995.14 26.1121 1996.07 26.2337 Q1997 26.3147 1998.13 26.5172 L1998.17 34.1734 Z" fill="#000000" fill-rule="nonzero" fill-opacity="1"></path><path clip-path="url(#clip780)" d="M2042.98 48.0275 L2042.98 51.6733 L2008.71 51.6733 Q2009.19 59.3701 2013.32 63.421 Q2017.5 67.4314 2024.91 67.4314 Q2029.2 67.4314 2033.21 66.3781 Q2037.27 65.3249 2041.24 63.2184 L2041.24 70.267 Q2037.22 71.9684 2033.01 72.8596 Q2028.8 73.7508 2024.46 73.7508 Q2013.61 73.7508 2007.25 67.4314 Q2000.93 61.1119 2000.93 50.3365 Q2000.93 39.1965 2006.92 32.6746 Q2012.96 26.1121 2023.17 26.1121 Q2032.32 26.1121 2037.63 32.0264 Q2042.98 37.9003 2042.98 48.0275 M2035.52 45.84 Q2035.44 39.7232 2032.08 36.0774 Q2028.76 32.4315 2023.25 32.4315 Q2017.01 32.4315 2013.24 35.9558 Q2009.52 39.4801 2008.95 45.8805 L2035.52 45.84 Z" fill="#000000" fill-rule="nonzero" fill-opacity="1"></path><path clip-path="url(#clip780)" d="M2085.07 34.0924 L2085.07 9.54393 L2092.52 9.54393 L2092.52 72.576 L2085.07 72.576 L2085.07 65.7705 Q2082.72 69.8214 2079.11 71.8063 Q2075.55 73.7508 2070.52 73.7508 Q2062.3 73.7508 2057.11 67.1883 Q2051.97 60.6258 2051.97 49.9314 Q2051.97 39.2371 2057.11 32.6746 Q2062.3 26.1121 2070.52 26.1121 Q2075.55 26.1121 2079.11 28.0971 Q2082.72 30.0415 2085.07 34.0924 M2059.67 49.9314 Q2059.67 58.1548 2063.03 62.8538 Q2066.43 67.5124 2072.35 67.5124 Q2078.26 67.5124 2081.66 62.8538 Q2085.07 58.1548 2085.07 49.9314 Q2085.07 41.7081 2081.66 37.0496 Q2078.26 32.3505 2072.35 32.3505 Q2066.43 32.3505 2063.03 37.0496 Q2059.67 41.7081 2059.67 49.9314 Z" fill="#000000" fill-rule="nonzero" fill-opacity="1"></path><path clip-path="url(#clip780)" d="M2107.87 27.2059 L2115.33 27.2059 L2115.33 72.576 L2107.87 72.576 L2107.87 27.2059 M2107.87 9.54393 L2115.33 9.54393 L2115.33 18.9825 L2107.87 18.9825 L2107.87 9.54393 Z" fill="#000000" fill-rule="nonzero" fill-opacity="1"></path><path clip-path="url(#clip780)" d="M2163.57 28.9478 L2163.57 35.9153 Q2160.41 34.1734 2157.21 33.3227 Q2154.05 32.4315 2150.81 32.4315 Q2143.56 32.4315 2139.55 37.0496 Q2135.54 41.6271 2135.54 49.9314 Q2135.54 58.2358 2139.55 62.8538 Q2143.56 67.4314 2150.81 67.4314 Q2154.05 67.4314 2157.21 66.5807 Q2160.41 65.6895 2163.57 63.9476 L2163.57 70.8341 Q2160.45 72.2924 2157.09 73.0216 Q2153.77 73.7508 2150 73.7508 Q2139.75 73.7508 2133.72 67.3098 Q2127.68 60.8689 2127.68 49.9314 Q2127.68 38.832 2133.76 32.472 Q2139.87 26.1121 2150.49 26.1121 Q2153.93 26.1121 2157.21 26.8413 Q2160.49 27.5299 2163.57 28.9478 Z" fill="#000000" fill-rule="nonzero" fill-opacity="1"></path><path clip-path="url(#clip780)" d="M2183.91 14.324 L2183.91 27.2059 L2199.26 27.2059 L2199.26 32.9987 L2183.91 32.9987 L2183.91 57.6282 Q2183.91 63.1779 2185.41 64.7578 Q2186.95 66.3376 2191.6 66.3376 L2199.26 66.3376 L2199.26 72.576 L2191.6 72.576 Q2182.98 72.576 2179.7 69.3758 Q2176.41 66.1351 2176.41 57.6282 L2176.41 32.9987 L2170.95 32.9987 L2170.95 27.2059 L2176.41 27.2059 L2176.41 14.324 L2183.91 14.324 Z" fill="#000000" fill-rule="nonzero" fill-opacity="1"></path><path clip-path="url(#clip780)" d="M2209.06 27.2059 L2216.52 27.2059 L2216.52 72.576 L2209.06 72.576 L2209.06 27.2059 M2209.06 9.54393 L2216.52 9.54393 L2216.52 18.9825 L2209.06 18.9825 L2209.06 9.54393 Z" fill="#000000" fill-rule="nonzero" fill-opacity="1"></path><path clip-path="url(#clip780)" d="M2249.69 32.4315 Q2243.7 32.4315 2240.22 37.1306 Q2236.73 41.7891 2236.73 49.9314 Q2236.73 58.0738 2240.18 62.7728 Q2243.66 67.4314 2249.69 67.4314 Q2255.65 67.4314 2259.13 62.7323 Q2262.62 58.0333 2262.62 49.9314 Q2262.62 41.8701 2259.13 37.1711 Q2255.65 32.4315 2249.69 32.4315 M2249.69 26.1121 Q2259.42 26.1121 2264.97 32.4315 Q2270.52 38.7509 2270.52 49.9314 Q2270.52 61.0714 2264.97 67.4314 Q2259.42 73.7508 2249.69 73.7508 Q2239.93 73.7508 2234.38 67.4314 Q2228.87 61.0714 2228.87 49.9314 Q2228.87 38.7509 2234.38 32.4315 Q2239.93 26.1121 2249.69 26.1121 Z" fill="#000000" fill-rule="nonzero" fill-opacity="1"></path><path clip-path="url(#clip780)" d="M2320.59 45.1919 L2320.59 72.576 L2313.13 72.576 L2313.13 45.4349 Q2313.13 38.994 2310.62 35.7938 Q2308.11 32.5936 2303.09 32.5936 Q2297.05 32.5936 2293.57 36.4419 Q2290.08 40.2903 2290.08 46.9338 L2290.08 72.576 L2282.59 72.576 L2282.59 27.2059 L2290.08 27.2059 L2290.08 34.2544 Q2292.76 30.163 2296.36 28.1376 Q2300.01 26.1121 2304.75 26.1121 Q2312.56 26.1121 2316.58 30.9732 Q2320.59 35.7938 2320.59 45.1919 Z" fill="#000000" fill-rule="nonzero" fill-opacity="1"></path><polyline clip-path="url(#clip782)" style="stroke:#009af9; stroke-linecap:round; stroke-linejoin:round; stroke-width:4; stroke-opacity:1; fill:none" points="255.507,160.256 325.72,557.724 395.932,730.347 466.145,865.281 536.357,962.935 606.57,1030.36 676.782,1018.46 746.995,1146.71 817.207,1154.25 887.42,1162.02 957.633,1169.08 1027.85,1174.92 1098.06,1174.92 1168.27,1268.47 1238.48,1266.11 1308.7,1263.3 1378.91,1260.11 1449.12,1256.6 1519.33,1256.6 1589.55,1336.16 1659.76,1332.47 1729.97,1327.56 1800.18,1321.79 1870.4,1315.46 1940.61,1315.46 2010.82,1386.4 2081.03,1382.55 2151.25,1377.17 2221.46,1370.65 2291.67,1363.36 "></polyline>
<polyline clip-path="url(#clip782)" style="stroke:#e26f46; stroke-linecap:round; stroke-linejoin:round; stroke-width:4; stroke-opacity:1; fill:none" points="255.507,160.256 325.72,808.452 395.932,965.27 466.145,956.575 536.357,952.973 606.57,966.467 676.782,987.258 746.995,1002.8 817.207,1014.63 887.42,1025.45 957.633,1036.01 1027.85,1046.46 1098.06,1056.65 1168.27,1066.35 1238.48,1075.46 1308.7,1084.03 1378.91,1092.07 1449.12,1099.59 1519.33,1106.6 1589.55,1113.13 1659.76,1119.21 1729.97,1124.89 1800.18,1130.2 1870.4,1135.17 1940.61,1139.82 2010.82,1144.17 2081.03,1148.25 2151.25,1152.07 2221.46,1155.65 2291.67,1158.97 "></polyline>
<path clip-path="url(#clip780)" d="M1835.47 322.316 L2280.81 322.316 L2280.81 166.796 L1835.47 166.796  Z" fill="#ffffff" fill-rule="evenodd" fill-opacity="1"></path>
<polyline clip-path="url(#clip780)" style="stroke:#000000; stroke-linecap:round; stroke-linejoin:round; stroke-width:4; stroke-opacity:1; fill:none" points="1835.47,322.316 2280.81,322.316 2280.81,166.796 1835.47,166.796 1835.47,322.316 "></polyline>
<polyline clip-path="url(#clip780)" style="stroke:#009af9; stroke-linecap:round; stroke-linejoin:round; stroke-width:4; stroke-opacity:1; fill:none" points="1859.45,218.636 2003.34,218.636 "></polyline>
<path clip-path="url(#clip780)" d="M2046.23 213.925 L2046.23 199.897 L2050.49 199.897 L2050.49 235.916 L2046.23 235.916 L2046.23 232.027 Q2044.89 234.342 2042.83 235.476 Q2040.79 236.587 2037.92 236.587 Q2033.22 236.587 2030.26 232.837 Q2027.32 229.087 2027.32 222.976 Q2027.32 216.865 2030.26 213.115 Q2033.22 209.365 2037.92 209.365 Q2040.79 209.365 2042.83 210.499 Q2044.89 211.61 2046.23 213.925 M2031.72 222.976 Q2031.72 227.675 2033.64 230.36 Q2035.58 233.022 2038.96 233.022 Q2042.34 233.022 2044.28 230.36 Q2046.23 227.675 2046.23 222.976 Q2046.23 218.277 2044.28 215.615 Q2042.34 212.93 2038.96 212.93 Q2035.58 212.93 2033.64 215.615 Q2031.72 218.277 2031.72 222.976 Z" fill="#000000" fill-rule="nonzero" fill-opacity="1"></path><path clip-path="url(#clip780)" d="M2071.04 222.883 Q2065.88 222.883 2063.89 224.064 Q2061.9 225.244 2061.9 228.092 Q2061.9 230.36 2063.38 231.703 Q2064.89 233.022 2067.46 233.022 Q2071 233.022 2073.13 230.522 Q2075.28 227.999 2075.28 223.832 L2075.28 222.883 L2071.04 222.883 M2079.54 221.124 L2079.54 235.916 L2075.28 235.916 L2075.28 231.981 Q2073.82 234.342 2071.65 235.476 Q2069.47 236.587 2066.32 236.587 Q2062.34 236.587 2059.98 234.365 Q2057.64 232.119 2057.64 228.369 Q2057.64 223.994 2060.56 221.772 Q2063.5 219.55 2069.31 219.55 L2075.28 219.55 L2075.28 219.133 Q2075.28 216.194 2073.34 214.596 Q2071.41 212.976 2067.92 212.976 Q2065.7 212.976 2063.59 213.508 Q2061.48 214.041 2059.54 215.106 L2059.54 211.17 Q2061.88 210.268 2064.08 209.828 Q2066.28 209.365 2068.36 209.365 Q2073.98 209.365 2076.76 212.282 Q2079.54 215.198 2079.54 221.124 Z" fill="#000000" fill-rule="nonzero" fill-opacity="1"></path><path clip-path="url(#clip780)" d="M2092.53 202.629 L2092.53 209.99 L2101.3 209.99 L2101.3 213.3 L2092.53 213.3 L2092.53 227.374 Q2092.53 230.545 2093.38 231.448 Q2094.26 232.351 2096.92 232.351 L2101.3 232.351 L2101.3 235.916 L2096.92 235.916 Q2091.99 235.916 2090.12 234.087 Q2088.24 232.235 2088.24 227.374 L2088.24 213.3 L2085.12 213.3 L2085.12 209.99 L2088.24 209.99 L2088.24 202.629 L2092.53 202.629 Z" fill="#000000" fill-rule="nonzero" fill-opacity="1"></path><path clip-path="url(#clip780)" d="M2118.68 222.883 Q2113.52 222.883 2111.53 224.064 Q2109.54 225.244 2109.54 228.092 Q2109.54 230.36 2111.02 231.703 Q2112.53 233.022 2115.09 233.022 Q2118.64 233.022 2120.77 230.522 Q2122.92 227.999 2122.92 223.832 L2122.92 222.883 L2118.68 222.883 M2127.18 221.124 L2127.18 235.916 L2122.92 235.916 L2122.92 231.981 Q2121.46 234.342 2119.28 235.476 Q2117.11 236.587 2113.96 236.587 Q2109.98 236.587 2107.62 234.365 Q2105.28 232.119 2105.28 228.369 Q2105.28 223.994 2108.2 221.772 Q2111.14 219.55 2116.95 219.55 L2122.92 219.55 L2122.92 219.133 Q2122.92 216.194 2120.97 214.596 Q2119.05 212.976 2115.56 212.976 Q2113.34 212.976 2111.23 213.508 Q2109.12 214.041 2107.18 215.106 L2107.18 211.17 Q2109.52 210.268 2111.71 209.828 Q2113.91 209.365 2116 209.365 Q2121.62 209.365 2124.4 212.282 Q2127.18 215.198 2127.18 221.124 Z" fill="#000000" fill-rule="nonzero" fill-opacity="1"></path><polyline clip-path="url(#clip780)" style="stroke:#e26f46; stroke-linecap:round; stroke-linejoin:round; stroke-width:4; stroke-opacity:1; fill:none" points="1859.45,270.476 2003.34,270.476 "></polyline>
<path clip-path="url(#clip780)" d="M2031.6 283.867 L2031.6 297.617 L2027.32 297.617 L2027.32 261.83 L2031.6 261.83 L2031.6 265.765 Q2032.94 263.45 2034.98 262.339 Q2037.04 261.205 2039.89 261.205 Q2044.61 261.205 2047.55 264.955 Q2050.51 268.705 2050.51 274.816 Q2050.51 280.927 2047.55 284.677 Q2044.61 288.427 2039.89 288.427 Q2037.04 288.427 2034.98 287.316 Q2032.94 286.182 2031.6 283.867 M2046.09 274.816 Q2046.09 270.117 2044.15 267.455 Q2042.22 264.77 2038.85 264.77 Q2035.47 264.77 2033.52 267.455 Q2031.6 270.117 2031.6 274.816 Q2031.6 279.515 2033.52 282.2 Q2035.47 284.862 2038.85 284.862 Q2042.22 284.862 2044.15 282.2 Q2046.09 279.515 2046.09 274.816 Z" fill="#000000" fill-rule="nonzero" fill-opacity="1"></path><path clip-path="url(#clip780)" d="M2072.59 265.811 Q2071.88 265.395 2071.02 265.21 Q2070.19 265.001 2069.17 265.001 Q2065.56 265.001 2063.61 267.362 Q2061.69 269.7 2061.69 274.098 L2061.69 287.756 L2057.41 287.756 L2057.41 261.83 L2061.69 261.83 L2061.69 265.858 Q2063.03 263.497 2065.19 262.362 Q2067.34 261.205 2070.42 261.205 Q2070.86 261.205 2071.39 261.274 Q2071.92 261.321 2072.57 261.436 L2072.59 265.811 Z" fill="#000000" fill-rule="nonzero" fill-opacity="1"></path><path clip-path="url(#clip780)" d="M2098.2 273.728 L2098.2 275.811 L2078.61 275.811 Q2078.89 280.209 2081.25 282.524 Q2083.64 284.816 2087.87 284.816 Q2090.33 284.816 2092.62 284.214 Q2094.93 283.612 2097.2 282.409 L2097.2 286.436 Q2094.91 287.408 2092.5 287.918 Q2090.09 288.427 2087.62 288.427 Q2081.41 288.427 2077.78 284.816 Q2074.17 281.205 2074.17 275.047 Q2074.17 268.682 2077.59 264.955 Q2081.04 261.205 2086.88 261.205 Q2092.11 261.205 2095.14 264.585 Q2098.2 267.941 2098.2 273.728 M2093.94 272.478 Q2093.89 268.983 2091.97 266.899 Q2090.07 264.816 2086.92 264.816 Q2083.36 264.816 2081.21 266.83 Q2079.08 268.844 2078.75 272.501 L2093.94 272.478 Z" fill="#000000" fill-rule="nonzero" fill-opacity="1"></path><path clip-path="url(#clip780)" d="M2122.25 265.765 L2122.25 251.737 L2126.51 251.737 L2126.51 287.756 L2122.25 287.756 L2122.25 283.867 Q2120.9 286.182 2118.84 287.316 Q2116.81 288.427 2113.94 288.427 Q2109.24 288.427 2106.28 284.677 Q2103.34 280.927 2103.34 274.816 Q2103.34 268.705 2106.28 264.955 Q2109.24 261.205 2113.94 261.205 Q2116.81 261.205 2118.84 262.339 Q2120.9 263.45 2122.25 265.765 M2107.73 274.816 Q2107.73 279.515 2109.65 282.2 Q2111.6 284.862 2114.98 284.862 Q2118.36 284.862 2120.3 282.2 Q2122.25 279.515 2122.25 274.816 Q2122.25 270.117 2120.3 267.455 Q2118.36 264.77 2114.98 264.77 Q2111.6 264.77 2109.65 267.455 Q2107.73 270.117 2107.73 274.816 Z" fill="#000000" fill-rule="nonzero" fill-opacity="1"></path><path clip-path="url(#clip780)" d="M2135.28 261.83 L2139.54 261.83 L2139.54 287.756 L2135.28 287.756 L2135.28 261.83 M2135.28 251.737 L2139.54 251.737 L2139.54 257.131 L2135.28 257.131 L2135.28 251.737 Z" fill="#000000" fill-rule="nonzero" fill-opacity="1"></path><path clip-path="url(#clip780)" d="M2167.11 262.825 L2167.11 266.807 Q2165.3 265.811 2163.47 265.325 Q2161.67 264.816 2159.82 264.816 Q2155.67 264.816 2153.38 267.455 Q2151.09 270.071 2151.09 274.816 Q2151.09 279.561 2153.38 282.2 Q2155.67 284.816 2159.82 284.816 Q2161.67 284.816 2163.47 284.33 Q2165.3 283.821 2167.11 282.825 L2167.11 286.76 Q2165.33 287.594 2163.4 288.01 Q2161.51 288.427 2159.35 288.427 Q2153.5 288.427 2150.05 284.746 Q2146.6 281.066 2146.6 274.816 Q2146.6 268.473 2150.07 264.839 Q2153.57 261.205 2159.63 261.205 Q2161.6 261.205 2163.47 261.622 Q2165.35 262.015 2167.11 262.825 Z" fill="#000000" fill-rule="nonzero" fill-opacity="1"></path><path clip-path="url(#clip780)" d="M2178.73 254.469 L2178.73 261.83 L2187.5 261.83 L2187.5 265.14 L2178.73 265.14 L2178.73 279.214 Q2178.73 282.385 2179.59 283.288 Q2180.46 284.191 2183.13 284.191 L2187.5 284.191 L2187.5 287.756 L2183.13 287.756 Q2178.2 287.756 2176.32 285.927 Q2174.45 284.075 2174.45 279.214 L2174.45 265.14 L2171.32 265.14 L2171.32 261.83 L2174.45 261.83 L2174.45 254.469 L2178.73 254.469 Z" fill="#000000" fill-rule="nonzero" fill-opacity="1"></path><path clip-path="url(#clip780)" d="M2193.1 261.83 L2197.36 261.83 L2197.36 287.756 L2193.1 287.756 L2193.1 261.83 M2193.1 251.737 L2197.36 251.737 L2197.36 257.131 L2193.1 257.131 L2193.1 251.737 Z" fill="#000000" fill-rule="nonzero" fill-opacity="1"></path><path clip-path="url(#clip780)" d="M2216.32 264.816 Q2212.9 264.816 2210.9 267.501 Q2208.91 270.163 2208.91 274.816 Q2208.91 279.469 2210.88 282.154 Q2212.87 284.816 2216.32 284.816 Q2219.72 284.816 2221.71 282.131 Q2223.71 279.446 2223.71 274.816 Q2223.71 270.21 2221.71 267.524 Q2219.72 264.816 2216.32 264.816 M2216.32 261.205 Q2221.88 261.205 2225.05 264.816 Q2228.22 268.427 2228.22 274.816 Q2228.22 281.182 2225.05 284.816 Q2221.88 288.427 2216.32 288.427 Q2210.74 288.427 2207.57 284.816 Q2204.42 281.182 2204.42 274.816 Q2204.42 268.427 2207.57 264.816 Q2210.74 261.205 2216.32 261.205 Z" fill="#000000" fill-rule="nonzero" fill-opacity="1"></path><path clip-path="url(#clip780)" d="M2256.83 272.108 L2256.83 287.756 L2252.57 287.756 L2252.57 272.247 Q2252.57 268.566 2251.14 266.737 Q2249.7 264.909 2246.83 264.909 Q2243.38 264.909 2241.39 267.108 Q2239.4 269.307 2239.4 273.103 L2239.4 287.756 L2235.12 287.756 L2235.12 261.83 L2239.4 261.83 L2239.4 265.858 Q2240.93 263.52 2242.99 262.362 Q2245.07 261.205 2247.78 261.205 Q2252.25 261.205 2254.54 263.983 Q2256.83 266.737 2256.83 272.108 Z" fill="#000000" fill-rule="nonzero" fill-opacity="1"></path></svg>