<svg xmlns="http://www.w3.org/2000/svg" xmlns:xlink="http://www.w3.org/1999/xlink" width="600" height="400" viewBox="0 0 2400 1600">
<defs>
  <clipPath id="clip940">
    <rect x="0" y="0" width="2400" height="1600"></rect>
  </clipPath>
</defs>
<path clip-path="url(#clip940)" d="M0 1600 L2400 1600 L2400 0 L0 0  Z" fill="#ffffff" fill-rule="evenodd" fill-opacity="1"></path>
<defs>
  <clipPath id="clip941">
    <rect x="480" y="0" width="1681" height="1600"></rect>
  </clipPath>
</defs>
<path clip-path="url(#clip940)" d="M262.551 1423.18 L2352.76 1423.18 L2352.76 123.472 L262.551 123.472  Z" fill="#ffffff" fill-rule="evenodd" fill-opacity="1"></path>
<defs>
  <clipPath id="clip942">
    <rect x="262" y="123" width="2091" height="1301"></rect>
  </clipPath>
</defs>
<polyline clip-path="url(#clip942)" style="stroke:#000000; stroke-linecap:round; stroke-linejoin:round; stroke-width:2; stroke-opacity:0.1; fill:none" points="321.708,1423.18 321.708,123.472 "></polyline>
<polyline clip-path="url(#clip942)" style="stroke:#000000; stroke-linecap:round; stroke-linejoin:round; stroke-width:2; stroke-opacity:0.1; fill:none" points="840.627,1423.18 840.627,123.472 "></polyline>
<polyline clip-path="url(#clip942)" style="stroke:#000000; stroke-linecap:round; stroke-linejoin:round; stroke-width:2; stroke-opacity:0.1; fill:none" points="1359.55,1423.18 1359.55,123.472 "></polyline>
<polyline clip-path="url(#clip942)" style="stroke:#000000; stroke-linecap:round; stroke-linejoin:round; stroke-width:2; stroke-opacity:0.1; fill:none" points="1878.46,1423.18 1878.46,123.472 "></polyline>
<polyline clip-path="url(#clip942)" style="stroke:#000000; stroke-linecap:round; stroke-linejoin:round; stroke-width:2; stroke-opacity:0.1; fill:none" points="262.551,1386.4 2352.76,1386.4 "></polyline>
<polyline clip-path="url(#clip942)" style="stroke:#000000; stroke-linecap:round; stroke-linejoin:round; stroke-width:2; stroke-opacity:0.1; fill:none" points="262.551,985.099 2352.76,985.099 "></polyline>
<polyline clip-path="url(#clip942)" style="stroke:#000000; stroke-linecap:round; stroke-linejoin:round; stroke-width:2; stroke-opacity:0.1; fill:none" points="262.551,583.802 2352.76,583.802 "></polyline>
<polyline clip-path="url(#clip942)" style="stroke:#000000; stroke-linecap:round; stroke-linejoin:round; stroke-width:2; stroke-opacity:0.1; fill:none" points="262.551,182.504 2352.76,182.504 "></polyline>
<polyline clip-path="url(#clip940)" style="stroke:#000000; stroke-linecap:round; stroke-linejoin:round; stroke-width:4; stroke-opacity:1; fill:none" points="262.551,1423.18 2352.76,1423.18 "></polyline>
<polyline clip-path="url(#clip940)" style="stroke:#000000; stroke-linecap:round; stroke-linejoin:round; stroke-width:4; stroke-opacity:1; fill:none" points="321.708,1423.18 321.708,1404.28 "></polyline>
<polyline clip-path="url(#clip940)" style="stroke:#000000; stroke-linecap:round; stroke-linejoin:round; stroke-width:4; stroke-opacity:1; fill:none" points="840.627,1423.18 840.627,1404.28 "></polyline>
<polyline clip-path="url(#clip940)" style="stroke:#000000; stroke-linecap:round; stroke-linejoin:round; stroke-width:4; stroke-opacity:1; fill:none" points="1359.55,1423.18 1359.55,1404.28 "></polyline>
<polyline clip-path="url(#clip940)" style="stroke:#000000; stroke-linecap:round; stroke-linejoin:round; stroke-width:4; stroke-opacity:1; fill:none" points="1878.46,1423.18 1878.46,1404.28 "></polyline>
<path clip-path="url(#clip940)" d="M321.708 1454.1 Q318.097 1454.1 316.268 1457.66 Q314.463 1461.2 314.463 1468.33 Q314.463 1475.44 316.268 1479.01 Q318.097 1482.55 321.708 1482.55 Q325.342 1482.55 327.148 1479.01 Q328.976 1475.44 328.976 1468.33 Q328.976 1461.2 327.148 1457.66 Q325.342 1454.1 321.708 1454.1 M321.708 1450.39 Q327.518 1450.39 330.574 1455 Q333.652 1459.58 333.652 1468.33 Q333.652 1477.06 330.574 1481.67 Q327.518 1486.25 321.708 1486.25 Q315.898 1486.25 312.819 1481.67 Q309.764 1477.06 309.764 1468.33 Q309.764 1459.58 312.819 1455 Q315.898 1450.39 321.708 1450.39 Z" fill="#000000" fill-rule="nonzero" fill-opacity="1"></path><path clip-path="url(#clip940)" d="M830.905 1451.02 L849.261 1451.02 L849.261 1454.96 L835.187 1454.96 L835.187 1463.43 Q836.205 1463.08 837.224 1462.92 Q838.242 1462.73 839.261 1462.73 Q845.048 1462.73 848.428 1465.9 Q851.807 1469.08 851.807 1474.49 Q851.807 1480.07 848.335 1483.17 Q844.863 1486.25 838.543 1486.25 Q836.367 1486.25 834.099 1485.88 Q831.854 1485.51 829.446 1484.77 L829.446 1480.07 Q831.53 1481.2 833.752 1481.76 Q835.974 1482.32 838.451 1482.32 Q842.455 1482.32 844.793 1480.21 Q847.131 1478.1 847.131 1474.49 Q847.131 1470.88 844.793 1468.77 Q842.455 1466.67 838.451 1466.67 Q836.576 1466.67 834.701 1467.08 Q832.849 1467.5 830.905 1468.38 L830.905 1451.02 Z" fill="#000000" fill-rule="nonzero" fill-opacity="1"></path><path clip-path="url(#clip940)" d="M1334.23 1481.64 L1341.87 1481.64 L1341.87 1455.28 L1333.56 1456.95 L1333.56 1452.69 L1341.83 1451.02 L1346.5 1451.02 L1346.5 1481.64 L1354.14 1481.64 L1354.14 1485.58 L1334.23 1485.58 L1334.23 1481.64 Z" fill="#000000" fill-rule="nonzero" fill-opacity="1"></path><path clip-path="url(#clip940)" d="M1373.58 1454.1 Q1369.97 1454.1 1368.14 1457.66 Q1366.34 1461.2 1366.34 1468.33 Q1366.34 1475.44 1368.14 1479.01 Q1369.97 1482.55 1373.58 1482.55 Q1377.22 1482.55 1379.02 1479.01 Q1380.85 1475.44 1380.85 1468.33 Q1380.85 1461.2 1379.02 1457.66 Q1377.22 1454.1 1373.58 1454.1 M1373.58 1450.39 Q1379.39 1450.39 1382.45 1455 Q1385.53 1459.58 1385.53 1468.33 Q1385.53 1477.06 1382.45 1481.67 Q1379.39 1486.25 1373.58 1486.25 Q1367.77 1486.25 1364.7 1481.67 Q1361.64 1477.06 1361.64 1468.33 Q1361.64 1459.58 1364.7 1455 Q1367.77 1450.39 1373.58 1450.39 Z" fill="#000000" fill-rule="nonzero" fill-opacity="1"></path><path clip-path="url(#clip940)" d="M1853.65 1481.64 L1861.29 1481.64 L1861.29 1455.28 L1852.98 1456.95 L1852.98 1452.69 L1861.24 1451.02 L1865.92 1451.02 L1865.92 1481.64 L1873.56 1481.64 L1873.56 1485.58 L1853.65 1485.58 L1853.65 1481.64 Z" fill="#000000" fill-rule="nonzero" fill-opacity="1"></path><path clip-path="url(#clip940)" d="M1883.05 1451.02 L1901.4 1451.02 L1901.4 1454.96 L1887.33 1454.96 L1887.33 1463.43 Q1888.35 1463.08 1889.37 1462.92 Q1890.39 1462.73 1891.4 1462.73 Q1897.19 1462.73 1900.57 1465.9 Q1903.95 1469.08 1903.95 1474.49 Q1903.95 1480.07 1900.48 1483.17 Q1897.01 1486.25 1890.69 1486.25 Q1888.51 1486.25 1886.24 1485.88 Q1884 1485.51 1881.59 1484.77 L1881.59 1480.07 Q1883.67 1481.2 1885.89 1481.76 Q1888.12 1482.32 1890.59 1482.32 Q1894.6 1482.32 1896.94 1480.21 Q1899.27 1478.1 1899.27 1474.49 Q1899.27 1470.88 1896.94 1468.77 Q1894.6 1466.67 1890.59 1466.67 Q1888.72 1466.67 1886.84 1467.08 Q1884.99 1467.5 1883.05 1468.38 L1883.05 1451.02 Z" fill="#000000" fill-rule="nonzero" fill-opacity="1"></path><path clip-path="url(#clip940)" d="M1145.01 1520.52 L1185.21 1520.52 L1185.21 1525.93 L1168.34 1525.93 L1168.34 1568.04 L1161.88 1568.04 L1161.88 1525.93 L1145.01 1525.93 L1145.01 1520.52 Z" fill="#000000" fill-rule="nonzero" fill-opacity="1"></path><path clip-path="url(#clip940)" d="M1189.16 1532.4 L1195.01 1532.4 L1195.01 1568.04 L1189.16 1568.04 L1189.16 1532.4 M1189.16 1518.52 L1195.01 1518.52 L1195.01 1525.93 L1189.16 1525.93 L1189.16 1518.52 Z" fill="#000000" fill-rule="nonzero" fill-opacity="1"></path><path clip-path="url(#clip940)" d="M1235.02 1539.24 Q1237.22 1535.29 1240.27 1533.41 Q1243.33 1531.54 1247.47 1531.54 Q1253.04 1531.54 1256.06 1535.45 Q1259.08 1539.33 1259.08 1546.53 L1259.08 1568.04 L1253.19 1568.04 L1253.19 1546.72 Q1253.19 1541.59 1251.38 1539.11 Q1249.57 1536.63 1245.84 1536.63 Q1241.29 1536.63 1238.65 1539.65 Q1236.01 1542.68 1236.01 1547.9 L1236.01 1568.04 L1230.12 1568.04 L1230.12 1546.72 Q1230.12 1541.56 1228.31 1539.11 Q1226.49 1536.63 1222.7 1536.63 Q1218.22 1536.63 1215.57 1539.68 Q1212.93 1542.71 1212.93 1547.9 L1212.93 1568.04 L1207.04 1568.04 L1207.04 1532.4 L1212.93 1532.4 L1212.93 1537.93 Q1214.94 1534.66 1217.74 1533.1 Q1220.54 1531.54 1224.39 1531.54 Q1228.27 1531.54 1230.98 1533.51 Q1233.72 1535.48 1235.02 1539.24 Z" fill="#000000" fill-rule="nonzero" fill-opacity="1"></path><path clip-path="url(#clip940)" d="M1301.26 1548.76 L1301.26 1551.62 L1274.33 1551.62 Q1274.71 1557.67 1277.96 1560.85 Q1281.24 1564 1287.06 1564 Q1290.43 1564 1293.59 1563.17 Q1296.77 1562.35 1299.89 1560.69 L1299.89 1566.23 Q1296.74 1567.57 1293.43 1568.27 Q1290.12 1568.97 1286.71 1568.97 Q1278.18 1568.97 1273.18 1564 Q1268.22 1559.04 1268.22 1550.57 Q1268.22 1541.82 1272.93 1536.69 Q1277.67 1531.54 1285.69 1531.54 Q1292.89 1531.54 1297.05 1536.18 Q1301.26 1540.8 1301.26 1548.76 M1295.4 1547.04 Q1295.34 1542.23 1292.69 1539.37 Q1290.08 1536.5 1285.76 1536.5 Q1280.85 1536.5 1277.89 1539.27 Q1274.97 1542.04 1274.52 1547.07 L1295.4 1547.04 Z" fill="#000000" fill-rule="nonzero" fill-opacity="1"></path><path clip-path="url(#clip940)" d="M1360.33 1522.08 L1360.33 1528.35 Q1356.67 1526.6 1353.42 1525.74 Q1350.18 1524.88 1347.15 1524.88 Q1341.9 1524.88 1339.04 1526.92 Q1336.2 1528.96 1336.2 1532.71 Q1336.2 1535.87 1338.08 1537.49 Q1339.99 1539.08 1345.27 1540.07 L1349.16 1540.86 Q1356.35 1542.23 1359.76 1545.7 Q1363.19 1549.14 1363.19 1554.93 Q1363.19 1561.84 1358.55 1565.4 Q1353.93 1568.97 1344.99 1568.97 Q1341.61 1568.97 1337.8 1568.2 Q1334.01 1567.44 1329.93 1565.94 L1329.93 1559.32 Q1333.85 1561.52 1337.6 1562.63 Q1341.36 1563.75 1344.99 1563.75 Q1350.49 1563.75 1353.49 1561.58 Q1356.48 1559.42 1356.48 1555.41 Q1356.48 1551.91 1354.31 1549.93 Q1352.18 1547.96 1347.28 1546.97 L1343.37 1546.21 Q1336.17 1544.78 1332.96 1541.72 Q1329.74 1538.67 1329.74 1533.22 Q1329.74 1526.92 1334.17 1523.29 Q1338.62 1519.66 1346.42 1519.66 Q1349.76 1519.66 1353.23 1520.27 Q1356.7 1520.87 1360.33 1522.08 Z" fill="#000000" fill-rule="nonzero" fill-opacity="1"></path><path clip-path="url(#clip940)" d="M1378.76 1522.27 L1378.76 1532.4 L1390.82 1532.4 L1390.82 1536.95 L1378.76 1536.95 L1378.76 1556.3 Q1378.76 1560.66 1379.94 1561.9 Q1381.15 1563.14 1384.81 1563.14 L1390.82 1563.14 L1390.82 1568.04 L1384.81 1568.04 Q1378.03 1568.04 1375.45 1565.53 Q1372.87 1562.98 1372.87 1556.3 L1372.87 1536.95 L1368.57 1536.95 L1368.57 1532.4 L1372.87 1532.4 L1372.87 1522.27 L1378.76 1522.27 Z" fill="#000000" fill-rule="nonzero" fill-opacity="1"></path><path clip-path="url(#clip940)" d="M1429.02 1548.76 L1429.02 1551.62 L1402.09 1551.62 Q1402.47 1557.67 1405.72 1560.85 Q1409 1564 1414.82 1564 Q1418.19 1564 1421.35 1563.17 Q1424.53 1562.35 1427.65 1560.69 L1427.65 1566.23 Q1424.5 1567.57 1421.19 1568.27 Q1417.88 1568.97 1414.47 1568.97 Q1405.94 1568.97 1400.94 1564 Q1395.98 1559.04 1395.98 1550.57 Q1395.98 1541.82 1400.69 1536.69 Q1405.43 1531.54 1413.45 1531.54 Q1420.64 1531.54 1424.81 1536.18 Q1429.02 1540.8 1429.02 1548.76 M1423.16 1547.04 Q1423.1 1542.23 1420.45 1539.37 Q1417.84 1536.5 1413.52 1536.5 Q1408.61 1536.5 1405.65 1539.27 Q1402.73 1542.04 1402.28 1547.07 L1423.16 1547.04 Z" fill="#000000" fill-rule="nonzero" fill-opacity="1"></path><path clip-path="url(#clip940)" d="M1444.29 1562.7 L1444.29 1581.6 L1438.41 1581.6 L1438.41 1532.4 L1444.29 1532.4 L1444.29 1537.81 Q1446.14 1534.62 1448.94 1533.1 Q1451.77 1531.54 1455.69 1531.54 Q1462.18 1531.54 1466.22 1536.69 Q1470.3 1541.85 1470.3 1550.25 Q1470.3 1558.65 1466.22 1563.81 Q1462.18 1568.97 1455.69 1568.97 Q1451.77 1568.97 1448.94 1567.44 Q1446.14 1565.88 1444.29 1562.7 M1464.22 1550.25 Q1464.22 1543.79 1461.54 1540.13 Q1458.9 1536.44 1454.26 1536.44 Q1449.61 1536.44 1446.94 1540.13 Q1444.29 1543.79 1444.29 1550.25 Q1444.29 1556.71 1446.94 1560.4 Q1449.61 1564.07 1454.26 1564.07 Q1458.9 1564.07 1461.54 1560.4 Q1464.22 1556.71 1464.22 1550.25 Z" fill="#000000" fill-rule="nonzero" fill-opacity="1"></path><polyline clip-path="url(#clip940)" style="stroke:#000000; stroke-linecap:round; stroke-linejoin:round; stroke-width:4; stroke-opacity:1; fill:none" points="262.551,1423.18 262.551,123.472 "></polyline>
<polyline clip-path="url(#clip940)" style="stroke:#000000; stroke-linecap:round; stroke-linejoin:round; stroke-width:4; stroke-opacity:1; fill:none" points="262.551,1386.4 281.449,1386.4 "></polyline>
<polyline clip-path="url(#clip940)" style="stroke:#000000; stroke-linecap:round; stroke-linejoin:round; stroke-width:4; stroke-opacity:1; fill:none" points="262.551,985.099 281.449,985.099 "></polyline>
<polyline clip-path="url(#clip940)" style="stroke:#000000; stroke-linecap:round; stroke-linejoin:round; stroke-width:4; stroke-opacity:1; fill:none" points="262.551,583.802 281.449,583.802 "></polyline>
<polyline clip-path="url(#clip940)" style="stroke:#000000; stroke-linecap:round; stroke-linejoin:round; stroke-width:4; stroke-opacity:1; fill:none" points="262.551,182.504 281.449,182.504 "></polyline>
<path clip-path="url(#clip940)" d="M214.607 1372.19 Q210.996 1372.19 209.167 1375.76 Q207.362 1379.3 207.362 1386.43 Q207.362 1393.54 209.167 1397.1 Q210.996 1400.64 214.607 1400.64 Q218.241 1400.64 220.047 1397.1 Q221.875 1393.54 221.875 1386.43 Q221.875 1379.3 220.047 1375.76 Q218.241 1372.19 214.607 1372.19 M214.607 1368.49 Q220.417 1368.49 223.473 1373.1 Q226.551 1377.68 226.551 1386.43 Q226.551 1395.16 223.473 1399.76 Q220.417 1404.35 214.607 1404.35 Q208.797 1404.35 205.718 1399.76 Q202.662 1395.16 202.662 1386.43 Q202.662 1377.68 205.718 1373.1 Q208.797 1368.49 214.607 1368.49 Z" fill="#000000" fill-rule="nonzero" fill-opacity="1"></path><path clip-path="url(#clip940)" d="M144.329 967.819 L162.686 967.819 L162.686 971.754 L148.612 971.754 L148.612 980.226 Q149.63 979.879 150.649 979.717 Q151.667 979.531 152.686 979.531 Q158.473 979.531 161.852 982.703 Q165.232 985.874 165.232 991.291 Q165.232 996.869 161.76 999.971 Q158.288 1003.05 151.968 1003.05 Q149.792 1003.05 147.524 1002.68 Q145.279 1002.31 142.871 1001.57 L142.871 996.869 Q144.954 998.004 147.177 998.559 Q149.399 999.115 151.876 999.115 Q155.88 999.115 158.218 997.008 Q160.556 994.902 160.556 991.291 Q160.556 987.68 158.218 985.573 Q155.88 983.467 151.876 983.467 Q150.001 983.467 148.126 983.883 Q146.274 984.3 144.329 985.18 L144.329 967.819 Z" fill="#000000" fill-rule="nonzero" fill-opacity="1"></path><path clip-path="url(#clip940)" d="M184.445 970.897 Q180.834 970.897 179.005 974.462 Q177.2 978.004 177.2 985.133 Q177.2 992.24 179.005 995.805 Q180.834 999.346 184.445 999.346 Q188.079 999.346 189.885 995.805 Q191.713 992.24 191.713 985.133 Q191.713 978.004 189.885 974.462 Q188.079 970.897 184.445 970.897 M184.445 967.194 Q190.255 967.194 193.311 971.8 Q196.389 976.383 196.389 985.133 Q196.389 993.86 193.311 998.467 Q190.255 1003.05 184.445 1003.05 Q178.635 1003.05 175.556 998.467 Q172.501 993.86 172.501 985.133 Q172.501 976.383 175.556 971.8 Q178.635 967.194 184.445 967.194 Z" fill="#000000" fill-rule="nonzero" fill-opacity="1"></path><path clip-path="url(#clip940)" d="M214.607 970.897 Q210.996 970.897 209.167 974.462 Q207.362 978.004 207.362 985.133 Q207.362 992.24 209.167 995.805 Q210.996 999.346 214.607 999.346 Q218.241 999.346 220.047 995.805 Q221.875 992.24 221.875 985.133 Q221.875 978.004 220.047 974.462 Q218.241 970.897 214.607 970.897 M214.607 967.194 Q220.417 967.194 223.473 971.8 Q226.551 976.383 226.551 985.133 Q226.551 993.86 223.473 998.467 Q220.417 1003.05 214.607 1003.05 Q208.797 1003.05 205.718 998.467 Q202.662 993.86 202.662 985.133 Q202.662 976.383 205.718 971.8 Q208.797 967.194 214.607 967.194 Z" fill="#000000" fill-rule="nonzero" fill-opacity="1"></path><path clip-path="url(#clip940)" d="M114.931 597.146 L122.57 597.146 L122.57 570.781 L114.26 572.447 L114.26 568.188 L122.524 566.522 L127.2 566.522 L127.2 597.146 L134.839 597.146 L134.839 601.082 L114.931 601.082 L114.931 597.146 Z" fill="#000000" fill-rule="nonzero" fill-opacity="1"></path><path clip-path="url(#clip940)" d="M154.283 569.6 Q150.672 569.6 148.843 573.165 Q147.038 576.707 147.038 583.836 Q147.038 590.943 148.843 594.507 Q150.672 598.049 154.283 598.049 Q157.917 598.049 159.723 594.507 Q161.552 590.943 161.552 583.836 Q161.552 576.707 159.723 573.165 Q157.917 569.6 154.283 569.6 M154.283 565.897 Q160.093 565.897 163.149 570.503 Q166.227 575.086 166.227 583.836 Q166.227 592.563 163.149 597.17 Q160.093 601.753 154.283 601.753 Q148.473 601.753 145.394 597.17 Q142.339 592.563 142.339 583.836 Q142.339 575.086 145.394 570.503 Q148.473 565.897 154.283 565.897 Z" fill="#000000" fill-rule="nonzero" fill-opacity="1"></path><path clip-path="url(#clip940)" d="M184.445 569.6 Q180.834 569.6 179.005 573.165 Q177.2 576.707 177.2 583.836 Q177.2 590.943 179.005 594.507 Q180.834 598.049 184.445 598.049 Q188.079 598.049 189.885 594.507 Q191.713 590.943 191.713 583.836 Q191.713 576.707 189.885 573.165 Q188.079 569.6 184.445 569.6 M184.445 565.897 Q190.255 565.897 193.311 570.503 Q196.389 575.086 196.389 583.836 Q196.389 592.563 193.311 597.17 Q190.255 601.753 184.445 601.753 Q178.635 601.753 175.556 597.17 Q172.501 592.563 172.501 583.836 Q172.501 575.086 175.556 570.503 Q178.635 565.897 184.445 565.897 Z" fill="#000000" fill-rule="nonzero" fill-opacity="1"></path><path clip-path="url(#clip940)" d="M214.607 569.6 Q210.996 569.6 209.167 573.165 Q207.362 576.707 207.362 583.836 Q207.362 590.943 209.167 594.507 Q210.996 598.049 214.607 598.049 Q218.241 598.049 220.047 594.507 Q221.875 590.943 221.875 583.836 Q221.875 576.707 220.047 573.165 Q218.241 569.6 214.607 569.6 M214.607 565.897 Q220.417 565.897 223.473 570.503 Q226.551 575.086 226.551 583.836 Q226.551 592.563 223.473 597.17 Q220.417 601.753 214.607 601.753 Q208.797 601.753 205.718 597.17 Q202.662 592.563 202.662 583.836 Q202.662 575.086 205.718 570.503 Q208.797 565.897 214.607 565.897 Z" fill="#000000" fill-rule="nonzero" fill-opacity="1"></path><path clip-path="url(#clip940)" d="M114.931 195.849 L122.57 195.849 L122.57 169.484 L114.26 171.15 L114.26 166.891 L122.524 165.224 L127.2 165.224 L127.2 195.849 L134.839 195.849 L134.839 199.784 L114.931 199.784 L114.931 195.849 Z" fill="#000000" fill-rule="nonzero" fill-opacity="1"></path><path clip-path="url(#clip940)" d="M144.329 165.224 L162.686 165.224 L162.686 169.16 L148.612 169.16 L148.612 177.632 Q149.63 177.285 150.649 177.123 Q151.667 176.937 152.686 176.937 Q158.473 176.937 161.852 180.109 Q165.232 183.28 165.232 188.697 Q165.232 194.275 161.76 197.377 Q158.288 200.456 151.968 200.456 Q149.792 200.456 147.524 200.085 Q145.279 199.715 142.871 198.974 L142.871 194.275 Q144.954 195.409 147.177 195.965 Q149.399 196.521 151.876 196.521 Q155.88 196.521 158.218 194.414 Q160.556 192.308 160.556 188.697 Q160.556 185.085 158.218 182.979 Q155.88 180.873 151.876 180.873 Q150.001 180.873 148.126 181.289 Q146.274 181.706 144.329 182.585 L144.329 165.224 Z" fill="#000000" fill-rule="nonzero" fill-opacity="1"></path><path clip-path="url(#clip940)" d="M184.445 168.303 Q180.834 168.303 179.005 171.868 Q177.2 175.41 177.2 182.539 Q177.2 189.646 179.005 193.21 Q180.834 196.752 184.445 196.752 Q188.079 196.752 189.885 193.21 Q191.713 189.646 191.713 182.539 Q191.713 175.41 189.885 171.868 Q188.079 168.303 184.445 168.303 M184.445 164.599 Q190.255 164.599 193.311 169.206 Q196.389 173.789 196.389 182.539 Q196.389 191.266 193.311 195.872 Q190.255 200.456 184.445 200.456 Q178.635 200.456 175.556 195.872 Q172.501 191.266 172.501 182.539 Q172.501 173.789 175.556 169.206 Q178.635 164.599 184.445 164.599 Z" fill="#000000" fill-rule="nonzero" fill-opacity="1"></path><path clip-path="url(#clip940)" d="M214.607 168.303 Q210.996 168.303 209.167 171.868 Q207.362 175.41 207.362 182.539 Q207.362 189.646 209.167 193.21 Q210.996 196.752 214.607 196.752 Q218.241 196.752 220.047 193.21 Q221.875 189.646 221.875 182.539 Q221.875 175.41 220.047 171.868 Q218.241 168.303 214.607 168.303 M214.607 164.599 Q220.417 164.599 223.473 169.206 Q226.551 173.789 226.551 182.539 Q226.551 191.266 223.473 195.872 Q220.417 200.456 214.607 200.456 Q208.797 200.456 205.718 195.872 Q202.662 191.266 202.662 182.539 Q202.662 173.789 205.718 169.206 Q208.797 164.599 214.607 164.599 Z" fill="#000000" fill-rule="nonzero" fill-opacity="1"></path><path clip-path="url(#clip940)" d="M16.4842 840.023 L16.4842 833.593 L58.5933 833.593 L58.5933 810.454 L64.0042 810.454 L64.0042 840.023 L16.4842 840.023 Z" fill="#000000" fill-rule="nonzero" fill-opacity="1"></path><path clip-path="url(#clip940)" d="M32.4621 791.293 Q32.4621 796.004 36.1542 798.741 Q39.8145 801.478 46.212 801.478 Q52.6095 801.478 56.3017 798.773 Q59.9619 796.036 59.9619 791.293 Q59.9619 786.614 56.2698 783.877 Q52.5777 781.14 46.212 781.14 Q39.8781 781.14 36.186 783.877 Q32.4621 786.614 32.4621 791.293 M27.4968 791.293 Q27.4968 783.654 32.4621 779.294 Q37.4273 774.933 46.212 774.933 Q54.9649 774.933 59.9619 779.294 Q64.9272 783.654 64.9272 791.293 Q64.9272 798.964 59.9619 803.324 Q54.9649 807.653 46.212 807.653 Q37.4273 807.653 32.4621 803.324 Q27.4968 798.964 27.4968 791.293 Z" fill="#000000" fill-rule="nonzero" fill-opacity="1"></path><path clip-path="url(#clip940)" d="M29.4065 742.5 L34.9447 742.5 Q33.6716 744.983 33.035 747.656 Q32.3984 750.33 32.3984 753.194 Q32.3984 757.555 33.7352 759.751 Q35.072 761.915 37.7456 761.915 Q39.7826 761.915 40.9603 760.356 Q42.1061 758.796 43.1565 754.086 L43.6021 752.08 Q44.9389 745.842 47.3897 743.232 Q49.8086 740.59 54.1691 740.59 Q59.1344 740.59 62.0308 744.537 Q64.9272 748.452 64.9272 755.327 Q64.9272 758.192 64.3543 761.311 Q63.8132 764.398 62.6992 767.836 L56.6518 767.836 Q58.3387 764.589 59.198 761.438 Q60.0256 758.287 60.0256 755.2 Q60.0256 751.062 58.6251 748.834 Q57.1929 746.606 54.6147 746.606 Q52.2276 746.606 50.9545 748.229 Q49.6813 749.821 48.5037 755.263 L48.0262 757.3 Q46.8804 762.743 44.5251 765.162 Q42.138 767.581 38.0002 767.581 Q32.9713 767.581 30.2341 764.016 Q27.4968 760.451 27.4968 753.895 Q27.4968 750.648 27.9743 747.784 Q28.4517 744.919 29.4065 742.5 Z" fill="#000000" fill-rule="nonzero" fill-opacity="1"></path><path clip-path="url(#clip940)" d="M29.4065 708.539 L34.9447 708.539 Q33.6716 711.022 33.035 713.695 Q32.3984 716.369 32.3984 719.233 Q32.3984 723.594 33.7352 725.79 Q35.072 727.954 37.7456 727.954 Q39.7826 727.954 40.9603 726.395 Q42.1061 724.835 43.1565 720.125 L43.6021 718.119 Q44.9389 711.881 47.3897 709.271 Q49.8086 706.629 54.1691 706.629 Q59.1344 706.629 62.0308 710.576 Q64.9272 714.491 64.9272 721.366 Q64.9272 724.23 64.3543 727.35 Q63.8132 730.437 62.6992 733.875 L56.6518 733.875 Q58.3387 730.628 59.198 727.477 Q60.0256 724.326 60.0256 721.239 Q60.0256 717.101 58.6251 714.873 Q57.1929 712.645 54.6147 712.645 Q52.2276 712.645 50.9545 714.268 Q49.6813 715.86 48.5037 721.302 L48.0262 723.339 Q46.8804 728.782 44.5251 731.201 Q42.138 733.62 38.0002 733.62 Q32.9713 733.62 30.2341 730.055 Q27.4968 726.49 27.4968 719.934 Q27.4968 716.687 27.9743 713.823 Q28.4517 710.958 29.4065 708.539 Z" fill="#000000" fill-rule="nonzero" fill-opacity="1"></path><path clip-path="url(#clip940)" d="M800.784 12.096 L808.967 12.096 L808.967 65.6895 L838.417 65.6895 L838.417 72.576 L800.784 72.576 L800.784 12.096 Z" fill="#000000" fill-rule="nonzero" fill-opacity="1"></path><path clip-path="url(#clip940)" d="M862.804 32.4315 Q856.808 32.4315 853.324 37.1306 Q849.841 41.7891 849.841 49.9314 Q849.841 58.0738 853.284 62.7728 Q856.768 67.4314 862.804 67.4314 Q868.758 67.4314 872.242 62.7323 Q875.726 58.0333 875.726 49.9314 Q875.726 41.8701 872.242 37.1711 Q868.758 32.4315 862.804 32.4315 M862.804 26.1121 Q872.526 26.1121 878.075 32.4315 Q883.625 38.7509 883.625 49.9314 Q883.625 61.0714 878.075 67.4314 Q872.526 73.7508 862.804 73.7508 Q853.041 73.7508 847.491 67.4314 Q841.982 61.0714 841.982 49.9314 Q841.982 38.7509 847.491 32.4315 Q853.041 26.1121 862.804 26.1121 Z" fill="#000000" fill-rule="nonzero" fill-opacity="1"></path><path clip-path="url(#clip940)" d="M933.694 45.1919 L933.694 72.576 L926.241 72.576 L926.241 45.4349 Q926.241 38.994 923.729 35.7938 Q921.218 32.5936 916.194 32.5936 Q910.159 32.5936 906.675 36.4419 Q903.191 40.2903 903.191 46.9338 L903.191 72.576 L895.697 72.576 L895.697 27.2059 L903.191 27.2059 L903.191 34.2544 Q905.865 30.163 909.47 28.1376 Q913.116 26.1121 917.855 26.1121 Q925.674 26.1121 929.684 30.9732 Q933.694 35.7938 933.694 45.1919 Z" fill="#000000" fill-rule="nonzero" fill-opacity="1"></path><path clip-path="url(#clip940)" d="M978.416 49.3643 Q978.416 41.2625 975.054 36.8065 Q971.732 32.3505 965.696 32.3505 Q959.701 32.3505 956.339 36.8065 Q953.017 41.2625 953.017 49.3643 Q953.017 57.4256 956.339 61.8816 Q959.701 66.3376 965.696 66.3376 Q971.732 66.3376 975.054 61.8816 Q978.416 57.4256 978.416 49.3643 M985.87 66.9452 Q985.87 78.5308 980.725 84.1616 Q975.581 89.8329 964.967 89.8329 Q961.038 89.8329 957.554 89.2252 Q954.07 88.6581 950.789 87.4428 L950.789 80.1917 Q954.07 81.9741 957.271 82.8248 Q960.471 83.6755 963.793 83.6755 Q971.125 83.6755 974.771 79.8271 Q978.416 76.0193 978.416 68.282 L978.416 64.5957 Q976.107 68.6061 972.502 70.5911 Q968.897 72.576 963.874 72.576 Q955.529 72.576 950.425 66.2161 Q945.32 59.8562 945.32 49.3643 Q945.32 38.832 950.425 32.472 Q955.529 26.1121 963.874 26.1121 Q968.897 26.1121 972.502 28.0971 Q976.107 30.082 978.416 34.0924 L978.416 27.2059 L985.87 27.2059 L985.87 66.9452 Z" fill="#000000" fill-rule="nonzero" fill-opacity="1"></path><path clip-path="url(#clip940)" d="M1019.53 12.096 L1070.7 12.096 L1070.7 18.9825 L1049.23 18.9825 L1049.23 72.576 L1041 72.576 L1041 18.9825 L1019.53 18.9825 L1019.53 12.096 Z" fill="#000000" fill-rule="nonzero" fill-opacity="1"></path><path clip-path="url(#clip940)" d="M1085.16 49.7694 Q1076.12 49.7694 1072.64 51.8354 Q1069.16 53.9013 1069.16 58.8839 Q1069.16 62.8538 1071.75 65.2034 Q1074.38 67.5124 1078.88 67.5124 Q1085.08 67.5124 1088.8 63.1374 Q1092.57 58.7219 1092.57 51.4303 L1092.57 49.7694 L1085.16 49.7694 M1100.02 46.6907 L1100.02 72.576 L1092.57 72.576 L1092.57 65.6895 Q1090.02 69.8214 1086.21 71.8063 Q1082.4 73.7508 1076.89 73.7508 Q1069.93 73.7508 1065.79 69.8619 Q1061.7 65.9325 1061.7 59.3701 Q1061.7 51.7138 1066.81 47.825 Q1071.95 43.9361 1082.12 43.9361 L1092.57 43.9361 L1092.57 43.2069 Q1092.57 38.0623 1089.17 35.2672 Q1085.81 32.4315 1079.69 32.4315 Q1075.8 32.4315 1072.11 33.3632 Q1068.43 34.295 1065.02 36.1584 L1065.02 29.2718 Q1069.12 27.692 1072.96 26.9223 Q1076.81 26.1121 1080.46 26.1121 Q1090.3 26.1121 1095.16 31.2163 Q1100.02 36.3204 1100.02 46.6907 Z" fill="#000000" fill-rule="nonzero" fill-opacity="1"></path><path clip-path="url(#clip940)" d="M1115.38 27.2059 L1122.83 27.2059 L1122.83 72.576 L1115.38 72.576 L1115.38 27.2059 M1115.38 9.54393 L1122.83 9.54393 L1122.83 18.9825 L1115.38 18.9825 L1115.38 9.54393 Z" fill="#000000" fill-rule="nonzero" fill-opacity="1"></path><path clip-path="url(#clip940)" d="M1138.43 9.54393 L1145.88 9.54393 L1145.88 72.576 L1138.43 72.576 L1138.43 9.54393 Z" fill="#000000" fill-rule="nonzero" fill-opacity="1"></path><path clip-path="url(#clip940)" d="M1195.22 14.324 L1195.22 27.2059 L1210.57 27.2059 L1210.57 32.9987 L1195.22 32.9987 L1195.22 57.6282 Q1195.22 63.1779 1196.72 64.7578 Q1198.26 66.3376 1202.92 66.3376 L1210.57 66.3376 L1210.57 72.576 L1202.92 72.576 Q1194.29 72.576 1191.01 69.3758 Q1187.73 66.1351 1187.73 57.6282 L1187.73 32.9987 L1182.26 32.9987 L1182.26 27.2059 L1187.73 27.2059 L1187.73 14.324 L1195.22 14.324 Z" fill="#000000" fill-rule="nonzero" fill-opacity="1"></path><path clip-path="url(#clip940)" d="M1237.96 32.4315 Q1231.96 32.4315 1228.48 37.1306 Q1224.99 41.7891 1224.99 49.9314 Q1224.99 58.0738 1228.44 62.7728 Q1231.92 67.4314 1237.96 67.4314 Q1243.91 67.4314 1247.4 62.7323 Q1250.88 58.0333 1250.88 49.9314 Q1250.88 41.8701 1247.4 37.1711 Q1243.91 32.4315 1237.96 32.4315 M1237.96 26.1121 Q1247.68 26.1121 1253.23 32.4315 Q1258.78 38.7509 1258.78 49.9314 Q1258.78 61.0714 1253.23 67.4314 Q1247.68 73.7508 1237.96 73.7508 Q1228.2 73.7508 1222.65 67.4314 Q1217.14 61.0714 1217.14 49.9314 Q1217.14 38.7509 1222.65 32.4315 Q1228.2 26.1121 1237.96 26.1121 Z" fill="#000000" fill-rule="nonzero" fill-opacity="1"></path><path clip-path="url(#clip940)" d="M1278.51 14.324 L1278.51 27.2059 L1293.86 27.2059 L1293.86 32.9987 L1278.51 32.9987 L1278.51 57.6282 Q1278.51 63.1779 1280.01 64.7578 Q1281.55 66.3376 1286.2 66.3376 L1293.86 66.3376 L1293.86 72.576 L1286.2 72.576 Q1277.58 72.576 1274.29 69.3758 Q1271.01 66.1351 1271.01 57.6282 L1271.01 32.9987 L1265.54 32.9987 L1265.54 27.2059 L1271.01 27.2059 L1271.01 14.324 L1278.51 14.324 Z" fill="#000000" fill-rule="nonzero" fill-opacity="1"></path><path clip-path="url(#clip940)" d="M1324.28 49.7694 Q1315.25 49.7694 1311.77 51.8354 Q1308.28 53.9013 1308.28 58.8839 Q1308.28 62.8538 1310.87 65.2034 Q1313.51 67.5124 1318 67.5124 Q1324.2 67.5124 1327.93 63.1374 Q1331.7 58.7219 1331.7 51.4303 L1331.7 49.7694 L1324.28 49.7694 M1339.15 46.6907 L1339.15 72.576 L1331.7 72.576 L1331.7 65.6895 Q1329.14 69.8214 1325.34 71.8063 Q1321.53 73.7508 1316.02 73.7508 Q1309.05 73.7508 1304.92 69.8619 Q1300.83 65.9325 1300.83 59.3701 Q1300.83 51.7138 1305.93 47.825 Q1311.08 43.9361 1321.24 43.9361 L1331.7 43.9361 L1331.7 43.2069 Q1331.7 38.0623 1328.29 35.2672 Q1324.93 32.4315 1318.81 32.4315 Q1314.92 32.4315 1311.24 33.3632 Q1307.55 34.295 1304.15 36.1584 L1304.15 29.2718 Q1308.24 27.692 1312.09 26.9223 Q1315.94 26.1121 1319.58 26.1121 Q1329.43 26.1121 1334.29 31.2163 Q1339.15 36.3204 1339.15 46.6907 Z" fill="#000000" fill-rule="nonzero" fill-opacity="1"></path><path clip-path="url(#clip940)" d="M1354.5 9.54393 L1361.96 9.54393 L1361.96 72.576 L1354.5 72.576 L1354.5 9.54393 Z" fill="#000000" fill-rule="nonzero" fill-opacity="1"></path><path clip-path="url(#clip940)" d="M1432.93 44.2197 Q1435.56 45.1109 1438.03 48.0275 Q1440.54 50.9442 1443.06 56.0483 L1451.36 72.576 L1442.57 72.576 L1434.83 57.061 Q1431.83 50.9847 1429 48.9997 Q1426.2 47.0148 1421.34 47.0148 L1412.43 47.0148 L1412.43 72.576 L1404.25 72.576 L1404.25 12.096 L1422.72 12.096 Q1433.09 12.096 1438.19 16.4305 Q1443.3 20.7649 1443.3 29.5149 Q1443.3 35.2267 1440.62 38.994 Q1437.99 42.7613 1432.93 44.2197 M1412.43 18.8205 L1412.43 40.2903 L1422.72 40.2903 Q1428.63 40.2903 1431.63 37.5762 Q1434.67 34.8216 1434.67 29.5149 Q1434.67 24.2082 1431.63 21.5346 Q1428.63 18.8205 1422.72 18.8205 L1412.43 18.8205 Z" fill="#000000" fill-rule="nonzero" fill-opacity="1"></path><path clip-path="url(#clip940)" d="M1470.07 18.8205 L1470.07 65.8515 L1479.96 65.8515 Q1492.48 65.8515 1498.27 60.1802 Q1504.1 54.509 1504.1 42.2752 Q1504.1 30.1225 1498.27 24.4918 Q1492.48 18.8205 1479.96 18.8205 L1470.07 18.8205 M1461.89 12.096 L1478.7 12.096 Q1496.28 12.096 1504.51 19.4281 Q1512.73 26.7198 1512.73 42.2752 Q1512.73 57.9117 1504.47 65.2439 Q1496.2 72.576 1478.7 72.576 L1461.89 72.576 L1461.89 12.096 Z" fill="#000000" fill-rule="nonzero" fill-opacity="1"></path><path clip-path="url(#clip940)" d="M1533.96 18.8205 L1533.96 41.5461 L1544.25 41.5461 Q1549.96 41.5461 1553.08 38.5889 Q1556.2 35.6318 1556.2 30.163 Q1556.2 24.7348 1553.08 21.7777 Q1549.96 18.8205 1544.25 18.8205 L1533.96 18.8205 M1525.77 12.096 L1544.25 12.096 Q1554.41 12.096 1559.6 16.714 Q1564.83 21.2916 1564.83 30.163 Q1564.83 39.1155 1559.6 43.6931 Q1554.41 48.2706 1544.25 48.2706 L1533.96 48.2706 L1533.96 72.576 L1525.77 72.576 L1525.77 12.096 Z" fill="#000000" fill-rule="nonzero" fill-opacity="1"></path><path clip-path="url(#clip940)" d="M1617.04 63.9476 L1617.04 47.7034 L1603.67 47.7034 L1603.67 40.9789 L1625.14 40.9789 L1625.14 66.9452 Q1620.4 70.3075 1614.69 72.0494 Q1608.98 73.7508 1602.5 73.7508 Q1588.32 73.7508 1580.3 65.4869 Q1572.32 57.1826 1572.32 42.3968 Q1572.32 27.5705 1580.3 19.3066 Q1588.32 11.0023 1602.5 11.0023 Q1608.41 11.0023 1613.72 12.4606 Q1619.07 13.9189 1623.56 16.7545 L1623.56 25.464 Q1619.03 21.6156 1613.92 19.6712 Q1608.82 17.7268 1603.19 17.7268 Q1592.09 17.7268 1586.5 23.9246 Q1580.95 30.1225 1580.95 42.3968 Q1580.95 54.6305 1586.5 60.8284 Q1592.09 67.0263 1603.19 67.0263 Q1607.52 67.0263 1610.92 66.2971 Q1614.33 65.5274 1617.04 63.9476 Z" fill="#000000" fill-rule="nonzero" fill-opacity="1"></path><path clip-path="url(#clip940)" d="M1666.14 9.54393 L1673.59 9.54393 L1673.59 72.576 L1666.14 72.576 L1666.14 9.54393 Z" fill="#000000" fill-rule="nonzero" fill-opacity="1"></path><path clip-path="url(#clip940)" d="M1706.77 32.4315 Q1700.77 32.4315 1697.29 37.1306 Q1693.81 41.7891 1693.81 49.9314 Q1693.81 58.0738 1697.25 62.7728 Q1700.73 67.4314 1706.77 67.4314 Q1712.72 67.4314 1716.21 62.7323 Q1719.69 58.0333 1719.69 49.9314 Q1719.69 41.8701 1716.21 37.1711 Q1712.72 32.4315 1706.77 32.4315 M1706.77 26.1121 Q1716.49 26.1121 1722.04 32.4315 Q1727.59 38.7509 1727.59 49.9314 Q1727.59 61.0714 1722.04 67.4314 Q1716.49 73.7508 1706.77 73.7508 Q1697.01 73.7508 1691.46 67.4314 Q1685.95 61.0714 1685.95 49.9314 Q1685.95 38.7509 1691.46 32.4315 Q1697.01 26.1121 1706.77 26.1121 Z" fill="#000000" fill-rule="nonzero" fill-opacity="1"></path><path clip-path="url(#clip940)" d="M1768.87 28.5427 L1768.87 35.5912 Q1765.71 33.9709 1762.31 33.1607 Q1758.9 32.3505 1755.26 32.3505 Q1749.71 32.3505 1746.91 34.0519 Q1744.16 35.7533 1744.16 39.156 Q1744.16 41.7486 1746.14 43.2475 Q1748.13 44.7058 1754.12 46.0426 L1756.68 46.6097 Q1764.62 48.3111 1767.94 51.4303 Q1771.3 54.509 1771.3 60.0587 Q1771.3 66.3781 1766.28 70.0644 Q1761.29 73.7508 1752.54 73.7508 Q1748.9 73.7508 1744.93 73.0216 Q1741 72.3329 1736.62 70.9151 L1736.62 63.2184 Q1740.76 65.3654 1744.77 66.4591 Q1748.78 67.5124 1752.71 67.5124 Q1757.97 67.5124 1760.81 65.73 Q1763.64 63.9071 1763.64 60.6258 Q1763.64 57.5877 1761.58 55.9673 Q1759.55 54.3469 1752.63 52.8481 L1750.03 52.2405 Q1743.11 50.7821 1740.03 47.7845 Q1736.95 44.7463 1736.95 39.4801 Q1736.95 33.0797 1741.49 29.5959 Q1746.02 26.1121 1754.37 26.1121 Q1758.5 26.1121 1762.14 26.7198 Q1765.79 27.3274 1768.87 28.5427 Z" fill="#000000" fill-rule="nonzero" fill-opacity="1"></path><path clip-path="url(#clip940)" d="M1812.09 28.5427 L1812.09 35.5912 Q1808.93 33.9709 1805.53 33.1607 Q1802.13 32.3505 1798.48 32.3505 Q1792.93 32.3505 1790.14 34.0519 Q1787.38 35.7533 1787.38 39.156 Q1787.38 41.7486 1789.37 43.2475 Q1791.35 44.7058 1797.35 46.0426 L1799.9 46.6097 Q1807.84 48.3111 1811.16 51.4303 Q1814.52 54.509 1814.52 60.0587 Q1814.52 66.3781 1809.5 70.0644 Q1804.52 73.7508 1795.77 73.7508 Q1792.12 73.7508 1788.15 73.0216 Q1784.22 72.3329 1779.85 70.9151 L1779.85 63.2184 Q1783.98 65.3654 1787.99 66.4591 Q1792 67.5124 1795.93 67.5124 Q1801.2 67.5124 1804.03 65.73 Q1806.87 63.9071 1806.87 60.6258 Q1806.87 57.5877 1804.8 55.9673 Q1802.78 54.3469 1795.85 52.8481 L1793.26 52.2405 Q1786.33 50.7821 1783.25 47.7845 Q1780.17 44.7463 1780.17 39.4801 Q1780.17 33.0797 1784.71 29.5959 Q1789.25 26.1121 1797.59 26.1121 Q1801.72 26.1121 1805.37 26.7198 Q1809.01 27.3274 1812.09 28.5427 Z" fill="#000000" fill-rule="nonzero" fill-opacity="1"></path><polyline clip-path="url(#clip942)" style="stroke:#009af9; stroke-linecap:round; stroke-linejoin:round; stroke-width:4; stroke-opacity:1; fill:none" points="321.708,1386.4 425.492,1309.68 529.275,1340.23 633.059,1353.59 736.843,1356.82 840.627,1355.36 944.41,1346.34 1048.19,1332.86 1151.98,1315.96 1255.76,1296.36 1359.55,1271.38 1463.33,1240.77 1567.11,1200.75 1670.9,1148.07 1774.68,1072.74 1878.46,975.101 1982.25,847.326 2086.03,678.6 2189.82,458.161 2293.6,160.256 "></polyline>
<polyline clip-path="url(#clip942)" style="stroke:#ff0000; stroke-linecap:round; stroke-linejoin:round; stroke-width:2; stroke-opacity:1; fill:none" points="1878.46,1386.4 1878.46,1370.34 "></polyline>
<polyline clip-path="url(#clip942)" style="stroke:#ff0000; stroke-linecap:round; stroke-linejoin:round; stroke-width:2; stroke-opacity:1; fill:none" points="1878.46,1386.4 1878.46,182.504 "></polyline>
<path clip-path="url(#clip940)" d="M332.225 374.156 L1004.97 374.156 L1004.97 166.796 L332.225 166.796  Z" fill="#ffffff" fill-rule="evenodd" fill-opacity="1"></path>
<polyline clip-path="url(#clip940)" style="stroke:#000000; stroke-linecap:round; stroke-linejoin:round; stroke-width:4; stroke-opacity:1; fill:none" points="332.225,374.156 1004.97,374.156 1004.97,166.796 332.225,166.796 332.225,374.156 "></polyline>
<polyline clip-path="url(#clip940)" style="stroke:#009af9; stroke-linecap:round; stroke-linejoin:round; stroke-width:4; stroke-opacity:1; fill:none" points="355.449,218.636 494.796,218.636 "></polyline>
<path clip-path="url(#clip940)" d="M518.021 199.897 L522.28 199.897 L522.28 235.916 L518.021 235.916 L518.021 199.897 Z" fill="#000000" fill-rule="nonzero" fill-opacity="1"></path><path clip-path="url(#clip940)" d="M541.238 212.976 Q537.812 212.976 535.822 215.661 Q533.831 218.323 533.831 222.976 Q533.831 227.629 535.798 230.314 Q537.789 232.976 541.238 232.976 Q544.641 232.976 546.632 230.291 Q548.622 227.606 548.622 222.976 Q548.622 218.37 546.632 215.684 Q544.641 212.976 541.238 212.976 M541.238 209.365 Q546.794 209.365 549.965 212.976 Q553.136 216.587 553.136 222.976 Q553.136 229.342 549.965 232.976 Q546.794 236.587 541.238 236.587 Q535.659 236.587 532.488 232.976 Q529.34 229.342 529.34 222.976 Q529.34 216.587 532.488 212.976 Q535.659 209.365 541.238 209.365 Z" fill="#000000" fill-rule="nonzero" fill-opacity="1"></path><path clip-path="url(#clip940)" d="M576.724 210.754 L576.724 214.782 Q574.919 213.856 572.974 213.393 Q571.03 212.93 568.946 212.93 Q565.775 212.93 564.178 213.902 Q562.604 214.874 562.604 216.819 Q562.604 218.3 563.738 219.157 Q564.872 219.99 568.298 220.754 L569.757 221.078 Q574.294 222.05 576.192 223.832 Q578.113 225.592 578.113 228.763 Q578.113 232.374 575.243 234.481 Q572.395 236.587 567.395 236.587 Q565.312 236.587 563.044 236.17 Q560.798 235.777 558.298 234.967 L558.298 230.569 Q560.659 231.795 562.951 232.42 Q565.243 233.022 567.488 233.022 Q570.497 233.022 572.118 232.004 Q573.738 230.962 573.738 229.087 Q573.738 227.351 572.557 226.425 Q571.4 225.499 567.442 224.643 L565.96 224.295 Q562.002 223.462 560.243 221.749 Q558.483 220.013 558.483 217.004 Q558.483 213.346 561.076 211.356 Q563.669 209.365 568.437 209.365 Q570.798 209.365 572.882 209.712 Q574.965 210.059 576.724 210.754 Z" fill="#000000" fill-rule="nonzero" fill-opacity="1"></path><path clip-path="url(#clip940)" d="M601.423 210.754 L601.423 214.782 Q599.617 213.856 597.673 213.393 Q595.729 212.93 593.645 212.93 Q590.474 212.93 588.877 213.902 Q587.303 214.874 587.303 216.819 Q587.303 218.3 588.437 219.157 Q589.571 219.99 592.997 220.754 L594.455 221.078 Q598.992 222.05 600.891 223.832 Q602.812 225.592 602.812 228.763 Q602.812 232.374 599.942 234.481 Q597.094 236.587 592.094 236.587 Q590.011 236.587 587.743 236.17 Q585.497 235.777 582.997 234.967 L582.997 230.569 Q585.358 231.795 587.65 232.42 Q589.942 233.022 592.187 233.022 Q595.196 233.022 596.817 232.004 Q598.437 230.962 598.437 229.087 Q598.437 227.351 597.256 226.425 Q596.099 225.499 592.141 224.643 L590.659 224.295 Q586.701 223.462 584.942 221.749 Q583.182 220.013 583.182 217.004 Q583.182 213.346 585.775 211.356 Q588.368 209.365 593.136 209.365 Q595.497 209.365 597.58 209.712 Q599.664 210.059 601.423 210.754 Z" fill="#000000" fill-rule="nonzero" fill-opacity="1"></path><polyline clip-path="url(#clip940)" style="stroke:#ff0000; stroke-linecap:round; stroke-linejoin:round; stroke-width:2; stroke-opacity:1; fill:none" points="355.449,270.476 494.796,270.476 "></polyline>
<path clip-path="url(#clip940)" d="M542.048 273.728 L542.048 275.811 L522.465 275.811 Q522.743 280.209 525.104 282.524 Q527.488 284.816 531.724 284.816 Q534.178 284.816 536.47 284.214 Q538.784 283.612 541.053 282.409 L541.053 286.436 Q538.761 287.408 536.354 287.918 Q533.947 288.427 531.47 288.427 Q525.266 288.427 521.632 284.816 Q518.021 281.205 518.021 275.047 Q518.021 268.682 521.447 264.955 Q524.896 261.205 530.729 261.205 Q535.96 261.205 538.993 264.585 Q542.048 267.941 542.048 273.728 M537.789 272.478 Q537.743 268.983 535.822 266.899 Q533.923 264.816 530.775 264.816 Q527.21 264.816 525.058 266.83 Q522.928 268.844 522.604 272.501 L537.789 272.478 Z" fill="#000000" fill-rule="nonzero" fill-opacity="1"></path><path clip-path="url(#clip940)" d="M570.59 272.108 L570.59 287.756 L566.331 287.756 L566.331 272.247 Q566.331 268.566 564.895 266.737 Q563.46 264.909 560.59 264.909 Q557.141 264.909 555.15 267.108 Q553.159 269.307 553.159 273.103 L553.159 287.756 L548.877 287.756 L548.877 261.83 L553.159 261.83 L553.159 265.858 Q554.687 263.52 556.747 262.362 Q558.831 261.205 561.539 261.205 Q566.007 261.205 568.298 263.983 Q570.59 266.737 570.59 272.108 Z" fill="#000000" fill-rule="nonzero" fill-opacity="1"></path><path clip-path="url(#clip940)" d="M596.145 265.765 L596.145 251.737 L600.405 251.737 L600.405 287.756 L596.145 287.756 L596.145 283.867 Q594.803 286.182 592.743 287.316 Q590.705 288.427 587.835 288.427 Q583.136 288.427 580.173 284.677 Q577.233 280.927 577.233 274.816 Q577.233 268.705 580.173 264.955 Q583.136 261.205 587.835 261.205 Q590.705 261.205 592.743 262.339 Q594.803 263.45 596.145 265.765 M581.631 274.816 Q581.631 279.515 583.553 282.2 Q585.497 284.862 588.877 284.862 Q592.256 284.862 594.201 282.2 Q596.145 279.515 596.145 274.816 Q596.145 270.117 594.201 267.455 Q592.256 264.77 588.877 264.77 Q585.497 264.77 583.553 267.455 Q581.631 270.117 581.631 274.816 Z" fill="#000000" fill-rule="nonzero" fill-opacity="1"></path><path clip-path="url(#clip940)" d="M634.293 264.816 Q630.867 264.816 628.877 267.501 Q626.886 270.163 626.886 274.816 Q626.886 279.469 628.853 282.154 Q630.844 284.816 634.293 284.816 Q637.696 284.816 639.687 282.131 Q641.677 279.446 641.677 274.816 Q641.677 270.21 639.687 267.524 Q637.696 264.816 634.293 264.816 M634.293 261.205 Q639.849 261.205 643.02 264.816 Q646.191 268.427 646.191 274.816 Q646.191 281.182 643.02 284.816 Q639.849 288.427 634.293 288.427 Q628.715 288.427 625.543 284.816 Q622.395 281.182 622.395 274.816 Q622.395 268.427 625.543 264.816 Q628.715 261.205 634.293 261.205 Z" fill="#000000" fill-rule="nonzero" fill-opacity="1"></path><path clip-path="url(#clip940)" d="M666.376 251.737 L666.376 255.279 L662.302 255.279 Q660.011 255.279 659.108 256.205 Q658.228 257.131 658.228 259.538 L658.228 261.83 L665.242 261.83 L665.242 265.14 L658.228 265.14 L658.228 287.756 L653.946 287.756 L653.946 265.14 L649.872 265.14 L649.872 261.83 L653.946 261.83 L653.946 260.024 Q653.946 255.696 655.96 253.728 Q657.974 251.737 662.349 251.737 L666.376 251.737 Z" fill="#000000" fill-rule="nonzero" fill-opacity="1"></path><path clip-path="url(#clip940)" d="M689.223 254.469 L689.223 261.83 L697.997 261.83 L697.997 265.14 L689.223 265.14 L689.223 279.214 Q689.223 282.385 690.08 283.288 Q690.96 284.191 693.622 284.191 L697.997 284.191 L697.997 287.756 L693.622 287.756 Q688.691 287.756 686.816 285.927 Q684.941 284.075 684.941 279.214 L684.941 265.14 L681.816 265.14 L681.816 261.83 L684.941 261.83 L684.941 254.469 L689.223 254.469 Z" fill="#000000" fill-rule="nonzero" fill-opacity="1"></path><path clip-path="url(#clip940)" d="M718.621 265.811 Q717.904 265.395 717.047 265.21 Q716.214 265.001 715.196 265.001 Q711.584 265.001 709.64 267.362 Q707.719 269.7 707.719 274.098 L707.719 287.756 L703.436 287.756 L703.436 261.83 L707.719 261.83 L707.719 265.858 Q709.061 263.497 711.214 262.362 Q713.367 261.205 716.446 261.205 Q716.885 261.205 717.418 261.274 Q717.95 261.321 718.598 261.436 L718.621 265.811 Z" fill="#000000" fill-rule="nonzero" fill-opacity="1"></path><path clip-path="url(#clip940)" d="M734.871 274.723 Q729.709 274.723 727.719 275.904 Q725.728 277.084 725.728 279.932 Q725.728 282.2 727.209 283.543 Q728.714 284.862 731.283 284.862 Q734.825 284.862 736.955 282.362 Q739.107 279.839 739.107 275.672 L739.107 274.723 L734.871 274.723 M743.367 272.964 L743.367 287.756 L739.107 287.756 L739.107 283.821 Q737.649 286.182 735.473 287.316 Q733.297 288.427 730.149 288.427 Q726.168 288.427 723.807 286.205 Q721.469 283.959 721.469 280.209 Q721.469 275.834 724.385 273.612 Q727.325 271.39 733.135 271.39 L739.107 271.39 L739.107 270.973 Q739.107 268.034 737.163 266.436 Q735.242 264.816 731.746 264.816 Q729.524 264.816 727.418 265.348 Q725.311 265.881 723.367 266.946 L723.367 263.01 Q725.705 262.108 727.904 261.668 Q730.103 261.205 732.186 261.205 Q737.811 261.205 740.589 264.122 Q743.367 267.038 743.367 272.964 Z" fill="#000000" fill-rule="nonzero" fill-opacity="1"></path><path clip-path="url(#clip940)" d="M752.14 261.83 L756.399 261.83 L756.399 287.756 L752.14 287.756 L752.14 261.83 M752.14 251.737 L756.399 251.737 L756.399 257.131 L752.14 257.131 L752.14 251.737 Z" fill="#000000" fill-rule="nonzero" fill-opacity="1"></path><path clip-path="url(#clip940)" d="M786.862 272.108 L786.862 287.756 L782.603 287.756 L782.603 272.247 Q782.603 268.566 781.167 266.737 Q779.732 264.909 776.862 264.909 Q773.413 264.909 771.422 267.108 Q769.431 269.307 769.431 273.103 L769.431 287.756 L765.149 287.756 L765.149 261.83 L769.431 261.83 L769.431 265.858 Q770.959 263.52 773.019 262.362 Q775.103 261.205 777.811 261.205 Q782.279 261.205 784.57 263.983 Q786.862 266.737 786.862 272.108 Z" fill="#000000" fill-rule="nonzero" fill-opacity="1"></path><path clip-path="url(#clip940)" d="M795.357 261.83 L799.616 261.83 L799.616 287.756 L795.357 287.756 L795.357 261.83 M795.357 251.737 L799.616 251.737 L799.616 257.131 L795.357 257.131 L795.357 251.737 Z" fill="#000000" fill-rule="nonzero" fill-opacity="1"></path><path clip-path="url(#clip940)" d="M830.079 272.108 L830.079 287.756 L825.82 287.756 L825.82 272.247 Q825.82 268.566 824.385 266.737 Q822.95 264.909 820.079 264.909 Q816.63 264.909 814.639 267.108 Q812.649 269.307 812.649 273.103 L812.649 287.756 L808.366 287.756 L808.366 261.83 L812.649 261.83 L812.649 265.858 Q814.177 263.52 816.237 262.362 Q818.32 261.205 821.028 261.205 Q825.496 261.205 827.788 263.983 Q830.079 266.737 830.079 272.108 Z" fill="#000000" fill-rule="nonzero" fill-opacity="1"></path><path clip-path="url(#clip940)" d="M855.635 274.492 Q855.635 269.862 853.713 267.316 Q851.815 264.77 848.366 264.77 Q844.94 264.77 843.019 267.316 Q841.121 269.862 841.121 274.492 Q841.121 279.098 843.019 281.645 Q844.94 284.191 848.366 284.191 Q851.815 284.191 853.713 281.645 Q855.635 279.098 855.635 274.492 M859.894 284.538 Q859.894 291.158 856.954 294.376 Q854.014 297.617 847.949 297.617 Q845.704 297.617 843.713 297.27 Q841.723 296.945 839.848 296.251 L839.848 292.108 Q841.723 293.126 843.551 293.612 Q845.38 294.098 847.278 294.098 Q851.468 294.098 853.551 291.899 Q855.635 289.723 855.635 285.302 L855.635 283.196 Q854.315 285.487 852.255 286.621 Q850.195 287.756 847.324 287.756 Q842.556 287.756 839.639 284.121 Q836.723 280.487 836.723 274.492 Q836.723 268.473 839.639 264.839 Q842.556 261.205 847.324 261.205 Q850.195 261.205 852.255 262.339 Q854.315 263.473 855.635 265.765 L855.635 261.83 L859.894 261.83 L859.894 284.538 Z" fill="#000000" fill-rule="nonzero" fill-opacity="1"></path><path clip-path="url(#clip940)" d="M900.796 265.765 L900.796 251.737 L905.056 251.737 L905.056 287.756 L900.796 287.756 L900.796 283.867 Q899.454 286.182 897.394 287.316 Q895.357 288.427 892.486 288.427 Q887.787 288.427 884.824 284.677 Q881.884 280.927 881.884 274.816 Q881.884 268.705 884.824 264.955 Q887.787 261.205 892.486 261.205 Q895.357 261.205 897.394 262.339 Q899.454 263.45 900.796 265.765 M886.283 274.816 Q886.283 279.515 888.204 282.2 Q890.148 284.862 893.528 284.862 Q896.908 284.862 898.852 282.2 Q900.796 279.515 900.796 274.816 Q900.796 270.117 898.852 267.455 Q896.908 264.77 893.528 264.77 Q890.148 264.77 888.204 267.455 Q886.283 270.117 886.283 274.816 Z" fill="#000000" fill-rule="nonzero" fill-opacity="1"></path><path clip-path="url(#clip940)" d="M925.611 274.723 Q920.449 274.723 918.458 275.904 Q916.468 277.084 916.468 279.932 Q916.468 282.2 917.949 283.543 Q919.454 284.862 922.023 284.862 Q925.565 284.862 927.694 282.362 Q929.847 279.839 929.847 275.672 L929.847 274.723 L925.611 274.723 M934.106 272.964 L934.106 287.756 L929.847 287.756 L929.847 283.821 Q928.389 286.182 926.213 287.316 Q924.037 288.427 920.889 288.427 Q916.907 288.427 914.546 286.205 Q912.208 283.959 912.208 280.209 Q912.208 275.834 915.125 273.612 Q918.065 271.39 923.875 271.39 L929.847 271.39 L929.847 270.973 Q929.847 268.034 927.903 266.436 Q925.981 264.816 922.486 264.816 Q920.264 264.816 918.157 265.348 Q916.051 265.881 914.107 266.946 L914.107 263.01 Q916.444 262.108 918.644 261.668 Q920.843 261.205 922.926 261.205 Q928.551 261.205 931.329 264.122 Q934.106 267.038 934.106 272.964 Z" fill="#000000" fill-rule="nonzero" fill-opacity="1"></path><path clip-path="url(#clip940)" d="M947.092 254.469 L947.092 261.83 L955.866 261.83 L955.866 265.14 L947.092 265.14 L947.092 279.214 Q947.092 282.385 947.949 283.288 Q948.829 284.191 951.491 284.191 L955.866 284.191 L955.866 287.756 L951.491 287.756 Q946.56 287.756 944.685 285.927 Q942.81 284.075 942.81 279.214 L942.81 265.14 L939.685 265.14 L939.685 261.83 L942.81 261.83 L942.81 254.469 L947.092 254.469 Z" fill="#000000" fill-rule="nonzero" fill-opacity="1"></path><path clip-path="url(#clip940)" d="M973.25 274.723 Q968.088 274.723 966.097 275.904 Q964.106 277.084 964.106 279.932 Q964.106 282.2 965.588 283.543 Q967.092 284.862 969.662 284.862 Q973.203 284.862 975.333 282.362 Q977.486 279.839 977.486 275.672 L977.486 274.723 L973.25 274.723 M981.745 272.964 L981.745 287.756 L977.486 287.756 L977.486 283.821 Q976.027 286.182 973.852 287.316 Q971.676 288.427 968.528 288.427 Q964.546 288.427 962.185 286.205 Q959.847 283.959 959.847 280.209 Q959.847 275.834 962.764 273.612 Q965.703 271.39 971.514 271.39 L977.486 271.39 L977.486 270.973 Q977.486 268.034 975.541 266.436 Q973.62 264.816 970.125 264.816 Q967.903 264.816 965.796 265.348 Q963.69 265.881 961.745 266.946 L961.745 263.01 Q964.083 262.108 966.282 261.668 Q968.481 261.205 970.565 261.205 Q976.19 261.205 978.967 264.122 Q981.745 267.038 981.745 272.964 Z" fill="#000000" fill-rule="nonzero" fill-opacity="1"></path><polyline clip-path="url(#clip940)" style="stroke:#ff0000; stroke-linecap:round; stroke-linejoin:round; stroke-width:2; stroke-opacity:1; fill:none" points="355.449,322.316 494.796,322.316 "></polyline>
<path clip-path="url(#clip940)" d="M542.048 325.568 L542.048 327.651 L522.465 327.651 Q522.743 332.049 525.104 334.364 Q527.488 336.656 531.724 336.656 Q534.178 336.656 536.47 336.054 Q538.784 335.452 541.053 334.249 L541.053 338.276 Q538.761 339.248 536.354 339.758 Q533.947 340.267 531.47 340.267 Q525.266 340.267 521.632 336.656 Q518.021 333.045 518.021 326.887 Q518.021 320.522 521.447 316.795 Q524.896 313.045 530.729 313.045 Q535.96 313.045 538.993 316.425 Q542.048 319.781 542.048 325.568 M537.789 324.318 Q537.743 320.823 535.822 318.739 Q533.923 316.656 530.775 316.656 Q527.21 316.656 525.058 318.67 Q522.928 320.684 522.604 324.341 L537.789 324.318 Z" fill="#000000" fill-rule="nonzero" fill-opacity="1"></path><path clip-path="url(#clip940)" d="M570.59 323.948 L570.59 339.596 L566.331 339.596 L566.331 324.087 Q566.331 320.406 564.895 318.577 Q563.46 316.749 560.59 316.749 Q557.141 316.749 555.15 318.948 Q553.159 321.147 553.159 324.943 L553.159 339.596 L548.877 339.596 L548.877 313.67 L553.159 313.67 L553.159 317.698 Q554.687 315.36 556.747 314.202 Q558.831 313.045 561.539 313.045 Q566.007 313.045 568.298 315.823 Q570.59 318.577 570.59 323.948 Z" fill="#000000" fill-rule="nonzero" fill-opacity="1"></path><path clip-path="url(#clip940)" d="M596.145 317.605 L596.145 303.577 L600.405 303.577 L600.405 339.596 L596.145 339.596 L596.145 335.707 Q594.803 338.022 592.743 339.156 Q590.705 340.267 587.835 340.267 Q583.136 340.267 580.173 336.517 Q577.233 332.767 577.233 326.656 Q577.233 320.545 580.173 316.795 Q583.136 313.045 587.835 313.045 Q590.705 313.045 592.743 314.179 Q594.803 315.29 596.145 317.605 M581.631 326.656 Q581.631 331.355 583.553 334.04 Q585.497 336.702 588.877 336.702 Q592.256 336.702 594.201 334.04 Q596.145 331.355 596.145 326.656 Q596.145 321.957 594.201 319.295 Q592.256 316.61 588.877 316.61 Q585.497 316.61 583.553 319.295 Q581.631 321.957 581.631 326.656 Z" fill="#000000" fill-rule="nonzero" fill-opacity="1"></path><path clip-path="url(#clip940)" d="M634.293 316.656 Q630.867 316.656 628.877 319.341 Q626.886 322.003 626.886 326.656 Q626.886 331.309 628.853 333.994 Q630.844 336.656 634.293 336.656 Q637.696 336.656 639.687 333.971 Q641.677 331.286 641.677 326.656 Q641.677 322.05 639.687 319.364 Q637.696 316.656 634.293 316.656 M634.293 313.045 Q639.849 313.045 643.02 316.656 Q646.191 320.267 646.191 326.656 Q646.191 333.022 643.02 336.656 Q639.849 340.267 634.293 340.267 Q628.715 340.267 625.543 336.656 Q622.395 333.022 622.395 326.656 Q622.395 320.267 625.543 316.656 Q628.715 313.045 634.293 313.045 Z" fill="#000000" fill-rule="nonzero" fill-opacity="1"></path><path clip-path="url(#clip940)" d="M666.376 303.577 L666.376 307.119 L662.302 307.119 Q660.011 307.119 659.108 308.045 Q658.228 308.971 658.228 311.378 L658.228 313.67 L665.242 313.67 L665.242 316.98 L658.228 316.98 L658.228 339.596 L653.946 339.596 L653.946 316.98 L649.872 316.98 L649.872 313.67 L653.946 313.67 L653.946 311.864 Q653.946 307.536 655.96 305.568 Q657.974 303.577 662.349 303.577 L666.376 303.577 Z" fill="#000000" fill-rule="nonzero" fill-opacity="1"></path><path clip-path="url(#clip940)" d="M689.223 306.309 L689.223 313.67 L697.997 313.67 L697.997 316.98 L689.223 316.98 L689.223 331.054 Q689.223 334.225 690.08 335.128 Q690.96 336.031 693.622 336.031 L697.997 336.031 L697.997 339.596 L693.622 339.596 Q688.691 339.596 686.816 337.767 Q684.941 335.915 684.941 331.054 L684.941 316.98 L681.816 316.98 L681.816 313.67 L684.941 313.67 L684.941 306.309 L689.223 306.309 Z" fill="#000000" fill-rule="nonzero" fill-opacity="1"></path><path clip-path="url(#clip940)" d="M718.621 317.651 Q717.904 317.235 717.047 317.05 Q716.214 316.841 715.196 316.841 Q711.584 316.841 709.64 319.202 Q707.719 321.54 707.719 325.938 L707.719 339.596 L703.436 339.596 L703.436 313.67 L707.719 313.67 L707.719 317.698 Q709.061 315.337 711.214 314.202 Q713.367 313.045 716.446 313.045 Q716.885 313.045 717.418 313.114 Q717.95 313.161 718.598 313.276 L718.621 317.651 Z" fill="#000000" fill-rule="nonzero" fill-opacity="1"></path><path clip-path="url(#clip940)" d="M734.871 326.563 Q729.709 326.563 727.719 327.744 Q725.728 328.924 725.728 331.772 Q725.728 334.04 727.209 335.383 Q728.714 336.702 731.283 336.702 Q734.825 336.702 736.955 334.202 Q739.107 331.679 739.107 327.512 L739.107 326.563 L734.871 326.563 M743.367 324.804 L743.367 339.596 L739.107 339.596 L739.107 335.661 Q737.649 338.022 735.473 339.156 Q733.297 340.267 730.149 340.267 Q726.168 340.267 723.807 338.045 Q721.469 335.799 721.469 332.049 Q721.469 327.674 724.385 325.452 Q727.325 323.23 733.135 323.23 L739.107 323.23 L739.107 322.813 Q739.107 319.874 737.163 318.276 Q735.242 316.656 731.746 316.656 Q729.524 316.656 727.418 317.188 Q725.311 317.721 723.367 318.786 L723.367 314.85 Q725.705 313.948 727.904 313.508 Q730.103 313.045 732.186 313.045 Q737.811 313.045 740.589 315.962 Q743.367 318.878 743.367 324.804 Z" fill="#000000" fill-rule="nonzero" fill-opacity="1"></path><path clip-path="url(#clip940)" d="M752.14 313.67 L756.399 313.67 L756.399 339.596 L752.14 339.596 L752.14 313.67 M752.14 303.577 L756.399 303.577 L756.399 308.971 L752.14 308.971 L752.14 303.577 Z" fill="#000000" fill-rule="nonzero" fill-opacity="1"></path><path clip-path="url(#clip940)" d="M786.862 323.948 L786.862 339.596 L782.603 339.596 L782.603 324.087 Q782.603 320.406 781.167 318.577 Q779.732 316.749 776.862 316.749 Q773.413 316.749 771.422 318.948 Q769.431 321.147 769.431 324.943 L769.431 339.596 L765.149 339.596 L765.149 313.67 L769.431 313.67 L769.431 317.698 Q770.959 315.36 773.019 314.202 Q775.103 313.045 777.811 313.045 Q782.279 313.045 784.57 315.823 Q786.862 318.577 786.862 323.948 Z" fill="#000000" fill-rule="nonzero" fill-opacity="1"></path><path clip-path="url(#clip940)" d="M795.357 313.67 L799.616 313.67 L799.616 339.596 L795.357 339.596 L795.357 313.67 M795.357 303.577 L799.616 303.577 L799.616 308.971 L795.357 308.971 L795.357 303.577 Z" fill="#000000" fill-rule="nonzero" fill-opacity="1"></path><path clip-path="url(#clip940)" d="M830.079 323.948 L830.079 339.596 L825.82 339.596 L825.82 324.087 Q825.82 320.406 824.385 318.577 Q822.95 316.749 820.079 316.749 Q816.63 316.749 814.639 318.948 Q812.649 321.147 812.649 324.943 L812.649 339.596 L808.366 339.596 L808.366 313.67 L812.649 313.67 L812.649 317.698 Q814.177 315.36 816.237 314.202 Q818.32 313.045 821.028 313.045 Q825.496 313.045 827.788 315.823 Q830.079 318.577 830.079 323.948 Z" fill="#000000" fill-rule="nonzero" fill-opacity="1"></path><path clip-path="url(#clip940)" d="M855.635 326.332 Q855.635 321.702 853.713 319.156 Q851.815 316.61 848.366 316.61 Q844.94 316.61 843.019 319.156 Q841.121 321.702 841.121 326.332 Q841.121 330.938 843.019 333.485 Q844.94 336.031 848.366 336.031 Q851.815 336.031 853.713 333.485 Q855.635 330.938 855.635 326.332 M859.894 336.378 Q859.894 342.998 856.954 346.216 Q854.014 349.457 847.949 349.457 Q845.704 349.457 843.713 349.11 Q841.723 348.785 839.848 348.091 L839.848 343.948 Q841.723 344.966 843.551 345.452 Q845.38 345.938 847.278 345.938 Q851.468 345.938 853.551 343.739 Q855.635 341.563 855.635 337.142 L855.635 335.036 Q854.315 337.327 852.255 338.461 Q850.195 339.596 847.324 339.596 Q842.556 339.596 839.639 335.961 Q836.723 332.327 836.723 326.332 Q836.723 320.313 839.639 316.679 Q842.556 313.045 847.324 313.045 Q850.195 313.045 852.255 314.179 Q854.315 315.313 855.635 317.605 L855.635 313.67 L859.894 313.67 L859.894 336.378 Z" fill="#000000" fill-rule="nonzero" fill-opacity="1"></path><path clip-path="url(#clip940)" d="M900.796 317.605 L900.796 303.577 L905.056 303.577 L905.056 339.596 L900.796 339.596 L900.796 335.707 Q899.454 338.022 897.394 339.156 Q895.357 340.267 892.486 340.267 Q887.787 340.267 884.824 336.517 Q881.884 332.767 881.884 326.656 Q881.884 320.545 884.824 316.795 Q887.787 313.045 892.486 313.045 Q895.357 313.045 897.394 314.179 Q899.454 315.29 900.796 317.605 M886.283 326.656 Q886.283 331.355 888.204 334.04 Q890.148 336.702 893.528 336.702 Q896.908 336.702 898.852 334.04 Q900.796 331.355 900.796 326.656 Q900.796 321.957 898.852 319.295 Q896.908 316.61 893.528 316.61 Q890.148 316.61 888.204 319.295 Q886.283 321.957 886.283 326.656 Z" fill="#000000" fill-rule="nonzero" fill-opacity="1"></path><path clip-path="url(#clip940)" d="M925.611 326.563 Q920.449 326.563 918.458 327.744 Q916.468 328.924 916.468 331.772 Q916.468 334.04 917.949 335.383 Q919.454 336.702 922.023 336.702 Q925.565 336.702 927.694 334.202 Q929.847 331.679 929.847 327.512 L929.847 326.563 L925.611 326.563 M934.106 324.804 L934.106 339.596 L929.847 339.596 L929.847 335.661 Q928.389 338.022 926.213 339.156 Q924.037 340.267 920.889 340.267 Q916.907 340.267 914.546 338.045 Q912.208 335.799 912.208 332.049 Q912.208 327.674 915.125 325.452 Q918.065 323.23 923.875 323.23 L929.847 323.23 L929.847 322.813 Q929.847 319.874 927.903 318.276 Q925.981 316.656 922.486 316.656 Q920.264 316.656 918.157 317.188 Q916.051 317.721 914.107 318.786 L914.107 314.85 Q916.444 313.948 918.644 313.508 Q920.843 313.045 922.926 313.045 Q928.551 313.045 931.329 315.962 Q934.106 318.878 934.106 324.804 Z" fill="#000000" fill-rule="nonzero" fill-opacity="1"></path><path clip-path="url(#clip940)" d="M947.092 306.309 L947.092 313.67 L955.866 313.67 L955.866 316.98 L947.092 316.98 L947.092 331.054 Q947.092 334.225 947.949 335.128 Q948.829 336.031 951.491 336.031 L955.866 336.031 L955.866 339.596 L951.491 339.596 Q946.56 339.596 944.685 337.767 Q942.81 335.915 942.81 331.054 L942.81 316.98 L939.685 316.98 L939.685 313.67 L942.81 313.67 L942.81 306.309 L947.092 306.309 Z" fill="#000000" fill-rule="nonzero" fill-opacity="1"></path><path clip-path="url(#clip940)" d="M973.25 326.563 Q968.088 326.563 966.097 327.744 Q964.106 328.924 964.106 331.772 Q964.106 334.04 965.588 335.383 Q967.092 336.702 969.662 336.702 Q973.203 336.702 975.333 334.202 Q977.486 331.679 977.486 327.512 L977.486 326.563 L973.25 326.563 M981.745 324.804 L981.745 339.596 L977.486 339.596 L977.486 335.661 Q976.027 338.022 973.852 339.156 Q971.676 340.267 968.528 340.267 Q964.546 340.267 962.185 338.045 Q959.847 335.799 959.847 332.049 Q959.847 327.674 962.764 325.452 Q965.703 323.23 971.514 323.23 L977.486 323.23 L977.486 322.813 Q977.486 319.874 975.541 318.276 Q973.62 316.656 970.125 316.656 Q967.903 316.656 965.796 317.188 Q963.69 317.721 961.745 318.786 L961.745 314.85 Q964.083 313.948 966.282 313.508 Q968.481 313.045 970.565 313.045 Q976.19 313.045 978.967 315.962 Q981.745 318.878 981.745 324.804 Z" fill="#000000" fill-rule="nonzero" fill-opacity="1"></path></svg>