<svg xmlns="http://www.w3.org/2000/svg" xmlns:xlink="http://www.w3.org/1999/xlink" width="600" height="400" viewBox="0 0 2400 1600">
<defs>
  <clipPath id="clip540">
    <rect x="0" y="0" width="2400" height="1600"></rect>
  </clipPath>
</defs>
<path clip-path="url(#clip540)" d="M0 1600 L2400 1600 L2400 0 L0 0  Z" fill="#ffffff" fill-rule="evenodd" fill-opacity="1"></path>
<defs>
  <clipPath id="clip541">
    <rect x="480" y="0" width="1681" height="1600"></rect>
  </clipPath>
</defs>
<path clip-path="url(#clip540)" d="M149.191 1423.18 L2352.76 1423.18 L2352.76 123.472 L149.191 123.472  Z" fill="#ffffff" fill-rule="evenodd" fill-opacity="1"></path>
<defs>
  <clipPath id="clip542">
    <rect x="149" y="123" width="2205" height="1301"></rect>
  </clipPath>
</defs>
<polyline clip-path="url(#clip542)" style="stroke:#000000; stroke-linecap:round; stroke-linejoin:round; stroke-width:2; stroke-opacity:0.1; fill:none" points="211.556,1423.18 211.556,123.472 "></polyline>
<polyline clip-path="url(#clip542)" style="stroke:#000000; stroke-linecap:round; stroke-linejoin:round; stroke-width:2; stroke-opacity:0.1; fill:none" points="569.976,1423.18 569.976,123.472 "></polyline>
<polyline clip-path="url(#clip542)" style="stroke:#000000; stroke-linecap:round; stroke-linejoin:round; stroke-width:2; stroke-opacity:0.1; fill:none" points="928.396,1423.18 928.396,123.472 "></polyline>
<polyline clip-path="url(#clip542)" style="stroke:#000000; stroke-linecap:round; stroke-linejoin:round; stroke-width:2; stroke-opacity:0.1; fill:none" points="1286.82,1423.18 1286.82,123.472 "></polyline>
<polyline clip-path="url(#clip542)" style="stroke:#000000; stroke-linecap:round; stroke-linejoin:round; stroke-width:2; stroke-opacity:0.1; fill:none" points="1645.24,1423.18 1645.24,123.472 "></polyline>
<polyline clip-path="url(#clip542)" style="stroke:#000000; stroke-linecap:round; stroke-linejoin:round; stroke-width:2; stroke-opacity:0.1; fill:none" points="2003.66,1423.18 2003.66,123.472 "></polyline>
<polyline clip-path="url(#clip542)" style="stroke:#000000; stroke-linecap:round; stroke-linejoin:round; stroke-width:2; stroke-opacity:0.1; fill:none" points="149.191,1336.63 2352.76,1336.63 "></polyline>
<polyline clip-path="url(#clip542)" style="stroke:#000000; stroke-linecap:round; stroke-linejoin:round; stroke-width:2; stroke-opacity:0.1; fill:none" points="149.191,1075.22 2352.76,1075.22 "></polyline>
<polyline clip-path="url(#clip542)" style="stroke:#000000; stroke-linecap:round; stroke-linejoin:round; stroke-width:2; stroke-opacity:0.1; fill:none" points="149.191,813.799 2352.76,813.799 "></polyline>
<polyline clip-path="url(#clip542)" style="stroke:#000000; stroke-linecap:round; stroke-linejoin:round; stroke-width:2; stroke-opacity:0.1; fill:none" points="149.191,552.382 2352.76,552.382 "></polyline>
<polyline clip-path="url(#clip542)" style="stroke:#000000; stroke-linecap:round; stroke-linejoin:round; stroke-width:2; stroke-opacity:0.1; fill:none" points="149.191,290.965 2352.76,290.965 "></polyline>
<polyline clip-path="url(#clip540)" style="stroke:#000000; stroke-linecap:round; stroke-linejoin:round; stroke-width:4; stroke-opacity:1; fill:none" points="149.191,1423.18 2352.76,1423.18 "></polyline>
<polyline clip-path="url(#clip540)" style="stroke:#000000; stroke-linecap:round; stroke-linejoin:round; stroke-width:4; stroke-opacity:1; fill:none" points="211.556,1423.18 211.556,1404.28 "></polyline>
<polyline clip-path="url(#clip540)" style="stroke:#000000; stroke-linecap:round; stroke-linejoin:round; stroke-width:4; stroke-opacity:1; fill:none" points="569.976,1423.18 569.976,1404.28 "></polyline>
<polyline clip-path="url(#clip540)" style="stroke:#000000; stroke-linecap:round; stroke-linejoin:round; stroke-width:4; stroke-opacity:1; fill:none" points="928.396,1423.18 928.396,1404.28 "></polyline>
<polyline clip-path="url(#clip540)" style="stroke:#000000; stroke-linecap:round; stroke-linejoin:round; stroke-width:4; stroke-opacity:1; fill:none" points="1286.82,1423.18 1286.82,1404.28 "></polyline>
<polyline clip-path="url(#clip540)" style="stroke:#000000; stroke-linecap:round; stroke-linejoin:round; stroke-width:4; stroke-opacity:1; fill:none" points="1645.24,1423.18 1645.24,1404.28 "></polyline>
<polyline clip-path="url(#clip540)" style="stroke:#000000; stroke-linecap:round; stroke-linejoin:round; stroke-width:4; stroke-opacity:1; fill:none" points="2003.66,1423.18 2003.66,1404.28 "></polyline>
<path clip-path="url(#clip540)" d="M211.556 1454.1 Q207.945 1454.1 206.116 1457.66 Q204.311 1461.2 204.311 1468.33 Q204.311 1475.44 206.116 1479.01 Q207.945 1482.55 211.556 1482.55 Q215.19 1482.55 216.996 1479.01 Q218.824 1475.44 218.824 1468.33 Q218.824 1461.2 216.996 1457.66 Q215.19 1454.1 211.556 1454.1 M211.556 1450.39 Q217.366 1450.39 220.422 1455 Q223.5 1459.58 223.5 1468.33 Q223.5 1477.06 220.422 1481.67 Q217.366 1486.25 211.556 1486.25 Q205.746 1486.25 202.667 1481.67 Q199.612 1477.06 199.612 1468.33 Q199.612 1459.58 202.667 1455 Q205.746 1450.39 211.556 1450.39 Z" fill="#000000" fill-rule="nonzero" fill-opacity="1"></path><path clip-path="url(#clip540)" d="M560.254 1451.02 L578.61 1451.02 L578.61 1454.96 L564.536 1454.96 L564.536 1463.43 Q565.554 1463.08 566.573 1462.92 Q567.591 1462.73 568.61 1462.73 Q574.397 1462.73 577.777 1465.9 Q581.156 1469.08 581.156 1474.49 Q581.156 1480.07 577.684 1483.17 Q574.212 1486.25 567.892 1486.25 Q565.716 1486.25 563.448 1485.88 Q561.203 1485.51 558.795 1484.77 L558.795 1480.07 Q560.879 1481.2 563.101 1481.76 Q565.323 1482.32 567.8 1482.32 Q571.804 1482.32 574.142 1480.21 Q576.48 1478.1 576.48 1474.49 Q576.48 1470.88 574.142 1468.77 Q571.804 1466.67 567.8 1466.67 Q565.925 1466.67 564.05 1467.08 Q562.198 1467.5 560.254 1468.38 L560.254 1451.02 Z" fill="#000000" fill-rule="nonzero" fill-opacity="1"></path><path clip-path="url(#clip540)" d="M903.083 1481.64 L910.722 1481.64 L910.722 1455.28 L902.412 1456.95 L902.412 1452.69 L910.676 1451.02 L915.352 1451.02 L915.352 1481.64 L922.99 1481.64 L922.99 1485.58 L903.083 1485.58 L903.083 1481.64 Z" fill="#000000" fill-rule="nonzero" fill-opacity="1"></path><path clip-path="url(#clip540)" d="M942.435 1454.1 Q938.824 1454.1 936.995 1457.66 Q935.189 1461.2 935.189 1468.33 Q935.189 1475.44 936.995 1479.01 Q938.824 1482.55 942.435 1482.55 Q946.069 1482.55 947.875 1479.01 Q949.703 1475.44 949.703 1468.33 Q949.703 1461.2 947.875 1457.66 Q946.069 1454.1 942.435 1454.1 M942.435 1450.39 Q948.245 1450.39 951.301 1455 Q954.379 1459.58 954.379 1468.33 Q954.379 1477.06 951.301 1481.67 Q948.245 1486.25 942.435 1486.25 Q936.625 1486.25 933.546 1481.67 Q930.49 1477.06 930.49 1468.33 Q930.49 1459.58 933.546 1455 Q936.625 1450.39 942.435 1450.39 Z" fill="#000000" fill-rule="nonzero" fill-opacity="1"></path><path clip-path="url(#clip540)" d="M1262 1481.64 L1269.64 1481.64 L1269.64 1455.28 L1261.33 1456.95 L1261.33 1452.69 L1269.59 1451.02 L1274.27 1451.02 L1274.27 1481.64 L1281.91 1481.64 L1281.91 1485.58 L1262 1485.58 L1262 1481.64 Z" fill="#000000" fill-rule="nonzero" fill-opacity="1"></path><path clip-path="url(#clip540)" d="M1291.4 1451.02 L1309.76 1451.02 L1309.76 1454.96 L1295.68 1454.96 L1295.68 1463.43 Q1296.7 1463.08 1297.72 1462.92 Q1298.74 1462.73 1299.76 1462.73 Q1305.54 1462.73 1308.92 1465.9 Q1312.3 1469.08 1312.3 1474.49 Q1312.3 1480.07 1308.83 1483.17 Q1305.36 1486.25 1299.04 1486.25 Q1296.86 1486.25 1294.59 1485.88 Q1292.35 1485.51 1289.94 1484.77 L1289.94 1480.07 Q1292.02 1481.2 1294.25 1481.76 Q1296.47 1482.32 1298.94 1482.32 Q1302.95 1482.32 1305.29 1480.21 Q1307.63 1478.1 1307.63 1474.49 Q1307.63 1470.88 1305.29 1468.77 Q1302.95 1466.67 1298.94 1466.67 Q1297.07 1466.67 1295.19 1467.08 Q1293.34 1467.5 1291.4 1468.38 L1291.4 1451.02 Z" fill="#000000" fill-rule="nonzero" fill-opacity="1"></path><path clip-path="url(#clip540)" d="M1624.01 1481.64 L1640.33 1481.64 L1640.33 1485.58 L1618.38 1485.58 L1618.38 1481.64 Q1621.05 1478.89 1625.63 1474.26 Q1630.24 1469.61 1631.42 1468.27 Q1633.66 1465.74 1634.54 1464.01 Q1635.44 1462.25 1635.44 1460.56 Q1635.44 1457.8 1633.5 1456.07 Q1631.58 1454.33 1628.48 1454.33 Q1626.28 1454.33 1623.82 1455.09 Q1621.39 1455.86 1618.61 1457.41 L1618.61 1452.69 Q1621.44 1451.55 1623.89 1450.97 Q1626.35 1450.39 1628.38 1450.39 Q1633.75 1450.39 1636.95 1453.08 Q1640.14 1455.77 1640.14 1460.26 Q1640.14 1462.39 1639.33 1464.31 Q1638.55 1466.2 1636.44 1468.8 Q1635.86 1469.47 1632.76 1472.69 Q1629.66 1475.88 1624.01 1481.64 Z" fill="#000000" fill-rule="nonzero" fill-opacity="1"></path><path clip-path="url(#clip540)" d="M1660.14 1454.1 Q1656.53 1454.1 1654.7 1457.66 Q1652.9 1461.2 1652.9 1468.33 Q1652.9 1475.44 1654.7 1479.01 Q1656.53 1482.55 1660.14 1482.55 Q1663.78 1482.55 1665.58 1479.01 Q1667.41 1475.44 1667.41 1468.33 Q1667.41 1461.2 1665.58 1457.66 Q1663.78 1454.1 1660.14 1454.1 M1660.14 1450.39 Q1665.95 1450.39 1669.01 1455 Q1672.09 1459.58 1672.09 1468.33 Q1672.09 1477.06 1669.01 1481.67 Q1665.95 1486.25 1660.14 1486.25 Q1654.33 1486.25 1651.25 1481.67 Q1648.2 1477.06 1648.2 1468.33 Q1648.2 1459.58 1651.25 1455 Q1654.33 1450.39 1660.14 1450.39 Z" fill="#000000" fill-rule="nonzero" fill-opacity="1"></path><path clip-path="url(#clip540)" d="M1982.93 1481.64 L1999.25 1481.64 L1999.25 1485.58 L1977.3 1485.58 L1977.3 1481.64 Q1979.96 1478.89 1984.55 1474.26 Q1989.15 1469.61 1990.33 1468.27 Q1992.58 1465.74 1993.46 1464.01 Q1994.36 1462.25 1994.36 1460.56 Q1994.36 1457.8 1992.42 1456.07 Q1990.5 1454.33 1987.39 1454.33 Q1985.19 1454.33 1982.74 1455.09 Q1980.31 1455.86 1977.53 1457.41 L1977.53 1452.69 Q1980.36 1451.55 1982.81 1450.97 Q1985.26 1450.39 1987.3 1450.39 Q1992.67 1450.39 1995.87 1453.08 Q1999.06 1455.77 1999.06 1460.26 Q1999.06 1462.39 1998.25 1464.31 Q1997.46 1466.2 1995.36 1468.8 Q1994.78 1469.47 1991.68 1472.69 Q1988.57 1475.88 1982.93 1481.64 Z" fill="#000000" fill-rule="nonzero" fill-opacity="1"></path><path clip-path="url(#clip540)" d="M2009.11 1451.02 L2027.46 1451.02 L2027.46 1454.96 L2013.39 1454.96 L2013.39 1463.43 Q2014.41 1463.08 2015.43 1462.92 Q2016.44 1462.73 2017.46 1462.73 Q2023.25 1462.73 2026.63 1465.9 Q2030.01 1469.08 2030.01 1474.49 Q2030.01 1480.07 2026.54 1483.17 Q2023.06 1486.25 2016.75 1486.25 Q2014.57 1486.25 2012.3 1485.88 Q2010.06 1485.51 2007.65 1484.77 L2007.65 1480.07 Q2009.73 1481.2 2011.95 1481.76 Q2014.18 1482.32 2016.65 1482.32 Q2020.66 1482.32 2023 1480.21 Q2025.33 1478.1 2025.33 1474.49 Q2025.33 1470.88 2023 1468.77 Q2020.66 1466.67 2016.65 1466.67 Q2014.78 1466.67 2012.9 1467.08 Q2011.05 1467.5 2009.11 1468.38 L2009.11 1451.02 Z" fill="#000000" fill-rule="nonzero" fill-opacity="1"></path><path clip-path="url(#clip540)" d="M1088.33 1520.52 L1128.53 1520.52 L1128.53 1525.93 L1111.66 1525.93 L1111.66 1568.04 L1105.2 1568.04 L1105.2 1525.93 L1088.33 1525.93 L1088.33 1520.52 Z" fill="#000000" fill-rule="nonzero" fill-opacity="1"></path><path clip-path="url(#clip540)" d="M1132.48 1532.4 L1138.33 1532.4 L1138.33 1568.04 L1132.48 1568.04 L1132.48 1532.4 M1132.48 1518.52 L1138.33 1518.52 L1138.33 1525.93 L1132.48 1525.93 L1132.48 1518.52 Z" fill="#000000" fill-rule="nonzero" fill-opacity="1"></path><path clip-path="url(#clip540)" d="M1178.34 1539.24 Q1180.54 1535.29 1183.59 1533.41 Q1186.65 1531.54 1190.79 1531.54 Q1196.36 1531.54 1199.38 1535.45 Q1202.4 1539.33 1202.4 1546.53 L1202.4 1568.04 L1196.51 1568.04 L1196.51 1546.72 Q1196.51 1541.59 1194.7 1539.11 Q1192.89 1536.63 1189.16 1536.63 Q1184.61 1536.63 1181.97 1539.65 Q1179.33 1542.68 1179.33 1547.9 L1179.33 1568.04 L1173.44 1568.04 L1173.44 1546.72 Q1173.44 1541.56 1171.62 1539.11 Q1169.81 1536.63 1166.02 1536.63 Q1161.54 1536.63 1158.89 1539.68 Q1156.25 1542.71 1156.25 1547.9 L1156.25 1568.04 L1150.36 1568.04 L1150.36 1532.4 L1156.25 1532.4 L1156.25 1537.93 Q1158.26 1534.66 1161.06 1533.1 Q1163.86 1531.54 1167.71 1531.54 Q1171.59 1531.54 1174.3 1533.51 Q1177.04 1535.48 1178.34 1539.24 Z" fill="#000000" fill-rule="nonzero" fill-opacity="1"></path><path clip-path="url(#clip540)" d="M1244.58 1548.76 L1244.58 1551.62 L1217.65 1551.62 Q1218.03 1557.67 1221.28 1560.85 Q1224.56 1564 1230.38 1564 Q1233.75 1564 1236.91 1563.17 Q1240.09 1562.35 1243.21 1560.69 L1243.21 1566.23 Q1240.06 1567.57 1236.75 1568.27 Q1233.44 1568.97 1230.03 1568.97 Q1221.5 1568.97 1216.5 1564 Q1211.54 1559.04 1211.54 1550.57 Q1211.54 1541.82 1216.25 1536.69 Q1220.99 1531.54 1229.01 1531.54 Q1236.2 1531.54 1240.37 1536.18 Q1244.58 1540.8 1244.58 1548.76 M1238.72 1547.04 Q1238.66 1542.23 1236.01 1539.37 Q1233.4 1536.5 1229.08 1536.5 Q1224.17 1536.5 1221.21 1539.27 Q1218.29 1542.04 1217.84 1547.07 L1238.72 1547.04 Z" fill="#000000" fill-rule="nonzero" fill-opacity="1"></path><path clip-path="url(#clip540)" d="M1303.65 1522.08 L1303.65 1528.35 Q1299.99 1526.6 1296.74 1525.74 Q1293.5 1524.88 1290.47 1524.88 Q1285.22 1524.88 1282.36 1526.92 Q1279.52 1528.96 1279.52 1532.71 Q1279.52 1535.87 1281.4 1537.49 Q1283.31 1539.08 1288.59 1540.07 L1292.48 1540.86 Q1299.67 1542.23 1303.08 1545.7 Q1306.51 1549.14 1306.51 1554.93 Q1306.51 1561.84 1301.87 1565.4 Q1297.25 1568.97 1288.31 1568.97 Q1284.93 1568.97 1281.12 1568.2 Q1277.33 1567.44 1273.25 1565.94 L1273.25 1559.32 Q1277.17 1561.52 1280.92 1562.63 Q1284.68 1563.75 1288.31 1563.75 Q1293.81 1563.75 1296.81 1561.58 Q1299.8 1559.42 1299.8 1555.41 Q1299.8 1551.91 1297.63 1549.93 Q1295.5 1547.96 1290.6 1546.97 L1286.69 1546.21 Q1279.49 1544.78 1276.28 1541.72 Q1273.06 1538.67 1273.06 1533.22 Q1273.06 1526.92 1277.49 1523.29 Q1281.94 1519.66 1289.74 1519.66 Q1293.08 1519.66 1296.55 1520.27 Q1300.02 1520.87 1303.65 1522.08 Z" fill="#000000" fill-rule="nonzero" fill-opacity="1"></path><path clip-path="url(#clip540)" d="M1322.08 1522.27 L1322.08 1532.4 L1334.14 1532.4 L1334.14 1536.95 L1322.08 1536.95 L1322.08 1556.3 Q1322.08 1560.66 1323.26 1561.9 Q1324.47 1563.14 1328.13 1563.14 L1334.14 1563.14 L1334.14 1568.04 L1328.13 1568.04 Q1321.35 1568.04 1318.77 1565.53 Q1316.19 1562.98 1316.19 1556.3 L1316.19 1536.95 L1311.89 1536.95 L1311.89 1532.4 L1316.19 1532.4 L1316.19 1522.27 L1322.08 1522.27 Z" fill="#000000" fill-rule="nonzero" fill-opacity="1"></path><path clip-path="url(#clip540)" d="M1372.34 1548.76 L1372.34 1551.62 L1345.41 1551.62 Q1345.79 1557.67 1349.04 1560.85 Q1352.32 1564 1358.14 1564 Q1361.51 1564 1364.66 1563.17 Q1367.85 1562.35 1370.97 1560.69 L1370.97 1566.23 Q1367.82 1567.57 1364.51 1568.27 Q1361.2 1568.97 1357.79 1568.97 Q1349.26 1568.97 1344.26 1564 Q1339.3 1559.04 1339.3 1550.57 Q1339.3 1541.82 1344.01 1536.69 Q1348.75 1531.54 1356.77 1531.54 Q1363.96 1531.54 1368.13 1536.18 Q1372.34 1540.8 1372.34 1548.76 M1366.48 1547.04 Q1366.42 1542.23 1363.77 1539.37 Q1361.16 1536.5 1356.84 1536.5 Q1351.93 1536.5 1348.97 1539.27 Q1346.05 1542.04 1345.6 1547.07 L1366.48 1547.04 Z" fill="#000000" fill-rule="nonzero" fill-opacity="1"></path><path clip-path="url(#clip540)" d="M1387.61 1562.7 L1387.61 1581.6 L1381.73 1581.6 L1381.73 1532.4 L1387.61 1532.4 L1387.61 1537.81 Q1389.46 1534.62 1392.26 1533.1 Q1395.09 1531.54 1399.01 1531.54 Q1405.5 1531.54 1409.54 1536.69 Q1413.62 1541.85 1413.62 1550.25 Q1413.62 1558.65 1409.54 1563.81 Q1405.5 1568.97 1399.01 1568.97 Q1395.09 1568.97 1392.26 1567.44 Q1389.46 1565.88 1387.61 1562.7 M1407.54 1550.25 Q1407.54 1543.79 1404.86 1540.13 Q1402.22 1536.44 1397.58 1536.44 Q1392.93 1536.44 1390.26 1540.13 Q1387.61 1543.79 1387.61 1550.25 Q1387.61 1556.71 1390.26 1560.4 Q1392.93 1564.07 1397.58 1564.07 Q1402.22 1564.07 1404.86 1560.4 Q1407.54 1556.71 1407.54 1550.25 Z" fill="#000000" fill-rule="nonzero" fill-opacity="1"></path><polyline clip-path="url(#clip540)" style="stroke:#000000; stroke-linecap:round; stroke-linejoin:round; stroke-width:4; stroke-opacity:1; fill:none" points="149.191,1423.18 149.191,123.472 "></polyline>
<polyline clip-path="url(#clip540)" style="stroke:#000000; stroke-linecap:round; stroke-linejoin:round; stroke-width:4; stroke-opacity:1; fill:none" points="149.191,1336.63 168.089,1336.63 "></polyline>
<polyline clip-path="url(#clip540)" style="stroke:#000000; stroke-linecap:round; stroke-linejoin:round; stroke-width:4; stroke-opacity:1; fill:none" points="149.191,1075.22 168.089,1075.22 "></polyline>
<polyline clip-path="url(#clip540)" style="stroke:#000000; stroke-linecap:round; stroke-linejoin:round; stroke-width:4; stroke-opacity:1; fill:none" points="149.191,813.799 168.089,813.799 "></polyline>
<polyline clip-path="url(#clip540)" style="stroke:#000000; stroke-linecap:round; stroke-linejoin:round; stroke-width:4; stroke-opacity:1; fill:none" points="149.191,552.382 168.089,552.382 "></polyline>
<polyline clip-path="url(#clip540)" style="stroke:#000000; stroke-linecap:round; stroke-linejoin:round; stroke-width:4; stroke-opacity:1; fill:none" points="149.191,290.965 168.089,290.965 "></polyline>
<path clip-path="url(#clip540)" d="M50.9921 1337.08 L80.6679 1337.08 L80.6679 1341.02 L50.9921 1341.02 L50.9921 1337.08 Z" fill="#000000" fill-rule="nonzero" fill-opacity="1"></path><path clip-path="url(#clip540)" d="M103.608 1323.43 L91.8021 1341.88 L103.608 1341.88 L103.608 1323.43 M102.381 1319.35 L108.26 1319.35 L108.26 1341.88 L113.191 1341.88 L113.191 1345.77 L108.26 1345.77 L108.26 1353.91 L103.608 1353.91 L103.608 1345.77 L88.0058 1345.77 L88.0058 1341.25 L102.381 1319.35 Z" fill="#000000" fill-rule="nonzero" fill-opacity="1"></path><path clip-path="url(#clip540)" d="M52.1264 1075.67 L81.8021 1075.67 L81.8021 1079.6 L52.1264 1079.6 L52.1264 1075.67 Z" fill="#000000" fill-rule="nonzero" fill-opacity="1"></path><path clip-path="url(#clip540)" d="M106.061 1073.86 Q109.418 1074.58 111.293 1076.85 Q113.191 1079.12 113.191 1082.45 Q113.191 1087.57 109.672 1090.37 Q106.154 1093.17 99.6724 1093.17 Q97.4965 1093.17 95.1817 1092.73 Q92.89 1092.31 90.4364 1091.45 L90.4364 1086.94 Q92.3808 1088.07 94.6956 1088.65 Q97.0104 1089.23 99.5335 1089.23 Q103.932 1089.23 106.223 1087.5 Q108.538 1085.76 108.538 1082.45 Q108.538 1079.39 106.385 1077.68 Q104.256 1075.95 100.436 1075.95 L96.4085 1075.95 L96.4085 1072.1 L100.621 1072.1 Q104.071 1072.1 105.899 1070.74 Q107.728 1069.35 107.728 1066.76 Q107.728 1064.09 105.83 1062.68 Q103.955 1061.25 100.436 1061.25 Q98.515 1061.25 96.316 1061.66 Q94.1169 1062.08 91.478 1062.96 L91.478 1058.79 Q94.14 1058.05 96.4548 1057.68 Q98.7928 1057.31 100.853 1057.31 Q106.177 1057.31 109.279 1059.74 Q112.381 1062.15 112.381 1066.27 Q112.381 1069.14 110.737 1071.13 Q109.094 1073.1 106.061 1073.86 Z" fill="#000000" fill-rule="nonzero" fill-opacity="1"></path><path clip-path="url(#clip540)" d="M53.0754 814.25 L82.7512 814.25 L82.7512 818.186 L53.0754 818.186 L53.0754 814.25 Z" fill="#000000" fill-rule="nonzero" fill-opacity="1"></path><path clip-path="url(#clip540)" d="M96.8715 827.144 L113.191 827.144 L113.191 831.079 L91.2465 831.079 L91.2465 827.144 Q93.9086 824.389 98.4919 819.76 Q103.098 815.107 104.279 813.764 Q106.524 811.241 107.404 809.505 Q108.307 807.746 108.307 806.056 Q108.307 803.301 106.362 801.565 Q104.441 799.829 101.339 799.829 Q99.14 799.829 96.6863 800.593 Q94.2558 801.357 91.478 802.908 L91.478 798.186 Q94.3021 797.051 96.7558 796.473 Q99.2095 795.894 101.246 795.894 Q106.617 795.894 109.811 798.579 Q113.006 801.264 113.006 805.755 Q113.006 807.885 112.196 809.806 Q111.408 811.704 109.302 814.297 Q108.723 814.968 105.621 818.186 Q102.52 821.38 96.8715 827.144 Z" fill="#000000" fill-rule="nonzero" fill-opacity="1"></path><path clip-path="url(#clip540)" d="M52.7051 552.833 L82.3808 552.833 L82.3808 556.768 L52.7051 556.768 L52.7051 552.833 Z" fill="#000000" fill-rule="nonzero" fill-opacity="1"></path><path clip-path="url(#clip540)" d="M93.2836 565.727 L100.922 565.727 L100.922 539.361 L92.6123 541.028 L92.6123 536.769 L100.876 535.102 L105.552 535.102 L105.552 565.727 L113.191 565.727 L113.191 569.662 L93.2836 569.662 L93.2836 565.727 Z" fill="#000000" fill-rule="nonzero" fill-opacity="1"></path><path clip-path="url(#clip540)" d="M101.246 276.764 Q97.6354 276.764 95.8067 280.328 Q94.0012 283.87 94.0012 291 Q94.0012 298.106 95.8067 301.671 Q97.6354 305.212 101.246 305.212 Q104.881 305.212 106.686 301.671 Q108.515 298.106 108.515 291 Q108.515 283.87 106.686 280.328 Q104.881 276.764 101.246 276.764 M101.246 273.06 Q107.057 273.06 110.112 277.666 Q113.191 282.25 113.191 291 Q113.191 299.726 110.112 304.333 Q107.057 308.916 101.246 308.916 Q95.4363 308.916 92.3576 304.333 Q89.3021 299.726 89.3021 291 Q89.3021 282.25 92.3576 277.666 Q95.4363 273.06 101.246 273.06 Z" fill="#000000" fill-rule="nonzero" fill-opacity="1"></path><path clip-path="url(#clip540)" d="M491.024 12.096 L499.207 12.096 L499.207 65.6895 L528.657 65.6895 L528.657 72.576 L491.024 72.576 L491.024 12.096 Z" fill="#000000" fill-rule="nonzero" fill-opacity="1"></path><path clip-path="url(#clip540)" d="M553.043 32.4315 Q547.048 32.4315 543.564 37.1306 Q540.08 41.7891 540.08 49.9314 Q540.08 58.0738 543.523 62.7728 Q547.007 67.4314 553.043 67.4314 Q558.998 67.4314 562.482 62.7323 Q565.965 58.0333 565.965 49.9314 Q565.965 41.8701 562.482 37.1711 Q558.998 32.4315 553.043 32.4315 M553.043 26.1121 Q562.765 26.1121 568.315 32.4315 Q573.865 38.7509 573.865 49.9314 Q573.865 61.0714 568.315 67.4314 Q562.765 73.7508 553.043 73.7508 Q543.28 73.7508 537.731 67.4314 Q532.221 61.0714 532.221 49.9314 Q532.221 38.7509 537.731 32.4315 Q543.28 26.1121 553.043 26.1121 Z" fill="#000000" fill-rule="nonzero" fill-opacity="1"></path><path clip-path="url(#clip540)" d="M623.934 45.1919 L623.934 72.576 L616.48 72.576 L616.48 45.4349 Q616.48 38.994 613.969 35.7938 Q611.457 32.5936 606.434 32.5936 Q600.398 32.5936 596.914 36.4419 Q593.431 40.2903 593.431 46.9338 L593.431 72.576 L585.936 72.576 L585.936 27.2059 L593.431 27.2059 L593.431 34.2544 Q596.104 30.163 599.71 28.1376 Q603.355 26.1121 608.095 26.1121 Q615.913 26.1121 619.924 30.9732 Q623.934 35.7938 623.934 45.1919 Z" fill="#000000" fill-rule="nonzero" fill-opacity="1"></path><path clip-path="url(#clip540)" d="M668.656 49.3643 Q668.656 41.2625 665.294 36.8065 Q661.972 32.3505 655.936 32.3505 Q649.941 32.3505 646.578 36.8065 Q643.257 41.2625 643.257 49.3643 Q643.257 57.4256 646.578 61.8816 Q649.941 66.3376 655.936 66.3376 Q661.972 66.3376 665.294 61.8816 Q668.656 57.4256 668.656 49.3643 M676.11 66.9452 Q676.11 78.5308 670.965 84.1616 Q665.82 89.8329 655.207 89.8329 Q651.278 89.8329 647.794 89.2252 Q644.31 88.6581 641.029 87.4428 L641.029 80.1917 Q644.31 81.9741 647.51 82.8248 Q650.71 83.6755 654.032 83.6755 Q661.364 83.6755 665.01 79.8271 Q668.656 76.0193 668.656 68.282 L668.656 64.5957 Q666.347 68.6061 662.742 70.5911 Q659.136 72.576 654.113 72.576 Q645.768 72.576 640.664 66.2161 Q635.56 59.8562 635.56 49.3643 Q635.56 38.832 640.664 32.472 Q645.768 26.1121 654.113 26.1121 Q659.136 26.1121 662.742 28.0971 Q666.347 30.082 668.656 34.0924 L668.656 27.2059 L676.11 27.2059 L676.11 66.9452 Z" fill="#000000" fill-rule="nonzero" fill-opacity="1"></path><path clip-path="url(#clip540)" d="M709.773 12.096 L760.936 12.096 L760.936 18.9825 L739.466 18.9825 L739.466 72.576 L731.242 72.576 L731.242 18.9825 L709.773 18.9825 L709.773 12.096 Z" fill="#000000" fill-rule="nonzero" fill-opacity="1"></path><path clip-path="url(#clip540)" d="M775.397 49.7694 Q766.364 49.7694 762.88 51.8354 Q759.396 53.9013 759.396 58.8839 Q759.396 62.8538 761.989 65.2034 Q764.622 67.5124 769.118 67.5124 Q775.316 67.5124 779.043 63.1374 Q782.81 58.7219 782.81 51.4303 L782.81 49.7694 L775.397 49.7694 M790.264 46.6907 L790.264 72.576 L782.81 72.576 L782.81 65.6895 Q780.258 69.8214 776.45 71.8063 Q772.643 73.7508 767.133 73.7508 Q760.166 73.7508 756.034 69.8619 Q751.942 65.9325 751.942 59.3701 Q751.942 51.7138 757.047 47.825 Q762.191 43.9361 772.359 43.9361 L782.81 43.9361 L782.81 43.2069 Q782.81 38.0623 779.408 35.2672 Q776.045 32.4315 769.929 32.4315 Q766.04 32.4315 762.353 33.3632 Q758.667 34.295 755.264 36.1584 L755.264 29.2718 Q759.356 27.692 763.204 26.9223 Q767.052 26.1121 770.698 26.1121 Q780.542 26.1121 785.403 31.2163 Q790.264 36.3204 790.264 46.6907 Z" fill="#000000" fill-rule="nonzero" fill-opacity="1"></path><path clip-path="url(#clip540)" d="M805.617 27.2059 L813.071 27.2059 L813.071 72.576 L805.617 72.576 L805.617 27.2059 M805.617 9.54393 L813.071 9.54393 L813.071 18.9825 L805.617 18.9825 L805.617 9.54393 Z" fill="#000000" fill-rule="nonzero" fill-opacity="1"></path><path clip-path="url(#clip540)" d="M828.667 9.54393 L836.12 9.54393 L836.12 72.576 L828.667 72.576 L828.667 9.54393 Z" fill="#000000" fill-rule="nonzero" fill-opacity="1"></path><path clip-path="url(#clip540)" d="M907.943 34.0924 L907.943 9.54393 L915.396 9.54393 L915.396 72.576 L907.943 72.576 L907.943 65.7705 Q905.593 69.8214 901.988 71.8063 Q898.423 73.7508 893.4 73.7508 Q885.177 73.7508 879.992 67.1883 Q874.847 60.6258 874.847 49.9314 Q874.847 39.2371 879.992 32.6746 Q885.177 26.1121 893.4 26.1121 Q898.423 26.1121 901.988 28.0971 Q905.593 30.0415 907.943 34.0924 M882.544 49.9314 Q882.544 58.1548 885.906 62.8538 Q889.309 67.5124 895.223 67.5124 Q901.137 67.5124 904.54 62.8538 Q907.943 58.1548 907.943 49.9314 Q907.943 41.7081 904.54 37.0496 Q901.137 32.3505 895.223 32.3505 Q889.309 32.3505 885.906 37.0496 Q882.544 41.7081 882.544 49.9314 Z" fill="#000000" fill-rule="nonzero" fill-opacity="1"></path><path clip-path="url(#clip540)" d="M933.22 65.6895 L946.588 65.6895 L946.588 19.5497 L932.046 22.4663 L932.046 15.0127 L946.507 12.096 L954.69 12.096 L954.69 65.6895 L968.058 65.6895 L968.058 72.576 L933.22 72.576 L933.22 65.6895 Z" fill="#000000" fill-rule="nonzero" fill-opacity="1"></path><path clip-path="url(#clip540)" d="M985.437 62.2867 L993.984 62.2867 L993.984 69.2543 L987.341 82.2172 L982.115 82.2172 L985.437 69.2543 L985.437 62.2867 Z" fill="#000000" fill-rule="nonzero" fill-opacity="1"></path><path clip-path="url(#clip540)" d="M1071.6 35.9153 Q1074.39 30.8922 1078.28 28.5022 Q1082.17 26.1121 1087.44 26.1121 Q1094.53 26.1121 1098.38 31.0947 Q1102.22 36.0368 1102.22 45.1919 L1102.22 72.576 L1094.73 72.576 L1094.73 45.4349 Q1094.73 38.913 1092.42 35.7533 Q1090.11 32.5936 1085.37 32.5936 Q1079.58 32.5936 1076.22 36.4419 Q1072.86 40.2903 1072.86 46.9338 L1072.86 72.576 L1065.36 72.576 L1065.36 45.4349 Q1065.36 38.8725 1063.05 35.7533 Q1060.74 32.5936 1055.92 32.5936 Q1050.21 32.5936 1046.85 36.4824 Q1043.49 40.3308 1043.49 46.9338 L1043.49 72.576 L1035.99 72.576 L1035.99 27.2059 L1043.49 27.2059 L1043.49 34.2544 Q1046.04 30.082 1049.6 28.0971 Q1053.17 26.1121 1058.07 26.1121 Q1063.01 26.1121 1066.45 28.6237 Q1069.94 31.1352 1071.6 35.9153 Z" fill="#000000" fill-rule="nonzero" fill-opacity="1"></path><path clip-path="url(#clip540)" d="M1134.67 32.4315 Q1128.68 32.4315 1125.19 37.1306 Q1121.71 41.7891 1121.71 49.9314 Q1121.71 58.0738 1125.15 62.7728 Q1128.64 67.4314 1134.67 67.4314 Q1140.63 67.4314 1144.11 62.7323 Q1147.59 58.0333 1147.59 49.9314 Q1147.59 41.8701 1144.11 37.1711 Q1140.63 32.4315 1134.67 32.4315 M1134.67 26.1121 Q1144.39 26.1121 1149.94 32.4315 Q1155.49 38.7509 1155.49 49.9314 Q1155.49 61.0714 1149.94 67.4314 Q1144.39 73.7508 1134.67 73.7508 Q1124.91 73.7508 1119.36 67.4314 Q1113.85 61.0714 1113.85 49.9314 Q1113.85 38.7509 1119.36 32.4315 Q1124.91 26.1121 1134.67 26.1121 Z" fill="#000000" fill-rule="nonzero" fill-opacity="1"></path><path clip-path="url(#clip540)" d="M1162.5 27.2059 L1170.4 27.2059 L1184.58 65.2844 L1198.76 27.2059 L1206.66 27.2059 L1189.64 72.576 L1179.52 72.576 L1162.5 27.2059 Z" fill="#000000" fill-rule="nonzero" fill-opacity="1"></path><path clip-path="url(#clip540)" d="M1216.95 27.2059 L1224.4 27.2059 L1224.4 72.576 L1216.95 72.576 L1216.95 27.2059 M1216.95 9.54393 L1224.4 9.54393 L1224.4 18.9825 L1216.95 18.9825 L1216.95 9.54393 Z" fill="#000000" fill-rule="nonzero" fill-opacity="1"></path><path clip-path="url(#clip540)" d="M1277.71 45.1919 L1277.71 72.576 L1270.26 72.576 L1270.26 45.4349 Q1270.26 38.994 1267.74 35.7938 Q1265.23 32.5936 1260.21 32.5936 Q1254.17 32.5936 1250.69 36.4419 Q1247.21 40.2903 1247.21 46.9338 L1247.21 72.576 L1239.71 72.576 L1239.71 27.2059 L1247.21 27.2059 L1247.21 34.2544 Q1249.88 30.163 1253.48 28.1376 Q1257.13 26.1121 1261.87 26.1121 Q1269.69 26.1121 1273.7 30.9732 Q1277.71 35.7938 1277.71 45.1919 Z" fill="#000000" fill-rule="nonzero" fill-opacity="1"></path><path clip-path="url(#clip540)" d="M1322.43 49.3643 Q1322.43 41.2625 1319.07 36.8065 Q1315.75 32.3505 1309.71 32.3505 Q1303.72 32.3505 1300.35 36.8065 Q1297.03 41.2625 1297.03 49.3643 Q1297.03 57.4256 1300.35 61.8816 Q1303.72 66.3376 1309.71 66.3376 Q1315.75 66.3376 1319.07 61.8816 Q1322.43 57.4256 1322.43 49.3643 M1329.89 66.9452 Q1329.89 78.5308 1324.74 84.1616 Q1319.6 89.8329 1308.98 89.8329 Q1305.05 89.8329 1301.57 89.2252 Q1298.09 88.6581 1294.8 87.4428 L1294.8 80.1917 Q1298.09 81.9741 1301.29 82.8248 Q1304.49 83.6755 1307.81 83.6755 Q1315.14 83.6755 1318.79 79.8271 Q1322.43 76.0193 1322.43 68.282 L1322.43 64.5957 Q1320.12 68.6061 1316.52 70.5911 Q1312.91 72.576 1307.89 72.576 Q1299.54 72.576 1294.44 66.2161 Q1289.34 59.8562 1289.34 49.3643 Q1289.34 38.832 1294.44 32.472 Q1299.54 26.1121 1307.89 26.1121 Q1312.91 26.1121 1316.52 28.0971 Q1320.12 30.082 1322.43 34.0924 L1322.43 27.2059 L1329.89 27.2059 L1329.89 66.9452 Z" fill="#000000" fill-rule="nonzero" fill-opacity="1"></path><path clip-path="url(#clip540)" d="M1378.82 65.7705 L1378.82 89.8329 L1371.33 89.8329 L1371.33 27.2059 L1378.82 27.2059 L1378.82 34.0924 Q1381.17 30.0415 1384.73 28.0971 Q1388.34 26.1121 1393.32 26.1121 Q1401.59 26.1121 1406.73 32.6746 Q1411.92 39.2371 1411.92 49.9314 Q1411.92 60.6258 1406.73 67.1883 Q1401.59 73.7508 1393.32 73.7508 Q1388.34 73.7508 1384.73 71.8063 Q1381.17 69.8214 1378.82 65.7705 M1404.18 49.9314 Q1404.18 41.7081 1400.78 37.0496 Q1397.41 32.3505 1391.5 32.3505 Q1385.58 32.3505 1382.18 37.0496 Q1378.82 41.7081 1378.82 49.9314 Q1378.82 58.1548 1382.18 62.8538 Q1385.58 67.5124 1391.5 67.5124 Q1397.41 67.5124 1400.78 62.8538 Q1404.18 58.1548 1404.18 49.9314 Z" fill="#000000" fill-rule="nonzero" fill-opacity="1"></path><path clip-path="url(#clip540)" d="M1441.85 32.4315 Q1435.86 32.4315 1432.37 37.1306 Q1428.89 41.7891 1428.89 49.9314 Q1428.89 58.0738 1432.33 62.7728 Q1435.82 67.4314 1441.85 67.4314 Q1447.81 67.4314 1451.29 62.7323 Q1454.77 58.0333 1454.77 49.9314 Q1454.77 41.8701 1451.29 37.1711 Q1447.81 32.4315 1441.85 32.4315 M1441.85 26.1121 Q1451.57 26.1121 1457.12 32.4315 Q1462.67 38.7509 1462.67 49.9314 Q1462.67 61.0714 1457.12 67.4314 Q1451.57 73.7508 1441.85 73.7508 Q1432.09 73.7508 1426.54 67.4314 Q1421.03 61.0714 1421.03 49.9314 Q1421.03 38.7509 1426.54 32.4315 Q1432.09 26.1121 1441.85 26.1121 Z" fill="#000000" fill-rule="nonzero" fill-opacity="1"></path><path clip-path="url(#clip540)" d="M1475.03 27.2059 L1482.48 27.2059 L1482.48 72.576 L1475.03 72.576 L1475.03 27.2059 M1475.03 9.54393 L1482.48 9.54393 L1482.48 18.9825 L1475.03 18.9825 L1475.03 9.54393 Z" fill="#000000" fill-rule="nonzero" fill-opacity="1"></path><path clip-path="url(#clip540)" d="M1535.79 45.1919 L1535.79 72.576 L1528.34 72.576 L1528.34 45.4349 Q1528.34 38.994 1525.83 35.7938 Q1523.32 32.5936 1518.29 32.5936 Q1512.26 32.5936 1508.77 36.4419 Q1505.29 40.2903 1505.29 46.9338 L1505.29 72.576 L1497.79 72.576 L1497.79 27.2059 L1505.29 27.2059 L1505.29 34.2544 Q1507.96 30.163 1511.57 28.1376 Q1515.21 26.1121 1519.95 26.1121 Q1527.77 26.1121 1531.78 30.9732 Q1535.79 35.7938 1535.79 45.1919 Z" fill="#000000" fill-rule="nonzero" fill-opacity="1"></path><path clip-path="url(#clip540)" d="M1558.03 14.324 L1558.03 27.2059 L1573.38 27.2059 L1573.38 32.9987 L1558.03 32.9987 L1558.03 57.6282 Q1558.03 63.1779 1559.53 64.7578 Q1561.07 66.3376 1565.73 66.3376 L1573.38 66.3376 L1573.38 72.576 L1565.73 72.576 Q1557.1 72.576 1553.82 69.3758 Q1550.54 66.1351 1550.54 57.6282 L1550.54 32.9987 L1545.07 32.9987 L1545.07 27.2059 L1550.54 27.2059 L1550.54 14.324 L1558.03 14.324 Z" fill="#000000" fill-rule="nonzero" fill-opacity="1"></path><path clip-path="url(#clip540)" d="M1616.77 65.7705 L1616.77 89.8329 L1609.28 89.8329 L1609.28 27.2059 L1616.77 27.2059 L1616.77 34.0924 Q1619.12 30.0415 1622.68 28.0971 Q1626.29 26.1121 1631.27 26.1121 Q1639.54 26.1121 1644.68 32.6746 Q1649.87 39.2371 1649.87 49.9314 Q1649.87 60.6258 1644.68 67.1883 Q1639.54 73.7508 1631.27 73.7508 Q1626.29 73.7508 1622.68 71.8063 Q1619.12 69.8214 1616.77 65.7705 M1642.13 49.9314 Q1642.13 41.7081 1638.73 37.0496 Q1635.36 32.3505 1629.45 32.3505 Q1623.54 32.3505 1620.13 37.0496 Q1616.77 41.7081 1616.77 49.9314 Q1616.77 58.1548 1620.13 62.8538 Q1623.54 67.5124 1629.45 67.5124 Q1635.36 67.5124 1638.73 62.8538 Q1642.13 58.1548 1642.13 49.9314 Z" fill="#000000" fill-rule="nonzero" fill-opacity="1"></path><path clip-path="url(#clip540)" d="M1688.51 34.1734 Q1687.26 33.4443 1685.76 33.1202 Q1684.3 32.7556 1682.52 32.7556 Q1676.2 32.7556 1672.79 36.8875 Q1669.43 40.9789 1669.43 48.6757 L1669.43 72.576 L1661.94 72.576 L1661.94 27.2059 L1669.43 27.2059 L1669.43 34.2544 Q1671.78 30.1225 1675.55 28.1376 Q1679.32 26.1121 1684.7 26.1121 Q1685.47 26.1121 1686.41 26.2337 Q1687.34 26.3147 1688.47 26.5172 L1688.51 34.1734 Z" fill="#000000" fill-rule="nonzero" fill-opacity="1"></path><path clip-path="url(#clip540)" d="M1733.31 48.0275 L1733.31 51.6733 L1699.04 51.6733 Q1699.53 59.3701 1703.66 63.421 Q1707.83 67.4314 1715.25 67.4314 Q1719.54 67.4314 1723.55 66.3781 Q1727.6 65.3249 1731.57 63.2184 L1731.57 70.267 Q1727.56 71.9684 1723.35 72.8596 Q1719.14 73.7508 1714.8 73.7508 Q1703.95 73.7508 1697.59 67.4314 Q1691.27 61.1119 1691.27 50.3365 Q1691.27 39.1965 1697.26 32.6746 Q1703.3 26.1121 1713.51 26.1121 Q1722.66 26.1121 1727.97 32.0264 Q1733.31 37.9003 1733.31 48.0275 M1725.86 45.84 Q1725.78 39.7232 1722.42 36.0774 Q1719.1 32.4315 1713.59 32.4315 Q1707.35 32.4315 1703.58 35.9558 Q1699.85 39.4801 1699.29 45.8805 L1725.86 45.84 Z" fill="#000000" fill-rule="nonzero" fill-opacity="1"></path><path clip-path="url(#clip540)" d="M1775.4 34.0924 L1775.4 9.54393 L1782.86 9.54393 L1782.86 72.576 L1775.4 72.576 L1775.4 65.7705 Q1773.05 69.8214 1769.45 71.8063 Q1765.88 73.7508 1760.86 73.7508 Q1752.64 73.7508 1747.45 67.1883 Q1742.31 60.6258 1742.31 49.9314 Q1742.31 39.2371 1747.45 32.6746 Q1752.64 26.1121 1760.86 26.1121 Q1765.88 26.1121 1769.45 28.0971 Q1773.05 30.0415 1775.4 34.0924 M1750 49.9314 Q1750 58.1548 1753.37 62.8538 Q1756.77 67.5124 1762.68 67.5124 Q1768.6 67.5124 1772 62.8538 Q1775.4 58.1548 1775.4 49.9314 Q1775.4 41.7081 1772 37.0496 Q1768.6 32.3505 1762.68 32.3505 Q1756.77 32.3505 1753.37 37.0496 Q1750 41.7081 1750 49.9314 Z" fill="#000000" fill-rule="nonzero" fill-opacity="1"></path><path clip-path="url(#clip540)" d="M1798.21 27.2059 L1805.66 27.2059 L1805.66 72.576 L1798.21 72.576 L1798.21 27.2059 M1798.21 9.54393 L1805.66 9.54393 L1805.66 18.9825 L1798.21 18.9825 L1798.21 9.54393 Z" fill="#000000" fill-rule="nonzero" fill-opacity="1"></path><path clip-path="url(#clip540)" d="M1853.91 28.9478 L1853.91 35.9153 Q1850.75 34.1734 1847.55 33.3227 Q1844.39 32.4315 1841.15 32.4315 Q1833.9 32.4315 1829.89 37.0496 Q1825.88 41.6271 1825.88 49.9314 Q1825.88 58.2358 1829.89 62.8538 Q1833.9 67.4314 1841.15 67.4314 Q1844.39 67.4314 1847.55 66.5807 Q1850.75 65.6895 1853.91 63.9476 L1853.91 70.8341 Q1850.79 72.2924 1847.43 73.0216 Q1844.11 73.7508 1840.34 73.7508 Q1830.09 73.7508 1824.05 67.3098 Q1818.02 60.8689 1818.02 49.9314 Q1818.02 38.832 1824.1 32.472 Q1830.21 26.1121 1840.83 26.1121 Q1844.27 26.1121 1847.55 26.8413 Q1850.83 27.5299 1853.91 28.9478 Z" fill="#000000" fill-rule="nonzero" fill-opacity="1"></path><path clip-path="url(#clip540)" d="M1874.25 14.324 L1874.25 27.2059 L1889.6 27.2059 L1889.6 32.9987 L1874.25 32.9987 L1874.25 57.6282 Q1874.25 63.1779 1875.74 64.7578 Q1877.28 66.3376 1881.94 66.3376 L1889.6 66.3376 L1889.6 72.576 L1881.94 72.576 Q1873.31 72.576 1870.03 69.3758 Q1866.75 66.1351 1866.75 57.6282 L1866.75 32.9987 L1861.28 32.9987 L1861.28 27.2059 L1866.75 27.2059 L1866.75 14.324 L1874.25 14.324 Z" fill="#000000" fill-rule="nonzero" fill-opacity="1"></path><path clip-path="url(#clip540)" d="M1899.4 27.2059 L1906.86 27.2059 L1906.86 72.576 L1899.4 72.576 L1899.4 27.2059 M1899.4 9.54393 L1906.86 9.54393 L1906.86 18.9825 L1899.4 18.9825 L1899.4 9.54393 Z" fill="#000000" fill-rule="nonzero" fill-opacity="1"></path><path clip-path="url(#clip540)" d="M1940.03 32.4315 Q1934.04 32.4315 1930.55 37.1306 Q1927.07 41.7891 1927.07 49.9314 Q1927.07 58.0738 1930.51 62.7728 Q1934 67.4314 1940.03 67.4314 Q1945.99 67.4314 1949.47 62.7323 Q1952.95 58.0333 1952.95 49.9314 Q1952.95 41.8701 1949.47 37.1711 Q1945.99 32.4315 1940.03 32.4315 M1940.03 26.1121 Q1949.75 26.1121 1955.3 32.4315 Q1960.85 38.7509 1960.85 49.9314 Q1960.85 61.0714 1955.3 67.4314 Q1949.75 73.7508 1940.03 73.7508 Q1930.27 73.7508 1924.72 67.4314 Q1919.21 61.0714 1919.21 49.9314 Q1919.21 38.7509 1924.72 32.4315 Q1930.27 26.1121 1940.03 26.1121 Z" fill="#000000" fill-rule="nonzero" fill-opacity="1"></path><path clip-path="url(#clip540)" d="M2010.92 45.1919 L2010.92 72.576 L2003.47 72.576 L2003.47 45.4349 Q2003.47 38.994 2000.96 35.7938 Q1998.45 32.5936 1993.42 32.5936 Q1987.39 32.5936 1983.9 36.4419 Q1980.42 40.2903 1980.42 46.9338 L1980.42 72.576 L1972.93 72.576 L1972.93 27.2059 L1980.42 27.2059 L1980.42 34.2544 Q1983.09 30.163 1986.7 28.1376 Q1990.34 26.1121 1995.08 26.1121 Q2002.9 26.1121 2006.91 30.9732 Q2010.92 35.7938 2010.92 45.1919 Z" fill="#000000" fill-rule="nonzero" fill-opacity="1"></path><polyline clip-path="url(#clip542)" style="stroke:#009af9; stroke-linecap:round; stroke-linejoin:round; stroke-width:4; stroke-opacity:1; fill:none" points="211.556,279.413 283.24,288.572 354.924,290.47 426.608,290.863 498.292,290.944 569.976,290.96 641.66,290.964 713.344,290.965 785.028,290.965 856.712,290.965 928.396,290.965 1000.08,290.965 1071.76,290.965 1143.45,290.965 1215.13,290.965 1286.82,290.965 1358.5,290.965 1430.18,290.965 1501.87,290.965 1573.55,290.965 1645.24,290.965 1716.92,290.965 1788.6,290.965 1860.29,290.965 1931.97,290.965 2003.66,290.965 2075.34,290.965 2147.02,290.965 2218.71,290.965 2290.39,290.965 "></polyline>
<polyline clip-path="url(#clip542)" style="stroke:#e26f46; stroke-linecap:round; stroke-linejoin:round; stroke-width:4; stroke-opacity:1; fill:none" points="211.556,279.413 283.24,219.398 354.924,255.064 426.608,266.899 498.292,267.797 569.976,264.065 641.66,258.302 713.344,251.4 785.028,244.283 856.712,238.128 928.396,234.456 1000.08,235.069 1071.76,241.992 1143.45,257.46 1215.13,283.368 1286.82,320.049 1358.5,365.703 1430.18,417.673 1501.87,474.139 1573.55,534.38 1645.24,598.46 1716.92,666.816 1788.6,740.498 1860.29,821.425 1931.97,912.961 2003.66,1013.19 2075.34,1113.36 2147.02,1209.3 2218.71,1302.14 2290.39,1386.4 "></polyline>
<polyline clip-path="url(#clip542)" style="stroke:#ff0000; stroke-linecap:round; stroke-linejoin:round; stroke-width:2; stroke-opacity:1; fill:none" points="1286.82,1336.63 1286.82,160.256 "></polyline>
<path clip-path="url(#clip540)" d="M222.643 1379.86 L915.289 1379.86 L915.289 1172.5 L222.643 1172.5  Z" fill="#ffffff" fill-rule="evenodd" fill-opacity="1"></path>
<polyline clip-path="url(#clip540)" style="stroke:#000000; stroke-linecap:round; stroke-linejoin:round; stroke-width:4; stroke-opacity:1; fill:none" points="222.643,1379.86 915.289,1379.86 915.289,1172.5 222.643,1172.5 222.643,1379.86 "></polyline>
<polyline clip-path="url(#clip540)" style="stroke:#009af9; stroke-linecap:round; stroke-linejoin:round; stroke-width:4; stroke-opacity:1; fill:none" points="247.127,1224.34 394.031,1224.34 "></polyline>
<path clip-path="url(#clip540)" d="M437.427 1219.63 L437.427 1205.6 L441.687 1205.6 L441.687 1241.62 L437.427 1241.62 L437.427 1237.73 Q436.085 1240.04 434.025 1241.18 Q431.988 1242.29 429.117 1242.29 Q424.418 1242.29 421.455 1238.54 Q418.515 1234.79 418.515 1228.68 Q418.515 1222.57 421.455 1218.82 Q424.418 1215.07 429.117 1215.07 Q431.988 1215.07 434.025 1216.2 Q436.085 1217.31 437.427 1219.63 M422.914 1228.68 Q422.914 1233.38 424.835 1236.06 Q426.779 1238.72 430.159 1238.72 Q433.539 1238.72 435.483 1236.06 Q437.427 1233.38 437.427 1228.68 Q437.427 1223.98 435.483 1221.32 Q433.539 1218.63 430.159 1218.63 Q426.779 1218.63 424.835 1221.32 Q422.914 1223.98 422.914 1228.68 Z" fill="#000000" fill-rule="nonzero" fill-opacity="1"></path><path clip-path="url(#clip540)" d="M462.242 1228.58 Q457.08 1228.58 455.089 1229.76 Q453.099 1230.95 453.099 1233.79 Q453.099 1236.06 454.58 1237.4 Q456.085 1238.72 458.654 1238.72 Q462.196 1238.72 464.325 1236.22 Q466.478 1233.7 466.478 1229.53 L466.478 1228.58 L462.242 1228.58 M470.737 1226.82 L470.737 1241.62 L466.478 1241.62 L466.478 1237.68 Q465.02 1240.04 462.844 1241.18 Q460.668 1242.29 457.52 1242.29 Q453.538 1242.29 451.177 1240.07 Q448.839 1237.82 448.839 1234.07 Q448.839 1229.7 451.756 1227.47 Q454.696 1225.25 460.506 1225.25 L466.478 1225.25 L466.478 1224.83 Q466.478 1221.89 464.534 1220.3 Q462.612 1218.68 459.117 1218.68 Q456.895 1218.68 454.788 1219.21 Q452.682 1219.74 450.738 1220.81 L450.738 1216.87 Q453.075 1215.97 455.275 1215.53 Q457.474 1215.07 459.557 1215.07 Q465.182 1215.07 467.96 1217.98 Q470.737 1220.9 470.737 1226.82 Z" fill="#000000" fill-rule="nonzero" fill-opacity="1"></path><path clip-path="url(#clip540)" d="M483.723 1208.33 L483.723 1215.69 L492.497 1215.69 L492.497 1219 L483.723 1219 L483.723 1233.07 Q483.723 1236.25 484.58 1237.15 Q485.46 1238.05 488.122 1238.05 L492.497 1238.05 L492.497 1241.62 L488.122 1241.62 Q483.191 1241.62 481.316 1239.79 Q479.441 1237.94 479.441 1233.07 L479.441 1219 L476.316 1219 L476.316 1215.69 L479.441 1215.69 L479.441 1208.33 L483.723 1208.33 Z" fill="#000000" fill-rule="nonzero" fill-opacity="1"></path><path clip-path="url(#clip540)" d="M509.881 1228.58 Q504.719 1228.58 502.728 1229.76 Q500.737 1230.95 500.737 1233.79 Q500.737 1236.06 502.219 1237.4 Q503.723 1238.72 506.293 1238.72 Q509.834 1238.72 511.964 1236.22 Q514.117 1233.7 514.117 1229.53 L514.117 1228.58 L509.881 1228.58 M518.376 1226.82 L518.376 1241.62 L514.117 1241.62 L514.117 1237.68 Q512.658 1240.04 510.483 1241.18 Q508.307 1242.29 505.159 1242.29 Q501.177 1242.29 498.816 1240.07 Q496.478 1237.82 496.478 1234.07 Q496.478 1229.7 499.395 1227.47 Q502.334 1225.25 508.145 1225.25 L514.117 1225.25 L514.117 1224.83 Q514.117 1221.89 512.172 1220.3 Q510.251 1218.68 506.756 1218.68 Q504.534 1218.68 502.427 1219.21 Q500.321 1219.74 498.376 1220.81 L498.376 1216.87 Q500.714 1215.97 502.913 1215.53 Q505.112 1215.07 507.196 1215.07 Q512.821 1215.07 515.598 1217.98 Q518.376 1220.9 518.376 1226.82 Z" fill="#000000" fill-rule="nonzero" fill-opacity="1"></path><polyline clip-path="url(#clip540)" style="stroke:#e26f46; stroke-linecap:round; stroke-linejoin:round; stroke-width:4; stroke-opacity:1; fill:none" points="247.127,1276.18 394.031,1276.18 "></polyline>
<path clip-path="url(#clip540)" d="M422.798 1289.57 L422.798 1303.32 L418.515 1303.32 L418.515 1267.53 L422.798 1267.53 L422.798 1271.47 Q424.14 1269.15 426.177 1268.04 Q428.238 1266.91 431.085 1266.91 Q435.807 1266.91 438.747 1270.66 Q441.71 1274.41 441.71 1280.52 Q441.71 1286.63 438.747 1290.38 Q435.807 1294.13 431.085 1294.13 Q428.238 1294.13 426.177 1293.02 Q424.14 1291.88 422.798 1289.57 M437.289 1280.52 Q437.289 1275.82 435.344 1273.16 Q433.423 1270.47 430.043 1270.47 Q426.664 1270.47 424.719 1273.16 Q422.798 1275.82 422.798 1280.52 Q422.798 1285.22 424.719 1287.9 Q426.664 1290.56 430.043 1290.56 Q433.423 1290.56 435.344 1287.9 Q437.289 1285.22 437.289 1280.52 Z" fill="#000000" fill-rule="nonzero" fill-opacity="1"></path><path clip-path="url(#clip540)" d="M463.793 1271.51 Q463.075 1271.1 462.219 1270.91 Q461.386 1270.7 460.367 1270.7 Q456.756 1270.7 454.812 1273.06 Q452.89 1275.4 452.89 1279.8 L452.89 1293.46 L448.608 1293.46 L448.608 1267.53 L452.89 1267.53 L452.89 1271.56 Q454.233 1269.2 456.386 1268.06 Q458.538 1266.91 461.617 1266.91 Q462.057 1266.91 462.589 1266.97 Q463.122 1267.02 463.77 1267.14 L463.793 1271.51 Z" fill="#000000" fill-rule="nonzero" fill-opacity="1"></path><path clip-path="url(#clip540)" d="M489.395 1279.43 L489.395 1281.51 L469.812 1281.51 Q470.089 1285.91 472.45 1288.22 Q474.835 1290.52 479.071 1290.52 Q481.524 1290.52 483.816 1289.91 Q486.131 1289.31 488.399 1288.11 L488.399 1292.14 Q486.108 1293.11 483.7 1293.62 Q481.293 1294.13 478.816 1294.13 Q472.612 1294.13 468.978 1290.52 Q465.367 1286.91 465.367 1280.75 Q465.367 1274.38 468.793 1270.66 Q472.242 1266.91 478.075 1266.91 Q483.307 1266.91 486.339 1270.29 Q489.395 1273.64 489.395 1279.43 M485.135 1278.18 Q485.089 1274.68 483.168 1272.6 Q481.27 1270.52 478.122 1270.52 Q474.557 1270.52 472.404 1272.53 Q470.274 1274.54 469.95 1278.2 L485.135 1278.18 Z" fill="#000000" fill-rule="nonzero" fill-opacity="1"></path><path clip-path="url(#clip540)" d="M513.446 1271.47 L513.446 1257.44 L517.705 1257.44 L517.705 1293.46 L513.446 1293.46 L513.446 1289.57 Q512.103 1291.88 510.043 1293.02 Q508.006 1294.13 505.135 1294.13 Q500.436 1294.13 497.473 1290.38 Q494.534 1286.63 494.534 1280.52 Q494.534 1274.41 497.473 1270.66 Q500.436 1266.91 505.135 1266.91 Q508.006 1266.91 510.043 1268.04 Q512.103 1269.15 513.446 1271.47 M498.932 1280.52 Q498.932 1285.22 500.853 1287.9 Q502.797 1290.56 506.177 1290.56 Q509.557 1290.56 511.501 1287.9 Q513.446 1285.22 513.446 1280.52 Q513.446 1275.82 511.501 1273.16 Q509.557 1270.47 506.177 1270.47 Q502.797 1270.47 500.853 1273.16 Q498.932 1275.82 498.932 1280.52 Z" fill="#000000" fill-rule="nonzero" fill-opacity="1"></path><path clip-path="url(#clip540)" d="M526.478 1267.53 L530.737 1267.53 L530.737 1293.46 L526.478 1293.46 L526.478 1267.53 M526.478 1257.44 L530.737 1257.44 L530.737 1262.83 L526.478 1262.83 L526.478 1257.44 Z" fill="#000000" fill-rule="nonzero" fill-opacity="1"></path><path clip-path="url(#clip540)" d="M558.306 1268.53 L558.306 1272.51 Q556.501 1271.51 554.672 1271.03 Q552.867 1270.52 551.015 1270.52 Q546.871 1270.52 544.58 1273.16 Q542.288 1275.77 542.288 1280.52 Q542.288 1285.26 544.58 1287.9 Q546.871 1290.52 551.015 1290.52 Q552.867 1290.52 554.672 1290.03 Q556.501 1289.52 558.306 1288.53 L558.306 1292.46 Q556.524 1293.29 554.603 1293.71 Q552.705 1294.13 550.552 1294.13 Q544.695 1294.13 541.246 1290.45 Q537.797 1286.77 537.797 1280.52 Q537.797 1274.17 541.269 1270.54 Q544.765 1266.91 550.83 1266.91 Q552.797 1266.91 554.672 1267.32 Q556.547 1267.72 558.306 1268.53 Z" fill="#000000" fill-rule="nonzero" fill-opacity="1"></path><path clip-path="url(#clip540)" d="M569.927 1260.17 L569.927 1267.53 L578.7 1267.53 L578.7 1270.84 L569.927 1270.84 L569.927 1284.91 Q569.927 1288.09 570.783 1288.99 Q571.663 1289.89 574.325 1289.89 L578.7 1289.89 L578.7 1293.46 L574.325 1293.46 Q569.394 1293.46 567.519 1291.63 Q565.644 1289.78 565.644 1284.91 L565.644 1270.84 L562.519 1270.84 L562.519 1267.53 L565.644 1267.53 L565.644 1260.17 L569.927 1260.17 Z" fill="#000000" fill-rule="nonzero" fill-opacity="1"></path><path clip-path="url(#clip540)" d="M584.302 1267.53 L588.561 1267.53 L588.561 1293.46 L584.302 1293.46 L584.302 1267.53 M584.302 1257.44 L588.561 1257.44 L588.561 1262.83 L584.302 1262.83 L584.302 1257.44 Z" fill="#000000" fill-rule="nonzero" fill-opacity="1"></path><path clip-path="url(#clip540)" d="M607.519 1270.52 Q604.093 1270.52 602.102 1273.2 Q600.112 1275.86 600.112 1280.52 Q600.112 1285.17 602.079 1287.85 Q604.07 1290.52 607.519 1290.52 Q610.922 1290.52 612.913 1287.83 Q614.903 1285.15 614.903 1280.52 Q614.903 1275.91 612.913 1273.22 Q610.922 1270.52 607.519 1270.52 M607.519 1266.91 Q613.075 1266.91 616.246 1270.52 Q619.417 1274.13 619.417 1280.52 Q619.417 1286.88 616.246 1290.52 Q613.075 1294.13 607.519 1294.13 Q601.94 1294.13 598.769 1290.52 Q595.621 1286.88 595.621 1280.52 Q595.621 1274.13 598.769 1270.52 Q601.94 1266.91 607.519 1266.91 Z" fill="#000000" fill-rule="nonzero" fill-opacity="1"></path><path clip-path="url(#clip540)" d="M648.028 1277.81 L648.028 1293.46 L643.769 1293.46 L643.769 1277.95 Q643.769 1274.27 642.334 1272.44 Q640.899 1270.61 638.028 1270.61 Q634.579 1270.61 632.588 1272.81 Q630.598 1275.01 630.598 1278.8 L630.598 1293.46 L626.315 1293.46 L626.315 1267.53 L630.598 1267.53 L630.598 1271.56 Q632.125 1269.22 634.186 1268.06 Q636.269 1266.91 638.977 1266.91 Q643.445 1266.91 645.736 1269.68 Q648.028 1272.44 648.028 1277.81 Z" fill="#000000" fill-rule="nonzero" fill-opacity="1"></path><polyline clip-path="url(#clip540)" style="stroke:#ff0000; stroke-linecap:round; stroke-linejoin:round; stroke-width:2; stroke-opacity:1; fill:none" points="247.127,1328.02 394.031,1328.02 "></polyline>
<path clip-path="url(#clip540)" d="M418.515 1310.74 L440.367 1310.74 L440.367 1314.67 L423.191 1314.67 L423.191 1324.9 L439.65 1324.9 L439.65 1328.84 L423.191 1328.84 L423.191 1341.36 L440.784 1341.36 L440.784 1345.3 L418.515 1345.3 L418.515 1310.74 Z" fill="#000000" fill-rule="nonzero" fill-opacity="1"></path><path clip-path="url(#clip540)" d="M469.835 1329.65 L469.835 1345.3 L465.575 1345.3 L465.575 1329.79 Q465.575 1326.11 464.14 1324.28 Q462.705 1322.45 459.835 1322.45 Q456.386 1322.45 454.395 1324.65 Q452.404 1326.85 452.404 1330.64 L452.404 1345.3 L448.122 1345.3 L448.122 1319.37 L452.404 1319.37 L452.404 1323.4 Q453.932 1321.06 455.992 1319.9 Q458.075 1318.75 460.784 1318.75 Q465.251 1318.75 467.543 1321.52 Q469.835 1324.28 469.835 1329.65 Z" fill="#000000" fill-rule="nonzero" fill-opacity="1"></path><path clip-path="url(#clip540)" d="M495.39 1323.31 L495.39 1309.28 L499.649 1309.28 L499.649 1345.3 L495.39 1345.3 L495.39 1341.41 Q494.047 1343.72 491.987 1344.86 Q489.95 1345.97 487.08 1345.97 Q482.381 1345.97 479.418 1342.22 Q476.478 1338.47 476.478 1332.36 Q476.478 1326.25 479.418 1322.5 Q482.381 1318.75 487.08 1318.75 Q489.95 1318.75 491.987 1319.88 Q494.047 1320.99 495.39 1323.31 M480.876 1332.36 Q480.876 1337.06 482.798 1339.74 Q484.742 1342.4 488.122 1342.4 Q491.501 1342.4 493.446 1339.74 Q495.39 1337.06 495.39 1332.36 Q495.39 1327.66 493.446 1325 Q491.501 1322.31 488.122 1322.31 Q484.742 1322.31 482.798 1325 Q480.876 1327.66 480.876 1332.36 Z" fill="#000000" fill-rule="nonzero" fill-opacity="1"></path><path clip-path="url(#clip540)" d="M533.538 1322.36 Q530.112 1322.36 528.121 1325.04 Q526.131 1327.7 526.131 1332.36 Q526.131 1337.01 528.098 1339.69 Q530.089 1342.36 533.538 1342.36 Q536.941 1342.36 538.932 1339.67 Q540.922 1336.99 540.922 1332.36 Q540.922 1327.75 538.932 1325.06 Q536.941 1322.36 533.538 1322.36 M533.538 1318.75 Q539.094 1318.75 542.265 1322.36 Q545.436 1325.97 545.436 1332.36 Q545.436 1338.72 542.265 1342.36 Q539.094 1345.97 533.538 1345.97 Q527.959 1345.97 524.788 1342.36 Q521.64 1338.72 521.64 1332.36 Q521.64 1325.97 524.788 1322.36 Q527.959 1318.75 533.538 1318.75 Z" fill="#000000" fill-rule="nonzero" fill-opacity="1"></path><path clip-path="url(#clip540)" d="M565.621 1309.28 L565.621 1312.82 L561.547 1312.82 Q559.255 1312.82 558.353 1313.75 Q557.473 1314.67 557.473 1317.08 L557.473 1319.37 L564.487 1319.37 L564.487 1322.68 L557.473 1322.68 L557.473 1345.3 L553.191 1345.3 L553.191 1322.68 L549.117 1322.68 L549.117 1319.37 L553.191 1319.37 L553.191 1317.56 Q553.191 1313.24 555.205 1311.27 Q557.218 1309.28 561.593 1309.28 L565.621 1309.28 Z" fill="#000000" fill-rule="nonzero" fill-opacity="1"></path><path clip-path="url(#clip540)" d="M579.649 1310.74 L608.885 1310.74 L608.885 1314.67 L596.616 1314.67 L596.616 1345.3 L591.917 1345.3 L591.917 1314.67 L579.649 1314.67 L579.649 1310.74 Z" fill="#000000" fill-rule="nonzero" fill-opacity="1"></path><path clip-path="url(#clip540)" d="M621.269 1323.35 Q620.551 1322.94 619.695 1322.75 Q618.862 1322.54 617.843 1322.54 Q614.232 1322.54 612.288 1324.9 Q610.366 1327.24 610.366 1331.64 L610.366 1345.3 L606.084 1345.3 L606.084 1319.37 L610.366 1319.37 L610.366 1323.4 Q611.709 1321.04 613.862 1319.9 Q616.014 1318.75 619.093 1318.75 Q619.533 1318.75 620.065 1318.81 Q620.598 1318.86 621.246 1318.98 L621.269 1323.35 Z" fill="#000000" fill-rule="nonzero" fill-opacity="1"></path><path clip-path="url(#clip540)" d="M637.519 1332.26 Q632.357 1332.26 630.366 1333.44 Q628.375 1334.63 628.375 1337.47 Q628.375 1339.74 629.857 1341.08 Q631.362 1342.4 633.931 1342.4 Q637.473 1342.4 639.602 1339.9 Q641.755 1337.38 641.755 1333.21 L641.755 1332.26 L637.519 1332.26 M646.014 1330.5 L646.014 1345.3 L641.755 1345.3 L641.755 1341.36 Q640.297 1343.72 638.121 1344.86 Q635.945 1345.97 632.797 1345.97 Q628.815 1345.97 626.454 1343.75 Q624.116 1341.5 624.116 1337.75 Q624.116 1333.38 627.033 1331.15 Q629.973 1328.93 635.783 1328.93 L641.755 1328.93 L641.755 1328.51 Q641.755 1325.57 639.811 1323.98 Q637.889 1322.36 634.394 1322.36 Q632.172 1322.36 630.065 1322.89 Q627.959 1323.42 626.014 1324.49 L626.014 1320.55 Q628.352 1319.65 630.551 1319.21 Q632.75 1318.75 634.834 1318.75 Q640.459 1318.75 643.237 1321.66 Q646.014 1324.58 646.014 1330.5 Z" fill="#000000" fill-rule="nonzero" fill-opacity="1"></path><path clip-path="url(#clip540)" d="M654.787 1319.37 L659.047 1319.37 L659.047 1345.3 L654.787 1345.3 L654.787 1319.37 M654.787 1309.28 L659.047 1309.28 L659.047 1314.67 L654.787 1314.67 L654.787 1309.28 Z" fill="#000000" fill-rule="nonzero" fill-opacity="1"></path><path clip-path="url(#clip540)" d="M689.509 1329.65 L689.509 1345.3 L685.25 1345.3 L685.25 1329.79 Q685.25 1326.11 683.815 1324.28 Q682.38 1322.45 679.509 1322.45 Q676.06 1322.45 674.07 1324.65 Q672.079 1326.85 672.079 1330.64 L672.079 1345.3 L667.797 1345.3 L667.797 1319.37 L672.079 1319.37 L672.079 1323.4 Q673.607 1321.06 675.667 1319.9 Q677.75 1318.75 680.459 1318.75 Q684.926 1318.75 687.218 1321.52 Q689.509 1324.28 689.509 1329.65 Z" fill="#000000" fill-rule="nonzero" fill-opacity="1"></path><path clip-path="url(#clip540)" d="M698.005 1319.37 L702.264 1319.37 L702.264 1345.3 L698.005 1345.3 L698.005 1319.37 M698.005 1309.28 L702.264 1309.28 L702.264 1314.67 L698.005 1314.67 L698.005 1309.28 Z" fill="#000000" fill-rule="nonzero" fill-opacity="1"></path><path clip-path="url(#clip540)" d="M732.727 1329.65 L732.727 1345.3 L728.468 1345.3 L728.468 1329.79 Q728.468 1326.11 727.032 1324.28 Q725.597 1322.45 722.727 1322.45 Q719.278 1322.45 717.287 1324.65 Q715.296 1326.85 715.296 1330.64 L715.296 1345.3 L711.014 1345.3 L711.014 1319.37 L715.296 1319.37 L715.296 1323.4 Q716.824 1321.06 718.884 1319.9 Q720.968 1318.75 723.676 1318.75 Q728.143 1318.75 730.435 1321.52 Q732.727 1324.28 732.727 1329.65 Z" fill="#000000" fill-rule="nonzero" fill-opacity="1"></path><path clip-path="url(#clip540)" d="M758.282 1332.03 Q758.282 1327.4 756.361 1324.86 Q754.463 1322.31 751.014 1322.31 Q747.588 1322.31 745.667 1324.86 Q743.768 1327.4 743.768 1332.03 Q743.768 1336.64 745.667 1339.19 Q747.588 1341.73 751.014 1341.73 Q754.463 1341.73 756.361 1339.19 Q758.282 1336.64 758.282 1332.03 M762.541 1342.08 Q762.541 1348.7 759.602 1351.92 Q756.662 1355.16 750.597 1355.16 Q748.352 1355.16 746.361 1354.81 Q744.37 1354.49 742.495 1353.79 L742.495 1349.65 Q744.37 1350.67 746.199 1351.15 Q748.028 1351.64 749.926 1351.64 Q754.116 1351.64 756.199 1349.44 Q758.282 1347.26 758.282 1342.84 L758.282 1340.74 Q756.963 1343.03 754.903 1344.16 Q752.842 1345.3 749.972 1345.3 Q745.204 1345.3 742.287 1341.66 Q739.37 1338.03 739.37 1332.03 Q739.37 1326.01 742.287 1322.38 Q745.204 1318.75 749.972 1318.75 Q752.842 1318.75 754.903 1319.88 Q756.963 1321.01 758.282 1323.31 L758.282 1319.37 L762.541 1319.37 L762.541 1342.08 Z" fill="#000000" fill-rule="nonzero" fill-opacity="1"></path><path clip-path="url(#clip540)" d="M791.245 1314.58 L791.245 1341.45 L796.893 1341.45 Q804.046 1341.45 807.356 1338.21 Q810.689 1334.97 810.689 1327.98 Q810.689 1321.04 807.356 1317.82 Q804.046 1314.58 796.893 1314.58 L791.245 1314.58 M786.569 1310.74 L796.175 1310.74 Q806.222 1310.74 810.921 1314.93 Q815.62 1319.09 815.62 1327.98 Q815.62 1336.92 810.898 1341.11 Q806.175 1345.3 796.175 1345.3 L786.569 1345.3 L786.569 1310.74 Z" fill="#000000" fill-rule="nonzero" fill-opacity="1"></path><path clip-path="url(#clip540)" d="M834.671 1332.26 Q829.509 1332.26 827.518 1333.44 Q825.527 1334.63 825.527 1337.47 Q825.527 1339.74 827.009 1341.08 Q828.513 1342.4 831.083 1342.4 Q834.624 1342.4 836.754 1339.9 Q838.907 1337.38 838.907 1333.21 L838.907 1332.26 L834.671 1332.26 M843.166 1330.5 L843.166 1345.3 L838.907 1345.3 L838.907 1341.36 Q837.448 1343.72 835.273 1344.86 Q833.097 1345.97 829.948 1345.97 Q825.967 1345.97 823.606 1343.75 Q821.268 1341.5 821.268 1337.75 Q821.268 1333.38 824.185 1331.15 Q827.124 1328.93 832.935 1328.93 L838.907 1328.93 L838.907 1328.51 Q838.907 1325.57 836.962 1323.98 Q835.041 1322.36 831.546 1322.36 Q829.323 1322.36 827.217 1322.89 Q825.111 1323.42 823.166 1324.49 L823.166 1320.55 Q825.504 1319.65 827.703 1319.21 Q829.902 1318.75 831.985 1318.75 Q837.61 1318.75 840.388 1321.66 Q843.166 1324.58 843.166 1330.5 Z" fill="#000000" fill-rule="nonzero" fill-opacity="1"></path><path clip-path="url(#clip540)" d="M856.152 1312.01 L856.152 1319.37 L864.925 1319.37 L864.925 1322.68 L856.152 1322.68 L856.152 1336.75 Q856.152 1339.93 857.009 1340.83 Q857.888 1341.73 860.55 1341.73 L864.925 1341.73 L864.925 1345.3 L860.55 1345.3 Q855.62 1345.3 853.745 1343.47 Q851.87 1341.62 851.87 1336.75 L851.87 1322.68 L848.745 1322.68 L848.745 1319.37 L851.87 1319.37 L851.87 1312.01 L856.152 1312.01 Z" fill="#000000" fill-rule="nonzero" fill-opacity="1"></path><path clip-path="url(#clip540)" d="M882.309 1332.26 Q877.147 1332.26 875.157 1333.44 Q873.166 1334.63 873.166 1337.47 Q873.166 1339.74 874.647 1341.08 Q876.152 1342.4 878.721 1342.4 Q882.263 1342.4 884.393 1339.9 Q886.545 1337.38 886.545 1333.21 L886.545 1332.26 L882.309 1332.26 M890.805 1330.5 L890.805 1345.3 L886.545 1345.3 L886.545 1341.36 Q885.087 1343.72 882.911 1344.86 Q880.735 1345.97 877.587 1345.97 Q873.606 1345.97 871.245 1343.75 Q868.907 1341.5 868.907 1337.75 Q868.907 1333.38 871.823 1331.15 Q874.763 1328.93 880.573 1328.93 L886.545 1328.93 L886.545 1328.51 Q886.545 1325.57 884.601 1323.98 Q882.68 1322.36 879.184 1322.36 Q876.962 1322.36 874.856 1322.89 Q872.749 1323.42 870.805 1324.49 L870.805 1320.55 Q873.143 1319.65 875.342 1319.21 Q877.541 1318.75 879.624 1318.75 Q885.249 1318.75 888.027 1321.66 Q890.805 1324.58 890.805 1330.5 Z" fill="#000000" fill-rule="nonzero" fill-opacity="1"></path></svg>