<svg xmlns="http://www.w3.org/2000/svg" xmlns:xlink="http://www.w3.org/1999/xlink" width="600" height="400" viewBox="0 0 2400 1600">
<defs>
  <clipPath id="clip740">
    <rect x="0" y="0" width="2400" height="1600"></rect>
  </clipPath>
</defs>
<path clip-path="url(#clip740)" d="M0 1600 L2400 1600 L2400 0 L0 0  Z" fill="#ffffff" fill-rule="evenodd" fill-opacity="1"></path>
<defs>
  <clipPath id="clip741">
    <rect x="480" y="0" width="1681" height="1600"></rect>
  </clipPath>
</defs>
<path clip-path="url(#clip740)" d="M112.177 1423.18 L2352.76 1423.18 L2352.76 123.472 L112.177 123.472  Z" fill="#ffffff" fill-rule="evenodd" fill-opacity="1"></path>
<defs>
  <clipPath id="clip742">
    <rect x="112" y="123" width="2242" height="1301"></rect>
  </clipPath>
</defs>
<polyline clip-path="url(#clip742)" style="stroke:#000000; stroke-linecap:round; stroke-linejoin:round; stroke-width:2; stroke-opacity:0.1; fill:none" points="175.59,1423.18 175.59,123.472 "></polyline>
<polyline clip-path="url(#clip742)" style="stroke:#000000; stroke-linecap:round; stroke-linejoin:round; stroke-width:2; stroke-opacity:0.1; fill:none" points="540.03,1423.18 540.03,123.472 "></polyline>
<polyline clip-path="url(#clip742)" style="stroke:#000000; stroke-linecap:round; stroke-linejoin:round; stroke-width:2; stroke-opacity:0.1; fill:none" points="904.47,1423.18 904.47,123.472 "></polyline>
<polyline clip-path="url(#clip742)" style="stroke:#000000; stroke-linecap:round; stroke-linejoin:round; stroke-width:2; stroke-opacity:0.1; fill:none" points="1268.91,1423.18 1268.91,123.472 "></polyline>
<polyline clip-path="url(#clip742)" style="stroke:#000000; stroke-linecap:round; stroke-linejoin:round; stroke-width:2; stroke-opacity:0.1; fill:none" points="1633.35,1423.18 1633.35,123.472 "></polyline>
<polyline clip-path="url(#clip742)" style="stroke:#000000; stroke-linecap:round; stroke-linejoin:round; stroke-width:2; stroke-opacity:0.1; fill:none" points="1997.79,1423.18 1997.79,123.472 "></polyline>
<polyline clip-path="url(#clip742)" style="stroke:#000000; stroke-linecap:round; stroke-linejoin:round; stroke-width:2; stroke-opacity:0.1; fill:none" points="112.177,1280.72 2352.76,1280.72 "></polyline>
<polyline clip-path="url(#clip742)" style="stroke:#000000; stroke-linecap:round; stroke-linejoin:round; stroke-width:2; stroke-opacity:0.1; fill:none" points="112.177,1016.54 2352.76,1016.54 "></polyline>
<polyline clip-path="url(#clip742)" style="stroke:#000000; stroke-linecap:round; stroke-linejoin:round; stroke-width:2; stroke-opacity:0.1; fill:none" points="112.177,752.364 2352.76,752.364 "></polyline>
<polyline clip-path="url(#clip742)" style="stroke:#000000; stroke-linecap:round; stroke-linejoin:round; stroke-width:2; stroke-opacity:0.1; fill:none" points="112.177,488.184 2352.76,488.184 "></polyline>
<polyline clip-path="url(#clip742)" style="stroke:#000000; stroke-linecap:round; stroke-linejoin:round; stroke-width:2; stroke-opacity:0.1; fill:none" points="112.177,224.004 2352.76,224.004 "></polyline>
<polyline clip-path="url(#clip740)" style="stroke:#000000; stroke-linecap:round; stroke-linejoin:round; stroke-width:4; stroke-opacity:1; fill:none" points="112.177,1423.18 2352.76,1423.18 "></polyline>
<polyline clip-path="url(#clip740)" style="stroke:#000000; stroke-linecap:round; stroke-linejoin:round; stroke-width:4; stroke-opacity:1; fill:none" points="175.59,1423.18 175.59,1404.28 "></polyline>
<polyline clip-path="url(#clip740)" style="stroke:#000000; stroke-linecap:round; stroke-linejoin:round; stroke-width:4; stroke-opacity:1; fill:none" points="540.03,1423.18 540.03,1404.28 "></polyline>
<polyline clip-path="url(#clip740)" style="stroke:#000000; stroke-linecap:round; stroke-linejoin:round; stroke-width:4; stroke-opacity:1; fill:none" points="904.47,1423.18 904.47,1404.28 "></polyline>
<polyline clip-path="url(#clip740)" style="stroke:#000000; stroke-linecap:round; stroke-linejoin:round; stroke-width:4; stroke-opacity:1; fill:none" points="1268.91,1423.18 1268.91,1404.28 "></polyline>
<polyline clip-path="url(#clip740)" style="stroke:#000000; stroke-linecap:round; stroke-linejoin:round; stroke-width:4; stroke-opacity:1; fill:none" points="1633.35,1423.18 1633.35,1404.28 "></polyline>
<polyline clip-path="url(#clip740)" style="stroke:#000000; stroke-linecap:round; stroke-linejoin:round; stroke-width:4; stroke-opacity:1; fill:none" points="1997.79,1423.18 1997.79,1404.28 "></polyline>
<path clip-path="url(#clip740)" d="M175.59 1454.1 Q171.979 1454.1 170.15 1457.66 Q168.344 1461.2 168.344 1468.33 Q168.344 1475.44 170.15 1479.01 Q171.979 1482.55 175.59 1482.55 Q179.224 1482.55 181.03 1479.01 Q182.858 1475.44 182.858 1468.33 Q182.858 1461.2 181.03 1457.66 Q179.224 1454.1 175.59 1454.1 M175.59 1450.39 Q181.4 1450.39 184.455 1455 Q187.534 1459.58 187.534 1468.33 Q187.534 1477.06 184.455 1481.67 Q181.4 1486.25 175.59 1486.25 Q169.78 1486.25 166.701 1481.67 Q163.645 1477.06 163.645 1468.33 Q163.645 1459.58 166.701 1455 Q169.78 1450.39 175.59 1450.39 Z" fill="#000000" fill-rule="nonzero" fill-opacity="1"></path><path clip-path="url(#clip740)" d="M530.308 1451.02 L548.664 1451.02 L548.664 1454.96 L534.59 1454.96 L534.59 1463.43 Q535.609 1463.08 536.627 1462.92 Q537.646 1462.73 538.664 1462.73 Q544.451 1462.73 547.831 1465.9 Q551.211 1469.08 551.211 1474.49 Q551.211 1480.07 547.738 1483.17 Q544.266 1486.25 537.947 1486.25 Q535.771 1486.25 533.502 1485.88 Q531.257 1485.51 528.85 1484.77 L528.85 1480.07 Q530.933 1481.2 533.155 1481.76 Q535.377 1482.32 537.854 1482.32 Q541.859 1482.32 544.197 1480.21 Q546.535 1478.1 546.535 1474.49 Q546.535 1470.88 544.197 1468.77 Q541.859 1466.67 537.854 1466.67 Q535.979 1466.67 534.104 1467.08 Q532.252 1467.5 530.308 1468.38 L530.308 1451.02 Z" fill="#000000" fill-rule="nonzero" fill-opacity="1"></path><path clip-path="url(#clip740)" d="M879.158 1481.64 L886.797 1481.64 L886.797 1455.28 L878.487 1456.95 L878.487 1452.69 L886.75 1451.02 L891.426 1451.02 L891.426 1481.64 L899.065 1481.64 L899.065 1485.58 L879.158 1485.58 L879.158 1481.64 Z" fill="#000000" fill-rule="nonzero" fill-opacity="1"></path><path clip-path="url(#clip740)" d="M918.51 1454.1 Q914.898 1454.1 913.07 1457.66 Q911.264 1461.2 911.264 1468.33 Q911.264 1475.44 913.07 1479.01 Q914.898 1482.55 918.51 1482.55 Q922.144 1482.55 923.949 1479.01 Q925.778 1475.44 925.778 1468.33 Q925.778 1461.2 923.949 1457.66 Q922.144 1454.1 918.51 1454.1 M918.51 1450.39 Q924.32 1450.39 927.375 1455 Q930.454 1459.58 930.454 1468.33 Q930.454 1477.06 927.375 1481.67 Q924.32 1486.25 918.51 1486.25 Q912.699 1486.25 909.621 1481.67 Q906.565 1477.06 906.565 1468.33 Q906.565 1459.58 909.621 1455 Q912.699 1450.39 918.51 1450.39 Z" fill="#000000" fill-rule="nonzero" fill-opacity="1"></path><path clip-path="url(#clip740)" d="M1244.1 1481.64 L1251.73 1481.64 L1251.73 1455.28 L1243.42 1456.95 L1243.42 1452.69 L1251.69 1451.02 L1256.36 1451.02 L1256.36 1481.64 L1264 1481.64 L1264 1485.58 L1244.1 1485.58 L1244.1 1481.64 Z" fill="#000000" fill-rule="nonzero" fill-opacity="1"></path><path clip-path="url(#clip740)" d="M1273.49 1451.02 L1291.85 1451.02 L1291.85 1454.96 L1277.78 1454.96 L1277.78 1463.43 Q1278.79 1463.08 1279.81 1462.92 Q1280.83 1462.73 1281.85 1462.73 Q1287.64 1462.73 1291.02 1465.9 Q1294.4 1469.08 1294.4 1474.49 Q1294.4 1480.07 1290.92 1483.17 Q1287.45 1486.25 1281.13 1486.25 Q1278.96 1486.25 1276.69 1485.88 Q1274.44 1485.51 1272.04 1484.77 L1272.04 1480.07 Q1274.12 1481.2 1276.34 1481.76 Q1278.56 1482.32 1281.04 1482.32 Q1285.04 1482.32 1287.38 1480.21 Q1289.72 1478.1 1289.72 1474.49 Q1289.72 1470.88 1287.38 1468.77 Q1285.04 1466.67 1281.04 1466.67 Q1279.17 1466.67 1277.29 1467.08 Q1275.44 1467.5 1273.49 1468.38 L1273.49 1451.02 Z" fill="#000000" fill-rule="nonzero" fill-opacity="1"></path><path clip-path="url(#clip740)" d="M1612.12 1481.64 L1628.44 1481.64 L1628.44 1485.58 L1606.5 1485.58 L1606.5 1481.64 Q1609.16 1478.89 1613.74 1474.26 Q1618.35 1469.61 1619.53 1468.27 Q1621.78 1465.74 1622.66 1464.01 Q1623.56 1462.25 1623.56 1460.56 Q1623.56 1457.8 1621.61 1456.07 Q1619.69 1454.33 1616.59 1454.33 Q1614.39 1454.33 1611.94 1455.09 Q1609.51 1455.86 1606.73 1457.41 L1606.73 1452.69 Q1609.55 1451.55 1612.01 1450.97 Q1614.46 1450.39 1616.5 1450.39 Q1621.87 1450.39 1625.06 1453.08 Q1628.26 1455.77 1628.26 1460.26 Q1628.26 1462.39 1627.45 1464.31 Q1626.66 1466.2 1624.55 1468.8 Q1623.98 1469.47 1620.87 1472.69 Q1617.77 1475.88 1612.12 1481.64 Z" fill="#000000" fill-rule="nonzero" fill-opacity="1"></path><path clip-path="url(#clip740)" d="M1648.26 1454.1 Q1644.65 1454.1 1642.82 1457.66 Q1641.01 1461.2 1641.01 1468.33 Q1641.01 1475.44 1642.82 1479.01 Q1644.65 1482.55 1648.26 1482.55 Q1651.89 1482.55 1653.7 1479.01 Q1655.53 1475.44 1655.53 1468.33 Q1655.53 1461.2 1653.7 1457.66 Q1651.89 1454.1 1648.26 1454.1 M1648.26 1450.39 Q1654.07 1450.39 1657.12 1455 Q1660.2 1459.58 1660.2 1468.33 Q1660.2 1477.06 1657.12 1481.67 Q1654.07 1486.25 1648.26 1486.25 Q1642.45 1486.25 1639.37 1481.67 Q1636.31 1477.06 1636.31 1468.33 Q1636.31 1459.58 1639.37 1455 Q1642.45 1450.39 1648.26 1450.39 Z" fill="#000000" fill-rule="nonzero" fill-opacity="1"></path><path clip-path="url(#clip740)" d="M1977.06 1481.64 L1993.38 1481.64 L1993.38 1485.58 L1971.44 1485.58 L1971.44 1481.64 Q1974.1 1478.89 1978.68 1474.26 Q1983.29 1469.61 1984.47 1468.27 Q1986.71 1465.74 1987.59 1464.01 Q1988.5 1462.25 1988.5 1460.56 Q1988.5 1457.8 1986.55 1456.07 Q1984.63 1454.33 1981.53 1454.33 Q1979.33 1454.33 1976.88 1455.09 Q1974.45 1455.86 1971.67 1457.41 L1971.67 1452.69 Q1974.49 1451.55 1976.95 1450.97 Q1979.4 1450.39 1981.44 1450.39 Q1986.81 1450.39 1990 1453.08 Q1993.2 1455.77 1993.2 1460.26 Q1993.2 1462.39 1992.39 1464.31 Q1991.6 1466.2 1989.49 1468.8 Q1988.91 1469.47 1985.81 1472.69 Q1982.71 1475.88 1977.06 1481.64 Z" fill="#000000" fill-rule="nonzero" fill-opacity="1"></path><path clip-path="url(#clip740)" d="M2003.24 1451.02 L2021.6 1451.02 L2021.6 1454.96 L2007.52 1454.96 L2007.52 1463.43 Q2008.54 1463.08 2009.56 1462.92 Q2010.58 1462.73 2011.6 1462.73 Q2017.39 1462.73 2020.77 1465.9 Q2024.15 1469.08 2024.15 1474.49 Q2024.15 1480.07 2020.67 1483.17 Q2017.2 1486.25 2010.88 1486.25 Q2008.71 1486.25 2006.44 1485.88 Q2004.19 1485.51 2001.78 1484.77 L2001.78 1480.07 Q2003.87 1481.2 2006.09 1481.76 Q2008.31 1482.32 2010.79 1482.32 Q2014.79 1482.32 2017.13 1480.21 Q2019.47 1478.1 2019.47 1474.49 Q2019.47 1470.88 2017.13 1468.77 Q2014.79 1466.67 2010.79 1466.67 Q2008.91 1466.67 2007.04 1467.08 Q2005.19 1467.5 2003.24 1468.38 L2003.24 1451.02 Z" fill="#000000" fill-rule="nonzero" fill-opacity="1"></path><path clip-path="url(#clip740)" d="M1069.82 1520.52 L1110.02 1520.52 L1110.02 1525.93 L1093.15 1525.93 L1093.15 1568.04 L1086.69 1568.04 L1086.69 1525.93 L1069.82 1525.93 L1069.82 1520.52 Z" fill="#000000" fill-rule="nonzero" fill-opacity="1"></path><path clip-path="url(#clip740)" d="M1113.97 1532.4 L1119.83 1532.4 L1119.83 1568.04 L1113.97 1568.04 L1113.97 1532.4 M1113.97 1518.52 L1119.83 1518.52 L1119.83 1525.93 L1113.97 1525.93 L1113.97 1518.52 Z" fill="#000000" fill-rule="nonzero" fill-opacity="1"></path><path clip-path="url(#clip740)" d="M1159.83 1539.24 Q1162.03 1535.29 1165.09 1533.41 Q1168.14 1531.54 1172.28 1531.54 Q1177.85 1531.54 1180.87 1535.45 Q1183.9 1539.33 1183.9 1546.53 L1183.9 1568.04 L1178.01 1568.04 L1178.01 1546.72 Q1178.01 1541.59 1176.19 1539.11 Q1174.38 1536.63 1170.66 1536.63 Q1166.1 1536.63 1163.46 1539.65 Q1160.82 1542.68 1160.82 1547.9 L1160.82 1568.04 L1154.93 1568.04 L1154.93 1546.72 Q1154.93 1541.56 1153.12 1539.11 Q1151.3 1536.63 1147.52 1536.63 Q1143.03 1536.63 1140.39 1539.68 Q1137.74 1542.71 1137.74 1547.9 L1137.74 1568.04 L1131.86 1568.04 L1131.86 1532.4 L1137.74 1532.4 L1137.74 1537.93 Q1139.75 1534.66 1142.55 1533.1 Q1145.35 1531.54 1149.2 1531.54 Q1153.09 1531.54 1155.79 1533.51 Q1158.53 1535.48 1159.83 1539.24 Z" fill="#000000" fill-rule="nonzero" fill-opacity="1"></path><path clip-path="url(#clip740)" d="M1226.07 1548.76 L1226.07 1551.62 L1199.14 1551.62 Q1199.52 1557.67 1202.77 1560.85 Q1206.05 1564 1211.87 1564 Q1215.25 1564 1218.4 1563.17 Q1221.58 1562.35 1224.7 1560.69 L1224.7 1566.23 Q1221.55 1567.57 1218.24 1568.27 Q1214.93 1568.97 1211.52 1568.97 Q1202.99 1568.97 1198 1564 Q1193.03 1559.04 1193.03 1550.57 Q1193.03 1541.82 1197.74 1536.69 Q1202.48 1531.54 1210.5 1531.54 Q1217.7 1531.54 1221.87 1536.18 Q1226.07 1540.8 1226.07 1548.76 M1220.21 1547.04 Q1220.15 1542.23 1217.51 1539.37 Q1214.9 1536.5 1210.57 1536.5 Q1205.67 1536.5 1202.71 1539.27 Q1199.78 1542.04 1199.33 1547.07 L1220.21 1547.04 Z" fill="#000000" fill-rule="nonzero" fill-opacity="1"></path><path clip-path="url(#clip740)" d="M1285.14 1522.08 L1285.14 1528.35 Q1281.48 1526.6 1278.24 1525.74 Q1274.99 1524.88 1271.97 1524.88 Q1266.71 1524.88 1263.85 1526.92 Q1261.02 1528.96 1261.02 1532.71 Q1261.02 1535.87 1262.89 1537.49 Q1264.8 1539.08 1270.09 1540.07 L1273.97 1540.86 Q1281.16 1542.23 1284.57 1545.7 Q1288.01 1549.14 1288.01 1554.93 Q1288.01 1561.84 1283.36 1565.4 Q1278.75 1568.97 1269.8 1568.97 Q1266.43 1568.97 1262.61 1568.2 Q1258.82 1567.44 1254.75 1565.94 L1254.75 1559.32 Q1258.66 1561.52 1262.42 1562.63 Q1266.17 1563.75 1269.8 1563.75 Q1275.31 1563.75 1278.3 1561.58 Q1281.29 1559.42 1281.29 1555.41 Q1281.29 1551.91 1279.13 1549.93 Q1276.99 1547.96 1272.09 1546.97 L1268.18 1546.21 Q1260.98 1544.78 1257.77 1541.72 Q1254.56 1538.67 1254.56 1533.22 Q1254.56 1526.92 1258.98 1523.29 Q1263.44 1519.66 1271.23 1519.66 Q1274.58 1519.66 1278.05 1520.27 Q1281.51 1520.87 1285.14 1522.08 Z" fill="#000000" fill-rule="nonzero" fill-opacity="1"></path><path clip-path="url(#clip740)" d="M1303.57 1522.27 L1303.57 1532.4 L1315.63 1532.4 L1315.63 1536.95 L1303.57 1536.95 L1303.57 1556.3 Q1303.57 1560.66 1304.75 1561.9 Q1305.96 1563.14 1309.62 1563.14 L1315.63 1563.14 L1315.63 1568.04 L1309.62 1568.04 Q1302.84 1568.04 1300.26 1565.53 Q1297.68 1562.98 1297.68 1556.3 L1297.68 1536.95 L1293.39 1536.95 L1293.39 1532.4 L1297.68 1532.4 L1297.68 1522.27 L1303.57 1522.27 Z" fill="#000000" fill-rule="nonzero" fill-opacity="1"></path><path clip-path="url(#clip740)" d="M1353.83 1548.76 L1353.83 1551.62 L1326.9 1551.62 Q1327.28 1557.67 1330.53 1560.85 Q1333.81 1564 1339.63 1564 Q1343.01 1564 1346.16 1563.17 Q1349.34 1562.35 1352.46 1560.69 L1352.46 1566.23 Q1349.31 1567.57 1346 1568.27 Q1342.69 1568.97 1339.28 1568.97 Q1330.75 1568.97 1325.76 1564 Q1320.79 1559.04 1320.79 1550.57 Q1320.79 1541.82 1325.5 1536.69 Q1330.24 1531.54 1338.26 1531.54 Q1345.46 1531.54 1349.63 1536.18 Q1353.83 1540.8 1353.83 1548.76 M1347.97 1547.04 Q1347.91 1542.23 1345.27 1539.37 Q1342.66 1536.5 1338.33 1536.5 Q1333.43 1536.5 1330.47 1539.27 Q1327.54 1542.04 1327.09 1547.07 L1347.97 1547.04 Z" fill="#000000" fill-rule="nonzero" fill-opacity="1"></path><path clip-path="url(#clip740)" d="M1369.11 1562.7 L1369.11 1581.6 L1363.22 1581.6 L1363.22 1532.4 L1369.11 1532.4 L1369.11 1537.81 Q1370.95 1534.62 1373.75 1533.1 Q1376.59 1531.54 1380.5 1531.54 Q1386.99 1531.54 1391.04 1536.69 Q1395.11 1541.85 1395.11 1550.25 Q1395.11 1558.65 1391.04 1563.81 Q1386.99 1568.97 1380.5 1568.97 Q1376.59 1568.97 1373.75 1567.44 Q1370.95 1565.88 1369.11 1562.7 M1389.03 1550.25 Q1389.03 1543.79 1386.36 1540.13 Q1383.72 1536.44 1379.07 1536.44 Q1374.42 1536.44 1371.75 1540.13 Q1369.11 1543.79 1369.11 1550.25 Q1369.11 1556.71 1371.75 1560.4 Q1374.42 1564.07 1379.07 1564.07 Q1383.72 1564.07 1386.36 1560.4 Q1389.03 1556.71 1389.03 1550.25 Z" fill="#000000" fill-rule="nonzero" fill-opacity="1"></path><polyline clip-path="url(#clip740)" style="stroke:#000000; stroke-linecap:round; stroke-linejoin:round; stroke-width:4; stroke-opacity:1; fill:none" points="112.177,1423.18 112.177,123.472 "></polyline>
<polyline clip-path="url(#clip740)" style="stroke:#000000; stroke-linecap:round; stroke-linejoin:round; stroke-width:4; stroke-opacity:1; fill:none" points="112.177,1280.72 131.075,1280.72 "></polyline>
<polyline clip-path="url(#clip740)" style="stroke:#000000; stroke-linecap:round; stroke-linejoin:round; stroke-width:4; stroke-opacity:1; fill:none" points="112.177,1016.54 131.075,1016.54 "></polyline>
<polyline clip-path="url(#clip740)" style="stroke:#000000; stroke-linecap:round; stroke-linejoin:round; stroke-width:4; stroke-opacity:1; fill:none" points="112.177,752.364 131.075,752.364 "></polyline>
<polyline clip-path="url(#clip740)" style="stroke:#000000; stroke-linecap:round; stroke-linejoin:round; stroke-width:4; stroke-opacity:1; fill:none" points="112.177,488.184 131.075,488.184 "></polyline>
<polyline clip-path="url(#clip740)" style="stroke:#000000; stroke-linecap:round; stroke-linejoin:round; stroke-width:4; stroke-opacity:1; fill:none" points="112.177,224.004 131.075,224.004 "></polyline>
<path clip-path="url(#clip740)" d="M64.2328 1266.52 Q60.6217 1266.52 58.793 1270.09 Q56.9875 1273.63 56.9875 1280.76 Q56.9875 1287.86 58.793 1291.43 Q60.6217 1294.97 64.2328 1294.97 Q67.867 1294.97 69.6726 1291.43 Q71.5013 1287.86 71.5013 1280.76 Q71.5013 1273.63 69.6726 1270.09 Q67.867 1266.52 64.2328 1266.52 M64.2328 1262.82 Q70.0429 1262.82 73.0985 1267.43 Q76.1772 1272.01 76.1772 1280.76 Q76.1772 1289.49 73.0985 1294.09 Q70.0429 1298.67 64.2328 1298.67 Q58.4226 1298.67 55.344 1294.09 Q52.2884 1289.49 52.2884 1280.76 Q52.2884 1272.01 55.344 1267.43 Q58.4226 1262.82 64.2328 1262.82 Z" fill="#000000" fill-rule="nonzero" fill-opacity="1"></path><path clip-path="url(#clip740)" d="M59.8578 1029.89 L76.1772 1029.89 L76.1772 1033.82 L54.2328 1033.82 L54.2328 1029.89 Q56.8949 1027.13 61.4782 1022.5 Q66.0846 1017.85 67.2652 1016.51 Q69.5105 1013.99 70.3902 1012.25 Q71.2929 1010.49 71.2929 1008.8 Q71.2929 1006.05 69.3485 1004.31 Q67.4272 1002.57 64.3254 1002.57 Q62.1263 1002.57 59.6726 1003.34 Q57.2421 1004.1 54.4643 1005.65 L54.4643 1000.93 Q57.2884 999.796 59.7421 999.217 Q62.1958 998.639 64.2328 998.639 Q69.6031 998.639 72.7976 1001.32 Q75.992 1004.01 75.992 1008.5 Q75.992 1010.63 75.1818 1012.55 Q74.3948 1014.45 72.2883 1017.04 Q71.7096 1017.71 68.6078 1020.93 Q65.5059 1024.12 59.8578 1029.89 Z" fill="#000000" fill-rule="nonzero" fill-opacity="1"></path><path clip-path="url(#clip740)" d="M66.5939 739.158 L54.7884 757.607 L66.5939 757.607 L66.5939 739.158 M65.367 735.084 L71.2466 735.084 L71.2466 757.607 L76.1772 757.607 L76.1772 761.496 L71.2466 761.496 L71.2466 769.644 L66.5939 769.644 L66.5939 761.496 L50.9921 761.496 L50.9921 756.982 L65.367 735.084 Z" fill="#000000" fill-rule="nonzero" fill-opacity="1"></path><path clip-path="url(#clip740)" d="M64.6495 486.32 Q61.5013 486.32 59.6495 488.473 Q57.8208 490.626 57.8208 494.376 Q57.8208 498.103 59.6495 500.279 Q61.5013 502.431 64.6495 502.431 Q67.7976 502.431 69.6263 500.279 Q71.4781 498.103 71.4781 494.376 Q71.4781 490.626 69.6263 488.473 Q67.7976 486.32 64.6495 486.32 M73.9318 471.668 L73.9318 475.927 Q72.1726 475.094 70.367 474.654 Q68.5846 474.214 66.8254 474.214 Q62.1958 474.214 59.7421 477.339 Q57.3115 480.464 56.9643 486.783 Q58.33 484.769 60.3902 483.705 Q62.4504 482.617 64.9272 482.617 Q70.1355 482.617 73.1448 485.788 Q76.1772 488.936 76.1772 494.376 Q76.1772 499.7 73.029 502.918 Q69.8809 506.135 64.6495 506.135 Q58.6541 506.135 55.4828 501.552 Q52.3116 496.945 52.3116 488.219 Q52.3116 480.024 56.2004 475.163 Q60.0893 470.279 66.6402 470.279 Q68.3994 470.279 70.1818 470.626 Q71.9874 470.973 73.9318 471.668 Z" fill="#000000" fill-rule="nonzero" fill-opacity="1"></path><path clip-path="url(#clip740)" d="M64.3254 224.872 Q60.9921 224.872 59.0708 226.654 Q57.1726 228.437 57.1726 231.562 Q57.1726 234.687 59.0708 236.469 Q60.9921 238.251 64.3254 238.251 Q67.6587 238.251 69.58 236.469 Q71.5013 234.664 71.5013 231.562 Q71.5013 228.437 69.58 226.654 Q67.6819 224.872 64.3254 224.872 M59.6495 222.881 Q56.6402 222.14 54.9504 220.08 Q53.2838 218.02 53.2838 215.057 Q53.2838 210.914 56.2236 208.506 Q59.1865 206.099 64.3254 206.099 Q69.4874 206.099 72.4272 208.506 Q75.367 210.914 75.367 215.057 Q75.367 218.02 73.6772 220.08 Q72.0105 222.14 69.0244 222.881 Q72.404 223.668 74.279 225.96 Q76.1772 228.252 76.1772 231.562 Q76.1772 236.585 73.0985 239.27 Q70.0429 241.955 64.3254 241.955 Q58.6078 241.955 55.5291 239.27 Q52.4736 236.585 52.4736 231.562 Q52.4736 228.252 54.3717 225.96 Q56.2699 223.668 59.6495 222.881 M57.9365 215.497 Q57.9365 218.182 59.6032 219.687 Q61.293 221.191 64.3254 221.191 Q67.3346 221.191 69.0244 219.687 Q70.7374 218.182 70.7374 215.497 Q70.7374 212.812 69.0244 211.307 Q67.3346 209.803 64.3254 209.803 Q61.293 209.803 59.6032 211.307 Q57.9365 212.812 57.9365 215.497 Z" fill="#000000" fill-rule="nonzero" fill-opacity="1"></path><path clip-path="url(#clip740)" d="M472.517 12.096 L480.7 12.096 L480.7 65.6895 L510.15 65.6895 L510.15 72.576 L472.517 72.576 L472.517 12.096 Z" fill="#000000" fill-rule="nonzero" fill-opacity="1"></path><path clip-path="url(#clip740)" d="M534.536 32.4315 Q528.541 32.4315 525.057 37.1306 Q521.573 41.7891 521.573 49.9314 Q521.573 58.0738 525.017 62.7728 Q528.5 67.4314 534.536 67.4314 Q540.491 67.4314 543.975 62.7323 Q547.459 58.0333 547.459 49.9314 Q547.459 41.8701 543.975 37.1711 Q540.491 32.4315 534.536 32.4315 M534.536 26.1121 Q544.258 26.1121 549.808 32.4315 Q555.358 38.7509 555.358 49.9314 Q555.358 61.0714 549.808 67.4314 Q544.258 73.7508 534.536 73.7508 Q524.774 73.7508 519.224 67.4314 Q513.715 61.0714 513.715 49.9314 Q513.715 38.7509 519.224 32.4315 Q524.774 26.1121 534.536 26.1121 Z" fill="#000000" fill-rule="nonzero" fill-opacity="1"></path><path clip-path="url(#clip740)" d="M605.427 45.1919 L605.427 72.576 L597.973 72.576 L597.973 45.4349 Q597.973 38.994 595.462 35.7938 Q592.95 32.5936 587.927 32.5936 Q581.891 32.5936 578.408 36.4419 Q574.924 40.2903 574.924 46.9338 L574.924 72.576 L567.43 72.576 L567.43 27.2059 L574.924 27.2059 L574.924 34.2544 Q577.597 30.163 581.203 28.1376 Q584.848 26.1121 589.588 26.1121 Q597.406 26.1121 601.417 30.9732 Q605.427 35.7938 605.427 45.1919 Z" fill="#000000" fill-rule="nonzero" fill-opacity="1"></path><path clip-path="url(#clip740)" d="M650.149 49.3643 Q650.149 41.2625 646.787 36.8065 Q643.465 32.3505 637.429 32.3505 Q631.434 32.3505 628.072 36.8065 Q624.75 41.2625 624.75 49.3643 Q624.75 57.4256 628.072 61.8816 Q631.434 66.3376 637.429 66.3376 Q643.465 66.3376 646.787 61.8816 Q650.149 57.4256 650.149 49.3643 M657.603 66.9452 Q657.603 78.5308 652.458 84.1616 Q647.313 89.8329 636.7 89.8329 Q632.771 89.8329 629.287 89.2252 Q625.803 88.6581 622.522 87.4428 L622.522 80.1917 Q625.803 81.9741 629.003 82.8248 Q632.204 83.6755 635.525 83.6755 Q642.857 83.6755 646.503 79.8271 Q650.149 76.0193 650.149 68.282 L650.149 64.5957 Q647.84 68.6061 644.235 70.5911 Q640.629 72.576 635.606 72.576 Q627.261 72.576 622.157 66.2161 Q617.053 59.8562 617.053 49.3643 Q617.053 38.832 622.157 32.472 Q627.261 26.1121 635.606 26.1121 Q640.629 26.1121 644.235 28.0971 Q647.84 30.082 650.149 34.0924 L650.149 27.2059 L657.603 27.2059 L657.603 66.9452 Z" fill="#000000" fill-rule="nonzero" fill-opacity="1"></path><path clip-path="url(#clip740)" d="M691.266 12.096 L742.429 12.096 L742.429 18.9825 L720.959 18.9825 L720.959 72.576 L712.736 72.576 L712.736 18.9825 L691.266 18.9825 L691.266 12.096 Z" fill="#000000" fill-rule="nonzero" fill-opacity="1"></path><path clip-path="url(#clip740)" d="M756.89 49.7694 Q747.857 49.7694 744.373 51.8354 Q740.889 53.9013 740.889 58.8839 Q740.889 62.8538 743.482 65.2034 Q746.115 67.5124 750.611 67.5124 Q756.809 67.5124 760.536 63.1374 Q764.304 58.7219 764.304 51.4303 L764.304 49.7694 L756.89 49.7694 M771.757 46.6907 L771.757 72.576 L764.304 72.576 L764.304 65.6895 Q761.751 69.8214 757.944 71.8063 Q754.136 73.7508 748.627 73.7508 Q741.659 73.7508 737.527 69.8619 Q733.436 65.9325 733.436 59.3701 Q733.436 51.7138 738.54 47.825 Q743.684 43.9361 753.852 43.9361 L764.304 43.9361 L764.304 43.2069 Q764.304 38.0623 760.901 35.2672 Q757.539 32.4315 751.422 32.4315 Q747.533 32.4315 743.846 33.3632 Q740.16 34.295 736.757 36.1584 L736.757 29.2718 Q740.849 27.692 744.697 26.9223 Q748.546 26.1121 752.191 26.1121 Q762.035 26.1121 766.896 31.2163 Q771.757 36.3204 771.757 46.6907 Z" fill="#000000" fill-rule="nonzero" fill-opacity="1"></path><path clip-path="url(#clip740)" d="M787.11 27.2059 L794.564 27.2059 L794.564 72.576 L787.11 72.576 L787.11 27.2059 M787.11 9.54393 L794.564 9.54393 L794.564 18.9825 L787.11 18.9825 L787.11 9.54393 Z" fill="#000000" fill-rule="nonzero" fill-opacity="1"></path><path clip-path="url(#clip740)" d="M810.16 9.54393 L817.613 9.54393 L817.613 72.576 L810.16 72.576 L810.16 9.54393 Z" fill="#000000" fill-rule="nonzero" fill-opacity="1"></path><path clip-path="url(#clip740)" d="M889.436 34.0924 L889.436 9.54393 L896.89 9.54393 L896.89 72.576 L889.436 72.576 L889.436 65.7705 Q887.086 69.8214 883.481 71.8063 Q879.916 73.7508 874.893 73.7508 Q866.67 73.7508 861.485 67.1883 Q856.34 60.6258 856.34 49.9314 Q856.34 39.2371 861.485 32.6746 Q866.67 26.1121 874.893 26.1121 Q879.916 26.1121 883.481 28.0971 Q887.086 30.0415 889.436 34.0924 M864.037 49.9314 Q864.037 58.1548 867.399 62.8538 Q870.802 67.5124 876.716 67.5124 Q882.63 67.5124 886.033 62.8538 Q889.436 58.1548 889.436 49.9314 Q889.436 41.7081 886.033 37.0496 Q882.63 32.3505 876.716 32.3505 Q870.802 32.3505 867.399 37.0496 Q864.037 41.7081 864.037 49.9314 Z" fill="#000000" fill-rule="nonzero" fill-opacity="1"></path><path clip-path="url(#clip740)" d="M920.344 65.6895 L948.903 65.6895 L948.903 72.576 L910.501 72.576 L910.501 65.6895 Q915.159 60.8689 923.18 52.7671 Q931.241 44.6248 933.307 42.2752 Q937.237 37.8598 938.776 34.8216 Q940.356 31.7429 940.356 28.7857 Q940.356 23.9651 936.953 20.927 Q933.591 17.8888 928.163 17.8888 Q924.314 17.8888 920.02 19.2256 Q915.767 20.5624 910.906 23.2765 L910.906 15.0127 Q915.848 13.0277 920.142 12.015 Q924.436 11.0023 928.001 11.0023 Q937.399 11.0023 942.989 15.7013 Q948.579 20.4004 948.579 28.2591 Q948.579 31.9859 947.161 35.3482 Q945.784 38.6699 942.098 43.2069 Q941.085 44.3817 935.657 50.0125 Q930.229 55.6027 920.344 65.6895 Z" fill="#000000" fill-rule="nonzero" fill-opacity="1"></path><path clip-path="url(#clip740)" d="M966.93 62.2867 L975.477 62.2867 L975.477 69.2543 L968.834 82.2172 L963.608 82.2172 L966.93 69.2543 L966.93 62.2867 Z" fill="#000000" fill-rule="nonzero" fill-opacity="1"></path><path clip-path="url(#clip740)" d="M1053.09 35.9153 Q1055.89 30.8922 1059.78 28.5022 Q1063.67 26.1121 1068.93 26.1121 Q1076.02 26.1121 1079.87 31.0947 Q1083.72 36.0368 1083.72 45.1919 L1083.72 72.576 L1076.22 72.576 L1076.22 45.4349 Q1076.22 38.913 1073.91 35.7533 Q1071.61 32.5936 1066.87 32.5936 Q1061.07 32.5936 1057.71 36.4419 Q1054.35 40.2903 1054.35 46.9338 L1054.35 72.576 L1046.85 72.576 L1046.85 45.4349 Q1046.85 38.8725 1044.55 35.7533 Q1042.24 32.5936 1037.42 32.5936 Q1031.7 32.5936 1028.34 36.4824 Q1024.98 40.3308 1024.98 46.9338 L1024.98 72.576 L1017.49 72.576 L1017.49 27.2059 L1024.98 27.2059 L1024.98 34.2544 Q1027.53 30.082 1031.1 28.0971 Q1034.66 26.1121 1039.56 26.1121 Q1044.5 26.1121 1047.95 28.6237 Q1051.43 31.1352 1053.09 35.9153 Z" fill="#000000" fill-rule="nonzero" fill-opacity="1"></path><path clip-path="url(#clip740)" d="M1116.17 32.4315 Q1110.17 32.4315 1106.69 37.1306 Q1103.2 41.7891 1103.2 49.9314 Q1103.2 58.0738 1106.65 62.7728 Q1110.13 67.4314 1116.17 67.4314 Q1122.12 67.4314 1125.6 62.7323 Q1129.09 58.0333 1129.09 49.9314 Q1129.09 41.8701 1125.6 37.1711 Q1122.12 32.4315 1116.17 32.4315 M1116.17 26.1121 Q1125.89 26.1121 1131.44 32.4315 Q1136.99 38.7509 1136.99 49.9314 Q1136.99 61.0714 1131.44 67.4314 Q1125.89 73.7508 1116.17 73.7508 Q1106.4 73.7508 1100.85 67.4314 Q1095.34 61.0714 1095.34 49.9314 Q1095.34 38.7509 1100.85 32.4315 Q1106.4 26.1121 1116.17 26.1121 Z" fill="#000000" fill-rule="nonzero" fill-opacity="1"></path><path clip-path="url(#clip740)" d="M1143.99 27.2059 L1151.89 27.2059 L1166.07 65.2844 L1180.25 27.2059 L1188.15 27.2059 L1171.14 72.576 L1161.01 72.576 L1143.99 27.2059 Z" fill="#000000" fill-rule="nonzero" fill-opacity="1"></path><path clip-path="url(#clip740)" d="M1198.44 27.2059 L1205.89 27.2059 L1205.89 72.576 L1198.44 72.576 L1198.44 27.2059 M1198.44 9.54393 L1205.89 9.54393 L1205.89 18.9825 L1198.44 18.9825 L1198.44 9.54393 Z" fill="#000000" fill-rule="nonzero" fill-opacity="1"></path><path clip-path="url(#clip740)" d="M1259.2 45.1919 L1259.2 72.576 L1251.75 72.576 L1251.75 45.4349 Q1251.75 38.994 1249.24 35.7938 Q1246.73 32.5936 1241.7 32.5936 Q1235.67 32.5936 1232.18 36.4419 Q1228.7 40.2903 1228.7 46.9338 L1228.7 72.576 L1221.21 72.576 L1221.21 27.2059 L1228.7 27.2059 L1228.7 34.2544 Q1231.37 30.163 1234.98 28.1376 Q1238.62 26.1121 1243.36 26.1121 Q1251.18 26.1121 1255.19 30.9732 Q1259.2 35.7938 1259.2 45.1919 Z" fill="#000000" fill-rule="nonzero" fill-opacity="1"></path><path clip-path="url(#clip740)" d="M1303.92 49.3643 Q1303.92 41.2625 1300.56 36.8065 Q1297.24 32.3505 1291.2 32.3505 Q1285.21 32.3505 1281.85 36.8065 Q1278.53 41.2625 1278.53 49.3643 Q1278.53 57.4256 1281.85 61.8816 Q1285.21 66.3376 1291.2 66.3376 Q1297.24 66.3376 1300.56 61.8816 Q1303.92 57.4256 1303.92 49.3643 M1311.38 66.9452 Q1311.38 78.5308 1306.23 84.1616 Q1301.09 89.8329 1290.48 89.8329 Q1286.55 89.8329 1283.06 89.2252 Q1279.58 88.6581 1276.3 87.4428 L1276.3 80.1917 Q1279.58 81.9741 1282.78 82.8248 Q1285.98 83.6755 1289.3 83.6755 Q1296.63 83.6755 1300.28 79.8271 Q1303.92 76.0193 1303.92 68.282 L1303.92 64.5957 Q1301.62 68.6061 1298.01 70.5911 Q1294.4 72.576 1289.38 72.576 Q1281.04 72.576 1275.93 66.2161 Q1270.83 59.8562 1270.83 49.3643 Q1270.83 38.832 1275.93 32.472 Q1281.04 26.1121 1289.38 26.1121 Q1294.4 26.1121 1298.01 28.0971 Q1301.62 30.082 1303.92 34.0924 L1303.92 27.2059 L1311.38 27.2059 L1311.38 66.9452 Z" fill="#000000" fill-rule="nonzero" fill-opacity="1"></path><path clip-path="url(#clip740)" d="M1360.31 65.7705 L1360.31 89.8329 L1352.82 89.8329 L1352.82 27.2059 L1360.31 27.2059 L1360.31 34.0924 Q1362.66 30.0415 1366.23 28.0971 Q1369.83 26.1121 1374.82 26.1121 Q1383.08 26.1121 1388.22 32.6746 Q1393.41 39.2371 1393.41 49.9314 Q1393.41 60.6258 1388.22 67.1883 Q1383.08 73.7508 1374.82 73.7508 Q1369.83 73.7508 1366.23 71.8063 Q1362.66 69.8214 1360.31 65.7705 M1385.67 49.9314 Q1385.67 41.7081 1382.27 37.0496 Q1378.91 32.3505 1372.99 32.3505 Q1367.08 32.3505 1363.68 37.0496 Q1360.31 41.7081 1360.31 49.9314 Q1360.31 58.1548 1363.68 62.8538 Q1367.08 67.5124 1372.99 67.5124 Q1378.91 67.5124 1382.27 62.8538 Q1385.67 58.1548 1385.67 49.9314 Z" fill="#000000" fill-rule="nonzero" fill-opacity="1"></path><path clip-path="url(#clip740)" d="M1423.35 32.4315 Q1417.35 32.4315 1413.87 37.1306 Q1410.38 41.7891 1410.38 49.9314 Q1410.38 58.0738 1413.83 62.7728 Q1417.31 67.4314 1423.35 67.4314 Q1429.3 67.4314 1432.78 62.7323 Q1436.27 58.0333 1436.27 49.9314 Q1436.27 41.8701 1432.78 37.1711 Q1429.3 32.4315 1423.35 32.4315 M1423.35 26.1121 Q1433.07 26.1121 1438.62 32.4315 Q1444.17 38.7509 1444.17 49.9314 Q1444.17 61.0714 1438.62 67.4314 Q1433.07 73.7508 1423.35 73.7508 Q1413.58 73.7508 1408.03 67.4314 Q1402.52 61.0714 1402.52 49.9314 Q1402.52 38.7509 1408.03 32.4315 Q1413.58 26.1121 1423.35 26.1121 Z" fill="#000000" fill-rule="nonzero" fill-opacity="1"></path><path clip-path="url(#clip740)" d="M1456.52 27.2059 L1463.98 27.2059 L1463.98 72.576 L1456.52 72.576 L1456.52 27.2059 M1456.52 9.54393 L1463.98 9.54393 L1463.98 18.9825 L1456.52 18.9825 L1456.52 9.54393 Z" fill="#000000" fill-rule="nonzero" fill-opacity="1"></path><path clip-path="url(#clip740)" d="M1517.29 45.1919 L1517.29 72.576 L1509.83 72.576 L1509.83 45.4349 Q1509.83 38.994 1507.32 35.7938 Q1504.81 32.5936 1499.79 32.5936 Q1493.75 32.5936 1490.27 36.4419 Q1486.78 40.2903 1486.78 46.9338 L1486.78 72.576 L1479.29 72.576 L1479.29 27.2059 L1486.78 27.2059 L1486.78 34.2544 Q1489.46 30.163 1493.06 28.1376 Q1496.71 26.1121 1501.45 26.1121 Q1509.26 26.1121 1513.28 30.9732 Q1517.29 35.7938 1517.29 45.1919 Z" fill="#000000" fill-rule="nonzero" fill-opacity="1"></path><path clip-path="url(#clip740)" d="M1539.53 14.324 L1539.53 27.2059 L1554.88 27.2059 L1554.88 32.9987 L1539.53 32.9987 L1539.53 57.6282 Q1539.53 63.1779 1541.02 64.7578 Q1542.56 66.3376 1547.22 66.3376 L1554.88 66.3376 L1554.88 72.576 L1547.22 72.576 Q1538.59 72.576 1535.31 69.3758 Q1532.03 66.1351 1532.03 57.6282 L1532.03 32.9987 L1526.56 32.9987 L1526.56 27.2059 L1532.03 27.2059 L1532.03 14.324 L1539.53 14.324 Z" fill="#000000" fill-rule="nonzero" fill-opacity="1"></path><path clip-path="url(#clip740)" d="M1598.26 65.7705 L1598.26 89.8329 L1590.77 89.8329 L1590.77 27.2059 L1598.26 27.2059 L1598.26 34.0924 Q1600.61 30.0415 1604.18 28.0971 Q1607.78 26.1121 1612.77 26.1121 Q1621.03 26.1121 1626.17 32.6746 Q1631.36 39.2371 1631.36 49.9314 Q1631.36 60.6258 1626.17 67.1883 Q1621.03 73.7508 1612.77 73.7508 Q1607.78 73.7508 1604.18 71.8063 Q1600.61 69.8214 1598.26 65.7705 M1623.62 49.9314 Q1623.62 41.7081 1620.22 37.0496 Q1616.86 32.3505 1610.94 32.3505 Q1605.03 32.3505 1601.63 37.0496 Q1598.26 41.7081 1598.26 49.9314 Q1598.26 58.1548 1601.63 62.8538 Q1605.03 67.5124 1610.94 67.5124 Q1616.86 67.5124 1620.22 62.8538 Q1623.62 58.1548 1623.62 49.9314 Z" fill="#000000" fill-rule="nonzero" fill-opacity="1"></path><path clip-path="url(#clip740)" d="M1670 34.1734 Q1668.75 33.4443 1667.25 33.1202 Q1665.79 32.7556 1664.01 32.7556 Q1657.69 32.7556 1654.29 36.8875 Q1650.92 40.9789 1650.92 48.6757 L1650.92 72.576 L1643.43 72.576 L1643.43 27.2059 L1650.92 27.2059 L1650.92 34.2544 Q1653.27 30.1225 1657.04 28.1376 Q1660.81 26.1121 1666.2 26.1121 Q1666.97 26.1121 1667.9 26.2337 Q1668.83 26.3147 1669.96 26.5172 L1670 34.1734 Z" fill="#000000" fill-rule="nonzero" fill-opacity="1"></path><path clip-path="url(#clip740)" d="M1714.81 48.0275 L1714.81 51.6733 L1680.54 51.6733 Q1681.02 59.3701 1685.16 63.421 Q1689.33 67.4314 1696.74 67.4314 Q1701.03 67.4314 1705.05 66.3781 Q1709.1 65.3249 1713.07 63.2184 L1713.07 70.267 Q1709.06 71.9684 1704.84 72.8596 Q1700.63 73.7508 1696.3 73.7508 Q1685.44 73.7508 1679.08 67.4314 Q1672.76 61.1119 1672.76 50.3365 Q1672.76 39.1965 1678.75 32.6746 Q1684.79 26.1121 1695 26.1121 Q1704.15 26.1121 1709.46 32.0264 Q1714.81 37.9003 1714.81 48.0275 M1707.35 45.84 Q1707.27 39.7232 1703.91 36.0774 Q1700.59 32.4315 1695.08 32.4315 Q1688.84 32.4315 1685.07 35.9558 Q1681.35 39.4801 1680.78 45.8805 L1707.35 45.84 Z" fill="#000000" fill-rule="nonzero" fill-opacity="1"></path><path clip-path="url(#clip740)" d="M1756.9 34.0924 L1756.9 9.54393 L1764.35 9.54393 L1764.35 72.576 L1756.9 72.576 L1756.9 65.7705 Q1754.55 69.8214 1750.94 71.8063 Q1747.38 73.7508 1742.35 73.7508 Q1734.13 73.7508 1728.95 67.1883 Q1723.8 60.6258 1723.8 49.9314 Q1723.8 39.2371 1728.95 32.6746 Q1734.13 26.1121 1742.35 26.1121 Q1747.38 26.1121 1750.94 28.0971 Q1754.55 30.0415 1756.9 34.0924 M1731.5 49.9314 Q1731.5 58.1548 1734.86 62.8538 Q1738.26 67.5124 1744.18 67.5124 Q1750.09 67.5124 1753.49 62.8538 Q1756.9 58.1548 1756.9 49.9314 Q1756.9 41.7081 1753.49 37.0496 Q1750.09 32.3505 1744.18 32.3505 Q1738.26 32.3505 1734.86 37.0496 Q1731.5 41.7081 1731.5 49.9314 Z" fill="#000000" fill-rule="nonzero" fill-opacity="1"></path><path clip-path="url(#clip740)" d="M1779.7 27.2059 L1787.16 27.2059 L1787.16 72.576 L1779.7 72.576 L1779.7 27.2059 M1779.7 9.54393 L1787.16 9.54393 L1787.16 18.9825 L1779.7 18.9825 L1779.7 9.54393 Z" fill="#000000" fill-rule="nonzero" fill-opacity="1"></path><path clip-path="url(#clip740)" d="M1835.4 28.9478 L1835.4 35.9153 Q1832.24 34.1734 1829.04 33.3227 Q1825.88 32.4315 1822.64 32.4315 Q1815.39 32.4315 1811.38 37.0496 Q1807.37 41.6271 1807.37 49.9314 Q1807.37 58.2358 1811.38 62.8538 Q1815.39 67.4314 1822.64 67.4314 Q1825.88 67.4314 1829.04 66.5807 Q1832.24 65.6895 1835.4 63.9476 L1835.4 70.8341 Q1832.28 72.2924 1828.92 73.0216 Q1825.6 73.7508 1821.83 73.7508 Q1811.58 73.7508 1805.55 67.3098 Q1799.51 60.8689 1799.51 49.9314 Q1799.51 38.832 1805.59 32.472 Q1811.71 26.1121 1822.32 26.1121 Q1825.76 26.1121 1829.04 26.8413 Q1832.32 27.5299 1835.4 28.9478 Z" fill="#000000" fill-rule="nonzero" fill-opacity="1"></path><path clip-path="url(#clip740)" d="M1855.74 14.324 L1855.74 27.2059 L1871.09 27.2059 L1871.09 32.9987 L1855.74 32.9987 L1855.74 57.6282 Q1855.74 63.1779 1857.24 64.7578 Q1858.78 66.3376 1863.44 66.3376 L1871.09 66.3376 L1871.09 72.576 L1863.44 72.576 Q1854.81 72.576 1851.53 69.3758 Q1848.24 66.1351 1848.24 57.6282 L1848.24 32.9987 L1842.78 32.9987 L1842.78 27.2059 L1848.24 27.2059 L1848.24 14.324 L1855.74 14.324 Z" fill="#000000" fill-rule="nonzero" fill-opacity="1"></path><path clip-path="url(#clip740)" d="M1880.89 27.2059 L1888.35 27.2059 L1888.35 72.576 L1880.89 72.576 L1880.89 27.2059 M1880.89 9.54393 L1888.35 9.54393 L1888.35 18.9825 L1880.89 18.9825 L1880.89 9.54393 Z" fill="#000000" fill-rule="nonzero" fill-opacity="1"></path><path clip-path="url(#clip740)" d="M1921.53 32.4315 Q1915.53 32.4315 1912.05 37.1306 Q1908.56 41.7891 1908.56 49.9314 Q1908.56 58.0738 1912.01 62.7728 Q1915.49 67.4314 1921.53 67.4314 Q1927.48 67.4314 1930.96 62.7323 Q1934.45 58.0333 1934.45 49.9314 Q1934.45 41.8701 1930.96 37.1711 Q1927.48 32.4315 1921.53 32.4315 M1921.53 26.1121 Q1931.25 26.1121 1936.8 32.4315 Q1942.35 38.7509 1942.35 49.9314 Q1942.35 61.0714 1936.8 67.4314 Q1931.25 73.7508 1921.53 73.7508 Q1911.76 73.7508 1906.21 67.4314 Q1900.7 61.0714 1900.7 49.9314 Q1900.7 38.7509 1906.21 32.4315 Q1911.76 26.1121 1921.53 26.1121 Z" fill="#000000" fill-rule="nonzero" fill-opacity="1"></path><path clip-path="url(#clip740)" d="M1992.42 45.1919 L1992.42 72.576 L1984.96 72.576 L1984.96 45.4349 Q1984.96 38.994 1982.45 35.7938 Q1979.94 32.5936 1974.92 32.5936 Q1968.88 32.5936 1965.4 36.4419 Q1961.91 40.2903 1961.91 46.9338 L1961.91 72.576 L1954.42 72.576 L1954.42 27.2059 L1961.91 27.2059 L1961.91 34.2544 Q1964.59 30.163 1968.19 28.1376 Q1971.84 26.1121 1976.58 26.1121 Q1984.4 26.1121 1988.41 30.9732 Q1992.42 35.7938 1992.42 45.1919 Z" fill="#000000" fill-rule="nonzero" fill-opacity="1"></path><polyline clip-path="url(#clip742)" style="stroke:#009af9; stroke-linecap:round; stroke-linejoin:round; stroke-width:4; stroke-opacity:1; fill:none" points="175.59,1297.04 248.478,1320.74 321.366,1235.78 394.254,1326.32 467.142,1235.35 540.03,1325.71 612.918,1236.09 685.806,1325.06 758.694,1236.61 831.582,1324.67 904.47,1324.55 977.358,1236.98 1050.25,1324.42 1123.13,1237.06 1196.02,1324.38 1268.91,1237.07 1341.8,1324.41 1414.69,1324.45 1487.57,1236.92 1560.46,1324.63 1633.35,1236.66 1706.24,1325 1779.13,1236.17 1852.01,1325.62 1924.9,1326.01 1997.79,1235.14 2070.68,1326.02 2143.57,1238.5 2216.46,1304.53 2289.34,1285.13 "></polyline>
<polyline clip-path="url(#clip742)" style="stroke:#e26f46; stroke-linecap:round; stroke-linejoin:round; stroke-width:4; stroke-opacity:1; fill:none" points="175.59,1297.04 248.478,1271.42 321.366,1280.36 394.254,1276.9 467.142,1274.25 540.03,1275.01 612.918,1278.53 685.806,1284.68 758.694,1293.59 831.582,1304.96 904.47,1318.12 977.358,1332.12 1050.25,1345.84 1123.13,1358.17 1196.02,1368.26 1268.91,1375.49 1341.8,1379.35 1414.69,1379.03 1487.57,1373.57 1560.46,1361.54 1633.35,1340.71 1706.24,1308.01 1779.13,1258.95 1852.01,1188.28 1924.9,1091.73 1997.79,966.476 2070.68,811.572 2143.57,626.392 2216.46,409.422 2289.34,160.256 "></polyline>
<polyline clip-path="url(#clip742)" style="stroke:#ff0000; stroke-linecap:round; stroke-linejoin:round; stroke-width:2; stroke-opacity:1; fill:none" points="1268.91,1386.4 1268.91,224.004 "></polyline>
<path clip-path="url(#clip740)" d="M186.863 374.156 L883.21 374.156 L883.21 166.796 L186.863 166.796  Z" fill="#ffffff" fill-rule="evenodd" fill-opacity="1"></path>
<polyline clip-path="url(#clip740)" style="stroke:#000000; stroke-linecap:round; stroke-linejoin:round; stroke-width:4; stroke-opacity:1; fill:none" points="186.863,374.156 883.21,374.156 883.21,166.796 186.863,166.796 186.863,374.156 "></polyline>
<polyline clip-path="url(#clip740)" style="stroke:#009af9; stroke-linecap:round; stroke-linejoin:round; stroke-width:4; stroke-opacity:1; fill:none" points="211.758,218.636 361.13,218.636 "></polyline>
<path clip-path="url(#clip740)" d="M404.938 213.925 L404.938 199.897 L409.197 199.897 L409.197 235.916 L404.938 235.916 L404.938 232.027 Q403.595 234.342 401.535 235.476 Q399.498 236.587 396.627 236.587 Q391.928 236.587 388.965 232.837 Q386.026 229.087 386.026 222.976 Q386.026 216.865 388.965 213.115 Q391.928 209.365 396.627 209.365 Q399.498 209.365 401.535 210.499 Q403.595 211.61 404.938 213.925 M390.424 222.976 Q390.424 227.675 392.345 230.36 Q394.29 233.022 397.669 233.022 Q401.049 233.022 402.993 230.36 Q404.938 227.675 404.938 222.976 Q404.938 218.277 402.993 215.615 Q401.049 212.93 397.669 212.93 Q394.29 212.93 392.345 215.615 Q390.424 218.277 390.424 222.976 Z" fill="#000000" fill-rule="nonzero" fill-opacity="1"></path><path clip-path="url(#clip740)" d="M429.752 222.883 Q424.59 222.883 422.6 224.064 Q420.609 225.244 420.609 228.092 Q420.609 230.36 422.09 231.703 Q423.595 233.022 426.164 233.022 Q429.706 233.022 431.836 230.522 Q433.988 227.999 433.988 223.832 L433.988 222.883 L429.752 222.883 M438.248 221.124 L438.248 235.916 L433.988 235.916 L433.988 231.981 Q432.53 234.342 430.354 235.476 Q428.178 236.587 425.03 236.587 Q421.049 236.587 418.688 234.365 Q416.35 232.119 416.35 228.369 Q416.35 223.994 419.266 221.772 Q422.206 219.55 428.016 219.55 L433.988 219.55 L433.988 219.133 Q433.988 216.194 432.044 214.596 Q430.123 212.976 426.627 212.976 Q424.405 212.976 422.299 213.508 Q420.192 214.041 418.248 215.106 L418.248 211.17 Q420.586 210.268 422.785 209.828 Q424.984 209.365 427.067 209.365 Q432.692 209.365 435.47 212.282 Q438.248 215.198 438.248 221.124 Z" fill="#000000" fill-rule="nonzero" fill-opacity="1"></path><path clip-path="url(#clip740)" d="M451.234 202.629 L451.234 209.99 L460.007 209.99 L460.007 213.3 L451.234 213.3 L451.234 227.374 Q451.234 230.545 452.09 231.448 Q452.97 232.351 455.632 232.351 L460.007 232.351 L460.007 235.916 L455.632 235.916 Q450.701 235.916 448.826 234.087 Q446.951 232.235 446.951 227.374 L446.951 213.3 L443.826 213.3 L443.826 209.99 L446.951 209.99 L446.951 202.629 L451.234 202.629 Z" fill="#000000" fill-rule="nonzero" fill-opacity="1"></path><path clip-path="url(#clip740)" d="M477.391 222.883 Q472.229 222.883 470.238 224.064 Q468.247 225.244 468.247 228.092 Q468.247 230.36 469.729 231.703 Q471.234 233.022 473.803 233.022 Q477.345 233.022 479.474 230.522 Q481.627 227.999 481.627 223.832 L481.627 222.883 L477.391 222.883 M485.886 221.124 L485.886 235.916 L481.627 235.916 L481.627 231.981 Q480.169 234.342 477.993 235.476 Q475.817 236.587 472.669 236.587 Q468.687 236.587 466.326 234.365 Q463.988 232.119 463.988 228.369 Q463.988 223.994 466.905 221.772 Q469.845 219.55 475.655 219.55 L481.627 219.55 L481.627 219.133 Q481.627 216.194 479.683 214.596 Q477.761 212.976 474.266 212.976 Q472.044 212.976 469.937 213.508 Q467.831 214.041 465.886 215.106 L465.886 211.17 Q468.224 210.268 470.423 209.828 Q472.622 209.365 474.706 209.365 Q480.331 209.365 483.109 212.282 Q485.886 215.198 485.886 221.124 Z" fill="#000000" fill-rule="nonzero" fill-opacity="1"></path><polyline clip-path="url(#clip740)" style="stroke:#e26f46; stroke-linecap:round; stroke-linejoin:round; stroke-width:4; stroke-opacity:1; fill:none" points="211.758,270.476 361.13,270.476 "></polyline>
<path clip-path="url(#clip740)" d="M390.308 283.867 L390.308 297.617 L386.026 297.617 L386.026 261.83 L390.308 261.83 L390.308 265.765 Q391.651 263.45 393.688 262.339 Q395.748 261.205 398.595 261.205 Q403.317 261.205 406.257 264.955 Q409.22 268.705 409.22 274.816 Q409.22 280.927 406.257 284.677 Q403.317 288.427 398.595 288.427 Q395.748 288.427 393.688 287.316 Q391.651 286.182 390.308 283.867 M404.799 274.816 Q404.799 270.117 402.854 267.455 Q400.933 264.77 397.553 264.77 Q394.174 264.77 392.229 267.455 Q390.308 270.117 390.308 274.816 Q390.308 279.515 392.229 282.2 Q394.174 284.862 397.553 284.862 Q400.933 284.862 402.854 282.2 Q404.799 279.515 404.799 274.816 Z" fill="#000000" fill-rule="nonzero" fill-opacity="1"></path><path clip-path="url(#clip740)" d="M431.303 265.811 Q430.586 265.395 429.729 265.21 Q428.896 265.001 427.877 265.001 Q424.266 265.001 422.322 267.362 Q420.401 269.7 420.401 274.098 L420.401 287.756 L416.118 287.756 L416.118 261.83 L420.401 261.83 L420.401 265.858 Q421.743 263.497 423.896 262.362 Q426.049 261.205 429.127 261.205 Q429.567 261.205 430.1 261.274 Q430.632 261.321 431.28 261.436 L431.303 265.811 Z" fill="#000000" fill-rule="nonzero" fill-opacity="1"></path><path clip-path="url(#clip740)" d="M456.905 273.728 L456.905 275.811 L437.322 275.811 Q437.599 280.209 439.961 282.524 Q442.345 284.816 446.581 284.816 Q449.035 284.816 451.326 284.214 Q453.641 283.612 455.91 282.409 L455.91 286.436 Q453.618 287.408 451.211 287.918 Q448.803 288.427 446.326 288.427 Q440.123 288.427 436.488 284.816 Q432.877 281.205 432.877 275.047 Q432.877 268.682 436.303 264.955 Q439.752 261.205 445.586 261.205 Q450.817 261.205 453.849 264.585 Q456.905 267.941 456.905 273.728 M452.646 272.478 Q452.599 268.983 450.678 266.899 Q448.78 264.816 445.632 264.816 Q442.067 264.816 439.914 266.83 Q437.785 268.844 437.461 272.501 L452.646 272.478 Z" fill="#000000" fill-rule="nonzero" fill-opacity="1"></path><path clip-path="url(#clip740)" d="M480.956 265.765 L480.956 251.737 L485.215 251.737 L485.215 287.756 L480.956 287.756 L480.956 283.867 Q479.613 286.182 477.553 287.316 Q475.516 288.427 472.646 288.427 Q467.947 288.427 464.984 284.677 Q462.044 280.927 462.044 274.816 Q462.044 268.705 464.984 264.955 Q467.947 261.205 472.646 261.205 Q475.516 261.205 477.553 262.339 Q479.613 263.45 480.956 265.765 M466.442 274.816 Q466.442 279.515 468.363 282.2 Q470.308 284.862 473.687 284.862 Q477.067 284.862 479.011 282.2 Q480.956 279.515 480.956 274.816 Q480.956 270.117 479.011 267.455 Q477.067 264.77 473.687 264.77 Q470.308 264.77 468.363 267.455 Q466.442 270.117 466.442 274.816 Z" fill="#000000" fill-rule="nonzero" fill-opacity="1"></path><path clip-path="url(#clip740)" d="M493.988 261.83 L498.247 261.83 L498.247 287.756 L493.988 287.756 L493.988 261.83 M493.988 251.737 L498.247 251.737 L498.247 257.131 L493.988 257.131 L493.988 251.737 Z" fill="#000000" fill-rule="nonzero" fill-opacity="1"></path><path clip-path="url(#clip740)" d="M525.817 262.825 L525.817 266.807 Q524.011 265.811 522.182 265.325 Q520.377 264.816 518.525 264.816 Q514.381 264.816 512.09 267.455 Q509.798 270.071 509.798 274.816 Q509.798 279.561 512.09 282.2 Q514.381 284.816 518.525 284.816 Q520.377 284.816 522.182 284.33 Q524.011 283.821 525.817 282.825 L525.817 286.76 Q524.034 287.594 522.113 288.01 Q520.215 288.427 518.062 288.427 Q512.206 288.427 508.757 284.746 Q505.307 281.066 505.307 274.816 Q505.307 268.473 508.78 264.839 Q512.275 261.205 518.34 261.205 Q520.307 261.205 522.182 261.622 Q524.057 262.015 525.817 262.825 Z" fill="#000000" fill-rule="nonzero" fill-opacity="1"></path><path clip-path="url(#clip740)" d="M537.437 254.469 L537.437 261.83 L546.21 261.83 L546.21 265.14 L537.437 265.14 L537.437 279.214 Q537.437 282.385 538.293 283.288 Q539.173 284.191 541.835 284.191 L546.21 284.191 L546.21 287.756 L541.835 287.756 Q536.905 287.756 535.03 285.927 Q533.155 284.075 533.155 279.214 L533.155 265.14 L530.03 265.14 L530.03 261.83 L533.155 261.83 L533.155 254.469 L537.437 254.469 Z" fill="#000000" fill-rule="nonzero" fill-opacity="1"></path><path clip-path="url(#clip740)" d="M551.812 261.83 L556.071 261.83 L556.071 287.756 L551.812 287.756 L551.812 261.83 M551.812 251.737 L556.071 251.737 L556.071 257.131 L551.812 257.131 L551.812 251.737 Z" fill="#000000" fill-rule="nonzero" fill-opacity="1"></path><path clip-path="url(#clip740)" d="M575.029 264.816 Q571.603 264.816 569.613 267.501 Q567.622 270.163 567.622 274.816 Q567.622 279.469 569.59 282.154 Q571.58 284.816 575.029 284.816 Q578.432 284.816 580.423 282.131 Q582.414 279.446 582.414 274.816 Q582.414 270.21 580.423 267.524 Q578.432 264.816 575.029 264.816 M575.029 261.205 Q580.585 261.205 583.756 264.816 Q586.927 268.427 586.927 274.816 Q586.927 281.182 583.756 284.816 Q580.585 288.427 575.029 288.427 Q569.451 288.427 566.279 284.816 Q563.131 281.182 563.131 274.816 Q563.131 268.427 566.279 264.816 Q569.451 261.205 575.029 261.205 Z" fill="#000000" fill-rule="nonzero" fill-opacity="1"></path><path clip-path="url(#clip740)" d="M615.538 272.108 L615.538 287.756 L611.279 287.756 L611.279 272.247 Q611.279 268.566 609.844 266.737 Q608.409 264.909 605.538 264.909 Q602.089 264.909 600.099 267.108 Q598.108 269.307 598.108 273.103 L598.108 287.756 L593.826 287.756 L593.826 261.83 L598.108 261.83 L598.108 265.858 Q599.636 263.52 601.696 262.362 Q603.779 261.205 606.487 261.205 Q610.955 261.205 613.247 263.983 Q615.538 266.737 615.538 272.108 Z" fill="#000000" fill-rule="nonzero" fill-opacity="1"></path><polyline clip-path="url(#clip740)" style="stroke:#ff0000; stroke-linecap:round; stroke-linejoin:round; stroke-width:2; stroke-opacity:1; fill:none" points="211.758,322.316 361.13,322.316 "></polyline>
<path clip-path="url(#clip740)" d="M386.026 305.036 L407.877 305.036 L407.877 308.971 L390.702 308.971 L390.702 319.202 L407.16 319.202 L407.16 323.137 L390.702 323.137 L390.702 335.661 L408.294 335.661 L408.294 339.596 L386.026 339.596 L386.026 305.036 Z" fill="#000000" fill-rule="nonzero" fill-opacity="1"></path><path clip-path="url(#clip740)" d="M437.345 323.948 L437.345 339.596 L433.086 339.596 L433.086 324.087 Q433.086 320.406 431.65 318.577 Q430.215 316.749 427.345 316.749 Q423.896 316.749 421.905 318.948 Q419.914 321.147 419.914 324.943 L419.914 339.596 L415.632 339.596 L415.632 313.67 L419.914 313.67 L419.914 317.698 Q421.442 315.36 423.502 314.202 Q425.586 313.045 428.294 313.045 Q432.762 313.045 435.053 315.823 Q437.345 318.577 437.345 323.948 Z" fill="#000000" fill-rule="nonzero" fill-opacity="1"></path><path clip-path="url(#clip740)" d="M462.9 317.605 L462.9 303.577 L467.16 303.577 L467.16 339.596 L462.9 339.596 L462.9 335.707 Q461.558 338.022 459.498 339.156 Q457.46 340.267 454.59 340.267 Q449.891 340.267 446.928 336.517 Q443.988 332.767 443.988 326.656 Q443.988 320.545 446.928 316.795 Q449.891 313.045 454.59 313.045 Q457.46 313.045 459.498 314.179 Q461.558 315.29 462.9 317.605 M448.386 326.656 Q448.386 331.355 450.308 334.04 Q452.252 336.702 455.632 336.702 Q459.011 336.702 460.956 334.04 Q462.9 331.355 462.9 326.656 Q462.9 321.957 460.956 319.295 Q459.011 316.61 455.632 316.61 Q452.252 316.61 450.308 319.295 Q448.386 321.957 448.386 326.656 Z" fill="#000000" fill-rule="nonzero" fill-opacity="1"></path><path clip-path="url(#clip740)" d="M501.048 316.656 Q497.622 316.656 495.632 319.341 Q493.641 322.003 493.641 326.656 Q493.641 331.309 495.608 333.994 Q497.599 336.656 501.048 336.656 Q504.451 336.656 506.442 333.971 Q508.432 331.286 508.432 326.656 Q508.432 322.05 506.442 319.364 Q504.451 316.656 501.048 316.656 M501.048 313.045 Q506.604 313.045 509.775 316.656 Q512.946 320.267 512.946 326.656 Q512.946 333.022 509.775 336.656 Q506.604 340.267 501.048 340.267 Q495.47 340.267 492.298 336.656 Q489.15 333.022 489.15 326.656 Q489.15 320.267 492.298 316.656 Q495.47 313.045 501.048 313.045 Z" fill="#000000" fill-rule="nonzero" fill-opacity="1"></path><path clip-path="url(#clip740)" d="M533.131 303.577 L533.131 307.119 L529.057 307.119 Q526.766 307.119 525.863 308.045 Q524.983 308.971 524.983 311.378 L524.983 313.67 L531.997 313.67 L531.997 316.98 L524.983 316.98 L524.983 339.596 L520.701 339.596 L520.701 316.98 L516.627 316.98 L516.627 313.67 L520.701 313.67 L520.701 311.864 Q520.701 307.536 522.715 305.568 Q524.729 303.577 529.104 303.577 L533.131 303.577 Z" fill="#000000" fill-rule="nonzero" fill-opacity="1"></path><path clip-path="url(#clip740)" d="M547.159 305.036 L576.395 305.036 L576.395 308.971 L564.127 308.971 L564.127 339.596 L559.428 339.596 L559.428 308.971 L547.159 308.971 L547.159 305.036 Z" fill="#000000" fill-rule="nonzero" fill-opacity="1"></path><path clip-path="url(#clip740)" d="M588.779 317.651 Q588.062 317.235 587.205 317.05 Q586.372 316.841 585.353 316.841 Q581.742 316.841 579.798 319.202 Q577.877 321.54 577.877 325.938 L577.877 339.596 L573.594 339.596 L573.594 313.67 L577.877 313.67 L577.877 317.698 Q579.219 315.337 581.372 314.202 Q583.525 313.045 586.603 313.045 Q587.043 313.045 587.576 313.114 Q588.108 313.161 588.756 313.276 L588.779 317.651 Z" fill="#000000" fill-rule="nonzero" fill-opacity="1"></path><path clip-path="url(#clip740)" d="M605.029 326.563 Q599.867 326.563 597.876 327.744 Q595.886 328.924 595.886 331.772 Q595.886 334.04 597.367 335.383 Q598.872 336.702 601.441 336.702 Q604.983 336.702 607.112 334.202 Q609.265 331.679 609.265 327.512 L609.265 326.563 L605.029 326.563 M613.524 324.804 L613.524 339.596 L609.265 339.596 L609.265 335.661 Q607.807 338.022 605.631 339.156 Q603.455 340.267 600.307 340.267 Q596.325 340.267 593.964 338.045 Q591.626 335.799 591.626 332.049 Q591.626 327.674 594.543 325.452 Q597.483 323.23 603.293 323.23 L609.265 323.23 L609.265 322.813 Q609.265 319.874 607.321 318.276 Q605.4 316.656 601.904 316.656 Q599.682 316.656 597.575 317.188 Q595.469 317.721 593.525 318.786 L593.525 314.85 Q595.863 313.948 598.062 313.508 Q600.261 313.045 602.344 313.045 Q607.969 313.045 610.747 315.962 Q613.524 318.878 613.524 324.804 Z" fill="#000000" fill-rule="nonzero" fill-opacity="1"></path><path clip-path="url(#clip740)" d="M622.298 313.67 L626.557 313.67 L626.557 339.596 L622.298 339.596 L622.298 313.67 M622.298 303.577 L626.557 303.577 L626.557 308.971 L622.298 308.971 L622.298 303.577 Z" fill="#000000" fill-rule="nonzero" fill-opacity="1"></path><path clip-path="url(#clip740)" d="M657.02 323.948 L657.02 339.596 L652.76 339.596 L652.76 324.087 Q652.76 320.406 651.325 318.577 Q649.89 316.749 647.02 316.749 Q643.571 316.749 641.58 318.948 Q639.589 321.147 639.589 324.943 L639.589 339.596 L635.307 339.596 L635.307 313.67 L639.589 313.67 L639.589 317.698 Q641.117 315.36 643.177 314.202 Q645.26 313.045 647.969 313.045 Q652.436 313.045 654.728 315.823 Q657.02 318.577 657.02 323.948 Z" fill="#000000" fill-rule="nonzero" fill-opacity="1"></path><path clip-path="url(#clip740)" d="M665.515 313.67 L669.774 313.67 L669.774 339.596 L665.515 339.596 L665.515 313.67 M665.515 303.577 L669.774 303.577 L669.774 308.971 L665.515 308.971 L665.515 303.577 Z" fill="#000000" fill-rule="nonzero" fill-opacity="1"></path><path clip-path="url(#clip740)" d="M700.237 323.948 L700.237 339.596 L695.978 339.596 L695.978 324.087 Q695.978 320.406 694.543 318.577 Q693.107 316.749 690.237 316.749 Q686.788 316.749 684.797 318.948 Q682.807 321.147 682.807 324.943 L682.807 339.596 L678.524 339.596 L678.524 313.67 L682.807 313.67 L682.807 317.698 Q684.334 315.36 686.394 314.202 Q688.478 313.045 691.186 313.045 Q695.654 313.045 697.945 315.823 Q700.237 318.577 700.237 323.948 Z" fill="#000000" fill-rule="nonzero" fill-opacity="1"></path><path clip-path="url(#clip740)" d="M725.792 326.332 Q725.792 321.702 723.871 319.156 Q721.973 316.61 718.524 316.61 Q715.098 316.61 713.177 319.156 Q711.279 321.702 711.279 326.332 Q711.279 330.938 713.177 333.485 Q715.098 336.031 718.524 336.031 Q721.973 336.031 723.871 333.485 Q725.792 330.938 725.792 326.332 M730.052 336.378 Q730.052 342.998 727.112 346.216 Q724.172 349.457 718.107 349.457 Q715.862 349.457 713.871 349.11 Q711.88 348.785 710.005 348.091 L710.005 343.948 Q711.88 344.966 713.709 345.452 Q715.538 345.938 717.436 345.938 Q721.626 345.938 723.709 343.739 Q725.792 341.563 725.792 337.142 L725.792 335.036 Q724.473 337.327 722.413 338.461 Q720.353 339.596 717.482 339.596 Q712.714 339.596 709.797 335.961 Q706.88 332.327 706.88 326.332 Q706.88 320.313 709.797 316.679 Q712.714 313.045 717.482 313.045 Q720.353 313.045 722.413 314.179 Q724.473 315.313 725.792 317.605 L725.792 313.67 L730.052 313.67 L730.052 336.378 Z" fill="#000000" fill-rule="nonzero" fill-opacity="1"></path><path clip-path="url(#clip740)" d="M758.755 308.878 L758.755 335.753 L764.403 335.753 Q771.556 335.753 774.866 332.512 Q778.2 329.272 778.2 322.281 Q778.2 315.337 774.866 312.119 Q771.556 308.878 764.403 308.878 L758.755 308.878 M754.079 305.036 L763.686 305.036 Q773.732 305.036 778.431 309.226 Q783.13 313.392 783.13 322.281 Q783.13 331.216 778.408 335.406 Q773.686 339.596 763.686 339.596 L754.079 339.596 L754.079 305.036 Z" fill="#000000" fill-rule="nonzero" fill-opacity="1"></path><path clip-path="url(#clip740)" d="M802.181 326.563 Q797.019 326.563 795.028 327.744 Q793.037 328.924 793.037 331.772 Q793.037 334.04 794.519 335.383 Q796.023 336.702 798.593 336.702 Q802.135 336.702 804.264 334.202 Q806.417 331.679 806.417 327.512 L806.417 326.563 L802.181 326.563 M810.676 324.804 L810.676 339.596 L806.417 339.596 L806.417 335.661 Q804.959 338.022 802.783 339.156 Q800.607 340.267 797.459 340.267 Q793.477 340.267 791.116 338.045 Q788.778 335.799 788.778 332.049 Q788.778 327.674 791.695 325.452 Q794.635 323.23 800.445 323.23 L806.417 323.23 L806.417 322.813 Q806.417 319.874 804.473 318.276 Q802.551 316.656 799.056 316.656 Q796.834 316.656 794.727 317.188 Q792.621 317.721 790.676 318.786 L790.676 314.85 Q793.014 313.948 795.213 313.508 Q797.412 313.045 799.496 313.045 Q805.121 313.045 807.898 315.962 Q810.676 318.878 810.676 324.804 Z" fill="#000000" fill-rule="nonzero" fill-opacity="1"></path><path clip-path="url(#clip740)" d="M823.662 306.309 L823.662 313.67 L832.435 313.67 L832.435 316.98 L823.662 316.98 L823.662 331.054 Q823.662 334.225 824.519 335.128 Q825.398 336.031 828.06 336.031 L832.435 336.031 L832.435 339.596 L828.06 339.596 Q823.13 339.596 821.255 337.767 Q819.38 335.915 819.38 331.054 L819.38 316.98 L816.255 316.98 L816.255 313.67 L819.38 313.67 L819.38 306.309 L823.662 306.309 Z" fill="#000000" fill-rule="nonzero" fill-opacity="1"></path><path clip-path="url(#clip740)" d="M849.819 326.563 Q844.657 326.563 842.667 327.744 Q840.676 328.924 840.676 331.772 Q840.676 334.04 842.158 335.383 Q843.662 336.702 846.232 336.702 Q849.773 336.702 851.903 334.202 Q854.056 331.679 854.056 327.512 L854.056 326.563 L849.819 326.563 M858.315 324.804 L858.315 339.596 L854.056 339.596 L854.056 335.661 Q852.597 338.022 850.421 339.156 Q848.245 340.267 845.097 340.267 Q841.116 340.267 838.755 338.045 Q836.417 335.799 836.417 332.049 Q836.417 327.674 839.333 325.452 Q842.273 323.23 848.083 323.23 L854.056 323.23 L854.056 322.813 Q854.056 319.874 852.111 318.276 Q850.19 316.656 846.695 316.656 Q844.472 316.656 842.366 317.188 Q840.259 317.721 838.315 318.786 L838.315 314.85 Q840.653 313.948 842.852 313.508 Q845.051 313.045 847.134 313.045 Q852.759 313.045 855.537 315.962 Q858.315 318.878 858.315 324.804 Z" fill="#000000" fill-rule="nonzero" fill-opacity="1"></path></svg>